<svg width="58" height="57" viewBox="0 0 58 57" fill="none" xmlns="http://www.w3.org/2000/svg">
<path d="M40.7 18.7454L37.4 15.5402L39.7 13.3063C40.1 12.9178 40.1 12.3351 39.7 11.9466L27.7 0.291379C27.3 -0.0971265 26.7 -0.0971265 26.3 0.291379L0.3 25.5443C-0.1 25.9328 -0.1 26.5155 0.3 26.904L12.3 38.5592C12.5 38.7534 12.8 38.8506 13 38.8506C13.2 38.8506 13.5 38.7534 13.7 38.5592L36 16.9L38.6 19.4253L23.3 34.2856C22.9 34.6741 22.9 35.2569 23.3 35.6454C23.5 35.8397 23.8 35.9368 24 35.9368C24.2 35.9368 24.5 35.8397 24.7 35.6454L40.7 20.1052C41.1 19.7167 41.1 19.1339 40.7 18.7454Z" transform="translate(14 4.51221)" fill="#FD5E5E"/>
<path d="M15.2 0L3.3 11.558C2.9 11.9466 2.9 12.5293 3.3 12.9178L5.6 15.1517L0.3 20.2994C-0.1 20.6879 -0.1 21.2707 0.3 21.6592C0.5 21.8534 0.7 21.9506 1 21.9506C1.3 21.9506 1.5 21.8534 1.7 21.6592L7 16.5115L9.3 18.7454C9.5 18.9397 9.8 19.0368 10 19.0368C10.2 19.0368 10.5 18.9397 10.7 18.7454L22.6 7.18736L15.2 0Z" transform="translate(0 35.0099)" fill="#244864"/>
<path d="M13.3 8.06149L5.3 0.291379C4.9 -0.0971265 4.3 -0.0971265 3.9 0.291379L0 4.07931L9.4 13.2092L13.3 9.42126C13.7 9.03276 13.7 8.45 13.3 8.06149Z" transform="translate(44.4004 0.627136)" fill="#244864"/>
</svg>
