<svg id="Layer_1" data-name="Layer 1" xmlns="http://www.w3.org/2000/svg" xmlns:xlink="http://www.w3.org/1999/xlink" viewBox="0 0 538.05 434.89" width="406" height="306" class="illustration styles_illustrationTablet__1DWOa"><defs><linearGradient id="linear-gradient" x1="320.77" y1="182.33" x2="298.92" y2="397.3" gradientUnits="userSpaceOnUse"><stop offset="0" stop-color="#010101" stop-opacity="0"></stop><stop offset="0.95" stop-color="#010101"></stop></linearGradient><linearGradient id="linear-gradient-2" x1="417.47" y1="192.15" x2="395.63" y2="407.12" xlink:href="#linear-gradient"></linearGradient><linearGradient id="linear-gradient-3" x1="244.82" y1="339.43" x2="119.45" y2="208.68" xlink:href="#linear-gradient"></linearGradient><linearGradient id="linear-gradient-4" x1="227.2" y1="327.83" x2="99.67" y2="284.24" xlink:href="#linear-gradient"></linearGradient><linearGradient id="linear-gradient-5" x1="204.09" y1="200.01" x2="189.03" y2="393.71" xlink:href="#linear-gradient"></linearGradient><linearGradient id="linear-gradient-6" x1="236.57" y1="168.89" x2="242.31" y2="329.24" xlink:href="#linear-gradient"></linearGradient><linearGradient id="linear-gradient-7" x1="320.61" y1="169.62" x2="404.94" y2="165.25" gradientUnits="userSpaceOnUse"><stop offset="0" stop-color="#fff" stop-opacity="0"></stop><stop offset="0.95" stop-color="#fff"></stop></linearGradient><linearGradient id="linear-gradient-8" x1="374.52" y1="327.37" x2="379.77" y2="151.73" xlink:href="#linear-gradient"></linearGradient><linearGradient id="linear-gradient-9" x1="375.31" y1="301.44" x2="378.5" y2="194.31" xlink:href="#linear-gradient"></linearGradient><linearGradient id="linear-gradient-10" x1="381.9" y1="84.53" x2="341.71" y2="77.54" xlink:href="#linear-gradient"></linearGradient></defs><title>StartUP 1</title><path d="M188.15,26.44C151.29,41.05,129.9,78.59,102,106.79,86,123,67.45,136.38,51,152.12S20,186.72,15,208.92C5.49,251,32,292.1,38.94,334.68c2.21,13.6,2.44,27.63,6.85,40.67,3.49,10.32,9.49,19.65,16.43,28,28.11,34.06,73.1,53.47,117.17,50.55,29.07-1.93,57-12.88,86.15-14.09,43.93-1.83,88.27,18.57,130.88,7.76,19.65-5,37.05-16.25,53.77-27.71,33.18-22.75,67.72-50.65,75.43-90.14,5.66-29-4.42-59.57,2.61-88.26,4.08-16.65,13.67-31.44,18.73-47.82,10.75-34.73-.73-74.24-25.22-101.11s-60.43-41.71-96.65-44.86c-23.75-2.07-47.65.54-71.49.08C295.42,46.69,248.52,2.51,188.15,26.44Z" transform="translate(-12.95 -19.35)" fill="#663da4" opacity="0.24" style="isolation: isolate;"></path><path d="M138.42,372.6c-2.48.5-5.12,1.15-6.79,3-2.35,2.68-1.82,7,.33,9.85s5.5,4.47,8.82,5.74c15.64,6,32.82,6.05,49.56,6.07,33.79,0,68.86-.2,99.46-14.55-24.73-9.55-47.76-9.08-73.5-10.9C189.52,370,165.21,367.12,138.42,372.6Z" transform="translate(-12.95 -19.35)" fill="#663da4" opacity="0.24" style="isolation: isolate;"></path><polygon points="328.63 197.09 312.73 205.8 290.19 261.47 337.91 235.34 328.63 197.09" fill="#663da4"></polygon><polygon points="397.18 197.09 413.08 205.8 435.62 261.47 387.9 235.34 397.18 197.09" fill="#663da4"></polygon><polygon points="328.63 197.09 312.73 205.8 290.19 261.47 337.91 235.34 328.63 197.09" fill="url(#linear-gradient)"></polygon><polygon points="397.18 197.09 413.08 205.8 435.62 261.47 387.9 235.34 397.18 197.09" fill="url(#linear-gradient-2)"></polygon><path d="M221.52,369a5,5,0,0,0,2.36,5.73,13.17,13.17,0,0,0,3.05.94,20.53,20.53,0,0,1,8.7,4.55,2.85,2.85,0,0,1,1.28,2.46c-.23,1.11-1.53,1.58-2.63,1.84a42.55,42.55,0,0,1-7.06,1.29c-4.85.33-9.65-1-14.33-2.35-1.78-.51-4.46-1.28-4.87-3.35a20.44,20.44,0,0,1,.2-4.27l.31-7.2" transform="translate(-12.95 -19.35)" fill="#606161"></path><path d="M193.89,377.59a3.05,3.05,0,0,0,.68,3.25,11.69,11.69,0,0,0,2.85,2.05,26.81,26.81,0,0,1,7.2,6.39c.92,1.17,1.78,2.7,1.2,4.07a3.56,3.56,0,0,1-1.41,1.52,11.44,11.44,0,0,1-6.6,1.52c-5.81-.15-14.4-3.78-16.08-10.07-.53-1.95.05-4.62.13-6.63l.21-4.85" transform="translate(-12.95 -19.35)" fill="#606161"></path><path d="M226.82,257.77l-4.52,113a10.69,10.69,0,0,1-6,2.07c-4.17.24-4.92.54-7.92-2.19L195.28,252.14l31.54-.66Z" transform="translate(-12.95 -19.35)" fill="#606161"></path><path d="M226.82,257.77l-4.52,113a10.69,10.69,0,0,1-6,2.07c-4.17.24-4.92.54-7.92-2.19L195.28,252.14l31.54-.66Z" transform="translate(-12.95 -19.35)" fill="url(#linear-gradient-3)"></path><path d="M209,267.92l-13,109.9s-1.88,1.93-7,2c-5.81.07-6.34-.72-7.64-3.66L178.79,250.1l29.85,5.09Z" transform="translate(-12.95 -19.35)" fill="#606161"></path><path d="M209,267.92l-13,109.9s-1.88,1.93-7,2c-5.81.07-6.34-.72-7.64-3.66L178.79,250.1l29.85,5.09Z" transform="translate(-12.95 -19.35)" fill="url(#linear-gradient-4)"></path><path d="M213.05,256.92a67.38,67.38,0,0,1-12.53,2.94c-5.65.58-11.57-2.15-16-2.38-5.91-.3-6.07-.49-6.07-4.34,0-1.94,49.14-6.59,49.14-6.59s-.23,3.55-.22,6.83c0,2.46-1.05,2.32-5.52,2.58S216.52,254.86,213.05,256.92Z" transform="translate(-12.95 -19.35)" fill="#f2fbff"></path><path d="M193.66,170.16s-8.24,2.14-14.12,6.42c-3.63,2.64-1.12,76.56-1.12,76.56.36-.06,16.15,6.34,31.42,3.71,13-2.24,17.69-8.34,17.69-8.34s1.17-70.93-1.36-73.84c-1.12-1.3-13.49-5.87-13.49-5.87S207.28,176.92,193.66,170.16Z" transform="translate(-12.95 -19.35)" fill="#663da4"></path><path d="M193.66,170.16s-8.24,2.14-14.12,6.42c-3.63,2.64-1.12,76.56-1.12,76.56.36-.06,16.15,6.34,31.42,3.71,13-2.24,17.69-8.34,17.69-8.34s1.17-70.93-1.36-73.84c-1.12-1.3-13.49-5.87-13.49-5.87S207.28,176.92,193.66,170.16Z" transform="translate(-12.95 -19.35)" fill="url(#linear-gradient-5)"></path><path d="M196.36,153.74l-2.7,16.42s6,8.84,13.67,7.52,5.74-4.88,5.74-4.88l-1-13.87S205.18,160.14,196.36,153.74Z" transform="translate(-12.95 -19.35)" fill="#c8a59c"></path><path d="M195.41,159.5l1-5.76c8.82,6.4,13.4,3.68,13.4,3.68l2.13,7.45a7.14,7.14,0,0,1-4.54,2.18C203.12,167.35,198.84,164,195.41,159.5Z" transform="translate(-12.95 -19.35)" fill="#b58b81"></path><path d="M194,168.18l-8,3.76S198.6,185.26,202.44,185c0,0,3.63-6.74,7-7.8Z" transform="translate(-12.95 -19.35)" fill="#f2fbff"></path><path d="M212.53,170.47a23.58,23.58,0,0,1-3.06,6.72c.75.29,5.64,3.7,5.72,6,0,0,4.86-11,2.85-12.73a52.4,52.4,0,0,0-5.17-2.29Z" transform="translate(-12.95 -19.35)" fill="#f2fbff"></path><path d="M182.79,174.63s-12.37,4-13.77,23.75c-1.28,18-4.5,31.07-1.88,36.4,3.41,6.95,27.26,8.1,27.26,8.1a25.38,25.38,0,0,0-.43-10.4l-13.07-5.22S183,177.71,182.79,174.63Z" transform="translate(-12.95 -19.35)" fill="#663da4"></path><path d="M189.45,141.78c.65,9.11,10,25.21,19.1,24.56s11.75-19.5,11.1-28.61-5.76-14.28-14.88-13.63A16.54,16.54,0,0,0,189.45,141.78Z" transform="translate(-12.95 -19.35)" fill="#c8a59c"></path><path d="M210.9,241.45c-.22-1.74.6-3.41.84-6.37s-1.68-3.73-4.49-4c-.77-.09-1.37-.18-1.88-.26-2.62.63-.53,3.81-.39,6s-.35,5.33.41,6c.32.29,2.73.16,5.52-.2A4.75,4.75,0,0,0,210.9,241.45Z" transform="translate(-12.95 -19.35)" fill="#b58b81"></path><path d="M212.63,156.93s-.25-.23-2.16-.09a27.94,27.94,0,0,1-6.77-.48c-1.47-.37-2.17-.14-2,1.83s1.71,3.72,5.57,3.93c4.33.23,6.15-1.4,6.49-3.35C214,157.36,213.11,156.89,212.63,156.93Z" transform="translate(-12.95 -19.35)" fill="#c8a59c"></path><path d="M196,232.79a39.42,39.42,0,0,0,4.79-1.34c2.06-.78,2.71-.32,5.73,0s5.09,1.09,4.83,4.12-1.13,4.73-.9,6.5-.32,3.29-3,3.35S196,242.78,196,242.78" transform="translate(-12.95 -19.35)" fill="#c8a59c"></path><path d="M193.08,232h4.59s2,6.62-.6,11.21L192,243S193.72,236.56,193.08,232Z" transform="translate(-12.95 -19.35)" fill="#f2fbff"></path><ellipse cx="182.45" cy="214.79" rx="1.01" ry="1.07" fill="#d2e8ec"></ellipse><path d="M213.29,146.08h0a4.53,4.53,0,0,1,.49-3.45,4.46,4.46,0,0,1,2.78-2.09,4.55,4.55,0,1,1,2.28,8.8l-.16,0A4.55,4.55,0,0,1,213.29,146.08Zm3.54-4.48a3.46,3.46,0,0,0-2.48,4.21h0a3.46,3.46,0,1,0,2.6-4.24Z" transform="translate(-12.95 -19.35)" fill="#292f67"></path><path d="M204,149.41a5.14,5.14,0,0,1-2.38-3.16h0a5.16,5.16,0,1,1,6.3,3.71l-.19,0A5.09,5.09,0,0,1,204,149.41Zm1.6-8.39a4.06,4.06,0,0,0-2.92,5,4.07,4.07,0,1,0,3.07-5Z" transform="translate(-12.95 -19.35)" fill="#292f67"></path><path d="M213.17,145l1.05-.31a1.47,1.47,0,0,0-.88-.93,3.28,3.28,0,0,0-2.74.47l.52,1c1.07-.58,1.59-.52,1.8-.43A.43.43,0,0,1,213.17,145Z" transform="translate(-12.95 -19.35)" fill="#292f67"></path><polygon points="189.1 125.36 189.06 124.27 182.82 124.45 182.87 125.54 189.1 125.36" fill="#292f67"></polygon><path d="M226.17,174.67s6.91,19.26,11.21,34.87,17,.27,17,.27,7-.27,7.26,4-4,18-16.14,18.3-25-15.61-25-15.61Z" transform="translate(-12.95 -19.35)" fill="#663da4"></path><path d="M244.76,241.59l-24.69-.36a4.09,4.09,0,0,1-4.2-5.07l9.43-43.65a6.59,6.59,0,0,1,6.35-4.92l24.69.36a4.08,4.08,0,0,1,4.2,5.07l-9.42,43.65A6.6,6.6,0,0,1,244.76,241.59Z" transform="translate(-12.95 -19.35)" fill="#663da4"></path><path d="M244.76,241.59l-24.69-.36a4.09,4.09,0,0,1-4.2-5.07l9.43-43.65a6.59,6.59,0,0,1,6.35-4.92l24.69.36a4.08,4.08,0,0,1,4.2,5.07l-9.42,43.65A6.6,6.6,0,0,1,244.76,241.59Z" transform="translate(-12.95 -19.35)" fill="url(#linear-gradient-6)"></path><path d="M244.93,241.85l-23.62-.35a3.92,3.92,0,0,1-4-4.86l9-41.77a6.33,6.33,0,0,1,6.09-4.71l23.63.35a3.91,3.91,0,0,1,4,4.86l-9,41.77A6.33,6.33,0,0,1,244.93,241.85Z" transform="translate(-12.95 -19.35)" fill="#663da4"></path><path d="M260.84,211.82a7.43,7.43,0,0,0-.61-2.81,4.67,4.67,0,0,0-1.52-2.3,5,5,0,0,0-2.64-.64c-.93,0-1.87,0-2.8,0a7.88,7.88,0,0,0-3,.54,6.64,6.64,0,0,0-3,3.39c-1.28,2.73-1.55,6.2.28,8.59a11.93,11.93,0,0,0,2.82,2.42c1.15.79,2.5,1.62,3.85,1.25a4.75,4.75,0,0,0,1.72-1.06l2-1.66a6.57,6.57,0,0,0,1.7-1.87,7.62,7.62,0,0,0,.52-2.95A29.63,29.63,0,0,0,260.84,211.82Z" transform="translate(-12.95 -19.35)" fill="#c8a59c"></path><path d="M218.43,125.92a24.86,24.86,0,0,0-5.52-8.11l-.19,1.83a31.7,31.7,0,0,0-11.91-2.84l.36,1.28a16.5,16.5,0,0,1-4.27-1.73l-1.29,2.3a13.21,13.21,0,0,0-2.86-1.73l-1.67,6a6.18,6.18,0,0,1-1.3-.93c-.44-.3-1.15-.39-1.43.06a1.29,1.29,0,0,0-.13.7l0,2.58-2.46-.88a.79.79,0,0,0-.67,0,.78.78,0,0,0-.28.55c-1.79,8.94,2,20.57,7.89,27.52a5.28,5.28,0,0,0-.32-3.19c-.49-1.28-2-2-1.74-3.35a2.78,2.78,0,0,1,2.75-2.5c1.91.22,1.2.92,2.56,2.28.48-2.65-.67-7,.16-9.55a4.65,4.65,0,0,1,7.23-1.85c-.06-1.7,1.94-2.79,3.64-2.73s3.63.71,5.43.93c1.53.18,3.1,1.25,4.57,1.23C220.76,133.73,219.24,128.05,218.43,125.92Z" transform="translate(-12.95 -19.35)" fill="#606161"></path><ellipse cx="362.07" cy="340.48" rx="27.53" ry="3.35" fill="#663da4" opacity="0.24" style="isolation: isolate;"></ellipse><ellipse cx="360.4" cy="360.25" rx="44.65" ry="5.43" fill="#663da4" opacity="0.24" style="isolation: isolate;"></ellipse><ellipse cx="361.23" cy="318.72" rx="69.94" ry="8.51" fill="none" stroke="#fff" stroke-miterlimit="10" stroke-width="6.21" style="isolation: isolate;"></ellipse><path d="M375.74,75.1s-75.15,44.13-31,181.76H406S451.48,147.34,375.74,75.1Z" transform="translate(-12.95 -19.35)" fill="#663da4"></path><path d="M375.74,75.1s-75.15,44.13-31,181.76H406S451.48,147.34,375.74,75.1Z" transform="translate(-12.95 -19.35)" fill="url(#linear-gradient-7)"></path><circle cx="361.51" cy="145.29" r="20.57" fill="#663da4"></circle><path d="M349.88,305.21l7.56-13.77a152.3,152.3,0,0,0,12.28,49c12.21-12.15,15.27-30.49,17.63-47.55q5.2,12.56,9.29,25.53a56.61,56.61,0,0,0,5.15-35.6l4.7,8a46.78,46.78,0,0,0-3.87-34.61q-14.56,1.08-29.18,1.43-7,.18-14.06.18c-3.09,0-8.78-1.21-11.6.36-5.42,3-3.44,15.93-3.1,21.24a97.42,97.42,0,0,0,1.73,13.07C346.82,294.52,350.65,303.81,349.88,305.21Z" transform="translate(-12.95 -19.35)" fill="#663da4"></path><path d="M349.88,305.21l7.56-13.77a152.3,152.3,0,0,0,12.28,49c12.21-12.15,15.27-30.49,17.63-47.55q5.2,12.56,9.29,25.53a56.61,56.61,0,0,0,5.15-35.6l4.7,8a46.78,46.78,0,0,0-3.87-34.61q-14.56,1.08-29.18,1.43-7,.18-14.06.18c-3.09,0-8.78-1.21-11.6.36-5.42,3-3.44,15.93-3.1,21.24a97.42,97.42,0,0,0,1.73,13.07C346.82,294.52,350.65,303.81,349.88,305.21Z" transform="translate(-12.95 -19.35)" fill="url(#linear-gradient-8)"></path><path d="M360.28,287.92l4.6-8.4a93,93,0,0,0,7.5,29.88c7.44-7.41,9.31-18.6,10.75-29q3.18,7.67,5.67,15.58a34.56,34.56,0,0,0,3.14-21.72l2.86,4.9A28.51,28.51,0,0,0,392.44,258q-8.88.66-17.79.88-4.29.1-8.58.1c-1.88,0-5.35-.74-7.07.22-3.31,1.85-2.11,9.72-1.9,13a61,61,0,0,0,1.06,8C358.41,281.4,360.74,287.07,360.28,287.92Z" transform="translate(-12.95 -19.35)" fill="url(#linear-gradient-9)"></path><path d="M360.38,89.15s15.58,5.25,28.25,0L376.05,75.47a3.09,3.09,0,0,0-4.67.14Z" transform="translate(-12.95 -19.35)" fill="#663da4"></path><path d="M360.38,89.15s15.58,5.25,28.25,0L375.9,75.31a2.9,2.9,0,0,0-4.38.13Z" transform="translate(-12.95 -19.35)" fill="url(#linear-gradient-10)"></path><path d="M401.11,307c10.48,1,17.16,2.63,17.16,4.41,0,3.16-21,5.72-47,5.72s-47-2.56-47-5.72c0-2.61,14.44-4.82,34.15-5.5" transform="translate(-12.95 -19.35)" fill="none" stroke="#fff" stroke-miterlimit="10" stroke-width="4.17" style="isolation: isolate;"></path></svg>