<?xml version="1.0" encoding="utf-8"?>
<!-- Generator: Adobe Illustrator 22.1.0, SVG Export Plug-In . SVG Version: 6.00 Build 0)  -->
<svg version="1.1" id="Layer_1" xmlns="http://www.w3.org/2000/svg" xmlns:xlink="http://www.w3.org/1999/xlink" x="0px" y="0px"
	 viewBox="0 0 284.4 295.4" style="enable-background:new 0 0 284.4 295.4;" xml:space="preserve">
<style type="text/css">
	.st0{fill:#D1A32C;}
	.st1{fill-rule:evenodd;clip-rule:evenodd;}
	.st2{fill-rule:evenodd;clip-rule:evenodd;fill:#FFD41C;}
	.st3{fill-rule:evenodd;clip-rule:evenodd;fill:#EAD4A3;}
	.st4{fill-rule:evenodd;clip-rule:evenodd;fill:#144E8C;}
	.st5{fill-rule:evenodd;clip-rule:evenodd;fill:#D1A32C;}
	.st6{fill:#FFFFFF;}
</style>
<path d="M119.3,207.2l1.2,1.6L119.3,207.2z"/>
<path class="st0" d="M119.3,207c0.3-3.1,0.9-7-1.4-8.6c-0.4,1.7-1.8,4.4-3.7,4.4c-2.1,0-3.6-0.3-5.6-0.5c-3.4-0.3-2.4-0.5-4.4-1.8
	c1-1.5,2.1-1.6,2.1-4.6v-0.5c0-4.8-7.7-15.1-10.7-15.8l-0.2,3.9v3.7c0,6.4,1.5,13.4,7.6,13.5l0.5,0.7c-3.2,0-7.2-1.4-10.3-2.2
	c-1.9-0.5-3.1-1-4.9-1.6c-2.7-0.9-2.2-0.3-3.6-2.9c1.9-0.5,3-2.9,3-5.3V188c0-3.8-4.9-14.5-7.2-15.1c-0.5,2-1.4,3.8-1.9,6.2
	c-0.3,1.6-0.6,4.6-0.6,7v0.9c0,3.3,1.8,7.9,5.5,7.9l0.6,0.9l-0.3,0.2c-0.1,0.1-4.1-1.9-4.6-2.1c-1.5-0.4-3.2-1.6-4.6-2.3
	c-2.4-1.2-7.4-3.2-7.7-6.3c2.9-0.7,4.4-3.9,4.4-7.4v-0.9c0-4.6-2.2-10.7-3.7-13.9c-1.8,0.5-6,11.1-6,14.4v2.1c0,2.4,1.9,5.3,3.9,5.8
	l0.3,0.7l-0.3,0.2c0,0-1.8-1.3-2-1.5c-0.7-0.6-1.3-0.9-2.1-1.4c-1.5-1.1-2.5-2.2-3.9-3.3c-2.1-1.8-6.4-4.3-6.4-7.7
	c4.7,0,6.5-5.8,6.5-10.7l0.2-1.6l-1.3-9.2c-1.8,0.5-6.4,7.5-7.5,9.4c-1.9,3.4-3,9.8,1,11.9l0.3,1l-0.3,0.2c0,0-1.3-1.5-1.5-1.8
	c-0.5-0.7-1.1-1.1-1.7-1.8c-1.1-1.3-2-2.3-3.1-3.6c-1.2-1.3-5.3-6.5-5.3-8.4v-1.2H40c2.5,0,5.5-3.8,6.1-6.2c0.9-3.4,2-6.2,2-10.5
	v-3.5c-1.9,0.4-6.3,4.8-7.7,6.2c-2,2-4.8,5.6-4.8,9.3c0,2.6,0.9,2.8,1.9,4.2v0.9c-1.2-0.9-8.8-15.2-8.6-16.7l0.3-2.1
	c0.8,0.2,1.1,0.5,2.1,0.5c3.9,0,6.8-4,8.1-6.7c2.2-4.4,2.5-6,3.7-11.4c-4.6,1.1-15.5,7.9-15.5,12.7c0,0.5,0.1,0.3,0.2,0.9l-0.5,0
	l0.3,1.8c-0.7-0.9-2.5-6.9-2.5-8.8c-0.9-0.3-0.1,0.1-0.4-1.3c-0.1-0.7-0.3-0.9-0.4-1.7c-0.2-1-0.6-2.5-0.6-3.6
	c0-0.7,0.7-1.3,0.9-2.1c0.9,0.2,1.2,0.7,2.1,0.7H28c4.3,0,6.6-3.7,8.7-6.1c0.7-0.8,5.9-8.8,4.9-9.4c-1.1-0.5-10,3-11.2,3.5
	c-2.5,1-7,4.8-7,8c0,0.7,0.2,1.6,0.5,2.1l-0.7,1.2c-0.1-2.6-0.9-5.9-0.9-8.8c0-3.2,0-6.2,0-9.3l1.2-1.8c1.3,0.1,1.6,1.2,3.5,1.2h1.4
	c3.8,0,6.9-2.8,8.9-4.8c1.3-1.3,5.8-6.1,6-7.9h-0.9c-5.1,0-8.7,0.9-12.6,2.2c-2.6,0.9-8,4.4-6.2,8.2l-1.1,1L22,98.7l2.8-18l2.3-2.1
	c1.5,1,2.3,2.1,4.9,2.1h0.2c5,0,15.2-7.4,16-10.3L42.8,70h-5.6c-4.9,0-8.5,1.9-10.4,5.6l0.1,1.8l-1.4,1.1l-0.2-0.3
	c-0.1-0.1,3-9.3,3.3-10.3c1.1-4,2.5-6.2,5.5-8.2c0.5,1.9,2.9,3,5.3,3h1.9c3.5,0,14.3-5.1,14.8-7.2c-5.2-1.2-6.9-2.5-13.7-2.5h-0.2
	c-3.4,0-8.3,1.7-8.4,5.5l-1.6,0.7c1.3-2.5,2.9-6,4.5-8.2c1-1.4,1.2-2.6,2.7-3.5c1.5-0.9,2.8-1.4,4.3-2.2c4.3,8.1,21.4-1.9,22-4.2
	l-6.4-1.9l-0.1,0.3l-0.7-0.5c-0.4,0.2-6.9-0.7-9.6,0.1c-2.6,0.8-5.1,1.9-5.2,5.1l-3,1.1l-0.3-0.3l8.6-10.4c0.6,0.1,1.5,0.5,2.1,0.5
	c7.1,0,12.5-13.7,12.5-20.6c-5.5,2.9-16.7,8.1-16.7,16c0,1.5,0.4,2.3,0.9,3.2c-0.8,1.2-2,1.9-2.9,3.1c-0.8,1.1-1.9,2.4-2.8,3.4
	c-1.4,1.6-4.2,6-5.4,6.9c-0.1-0.5-0.2-0.5-0.2-1.2V45c0-0.5,3.9-2.3,3.9-7.9c0-2.4-1.6-7.7-2.4-9.4c-0.8-1.7-3.8-6.7-4.1-7.7
	c-1.8,1.3-4.1,10.3-4.2,13.2c-0.2,5.4,0.2,11.1,5.6,11.6V48c0,2.7-3.3,6.7-4.3,9.1c-0.8,1.9-4.1,7.8-4.5,9.2l-1-3.1
	c2.1-0.5,3-3.1,3-5.8v-0.2c0-5.7-6.1-15.4-9.9-17.9l-1.7,10.9l0.2,0v2.1c0,5.2,2.6,11.2,7.5,11.3l0.6,5.6c0.1,0.6-4.9,13.8-4.9,17.6
	l-0.4,0l-0.7-2.3c1-0.4,1.6-1.9,1.6-3.2v-1.6c0-3.8-3.6-7.9-5.6-9.9c-0.7-0.7-8.5-8.1-8.5-5.9v1.4c0,5.7,1.2,8.3,2.2,12.6
	c0.7,2.9,4.1,7.6,7.3,7.6h0.2c0.8,0,0.9-0.2,1.6-0.2c2,3.9,1.4,5.9,0.9,10.4c-0.4,4-0.5,8-0.5,12.5c-0.3-0.2-1.4-1.7-1.4-2.1
	c0-0.4,0.9-1.4,0.9-3c0-6.9-12-14.2-17.8-15.5c0.3,3.7,2.8,9.3,4.3,12.2c1.5,3.1,4.7,7.7,9,7.7c1.3,0,1.7-0.4,2.8-0.5
	c0.3,1,1.8,3.1,2.4,4.6c0.4,1,0.7,4.7,0.9,6.1c0.5,4.3,1.1,7.3,2,11.6l-1.6-1.7c1.3-5.5-2.7-8.3-6.5-10.2c-2.9-1.4-9.5-3.7-13.7-3.7
	c-1.5,0,8,16,14.4,16c0.5,0,0.3-0.1,0.9-0.2v0.5c2.3,0,2.9-0.5,4.2-1.4c0.9,1.3,2.6,2.8,3.3,4.2c0.3,0.7,1.5,4.7,1.8,5.6
	c0.6,1.8,1.6,3.6,2.1,5.3c0.6,2,2,3.8,2.3,5.3l-1.9-0.9c0-5-3.5-7.3-7.3-8.4c-4.8-1.4-8.4-1.1-14-1.1H4.3c0.7,3.2,11.5,12.5,16,12.5
	h2.1c2.3,0,3.4-0.6,4.4-2.1c4,2.7,4.8,4.7,7.2,8.8c1.1,1.8,5.3,8.2,6.8,9.3l-0.2,0l-2.1-0.5c-0.7-0.5-0.6-2.9-3.4-4.7
	c-1.6-1-4-1.8-6.5-1.8h-1.9c-3.5,0-10.6,1.7-13,2.8c0.6,2.3,12.7,8.3,16.7,8.3h2.5c0.3-1-0.1,0,1.2-0.4c0.5-0.1,1.1-0.6,1.5-0.8
	c1.4-0.8,1.3-0.9,2.1-2.3c5.7,1.3,5.9,3.5,9.3,6.9c2.9,2.9,5.5,5.3,8.5,8l-2.8-0.3c-0.2-2.8-4.6-4.6-7.9-4.6c-3.5,0-6.5,1.2-9.1,2.2
	c-1.6,0.6-2.7,1-4.1,1.7c-1.1,0.5-2.9,1.9-3.7,2.1v0.5c1.7,0.4,4.6,1.9,6.9,2.6c2.2,0.7,5.5,1.8,8.2,1.8h1.9c3.4,0,7.4-2,7.6-5.1
	c5.4,0,7.5,2.8,10.8,5c2.6,1.8,7.9,4.4,9.9,6.1l-2.8,0.3c-0.4-1.7-3-3.2-5.1-3.2h-1.9c-4.2,0-16.2,7.4-16.9,10.1l11.4,1.2h0.9
	c5.3,0,11.8-1.8,11.8-7.2h3c2.7,0,7.4,2.3,9.2,3.1c1.6,0.7,8,3.4,9.6,3.6l-1.9,0.5c-3.9-2.6-2.1-1.4-7.1-1.6c-1.6,0-5.1,2.2-6.2,3.1
	c-1.9,1.6-8.8,7.9-9,10.3h2.1c8.3,0,20.4-2,20.4-9.7l0-1.2l5.1-0.5c0.7-0.1,7.1,1.4,7.4,1.7c2.1,1.6,0.7,4.9-0.3,6.6
	c-0.9,1.6-2.9,3.5-4.1,5.1c-2,2.7-1.9,2.8-3.3,5.8l-0.1,2.5v0.2c0,1.4,0,4.5,1.4,4.9c-0.1-0.7-0.2-0.8-0.2-1.6v-0.5
	c0-9.5,12.7-13.8,12.7-18.5v-0.9c0-0.8-1-2.2-1.4-2.7l4.4,0.6c2.6,0,3.6-0.3,4.6,1.4c0.6,1,1.5,3.5,2.1,4.2L119.3,207z"/>
<path class="st0" d="M242,40.3c-0.8-1-5.2-6-6.1-6.2c0.7-2.8,1.9-3.4,0.3-7c-0.9-2.2-2.1-3.8-3.8-5.2c-3.5-3-6.7-4.7-11-6.9
	c-1.8-0.9-1.6-0.7-1.1,1.6c0.3,1.3,0.6,2.2,0.9,3.5c0.8,2.7,1.5,4.4,2.4,6.7c1.4,3.5,4.8,8.3,9.5,8.3c0.2,0,1.5-0.4,1.9-0.5
	l8.6,10.6c-0.3,0-3.3-1-3.4-1.1c-0.2-0.2-0.2-2-1.3-3.1c-1.8-1.8-3.4-2-6.5-2.3c-1.8-0.2-6,0.1-7.5,0.4c-2.3,0.4-5.3,1.8-6.9,2
	c0.4,1.4,8.3,5.5,10.2,6.3c1.7,0.8,4.8,1.2,7,0.9c4.4-0.7,3-1.5,5.1-3c3.9,2.6,4.4,0.8,7,5.8c0.6,1.3,1.6,2.6,2.3,3.9
	c0.8,1.4,1.3,2.7,2.1,4.2l-1.6-0.8c-0.1-3-4.2-5.9-7-5.3c-0.4-0.3-0.4-0.5-0.9-0.5h-0.5c-6.4,0-9,1.7-13.7,2.8
	c0.6,2.2,11.5,7.2,14.6,7.2h2.3c3.3,0,3.8-2.1,5.1-3c4,2.7,3.4,3.8,5.3,8.1c0.8,2,2.9,8.1,3,10.4l-1.1-0.7c0-5.4-5.9-7.6-11.4-7.6
	h-3l-7,0.6c0.4,1.5,5.3,5.5,6.8,6.5c2.4,1.6,5.6,3.8,9.4,3.8c1.6,0,4.3-0.8,4.6-2.1c3.2,2.2,2.5,3,3.5,7.1c0.7,2.8,1.1,6.3,1.1,9.1
	v0.5c0,0.5,0.2,0.5,0.5,0.9l-0.3,2.1l-0.6-0.5c0.1-0.5,0.2-0.5,0.2-1.1c0-6.9-11.6-9.3-19-9.3h-0.5c-0.4,0-0.4,0.1-0.7,0.2
	c0.2,0.9,5.1,6.9,6,7.7c1.9,1.7,5.3,4.8,8.6,4.8h1.9c1.7,0,2.1-0.9,3.2-1.2c0.2,0.9,1.2,1.4,1.2,2.1v7l-0.8,10.4l-0.8-0.9
	c0.2-0.4,0.3-0.4,0.3-1v-1.2c0-6.1-12.1-10.9-18.1-11.4c0,1.8,4,8.1,5,9.6c0.8,1.2,2.4,2.9,3.5,3.7c2,1.5,3.6,1.6,4.5,2.2
	c1.4-0.9,1.6,0.8,4.2-0.9c1.3,2.4,1.4,1.7,0.7,4.9c-0.3,1.6-0.7,3.5-1.2,5.1c-0.5,1.6-0.8,3.5-1.2,4.8c-0.4,1.4-1.5,3.8-1.5,4.7
	c-1-0.7,0.2-0.7,0.2-2.5V134c0-3.3-3.4-6.6-5.8-8.3c-1.9-1.3-7.2-4.7-9.7-4.9v0.7h0.5c-0.7,1.4,2.6,9.6,3.4,11
	c1.5,2.7,4.4,6.4,8.4,6.4c0.7,0,1.2-0.3,1.9-0.5c-0.7,1.4,0.4,1.3-0.3,3c-0.4,1-0.3,1.1-0.8,2.2c-0.7,1.7-1.5,3-2.3,4.6
	c-1.2,2.4-3.5,7.1-5,8.9V156c0.7-0.5,1.6-1.7,1.6-2.8v-2.3c0-4.3-9.5-14.1-12.5-14.4c0,4.2,0.7,9.8,1.5,12.7
	c0.8,2.9,3.7,7.5,7.1,7.5h1.4c0,3.7-3.5,6.8-5.2,9.1c-1.1,1.5-5.4,6.8-6.6,7.6c0.2-2,2.8-1.8,2.8-6v-0.9c0-4.3-6.7-15.3-9.3-15.5
	l-1.1,7.6l0.1,4l0.6,4.8c1.1,1,1.5,5.1,5.8,5.1c-0.3,3.6-4.3,5.9-6.5,7.8c-1.8,1.5-6.1,5.1-8.1,6.1c0.4-1.8,3.9-1.7,3.9-7.2v-0.9
	c0-3-0.9-5.9-1.9-8.1c-0.5-1.2-1.1-2.5-1.6-3.7c-0.4-0.9-1.6-2.6-1.8-3.3c-1.8,0.5-4.2,10.2-4.2,13v2.1c0,3.5,1.7,7.2,4.6,7
	c-1.4,2.7-0.6,2.2-3.3,3.8c-1.6,1-2.9,1.7-4.5,2.6c-1.4,0.8-8.3,4.1-9.7,4.4l0.7-1.2c3.8,0,5.6-5.1,5.6-9c0-5-1.6-9.1-2.5-13H203
	c-0.4,1.5-3.3,4.6-4.1,6.8c-1.1,2.9-2.3,4.4-2.3,7.8v1.2c0,2.3-0.5,1.5,0.5,3.7c0.4,0.9,1.2,2.1,2.3,2.3c-0.2,2.2-2,2.4-3.2,2.8
	c-1.6,0.5-3.2,1.1-4.9,1.6c-2.1,0.6-8.2,2.3-10.7,2.3l0.5-0.7c6,0,7.8-6.9,7.8-13v-3l-0.4-5.1c-1.4,0.4-5.5,5.2-6.5,6.5
	c-1.9,2.4-4,4.8-4,9v0.9c0,1.6,0.6,3.6,1.9,3.9c-0.2,2.6-5.2,2.2-7.8,2.6c-3.4,0.6-5.4-1.6-5.7-4.3c-2.9,0.8-1.4,8.1-1.4,11.4v2.1
	c0,0.6-0.1,0.6-0.2,1.2c2-1.4,1.6-4.5,3.9-6l7.2-0.7l0-0.3c-0.3,1.2-0.9,1.5-0.9,3v0.5c0,2.9,5.4,7,7.4,8.6c1.9,1.6,6,6.8,5.4,10.4
	l-0.3,1.8l0.5,0c0.1-1.5,0.7-2.3,0.7-4.2v-2.3c0-5.8-8.8-11.2-8.8-15.8c0-1.3,0.6-1.8,0.7-3c1.3-0.3,7-1.7,8.1-1.6l4.6,0.5v1.6
	c0,7.1,12.7,9.3,20.6,9.3h1.9c-0.8-3.6-11.3-13.7-16.2-13.7h-2.3c-1.4,0-2.6,1.3-3.5,1.9l-1.8-0.5c0.6-0.4,7.8-2.9,9.2-3.3
	c2.9-1,5.8-3.4,9.1-3.4h2.8c0.8,0,0.9,2.2,1.8,3.3c0.5,0.6,2,1.9,2.7,2.4c1.2,0.7,5.5,1.5,8,1.5h1.2l10.9-1.1l0-0.3
	c-0.4-1.6-5.8-5.3-7.4-6.3c-2.3-1.3-6.3-3.7-9.7-3.7h-1.2c-2.9,0-4.6,1.3-5.6,3.2l-3,0c0,0,9.5-6,10-6.2c0.7-0.3,3.8-2.8,4.7-3.4
	c1.1-0.8,4.3-1.7,6.2-1.7c0.1,2.7,4.5,5.1,7.4,5.1h1.9c2.7,0,6.3-0.9,8.3-1.6c1.6-0.6,5.8-2.4,7-2.8c-0.6-2.1-12.6-6.5-16.5-6.5
	h-0.5c-3.3,0-7.4,1.7-7.7,4.6l-2.8,0.3c2.9-2.6,5.8-5.2,8.5-8c2.4-2.5,4.7-6.8,9.3-6.9c0.5,2,3.3,3.5,5.8,3.5h1.9
	c3,0,6.8-2.2,9.1-3.2c2.3-1,6-4.3,7.3-4.7v-0.5c-4.3-1-7.7-2.8-13.4-2.8h-1.4c-4.2,0-9.5,2.3-9.5,6.3l-2.5,0.7c0-0.1,6-8.8,6.4-9.4
	c2.8-4,2.5-6.2,7.3-8.7c0.7,1.4,2.3,2.1,4.4,2.1h0.7c4.3,0,7.5-2.4,10.1-4.7c1.4-1.2,6.9-6.4,7.2-7.8h-1.6c-5.1,0-9.7-0.4-13.8,1
	c-3.4,1.1-7.7,3.5-7.7,7.8c0,0.1,0.2,0.4,0.2,0.7l-1.8,1c0.7-3,3.3-7.4,4.4-10.7c0.6-1.9,1-4,1.9-5.5c1-1.7,2.3-2.8,3.2-4.2
	c1,0.7,1.8,1.4,3.5,1.4c2.4,0,4.3-1.3,5.8-2.3c1.1-0.7,1.2-1,2.4-1.8c0.1-0.1,1.3-1.7,1.8-2.2c1.8-1.7,5.6-7.4,6.2-10
	c-7.5,0-20.9,4.5-20.9,12.3c0,1,0.5,0.9,0.5,1.6c0,0.3-1.3,1.4-1.6,1.6c0.2-2.1,1.1-3.6,1.2-5.8c0.1-1.9,0.7-4.1,0.9-6
	c0.7-5.5,0.7-6.9,3.3-10.7c0.6,0.4,1.2,0.7,2.3,0.7c4.5,0,7.7-4.4,9.3-7.4c1.1-2.2,4.2-9.6,4.2-12.5c-2,0.2-9.2,4.5-11,5.7
	c-2.8,1.8-6.6,5.5-6.6,9.8c0,1.5,0.4,2.3,0.9,3.2l-1.5,1.9c0-1,0.2-0.7,0.1-1.5l-1.1-16.5c-0.2-1,1.2-3.8,1.3-5.1
	c6,0.1,6.8-2.4,9.1-6.7c1.3-2.4,2.5-9.8,2.5-13.7V64c0-2.4-8.1,5.5-8.8,6.1c-2.3,2.3-5.6,6.1-5.6,10.6c0,2,1,3.2,1.8,4.4l-1.1,2.4
	l-0.9-3.8c0.6-1.5-4.1-12.3-4.1-14.1v-0.9l0.6-4.9c5-0.4,8-6.7,7.5-12.3l-0.5-6.9l-0.4,0c0.5-1-0.5-4.2-0.9-5.1
	c-2.7,1.8-9.7,12.3-9.7,17.2v1.4c0,1.9,0.9,3.6,1.9,4.6c2,1.9,0.7,1.1,0.4,4.2c-0.1-0.1-4.6-9.4-5-10.3c-2-4.9-4.1-3.9-4.1-11.7
	c2.2-0.2,2.9-0.6,4.2-2.3c0.7-0.9,1.6-3.7,1.6-5.3v-2.8c0-4.1-2.5-11.6-3.9-14.4c-2.4,1.8-6.7,12.5-6.7,16.7v0.7
	c0,4.1,1.2,5.7,3.9,7.2l-0.3,3C246.9,47.2,242.8,41.3,242,40.3"/>
<g>
	<path d="M84.7,70.5c-0.5-0.2-0.6-0.4-0.6-1.1c0-1.8,0.1-3.8,0.2-4.3c0-0.5,0.1-0.9,0.4-0.9c0.3,0,0.3,0.3,0.3,0.6
		c0,0.4,0.1,1.1,0.3,1.7c0.7,2.4,2.7,3.3,4.7,3.3c3,0,4.4-2,4.4-3.8c0-1.6-0.5-3.1-3.2-5.3l-1.5-1.2c-3.6-2.8-4.9-5.1-4.9-7.8
		c0-3.6,3-6.2,7.6-6.2c2.1,0,3.5,0.3,4.4,0.6c0.3,0.1,0.5,0.2,0.5,0.4c0,0.4-0.1,1.4-0.1,4c0,0.7-0.1,1-0.4,1
		c-0.2,0-0.3-0.2-0.3-0.6c0-0.3-0.2-1.3-0.9-2.2C95.1,48,94.1,47,92,47c-2.4,0-3.9,1.4-3.9,3.4c0,1.5,0.8,2.7,3.5,4.8l0.9,0.7
		c4,3,5.4,5.3,5.4,8.4c0,1.9-0.7,4.2-3.1,5.7c-1.6,1.1-3.5,1.4-5.2,1.4C87.6,71.4,86.1,71.1,84.7,70.5z"/>
	<path d="M108.5,47.8l-4.9,0.1c-1.9,0.1-2.7,0.2-3.2,1c-0.3,0.5-0.5,0.9-0.6,1.2c-0.1,0.3-0.2,0.4-0.4,0.4c-0.2,0-0.3-0.2-0.3-0.5
		c0-0.5,0.6-3.5,0.7-3.8c0.1-0.4,0.2-0.6,0.4-0.6c0.3,0,0.6,0.3,1.4,0.4c1,0.1,2.2,0.2,3.3,0.2H118c1.1,0,1.8-0.1,2.3-0.2
		c0.5-0.1,0.8-0.2,0.9-0.2c0.2,0,0.3,0.2,0.3,0.7c0,0.7-0.1,3-0.1,3.8c0,0.3-0.1,0.5-0.3,0.5c-0.3,0-0.3-0.2-0.4-0.7l0-0.4
		c-0.1-0.9-1-1.8-3.9-1.8l-4.2-0.1v13.5c0,3,0,5.6,0.2,7.1c0.1,0.9,0.3,1.7,1.3,1.8c0.5,0.1,1.2,0.1,1.7,0.1c0.4,0,0.5,0.1,0.5,0.3
		c0,0.2-0.3,0.3-0.6,0.3c-2.2,0-4.3-0.1-5.2-0.1c-0.8,0-2.8,0.1-4.2,0.1c-0.4,0-0.7-0.1-0.7-0.3c0-0.2,0.1-0.3,0.5-0.3
		c0.5,0,0.9-0.1,1.2-0.1c0.7-0.1,0.9-0.9,1-1.8c0.2-1.4,0.2-4,0.2-7V47.8z"/>
	<path d="M125.9,55.5c0-5,0-5.9-0.1-7c-0.1-1.1-0.3-1.6-1.4-1.9c-0.3-0.1-0.8-0.1-1.3-0.1c-0.4,0-0.6-0.1-0.6-0.3
		c0-0.2,0.2-0.3,0.7-0.3c0.9,0,1.8,0,2.7,0c0.9,0,1.6,0.1,2.1,0.1c1.1,0,7.6,0,8.2,0c0.6-0.1,1.2-0.1,1.4-0.2c0.2,0,0.4-0.1,0.5-0.1
		c0.2,0,0.2,0.1,0.2,0.3c0,0.2-0.2,0.6-0.3,2.1c0,0.3-0.1,1.8-0.2,2.2c0,0.2-0.1,0.4-0.3,0.4c-0.2,0-0.3-0.2-0.3-0.5
		c0-0.2,0-0.8-0.2-1.2c-0.2-0.6-0.6-1-2.2-1.2c-0.6-0.1-4-0.1-4.7-0.1c-0.2,0-0.2,0.1-0.2,0.3v8.3c0,0.2,0,0.4,0.2,0.4
		c0.7,0,4.5,0,5.3-0.1c0.8-0.1,1.3-0.2,1.6-0.5c0.2-0.3,0.4-0.4,0.5-0.4c0.1,0,0.2,0.1,0.2,0.3c0,0.2-0.1,0.7-0.3,2.4
		c0,0.7-0.1,2-0.1,2.2c0,0.3,0,0.6-0.3,0.6c-0.2,0-0.3-0.1-0.3-0.3c0-0.3,0-0.8-0.1-1.2c-0.2-0.7-0.6-1.2-1.8-1.3
		c-0.6-0.1-3.9-0.1-4.7-0.1c-0.2,0-0.2,0.1-0.2,0.3v2.6c0,1.1,0,4.2,0,5.1c0.1,2.3,0.6,2.8,4,2.8c0.9,0,2.2,0,3.1-0.4
		c0.9-0.4,1.3-1.1,1.5-2.4c0.1-0.4,0.1-0.5,0.4-0.5c0.3,0,0.3,0.3,0.3,0.6c0,0.8-0.3,3-0.4,3.7c-0.2,0.9-0.5,0.9-1.8,0.9
		c-2.5,0-4.3-0.1-5.7-0.1c-1.4-0.1-2.4-0.1-3.4-0.1c-0.4,0-1.1,0-1.9,0c-0.8,0-1.6,0.1-2.3,0.1c-0.4,0-0.7-0.1-0.7-0.3
		c0-0.2,0.1-0.3,0.5-0.3c0.5,0,0.9-0.1,1.2-0.1c0.7-0.1,0.8-0.9,1-1.8c0.2-1.4,0.2-4,0.2-7V55.5z"/>
	<path d="M142.3,49.2c-0.8-1.8-1.3-2.2-2.5-2.5c-0.5-0.1-1-0.1-1.3-0.1c-0.3,0-0.4-0.1-0.4-0.3c0-0.3,0.4-0.3,0.9-0.3
		c1.7,0,3.6,0.1,4.8,0.1c0.8,0,2.4-0.1,4.1-0.1c0.4,0,0.8,0.1,0.8,0.3c0,0.2-0.2,0.3-0.5,0.3c-0.5,0-1,0-1.3,0.2
		c-0.2,0.2-0.3,0.4-0.3,0.7c0,0.4,0.3,1.4,0.8,2.5l5.7,15h0.1c1.4-3.6,5.7-14.3,6.5-16.4c0.2-0.4,0.3-0.9,0.3-1.2
		c0-0.3-0.1-0.5-0.4-0.6c-0.4-0.1-0.9-0.2-1.3-0.2c-0.3,0-0.6,0-0.6-0.3c0-0.3,0.3-0.3,0.9-0.3c1.7,0,3,0.1,3.5,0.1
		c0.6,0,2.1-0.1,3.1-0.1c0.4,0,0.7,0.1,0.7,0.3c0,0.2-0.2,0.3-0.5,0.3c-0.3,0-1,0-1.6,0.4c-0.4,0.3-0.9,0.9-1.8,3
		c-1.3,3.1-2.2,4.9-4,8.9c-2.1,4.8-3.7,8.4-4.4,10.1c-0.9,1.9-1.1,2.4-1.5,2.4c-0.4,0-0.6-0.5-1.3-2L142.3,49.2z"/>
	<path d="M167.6,55.5c0-5,0-5.9-0.1-7c-0.1-1.1-0.4-1.7-1.1-1.8c-0.4-0.1-0.8-0.1-1.2-0.1c-0.3,0-0.5-0.1-0.5-0.3
		c0-0.2,0.3-0.3,0.8-0.3c1.3,0,3.3,0.1,4.3,0.1c0.8,0,2.8-0.1,4-0.1c0.4,0,0.7,0.1,0.7,0.3c0,0.3-0.2,0.3-0.5,0.3
		c-0.3,0-0.6,0-1,0.1c-0.9,0.2-1.2,0.7-1.2,1.9c-0.1,1.1-0.1,2-0.1,7v5.8c0,3.2,0,5.8,0.1,7.2c0.1,0.9,0.3,1.5,1.3,1.6
		c0.5,0.1,1.2,0.1,1.7,0.1c0.4,0,0.5,0.1,0.5,0.3c0,0.2-0.3,0.3-0.6,0.3c-2.2,0-4.3-0.1-5.1-0.1c-0.8,0-2.8,0.1-4.2,0.1
		c-0.4,0-0.7-0.1-0.7-0.3c0-0.2,0.1-0.3,0.5-0.3c0.5,0,0.9-0.1,1.2-0.1c0.7-0.1,0.9-0.7,1-1.6c0.2-1.4,0.2-4,0.2-7.2V55.5z"/>
	<path d="M180.9,55.5c0-5,0-5.9-0.1-7c-0.1-1.1-0.3-1.6-1.4-1.9c-0.3-0.1-0.8-0.1-1.3-0.1c-0.4,0-0.6-0.1-0.6-0.3
		c0-0.2,0.2-0.3,0.7-0.3c0.9,0,1.8,0,2.7,0c0.9,0,1.6,0.1,2.1,0.1c1.1,0,7.6,0,8.2,0c0.6-0.1,1.2-0.1,1.4-0.2c0.2,0,0.4-0.1,0.5-0.1
		c0.2,0,0.2,0.1,0.2,0.3c0,0.2-0.2,0.6-0.3,2.1c0,0.3-0.1,1.8-0.2,2.2c0,0.2-0.1,0.4-0.3,0.4c-0.2,0-0.3-0.2-0.3-0.5
		c0-0.2,0-0.8-0.2-1.2c-0.2-0.6-0.6-1-2.2-1.2c-0.6-0.1-4-0.1-4.7-0.1c-0.2,0-0.2,0.1-0.2,0.3v8.3c0,0.2,0,0.4,0.2,0.4
		c0.7,0,4.5,0,5.3-0.1c0.8-0.1,1.3-0.2,1.6-0.5c0.2-0.3,0.4-0.4,0.5-0.4c0.1,0,0.2,0.1,0.2,0.3c0,0.2-0.1,0.7-0.3,2.4
		c0,0.7-0.1,2-0.1,2.2c0,0.3,0,0.6-0.3,0.6c-0.2,0-0.3-0.1-0.3-0.3c0-0.3,0-0.8-0.1-1.2c-0.2-0.7-0.6-1.2-1.8-1.3
		c-0.6-0.1-3.9-0.1-4.7-0.1c-0.2,0-0.2,0.1-0.2,0.3v2.6c0,1.1,0,4.2,0,5.1c0.1,2.3,0.6,2.8,4,2.8c0.9,0,2.2,0,3.1-0.4
		c0.9-0.4,1.3-1.1,1.5-2.4c0.1-0.4,0.1-0.5,0.4-0.5c0.3,0,0.3,0.3,0.3,0.6c0,0.8-0.3,3-0.4,3.7c-0.2,0.9-0.5,0.9-1.8,0.9
		c-2.5,0-4.3-0.1-5.7-0.1c-1.4-0.1-2.4-0.1-3.4-0.1c-0.4,0-1.1,0-1.9,0c-0.8,0-1.6,0.1-2.3,0.1c-0.4,0-0.7-0.1-0.7-0.3
		c0-0.2,0.1-0.3,0.5-0.3c0.5,0,0.9-0.1,1.2-0.1c0.7-0.1,0.8-0.9,1-1.8c0.2-1.4,0.2-4,0.2-7V55.5z"/>
	<path d="M195.1,48.4c0-1.7,1.3-2.9,3-2.9c1.7,0,3,1.2,3,2.9c0,1.6-1.3,2.9-3,2.9C196.4,51.3,195.1,50.1,195.1,48.4z M200.5,48.4
		c0-1.4-1-2.3-2.4-2.3c-1.4,0-2.4,0.9-2.4,2.3c0,1.4,1,2.3,2.4,2.3C199.5,50.8,200.5,49.8,200.5,48.4z M196.9,47.9v-0.8
		c0-0.2-0.1-0.2-0.4-0.2c0,0-0.1,0-0.1-0.1c0-0.1,0.1-0.1,0.2-0.1l0.1,0c0.1,0,0.3,0,0.6,0c0.3,0,0.4,0,0.8,0c0.6,0,1.5,0.1,1.5,0.9
		c0,0.3-0.1,0.6-0.7,1l0.6,0.7c0.4,0.5,0.5,0.5,0.6,0.5c0.1,0,0.1,0,0.1,0.1c0,0.1,0,0.1-0.3,0.1c-0.4,0-0.8,0-1.3-0.6l-0.5-0.6
		h-0.4V49c0,0.6,0,0.7,0.1,0.7c0.1,0,0.2,0,0.3,0c0.1,0,0.1,0,0.1,0.1c0,0.1-0.1,0.1-0.1,0.1h-0.1c-0.1,0-0.4,0-0.5,0
		c-0.1,0-0.4,0-0.5,0h-0.2c-0.1,0-0.2,0-0.2-0.1c0-0.1,0-0.1,0.1-0.1c0.3,0,0.3,0,0.4-0.2c0-0.2,0-0.4,0-0.9V47.9z M197.6,48.3
		c0.1,0.1,0.3,0.1,0.5,0.1c0.1,0,0.2,0,0.3-0.1c0.2-0.1,0.3-0.3,0.3-0.6c0-0.4-0.3-0.7-0.8-0.7c0,0-0.2,0-0.3,0.1V48.3z"/>
</g>
<g>
	<path d="M68.3,136.2c-0.4-1.2-0.8-2-1.2-2.3c-0.4-0.2-1-0.3-1.3-0.3c-0.3,0-0.5,0-0.5-0.3c0-0.2,0.3-0.3,0.7-0.3
		c1.7,0,3.5,0.1,3.8,0.1c0.3,0,1.7-0.1,3.7-0.1c0.5,0,0.7,0.1,0.7,0.3c0,0.3-0.3,0.3-0.6,0.3c-0.3,0-0.6,0-0.8,0.1
		c-0.3,0.1-0.4,0.4-0.4,0.7c0,0.4,0.3,1.6,0.7,3c0.6,2.2,3.6,12.2,4.2,14h0.1l6.4-17.2c0.3-0.9,0.6-1.2,0.8-1.2c0.4,0,0.5,0.5,1,1.6
		l6.9,16.6h0.1c0.6-2.2,3.2-10.9,4.4-14.8c0.2-0.8,0.3-1.5,0.3-1.9c0-0.5-0.3-1-1.6-1c-0.3,0-0.6-0.1-0.6-0.3c0-0.2,0.3-0.3,0.8-0.3
		c1.7,0,3.1,0.1,3.4,0.1c0.2,0,1.6-0.1,2.7-0.1c0.4,0,0.6,0.1,0.6,0.3c0,0.2-0.2,0.3-0.5,0.3c-0.3,0-0.8,0-1.2,0.2
		c-0.8,0.3-1.2,1.6-1.8,3.5c-1.5,4.2-5,14.7-6.6,19.6c-0.4,1.2-0.5,1.6-1,1.6c-0.3,0-0.5-0.4-1-1.6l-6.9-16.5h-0.1
		c-0.6,1.7-5,13.4-6.4,16.4c-0.6,1.4-0.8,1.7-1.2,1.7c-0.3,0-0.5-0.4-0.8-1.2L68.3,136.2z"/>
	<path d="M105.4,142.5c0-5,0-5.9-0.1-7c-0.1-1.1-0.4-1.7-1.1-1.8c-0.4-0.1-0.8-0.1-1.2-0.1c-0.3,0-0.5-0.1-0.5-0.3
		c0-0.2,0.3-0.3,0.8-0.3c1.3,0,3.3,0.1,4.3,0.1c0.8,0,2.8-0.1,4-0.1c0.4,0,0.7,0.1,0.7,0.3c0,0.3-0.2,0.3-0.5,0.3
		c-0.3,0-0.6,0-1,0.1c-0.9,0.2-1.2,0.7-1.2,1.9c-0.1,1.1-0.1,2-0.1,7v5.8c0,3.2,0,5.8,0.1,7.2c0.1,0.9,0.3,1.5,1.3,1.6
		c0.5,0.1,1.2,0.1,1.7,0.1c0.4,0,0.5,0.1,0.5,0.3c0,0.2-0.3,0.3-0.6,0.3c-2.2,0-4.3-0.1-5.1-0.1c-0.8,0-2.8,0.1-4.2,0.1
		c-0.4,0-0.7-0.1-0.7-0.3c0-0.2,0.1-0.3,0.5-0.3c0.5,0,0.9-0.1,1.2-0.1c0.7-0.1,0.9-0.7,1-1.7c0.2-1.4,0.2-4,0.2-7.2V142.5z"/>
	<path d="M120.6,153.4c0.1,2.6,0.5,3.4,1.2,3.7c0.6,0.2,1.2,0.2,1.7,0.2c0.4,0,0.6,0.1,0.6,0.3c0,0.3-0.3,0.3-0.8,0.3
		c-2.1,0-3.5-0.1-4.1-0.1c-0.3,0-1.8,0.1-3.6,0.1c-0.4,0-0.7,0-0.7-0.3c0-0.2,0.2-0.3,0.5-0.3c0.4,0,1,0,1.5-0.2
		c0.9-0.3,1-1.2,1-4.1l0.3-19.5c0-0.7,0.1-1.1,0.4-1.1c0.4,0,0.7,0.4,1.2,1c0.4,0.4,5.4,5.8,10.2,10.6c2.2,2.2,6.7,7,7.3,7.5h0.2
		l-0.3-14.8c0-2-0.3-2.6-1.1-3c-0.5-0.2-1.3-0.2-1.7-0.2c-0.4,0-0.5-0.1-0.5-0.3c0-0.3,0.4-0.3,0.9-0.3c1.7,0,3.3,0.1,4,0.1
		c0.4,0,1.6-0.1,3.2-0.1c0.4,0,0.8,0,0.8,0.3c0,0.2-0.2,0.3-0.6,0.3c-0.3,0-0.6,0-1,0.1c-0.9,0.3-1.2,1-1.2,2.8l-0.4,20.8
		c0,0.7-0.1,1-0.4,1c-0.4,0-0.8-0.4-1.1-0.7c-2.1-2-6.3-6.3-9.7-9.7c-3.6-3.6-7.3-7.7-7.9-8.3h-0.1L120.6,153.4z"/>
	<path d="M150.2,153.4c0.1,2.6,0.5,3.4,1.2,3.7c0.6,0.2,1.2,0.2,1.7,0.2c0.4,0,0.6,0.1,0.6,0.3c0,0.3-0.3,0.3-0.8,0.3
		c-2.1,0-3.5-0.1-4.1-0.1c-0.3,0-1.8,0.1-3.6,0.1c-0.4,0-0.7,0-0.7-0.3c0-0.2,0.2-0.3,0.5-0.3c0.4,0,1,0,1.5-0.2
		c0.9-0.3,1-1.2,1-4.1l0.3-19.5c0-0.7,0.1-1.1,0.4-1.1c0.4,0,0.7,0.4,1.2,1c0.4,0.4,5.4,5.8,10.2,10.6c2.2,2.2,6.7,7,7.3,7.5h0.2
		l-0.3-14.8c0-2-0.3-2.6-1.1-3c-0.5-0.2-1.3-0.2-1.7-0.2c-0.4,0-0.5-0.1-0.5-0.3c0-0.3,0.4-0.3,0.9-0.3c1.7,0,3.3,0.1,4,0.1
		c0.4,0,1.6-0.1,3.2-0.1c0.4,0,0.8,0,0.8,0.3c0,0.2-0.2,0.3-0.6,0.3c-0.3,0-0.6,0-1,0.1c-0.9,0.3-1.2,1-1.2,2.8l-0.4,20.8
		c0,0.7-0.1,1-0.4,1c-0.4,0-0.8-0.4-1.1-0.7c-2.1-2-6.3-6.3-9.7-9.7c-3.6-3.6-7.3-7.7-7.9-8.3h-0.1L150.2,153.4z"/>
	<path d="M178,142.5c0-5,0-5.9-0.1-7c-0.1-1.1-0.3-1.6-1.4-1.9c-0.3-0.1-0.8-0.1-1.3-0.1c-0.4,0-0.6-0.1-0.6-0.3
		c0-0.2,0.2-0.3,0.7-0.3c0.9,0,1.8,0,2.7,0c0.9,0,1.6,0.1,2.1,0.1c1.1,0,7.6,0,8.2,0c0.6-0.1,1.2-0.1,1.4-0.2c0.2,0,0.4-0.1,0.5-0.1
		c0.2,0,0.2,0.1,0.2,0.3c0,0.2-0.2,0.6-0.3,2.1c0,0.3-0.1,1.8-0.2,2.2c0,0.2-0.1,0.4-0.3,0.4c-0.2,0-0.3-0.2-0.3-0.5
		c0-0.2,0-0.8-0.2-1.2c-0.2-0.6-0.6-1-2.2-1.2c-0.6-0.1-4-0.1-4.7-0.1c-0.2,0-0.2,0.1-0.2,0.3v8.3c0,0.2,0,0.4,0.2,0.4
		c0.7,0,4.5,0,5.3-0.1c0.8-0.1,1.3-0.2,1.6-0.5c0.2-0.3,0.4-0.4,0.5-0.4c0.1,0,0.2,0.1,0.2,0.3c0,0.2-0.1,0.7-0.3,2.4
		c0,0.7-0.1,2-0.1,2.2c0,0.3,0,0.6-0.3,0.6c-0.2,0-0.3-0.1-0.3-0.3c0-0.3,0-0.8-0.1-1.2c-0.2-0.7-0.6-1.2-1.8-1.3
		c-0.6-0.1-3.9-0.1-4.7-0.1c-0.2,0-0.2,0.1-0.2,0.3v2.6c0,1.1,0,4.2,0,5.1c0.1,2.3,0.6,2.8,4,2.8c0.9,0,2.2,0,3.1-0.4
		c0.9-0.4,1.3-1.1,1.5-2.4c0.1-0.4,0.1-0.5,0.4-0.5c0.3,0,0.3,0.3,0.3,0.6c0,0.8-0.3,3-0.4,3.7c-0.2,0.9-0.5,0.9-1.8,0.9
		c-2.5,0-4.3-0.1-5.7-0.1c-1.4-0.1-2.4-0.1-3.4-0.1c-0.4,0-1.1,0-1.9,0c-0.8,0-1.6,0.1-2.3,0.1c-0.4,0-0.7-0.1-0.7-0.3
		c0-0.2,0.1-0.3,0.5-0.3c0.5,0,0.9-0.1,1.2-0.1c0.7-0.1,0.8-0.9,1-1.8c0.2-1.4,0.2-4,0.2-7V142.5z"/>
	<path d="M197.2,142.5c0-5,0-5.9-0.1-7c-0.1-1.1-0.3-1.6-1.4-1.9c-0.3-0.1-0.8-0.1-1.3-0.1c-0.4,0-0.6-0.1-0.6-0.3
		c0-0.2,0.2-0.3,0.7-0.3c1.7,0,3.8,0.1,4.5,0.1c1.1,0,3.6-0.1,4.7-0.1c2.1,0,4.3,0.2,6.1,1.4c0.9,0.6,2.2,2.3,2.2,4.5
		c0,2.4-1,4.7-4.4,7.4c2.9,3.7,5.2,6.6,7.2,8.7c1.8,1.9,3.2,2.1,3.7,2.2c0.4,0.1,0.7,0.1,0.9,0.1c0.3,0,0.4,0.1,0.4,0.3
		c0,0.3-0.2,0.3-0.6,0.3h-3.1c-1.8,0-2.7-0.2-3.5-0.6c-1.4-0.8-2.7-2.3-4.5-4.9c-1.3-1.8-2.8-4.1-3.3-4.6c-0.2-0.2-0.4-0.2-0.6-0.2
		l-2.9-0.1c-0.2,0-0.3,0.1-0.3,0.3v0.5c0,3.1,0,5.7,0.2,7.1c0.1,1,0.3,1.7,1.3,1.8c0.5,0.1,1.2,0.1,1.6,0.1c0.3,0,0.4,0.1,0.4,0.3
		c0,0.2-0.2,0.3-0.7,0.3c-1.9,0-4.4-0.1-4.9-0.1c-0.6,0-2.7,0.1-4,0.1c-0.4,0-0.7-0.1-0.7-0.3c0-0.2,0.1-0.3,0.5-0.3
		c0.5,0,0.9-0.1,1.2-0.1c0.7-0.1,0.8-0.9,1-1.8c0.2-1.4,0.2-4,0.2-7V142.5z M201.1,145.1c0,0.4,0.1,0.5,0.3,0.6
		c0.7,0.2,1.7,0.3,2.5,0.3c1.3,0,1.7-0.1,2.3-0.6c1-0.7,1.9-2.2,1.9-4.9c0-4.7-3.1-6-5-6c-0.8,0-1.4,0-1.7,0.1
		c-0.2,0.1-0.3,0.2-0.3,0.5V145.1z"/>
</g>
<polygon class="st1" points="142.2,163.4 164.8,193.9 142.2,224.3 119.6,193.9 "/>
<path class="st2" d="M142.1,198.8c0,0,0.1,0,0.1,0v0L142.1,198.8z"/>
<path class="st3" d="M145.9,216.7c0-2.4,3.7-11.7,4.1-13.1c0.2-0.9,0.1-0.8,0.3-1.5c0.2-0.6,0.2-2.3,0.3-2.9
	c0.1-0.6,1.1-7.5,1.7-9.6c0.2-0.6,0.9-1.7,1.4-2.4c0.1-0.1,0.3-0.4,0.3-0.7c0-0.3,0.1-0.5-0.1-1c-0.1-0.2-0.5-0.4-0.8-0.1
	c-0.3,0.3-0.6,0.6-0.6,0.6L142.2,171l-10.3,15.1c0,0-0.4-0.3-0.6-0.6c-0.3-0.3-0.7-0.1-0.8,0.1c-0.2,0.5-0.1,0.7-0.1,1
	c0,0.3,0.2,0.6,0.3,0.7c0.5,0.7,1.2,1.8,1.4,2.4c0.6,2.1,1.6,8.9,1.7,9.6c0.1,0.6,0.1,2.3,0.3,2.9c0.2,0.6,0.1,0.5,0.3,1.5
	c0.4,1.4,4,10.7,4.1,13.1c0,0.3,0-0.6,0,0.1l3.7,5L145.9,216.7C145.9,216.1,145.9,217.1,145.9,216.7 M144.2,205.3
	c-0.1-0.4-0.1-0.9-0.1-0.9s0.2-1,0.4-1.6c0.2-0.6,0.2-1.9-0.4-2.9c-0.4-0.7-1.1-0.9-1.9-1h0c-0.7,0.1-1.5,0.4-1.9,1
	c-0.6,1-0.5,2.3-0.4,2.9c0.2,0.6,0.4,1.6,0.4,1.6s0,0.5-0.1,0.9c-0.1,0.6-0.5,0.9-0.5,0.9s-1-1.1-2.5-6.1c-0.1-0.5-0.2-2-1-4.3
	c-0.4-1.1-1.6-5.7-1.6-5.7s0.3-0.4,0.4-0.8c0.1-0.4-0.3-1-0.6-1.3c-0.4-0.4-1-0.9-1-0.9h8.6h0.2h8.8c0,0-0.5,0.5-1,0.9
	c-0.3,0.3-0.7,0.9-0.6,1.3c0.1,0.4,0.4,0.8,0.4,0.8s-1.3,4.6-1.6,5.7c-0.8,2.3-0.9,3.8-1,4.3c-1.6,5-2.5,6.1-2.5,6.1
	S144.3,205.9,144.2,205.3"/>
<path class="st2" d="M142.2,198.8L142.2,198.8c0.1,0,0.1,0,0.1,0L142.2,198.8z"/>
<polygon class="st4" points="234.5,295.4 50,295.4 43.2,288.6 43.2,239.1 50,232.4 234.5,232.4 241.2,239.1 241.2,288.6 "/>
<path class="st5" d="M50.2,101.9c0,7.9,1.2,15.6,3.5,22.8h177c2.3-7.2,3.5-14.9,3.5-22.8c0-8.3-1.4-16.4-3.9-24H54.1
	C51.6,85.5,50.2,93.5,50.2,101.9"/>
<g>
	<path class="st6" d="M87.8,101.3L87.8,101.3c0-8.7,6-15.4,14.3-15.4c4.6,0,7.9,1.6,10.7,4.3l-4.3,5.8c-1.9-1.8-3.8-2.8-6.4-2.8
		c-3.8,0-6.8,3.6-6.8,8.1v0.1c0,4.7,3,8.1,7.2,8.1c1.8,0,3.1-0.4,4.2-1.2v-3.6h-5.2v-6h12.2V112c-2.8,2.6-6.7,4.5-11.5,4.5
		C94,116.6,87.8,110.3,87.8,101.3z"/>
	<path class="st6" d="M116.5,101.3L116.5,101.3c0-8.5,6.1-15.4,14.3-15.4c8.2,0,14.2,6.8,14.2,15.2v0.1c0,8.4-6.1,15.3-14.3,15.3
		C122.6,116.6,116.5,109.8,116.5,101.3z M137.6,101.3L137.6,101.3c0-4.3-2.8-8-6.8-8c-4,0-6.7,3.6-6.7,7.9v0.1
		c0,4.2,2.8,7.9,6.8,7.9C134.9,109.2,137.6,105.6,137.6,101.3z"/>
	<path class="st6" d="M148.5,86.6h7.3v22.3h12.8v7.1h-20.1V86.6z"/>
	<path class="st6" d="M171.5,86.6h10.2c9.4,0,14.9,6,14.9,14.5v0.1c0,8.5-5.6,14.8-15.1,14.8h-10.1V86.6z M181.8,108.7
		c4.4,0,7.3-2.7,7.3-7.4v-0.1c0-4.7-2.9-7.4-7.3-7.4h-3v15H181.8z"/>
</g>
<g>
	<path class="st6" d="M68.5,239.8h3.3v21.7h-3.3V239.8z"/>
	<path class="st6" d="M74.9,239.8h3.2l5.2,13.1v-13.1h3.3v21.7h-3l-5.4-13.6v13.6h-3.3V239.8z"/>
	<path class="st6" d="M91.7,242.7h-3.2v-2.9h9.8v2.9H95v18.8h-3.3V242.7z"/>
	<path class="st6" d="M100.2,239.8h8.8v2.9h-5.5v6.4h4.9v2.9h-4.9v6.6h5.6v2.9h-8.9V239.8z"/>
	<path class="st6" d="M111.4,239.8h3.9c4.2,0,7.2,2.1,7.2,6.8v0.2c0,2.9-1.3,4.8-3.2,5.8l3.6,8.9h-3.6l-3.2-7.9c-0.1,0-0.3,0-0.4,0
		h-0.9v7.9h-3.4V239.8z M115.3,250.9c2.3,0,3.8-1.2,3.8-4v-0.2c0-3-1.6-4-3.9-4h-0.5v8.2H115.3z"/>
	<path class="st6" d="M124.8,239.8h3.2l5.2,13.1v-13.1h3.3v21.7h-3l-5.4-13.6v13.6h-3.3V239.8z"/>
	<path class="st6" d="M142.9,239.8h3.6l4.7,21.8h-3.4l-1-4.8h-4.5l-1,4.8h-3.3L142.9,239.8z M146.4,253.9l-1.7-8.7l-1.7,8.7H146.4z"
		/>
	<path class="st6" d="M154.1,242.7h-3.2v-2.9h9.8v2.9h-3.2v18.8h-3.3V242.7z"/>
	<path class="st6" d="M162.7,239.8h3.3v21.7h-3.3V239.8z"/>
	<path class="st6" d="M168.6,251.2v-0.9c0-7.3,2.5-10.7,6.1-10.7c3.6,0,6.1,3.3,6.1,10.7v0.9c0,7.3-2.5,10.7-6.1,10.7
		C171.1,261.8,168.6,258.5,168.6,251.2z M177.5,251.2v-0.9c0-5.6-1.1-7.9-2.7-7.9c-1.6,0-2.7,2.3-2.7,7.9v0.9c0,5.6,1.1,7.9,2.7,7.9
		C176.3,259,177.5,256.8,177.5,251.2z"/>
	<path class="st6" d="M183.2,239.8h3.2l5.2,13.1v-13.1h3.3v21.7h-3l-5.4-13.6v13.6h-3.3V239.8z"/>
	<path class="st6" d="M201.4,239.8h3.6l4.7,21.8h-3.4l-1-4.8h-4.5l-1,4.8h-3.3L201.4,239.8z M204.9,253.9l-1.7-8.7l-1.7,8.7H204.9z"
		/>
	<path class="st6" d="M211.5,239.8h3.4v18.8h4.9v2.9h-8.3V239.8z"/>
	<path class="st6" d="M53.3,266.8h3.4c4,0,7.4,1.7,7.4,5.5v0.1c0,2.9-1.8,4.3-3.7,5c2.3,0.7,4,2.1,4,5v0.2c0,3.8-3.2,5.9-7.7,5.9
		h-3.4V266.8z M57,276.3c2.4,0,3.8-1.2,3.8-3.4v-0.1c0-2.1-1.5-3.2-3.6-3.2h-0.5v6.6H57z M57,285.7c2.4,0,4-1.2,4-3.3v-0.1
		c0-2.2-1.5-3.4-4-3.4h-0.4v6.8H57z"/>
	<path class="st6" d="M66.4,282.4v-15.6h3.3v15.9c0,2.3,1,3.3,2.4,3.3c1.4,0,2.4-1,2.4-3.3v-15.9h3.3v15.6c0,4.3-2.4,6.4-5.7,6.4
		C68.8,288.8,66.4,286.7,66.4,282.4z"/>
	<path class="st6" d="M80,287.8v-3.2c1.5,0.8,2.7,1.3,3.9,1.3c1.4,0,2.5-0.7,2.5-2.2v-0.1c0-1.2-0.4-2.1-2.6-4.5c-2.9-3.2-4-4.6-4-7
		v-0.1c0-3.2,2.4-5.3,5.5-5.3c1.6,0,2.6,0.3,3.7,0.8v3.2c-1.3-0.7-2.2-1.1-3.3-1.1c-1.4,0-2.5,0.8-2.5,2.2v0.1
		c0,1.2,0.4,1.9,2.6,4.2c3.2,3.4,4,4.9,4,7.3v0.1c0,3.2-2.5,5.3-5.6,5.3C82.7,288.8,81.3,288.4,80,287.8z"/>
	<path class="st6" d="M91.9,266.8h3.3v21.7h-3.3V266.8z"/>
	<path class="st6" d="M98.3,266.8h3.2l5.2,13.1v-13.1h3.3v21.7h-3l-5.4-13.6v13.6h-3.3V266.8z"/>
	<path class="st6" d="M112.8,266.8h8.8v2.9h-5.5v6.4h4.9v2.9h-4.9v6.6h5.6v2.9h-8.9V266.8z"/>
	<path class="st6" d="M123.4,287.8v-3.2c1.5,0.8,2.7,1.3,3.9,1.3c1.4,0,2.5-0.7,2.5-2.2v-0.1c0-1.2-0.4-2.1-2.6-4.5
		c-2.9-3.2-4-4.6-4-7v-0.1c0-3.2,2.4-5.3,5.5-5.3c1.6,0,2.6,0.3,3.7,0.8v3.2c-1.3-0.7-2.2-1.1-3.3-1.1c-1.4,0-2.5,0.8-2.5,2.2v0.1
		c0,1.2,0.4,1.9,2.6,4.2c3.2,3.4,4,4.9,4,7.3v0.1c0,3.2-2.5,5.3-5.6,5.3C126,288.8,124.6,288.4,123.4,287.8z"/>
	<path class="st6" d="M134.4,287.8v-3.2c1.5,0.8,2.7,1.3,3.9,1.3c1.4,0,2.5-0.7,2.5-2.2v-0.1c0-1.2-0.4-2.1-2.6-4.5
		c-2.9-3.2-4-4.6-4-7v-0.1c0-3.2,2.4-5.3,5.5-5.3c1.6,0,2.6,0.3,3.7,0.8v3.2c-1.3-0.7-2.2-1.1-3.3-1.1c-1.4,0-2.5,0.8-2.5,2.2v0.1
		c0,1.2,0.4,1.9,2.6,4.2c3.2,3.4,4,4.9,4,7.3v0.1c0,3.2-2.5,5.3-5.6,5.3C137,288.8,135.6,288.4,134.4,287.8z"/>
	<path class="st6" d="M155.2,266.8h3.6l4.7,21.8h-3.4l-1-4.8h-4.5l-1,4.8h-3.3L155.2,266.8z M158.7,280.9l-1.7-8.7l-1.7,8.7H158.7z"
		/>
	<path class="st6" d="M163.7,266.8h3.5l2.2,15l2.6-15h3.1l2.6,15l2.2-15h3.4l-3.8,21.8H176l-2.6-14.7l-2.6,14.7h-3.4L163.7,266.8z"
		/>
	<path class="st6" d="M188.1,266.8h3.6l4.7,21.8h-3.4l-1-4.8h-4.5l-1,4.8h-3.3L188.1,266.8z M191.6,280.9l-1.7-8.7l-1.7,8.7H191.6z"
		/>
	<path class="st6" d="M198.2,266.8h3.9c4.2,0,7.2,2.1,7.2,6.8v0.2c0,2.9-1.3,4.8-3.2,5.8l3.6,8.9h-3.6l-3.2-7.9c-0.1,0-0.3,0-0.4,0
		h-0.9v7.9h-3.4V266.8z M202.2,277.9c2.2,0,3.8-1.2,3.8-4v-0.2c0-3-1.6-4-3.9-4h-0.5v8.2H202.2z"/>
	<path class="st6" d="M211.6,266.8h3.6c5,0,8.1,3.5,8.1,10.5v0.7c0,7-3.1,10.5-8.1,10.5h-3.6V266.8z M215.5,285.8
		c2.5,0,4.4-2.1,4.4-7.7v-0.7c0-5.6-2-7.7-4.4-7.7H215v16.1H215.5z"/>
	<path class="st6" d="M224.9,287.8v-3.2c1.5,0.8,2.7,1.3,3.9,1.3c1.4,0,2.5-0.7,2.5-2.2v-0.1c0-1.2-0.4-2.1-2.6-4.5
		c-2.9-3.2-4-4.6-4-7v-0.1c0-3.2,2.4-5.3,5.5-5.3c1.6,0,2.6,0.3,3.7,0.8v3.2c-1.3-0.7-2.2-1.1-3.3-1.1c-1.4,0-2.5,0.8-2.5,2.2v0.1
		c0,1.2,0.4,1.9,2.6,4.2c3.2,3.4,4,4.9,4,7.3v0.1c0,3.2-2.5,5.3-5.6,5.3C227.6,288.8,226.2,288.4,224.9,287.8z"/>
</g>
<g>
	<path d="M89.9,36.8c-0.3,0-0.7-0.3-0.7-0.7c0-0.4,0.5-0.8,1-1.2c6.7-5.9,16.3-13.4,16.3-23.5c0-7.6-4.2-9.1-6.6-9.1
		c-2.1,0-3.6,0.4-5.1,1.7c-1.2,1.1-2,3.4-2,4.6c0,0.5-0.1,0.9-0.6,0.9c-0.2,0-0.4-0.3-0.4-0.9c0-0.4-0.3-4.4-0.3-5.8
		c0-0.4,0-0.6,0.6-1c1.9-1,4.5-1.8,8.7-1.8c8.4,0,12,4.6,12,10.2c0,9.3-10.3,17.4-16.5,22.4c-0.2,0.2-0.1,0.3,0.1,0.3h3.3
		c0.8,0,6.5,0,8.3-0.3c3.3-0.4,4.9-2,5.5-4.3c0.1-0.6,0.3-0.8,0.6-0.8c0.3,0,0.4,0.4,0.4,0.9c0,0.8-0.9,5.2-1.4,6.9
		c-0.4,1.3-1.2,1.4-4.2,1.4H89.9z"/>
	<path d="M129.3,37.6c-9.5,0-12-10.9-12-17.8C117.2,8.7,121.1,0,130,0c9.5,0,12,10.1,12,17.7C142.1,29.6,137.5,37.6,129.3,37.6z
		 M129,2.2c-3.6,0-6.2,4.9-6.2,15.9c0,8.3,2.1,17.4,7.3,17.4c3.9,0,6.3-6.6,6.3-15.9C136.5,11.3,134.3,2.2,129,2.2z"/>
	<path d="M153.5,14.7c0-2.6,0-4.7,0-6.3c0-1.2,0-1.7-0.7-1.7c-0.9,0-4.5,1.9-5.6,2.3c-0.2,0.1-0.5,0.2-0.7,0.2
		c-0.1,0-0.4-0.2-0.4-0.5c0-0.3,0.2-0.5,0.5-0.7c0.2-0.1,9.4-6.1,11.1-7.4c0.4-0.3,0.9-0.6,1.2-0.6c0.4,0,0.6,0.5,0.6,1
		c0,0.4-0.3,5.1-0.3,12.5v8.9c0,4.6,0,8.7,0.2,10.8c0.1,1.5,0.4,2.3,1.9,2.6c0.7,0.1,2.8,0.3,3.2,0.3c0.2,0,0.4,0.1,0.4,0.5
		c0,0.3-0.2,0.4-0.8,0.4c-3.6,0-6.7-0.1-8-0.1c-1.1,0-5.1,0.1-8.2,0.1c-0.5,0-0.8-0.1-0.8-0.4c0-0.3,0.2-0.5,0.4-0.5
		c0.5,0,3-0.1,3.8-0.3c1.5-0.3,1.8-1,1.9-2.5c0.2-2.1,0.3-6.2,0.2-10.8L153.5,14.7z"/>
	<path d="M167.2,28.2c0-5.3,4.2-8.9,8.8-10.8c-4-2.1-7-4.7-7-8.8c0-3.7,3.2-8.7,11.4-8.7c5.9,0,9.8,2.7,9.8,7.3c0,5-4.4,7.9-7.1,8.9
		c3.4,1.8,8.7,4.8,8.7,10.8c0,5.7-4.7,10.7-12.7,10.7C172.1,37.6,167.2,34.1,167.2,28.2z M179.6,35.4c3.7,0,6.8-2.8,6.8-7.2
		c0-4.8-3.8-7.1-8.1-9.6c-2.6,1.5-5.7,4.4-5.7,9.3C172.6,32.2,175.7,35.4,179.6,35.4z M179.9,2.1c-4.2,0-5.9,3-5.9,5.7
		c0,3,2.1,4.9,6.4,7.4c1.4-0.6,4.7-2.5,4.7-7.3C185.2,4.2,182.8,2.1,179.9,2.1z"/>
</g>
</svg>
