<?xml version="1.0" encoding="UTF-8"?><svg id="uuid-eec831c1-d234-4931-bc94-a54d9947141b" xmlns="http://www.w3.org/2000/svg" width="186.73mm" height="48.62mm" viewBox="0 0 529.31 137.83"><path d="m145.18,114.57c-8.79,0-13.28,5.51-17.24,10.36-3.96,4.85-7.25,8.89-14.14,8.89-2.95.06-5.84-.87-8.19-2.65,0-.08,0-.15,0-.23l-4.15-36.53-3.2-28.22v-.09c0-.07,0-.14,0-.21,0-.06-.02-.12-.05-.17-.03-.07-.06-.14-.09-.21l-.12-.11-.15-.21-.07-.09-.21-.2-.07-.06-.24-.16h-.09l-.25-.1h-1.76V27.36c0-.06,0-.13,0-.19-.04-.36-.18-.71-.4-1L75.15.74c-.74-.87-2.05-.97-2.92-.23-.08.07-.16.15-.23.23l-19.59,25.39c-.22.29-.36.64-.4,1v37.29h-1.53l-.27.11h-.06l-.27.17h-.05c-.08.07-.15.14-.22.21l-.06.07c-.06.07-.11.14-.16.22l-.07.12c-.04.07-.07.14-.1.22,0,.06-.03.11-.05.16,0,.07,0,.14,0,.21v.09l-3.2,28.2-4.11,36c-1.79-1.66-3.44-3.47-4.92-5.41-4-4.85-8.45-10.36-17.24-10.36s-13.35,5.65-17.31,10.51c-.65.79-1.29,1.58-2,2.35-.63.91-.41,2.15.5,2.78.77.54,1.81.46,2.5-.17.69-.8,1.36-1.62,2-2.43,3.89-4.77,7.25-8.89,14.14-8.89s10.25,4.11,14.14,8.89c3.89,4.78,8.55,10.36,17.33,10.36s13.28-5.51,17.24-10.36c3.96-4.85,7.24-8.89,14.14-8.89,1.19,0,2.38.13,3.53.41.19.09.39.15.6.18,2.61.87,4.94,2.41,6.75,4.48.17.43.48.78.88,1,.8.9,1.58,1.87,2.39,2.85,4,4.85,8.45,10.36,17.25,10.36s13.28-5.51,17.24-10.36c3.96-4.85,7.25-8.89,14.14-8.89,1.1,0,2-.9,2-2s-.9-2-2-2l.02-.04Zm-51.53-46.14h.81l2.75,24.22h-6.14l-7-12.11,6.95-12h2.13c.17,0,.34-.02.51-.07v-.04Zm-27.06,10.12l-5.79-10h25.58l-5.79,10h-14Zm7-73.32l15.5,20.16h-31l15.5-20.16Zm-17.59,24.12h35.16v35.1h-35.16V29.35Zm-6.34,67.3h6.46l7,12.11-7,12.11h-9.22l2.76-24.22Zm1.34,37.2c-1.88.02-3.74-.35-5.47-1.08l.9-7.88h9.71l3.45,6c-2.42,1.98-5.47,3.03-8.59,2.96m31.4-19.26c-8.8,0-13.28,5.5-17.24,10.35-.87,1.06-1.71,2.06-2.57,3.06l-3-5.12,7-12.11h14.17l2.24,3.84c-.19.01-.37-.03-.58-.03h-.02Zm17.23,10.35h0l-.06-.07h1.3l.21,1.83c-.48-.57-1-1.16-1.45-1.75h0Z" style="fill:#fff; stroke-width:0px;"/><path d="m81.47,52.7h-15.62c-1.11,0-2,.9-2,2s.89,2,2,2h15.43c1.1.05,2.04-.8,2.1-1.9.05-1.1-.8-2.04-1.9-2.1" style="fill:#fff; stroke-width:0px;"/><path d="m81.47,44.69h-15.62c-1.11,0-2,.9-2,2s.89,2,2,2h15.43c1.1.05,2.04-.8,2.1-1.9.05-1.1-.8-2.04-1.9-2.1" style="fill:#fff; stroke-width:0px;"/><path d="m81.47,36.69h-15.62c-1.11-.05-2.04.81-2.08,1.92-.05,1.11.81,2.04,1.92,2.08h15.6c1.1.05,2.04-.8,2.1-1.9.05-1.1-.8-2.04-1.9-2.1" style="fill:#fff; stroke-width:0px;"/><path d="m109,52c-.62.84-.49,2.01.29,2.69l20,16.09c.89.66,2.14.47,2.8-.42.62-.84.5-2.01-.29-2.69l-20-16.09c-.89-.66-2.14-.47-2.8.42,0,0,0,0,0,0" style="fill:#fff; stroke-width:0px;"/><path d="m110.54,37.39h0c.45.02.9-.12,1.26-.39l20-16.09c.83-.73.91-1.99.18-2.82-.69-.78-1.86-.91-2.69-.29l-20,16.07c-.86.69-1,1.95-.31,2.81.38.47.95.75,1.56.75v-.04Z" style="fill:#fff; stroke-width:0px;"/><path d="m112.86,44.24c0,1.1.9,2,2,2h26.47c1.1.05,2.04-.8,2.1-1.9.05-1.1-.8-2.04-1.9-2.1h-26.66c-1.1,0-2,.9-2,2" style="fill:#fff; stroke-width:0px;"/><path d="m35.36,51.52h0l-20,16.11c-.86.7-.99,1.97-.28,2.83.7.86,1.97.99,2.83.28l19.97-16.09c.87-.69,1-1.96.31-2.82-.69-.86-1.96-1-2.82-.31" style="fill:#fff; stroke-width:0px;"/><path d="m15.39,20.86h0l20,16.1c.89.66,2.14.47,2.8-.42.62-.84.49-2.01-.29-2.69l-19.98-16.11c-.83-.74-2.1-.66-2.83.17-.74.83-.66,2.1.17,2.83l.13.12Z" style="fill:#fff; stroke-width:0px;"/><path d="m5.63,46.24h26.64c1.11,0,2-.9,2-2s-.89-2-2-2H5.8c-1.11-.05-2.04.81-2.08,1.92-.05,1.11.81,2.04,1.91,2.08" style="fill:#fff; stroke-width:0px;"/><polygon points="198.6 38.82 189.09 56.98 179.44 38.82 175.2 38.82 170.28 75.41 175.51 75.41 178.96 47.75 189.09 66.74 199.06 47.74 202.5 75.41 207.73 75.41 202.89 38.82 198.6 38.82" style="fill:#fff; stroke-width:0px;"/><polygon points="243.25 70.93 225.47 70.93 225.47 58.55 239.21 58.55 239.21 54.07 225.47 54.07 225.47 43.34 242.78 43.34 242.78 38.82 220.45 38.82 220.45 75.41 243.25 75.41 243.25 70.93" style="fill:#fff; stroke-width:0px;"/><polygon points="278.66 38.86 252.3 38.86 252.3 43.34 262.97 43.34 262.97 75.45 267.99 75.45 267.99 43.34 278.66 43.34 278.66 38.86" style="fill:#fff; stroke-width:0px;"/><path d="m314.7,75.41l-13.13-36.59h-5.23l-13.13,36.59h5.23l3.51-9.89h14l3.51,9.89h5.24Zm-21.18-14.41l5.48-15.25,5.4,15.25h-10.88Z" style="fill:#fff; stroke-width:0px;"/><polygon points="330.56 46.49 349.75 75.41 353.99 75.41 353.99 38.82 348.93 38.82 348.93 66.23 330.98 38.82 325.54 38.82 325.54 75.41 330.56 75.41 330.56 46.49" style="fill:#fff; stroke-width:0px;"/><path d="m397.5,71c3.39-3.49,5.05-8.11,5-13.87.03-2.66-.43-5.31-1.36-7.8-.83-2.23-2.1-4.27-3.73-6-1.61-1.68-3.57-3-5.73-3.87-4.65-1.8-9.81-1.8-14.46,0-2.15.87-4.09,2.18-5.7,3.85-1.63,1.73-2.9,3.77-3.73,6-.94,2.51-1.4,5.17-1.36,7.84-.03,2.68.44,5.34,1.37,7.85.82,2.23,2.08,4.27,3.71,6,1.61,1.68,3.56,3,5.72,3.87,2.32.93,4.8,1.39,7.3,1.36,4.87.17,9.58-1.73,12.97-5.23m-22.28-3.48c-1.1-1.36-1.93-2.92-2.43-4.6-1.12-3.79-1.12-7.83,0-11.62.5-1.67,1.31-3.23,2.4-4.59,1.09-1.29,2.46-2.32,4-3,1.69-.76,3.53-1.13,5.39-1.1,4.05,0,7.15,1.37,9.31,4.11,2.3,2.99,3.48,6.68,3.33,10.45.02,1.96-.25,3.91-.81,5.79-.5,1.68-1.32,3.24-2.43,4.6-1.08,1.31-2.45,2.36-4,3.06-3.44,1.47-7.34,1.47-10.78,0-1.54-.69-2.91-1.71-4-3l.02-.1Z" style="fill:#fff; stroke-width:0px;"/><path d="m437.87,55.7c1.18-1.83,1.79-3.97,1.75-6.15.05-1.71-.24-3.4-.84-5-.51-1.3-1.35-2.44-2.43-3.32-1.18-.91-2.54-1.55-4-1.87-1.77-.41-3.59-.6-5.41-.58h-11.86v36.63h5.23v-14.28h7.69l8.11,14.28h5.33l-8.51-15.55c2.01-.88,3.73-2.33,4.94-4.16m-7.28.25c-.76.28-1.57.42-2.38.42h-7.9v-13.55h6.59c2.05-.15,4.08.49,5.67,1.8,1.3,1.3,1.99,3.1,1.87,4.94.02,1.02-.15,2.04-.5,3-.29.8-.76,1.52-1.36,2.12-.56.58-1.24,1.03-1.99,1.32v-.05Z" style="fill:#fff; stroke-width:0px;"/><polygon points="479.56 38.82 470.04 56.98 460.42 38.82 456.18 38.82 451.26 75.41 456.49 75.41 459.93 47.74 470.06 66.73 480 47.74 483.44 75.41 488.67 75.41 483.85 38.82 479.56 38.82" style="fill:#fff; stroke-width:0px;"/><path d="m516.15,38.82h-5.23l-13.06,36.59h5.23l3.51-9.89h14l3.51,9.89h5.23l-13.19-36.59Zm-8,22.23l5.44-15.27,5.41,15.22-10.85.05Z" style="fill:#fff; stroke-width:0px;"/><path d="m245.9,94.86l-6.56,16.63h1.95l2-5.28h6.71l2.07,5.28h2l-6.51-16.63h-1.66Zm-1.9,9.62l2-5.14c.29-.78.53-1.58.72-2.39.27.95.52,1.74.77,2.39l1.93,5.14h-5.42Z" style="fill:#fff; stroke-width:0px;"/><polygon points="257.5 111.5 266.75 111.5 266.75 109.73 259.43 109.73 259.43 103.62 266.31 103.62 266.31 101.93 259.43 101.93 259.43 96.61 266.75 96.61 266.75 94.9 257.5 94.9 257.5 111.5" style="fill:#fff; stroke-width:0px;"/><path d="m284.73,108.48c.91-1.61,1.35-3.45,1.28-5.3.13-2.26-.58-4.49-2-6.25-1.43-1.56-3.49-2.39-5.6-2.27-2.13-.13-4.21.69-5.68,2.24-1.43,1.77-2.14,4.01-2,6.28-.14,2.29.57,4.55,2,6.35,1.46,1.55,3.53,2.37,5.66,2.24h.61l3.23,3.73h2.82l-4-4.11c1.55-.47,2.87-1.51,3.68-2.91m-2.2-.15h0c-2.29,2.29-6.01,2.29-8.3,0-1.06-1.48-1.57-3.29-1.44-5.11-.13-1.8.38-3.59,1.44-5.06,1.05-1.2,2.6-1.84,4.19-1.74,1.58-.1,3.11.54,4.15,1.73,1.02,1.48,1.52,3.26,1.4,5.06.15,1.82-.35,3.63-1.41,5.11h-.03Z" style="fill:#fff; stroke-width:0px;"/><path d="m303.36,94.9h-2v10.86c.07,1.17-.33,2.33-1.12,3.2-.88.79-2.05,1.19-3.23,1.12-1.21.08-2.41-.32-3.33-1.12-.8-.86-1.2-2.02-1.12-3.19v-10.87h-1.93v10.76c-.09,1.65.5,3.27,1.64,4.48,1.26,1.16,2.94,1.75,4.64,1.64,1.72.09,3.42-.5,4.71-1.64,1.18-1.18,1.81-2.81,1.71-4.48l.03-10.76Z" style="fill:#fff; stroke-width:0px;"/><rect x="308.94" y="94.9" width="1.93" height="16.6" style="fill:#fff; stroke-width:0px;"/><polygon points="314.51 96.61 319.76 96.61 319.76 111.5 321.69 111.5 321.69 96.61 326.95 96.61 326.95 94.9 314.51 94.9 314.51 96.61" style="fill:#fff; stroke-width:0px;"/><path d="m334.87,94.86l-6.56,16.63h2l2-5.28h6.69l2.07,5.28h2l-6.51-16.63h-1.69Zm-1.87,9.62l2-5.14c.29-.78.53-1.58.72-2.39.27.95.52,1.74.77,2.39l1.93,5.14h-5.42Z" style="fill:#fff; stroke-width:0px;"/><polygon points="344.39 96.61 349.65 96.61 349.65 111.5 351.59 111.5 351.62 96.61 356.88 96.61 356.88 94.9 344.39 94.9 344.39 96.61" style="fill:#fff; stroke-width:0px;"/><polygon points="362.43 109.73 362.43 103.62 369.31 103.62 369.31 101.93 362.43 101.93 362.43 96.61 369.74 96.61 369.74 94.9 360.5 94.9 360.5 111.5 369.76 111.5 369.75 109.73 362.43 109.73" style="fill:#fff; stroke-width:0px;"/><path d="m387.5,105.56c-.44,1.2-.79,2.43-1.07,3.67-.26-1.23-.59-2.44-1-3.62l-3.79-10.74h-2l5.94,16.63h1.91l6-16.6h-2.19l-3.8,10.66Z" style="fill:#fff; stroke-width:0px;"/><polygon points="396.81 111.5 406.06 111.5 406.06 109.73 398.73 109.73 398.73 103.62 405.61 103.62 405.61 101.93 398.73 101.93 398.73 96.61 406.06 96.61 406.06 94.9 396.81 94.9 396.81 111.5" style="fill:#fff; stroke-width:0px;"/><path d="m421.42,99.59c.11-1.33-.42-2.64-1.42-3.52-1.33-.88-2.92-1.29-4.51-1.17h-4.57v16.59h1.93v-6.9h3.47l4,6.9h2.28l-4.51-7.49c2.02-.5,3.4-2.34,3.33-4.41m-6,3.34h-2.64v-6.34h2.51c1.09-.09,2.18.16,3.12.72.7.58,1.08,1.46,1,2.37.06.92-.31,1.82-1,2.44-.88.61-1.94.9-3,.81h.01Z" style="fill:#fff; stroke-width:0px;"/><path d="m439,94.9h-2v10.86c.08,1.17-.33,2.33-1.12,3.2-.88.79-2.05,1.19-3.23,1.12-1.21.08-2.41-.32-3.33-1.12-.8-.86-1.2-2.02-1.12-3.19v-10.87h-1.93v10.76c-.09,1.65.5,3.27,1.64,4.48,1.26,1.16,2.93,1.75,4.64,1.64,1.72.09,3.4-.5,4.69-1.64,1.18-1.18,1.81-2.81,1.71-4.48l.05-10.76Z" style="fill:#fff; stroke-width:0px;"/><path d="m452.76,108.59h-.09l-5.26-13.69h-2.89v16.59h1.78v-10.56c0-1.6-.05-2.98-.16-4.15h.09l5.63,14.71h1.56l5.68-14.69h.09c-.11,1.43-.16,2.77-.16,4v10.73h1.97v-16.63h-2.89l-5.35,13.69Z" style="fill:#fff; stroke-width:0px;"/></svg>