<?xml version="1.0" encoding="UTF-8"?><svg xmlns="http://www.w3.org/2000/svg" width="190mm" height="52mm" xmlns:xlink="http://www.w3.org/1999/xlink" viewBox="0 0 538.58 147.4"><defs><clipPath id="uuid-db61184a-e9d3-4254-9026-79c5566c0fa7"><path d="m207.03,35.52l4.84,36.59h-5.23l-3.44-27.67-9.97,19-10.13-18.99-3.45,27.66h-5.23l4.92-36.59h4.24l9.65,18.16,9.51-18.16h4.29Zm40.36,32.11h-17.78v-12.38h13.74v-4.48h-13.74v-10.73h17.31v-4.52h-22.33v36.59h22.8v-4.48Zm35.41-32.07h-26.36v4.48h10.67v32.11h5.02v-32.11h10.67v-4.48Zm30.8,36.55l-3.51-9.89h-14l-3.51,9.89h-5.23l13.13-36.59h5.23l13.13,36.59h-5.24Zm-5.06-14.41l-5.4-15.25-5.48,15.25h10.88Zm26.16-14.51l19.19,28.92h4.24v-36.59h-5.06v27.41l-17.95-27.41h-5.44v36.59h5.02v-28.92Zm66.94,24.51c-3.39,3.5-8.1,5.4-12.97,5.23-2.5.03-4.98-.43-7.3-1.36-2.16-.87-4.11-2.19-5.72-3.87-1.63-1.73-2.89-3.77-3.71-6-.93-2.51-1.4-5.17-1.37-7.85-.04-2.68.42-5.33,1.36-7.84.83-2.23,2.1-4.27,3.73-6,1.61-1.67,3.55-2.98,5.7-3.85,4.65-1.8,9.81-1.8,14.46,0,2.16.87,4.11,2.19,5.73,3.87,1.63,1.73,2.9,3.77,3.73,6,.93,2.49,1.39,5.14,1.36,7.8.05,5.76-1.61,10.38-5,13.87m-22.3-3.38c1.09,1.29,2.46,2.31,4,3,3.44,1.47,7.34,1.47,10.78,0,1.55-.71,2.92-1.75,4-3.06,1.11-1.36,1.93-2.92,2.43-4.6.56-1.88.83-3.83.81-5.79.15-3.77-1.03-7.46-3.33-10.45-2.16-2.74-5.26-4.11-9.31-4.11-1.86-.03-3.7.34-5.39,1.1-1.54.68-2.91,1.71-4,3-1.09,1.36-1.9,2.92-2.4,4.59-1.12,3.79-1.12,7.83,0,11.62.5,1.68,1.33,3.24,2.43,4.6l-.02.1Zm62.67-11.92c-1.21,1.83-2.93,3.28-4.94,4.16l8.51,15.55h-5.33l-8.11-14.28h-7.69v14.28h-5.23v-36.63h11.86c1.82-.02,3.64.17,5.41.58,1.46.32,2.82.96,4,1.87,1.08.88,1.92,2.02,2.43,3.32.6,1.6.89,3.29.84,5,.04,2.18-.57,4.32-1.75,6.15m-7.28.3c.75-.29,1.43-.74,1.99-1.32.6-.6,1.07-1.32,1.36-2.12.35-.96.52-1.98.5-3,.11-1.84-.57-3.64-1.87-4.94-1.59-1.31-3.62-1.95-5.67-1.8h-6.59v13.55h7.9c.81,0,1.62-.14,2.38-.42v.05Zm48.97-17.18l-9.52,18.16-9.62-18.16h-4.24l-4.92,36.59h5.23l3.44-27.67,10.13,18.99,9.94-18.99,3.44,27.67h5.23l-4.82-36.59h-4.29Zm49.78,36.59h-5.23l-3.51-9.89h-14l-3.51,9.89h-5.23l13.06-36.59h5.23l13.19,36.59Zm-10.34-14.41l-5.41-15.22-5.44,15.27,10.85-.05Zm-271.44,33.86l6.51,16.63h-2l-2.07-5.28h-6.71l-2,5.28h-1.95l6.56-16.63h1.66Zm1.86,9.62l-1.93-5.14c-.25-.65-.5-1.44-.77-2.39-.19.81-.43,1.61-.72,2.39l-2,5.14h5.42Zm8.08,7.02h9.25v-1.77h-7.32v-6.11h6.88v-1.69h-6.88v-5.32h7.32v-1.71h-9.25v16.6Zm27.23-3.02c-.81,1.4-2.13,2.44-3.68,2.91l4,4.11h-2.82l-3.23-3.73h-.61c-2.12.13-4.2-.69-5.66-2.24-1.43-1.79-2.14-4.06-2-6.35-.14-2.27.57-4.51,2-6.28,1.47-1.55,3.55-2.37,5.68-2.24,2.11-.12,4.17.71,5.6,2.27,1.42,1.76,2.13,3.99,2,6.25.07,1.85-.37,3.68-1.28,5.3m-2.17-.16c1.06-1.48,1.56-3.29,1.41-5.11.12-1.8-.38-3.58-1.4-5.06-1.04-1.19-2.57-1.83-4.15-1.73-1.59-.1-3.14.54-4.19,1.74-1.06,1.47-1.57,3.26-1.44,5.06-.13,1.82.38,3.62,1.44,5.11,2.29,2.29,6.01,2.29,8.3,0h.03Zm20.8-13.42h-2v10.86c.07,1.17-.33,2.33-1.12,3.2-.88.79-2.05,1.19-3.23,1.12-1.21.08-2.41-.32-3.33-1.12-.8-.86-1.2-2.02-1.12-3.19v-10.87h-1.93v10.76c-.09,1.65.5,3.27,1.64,4.48,1.26,1.16,2.94,1.75,4.64,1.64,1.72.09,3.42-.5,4.71-1.64,1.18-1.18,1.81-2.81,1.71-4.48l.03-10.76Zm5.58,16.6h1.93v-16.6h-1.93v16.6Zm5.57-14.89h5.25v14.89h1.93v-14.89h5.26v-1.71h-12.44v1.71Zm22.05-1.75l6.51,16.63h-2l-2.07-5.28h-6.69l-2,5.28h-2l6.56-16.63h1.69Zm1.86,9.62l-1.93-5.14c-.25-.65-.5-1.44-.77-2.39-.19.81-.43,1.61-.72,2.39l-2,5.14h5.42Zm5.97-7.87h5.26v14.89h1.94l.03-14.89h5.26v-1.71h-12.49v1.71Zm18.04,13.12v-6.11h6.88v-1.69h-6.88v-5.32h7.31v-1.71h-9.24v16.6h9.26v-1.77h-7.33Zm25.07-4.17c-.44,1.2-.79,2.43-1.07,3.67-.26-1.23-.59-2.44-1-3.62l-3.79-10.74h-2l5.94,16.63h1.91l6-16.6h-2.19l-3.8,10.66Zm9.31,5.94h9.25v-1.77h-7.33v-6.11h6.88v-1.69h-6.88v-5.32h7.33v-1.71h-9.25v16.6Zm24.61-11.91c.07,2.07-1.32,3.91-3.33,4.41l4.51,7.49h-2.28l-4-6.9h-3.47v6.9h-1.93v-16.59h4.57c1.59-.12,3.18.29,4.51,1.17,1,.88,1.53,2.19,1.42,3.52m-6.01,3.34c1.06.09,2.12-.2,3-.81.69-.62,1.06-1.52,1-2.44.08-.91-.3-1.79-1-2.37-.94-.56-2.03-.81-3.12-.72h-2.51v6.34h2.64-.01Zm23.59-8.03h-2v10.86c.08,1.17-.33,2.33-1.12,3.2-.88.79-2.05,1.19-3.23,1.12-1.21.08-2.41-.32-3.33-1.12-.8-.86-1.2-2.02-1.12-3.19v-10.87h-1.93v10.76c-.09,1.65.5,3.27,1.64,4.48,1.26,1.16,2.93,1.75,4.64,1.64,1.72.09,3.4-.5,4.69-1.64,1.18-1.18,1.81-2.81,1.71-4.48l.05-10.76Zm13.76,13.69h-.09l-5.26-13.69h-2.89v16.59h1.78v-10.56c0-1.6-.05-2.98-.16-4.15h.09l5.63,14.71h1.56l5.68-14.69h.09c-.11,1.43-.16,2.77-.16,4v10.73h1.97v-16.63h-2.89l-5.35,13.69Z" style="fill:none; stroke-width:0px;"/></clipPath><radialGradient id="uuid-fb2bcaf4-ee53-420d-a46c-36c157af79d6" cx="235.99" cy="73.7" fx="235.99" fy="-49.12" r="203.08" gradientTransform="translate(-246.9 54.19) rotate(.09) scale(2.52 .25) skewX(-.11)" gradientUnits="userSpaceOnUse"><stop offset=".01" stop-color="#7c60e6"/><stop offset=".09" stop-color="#725edb"/><stop offset=".32" stop-color="#575abe"/><stop offset=".55" stop-color="#4458a9"/><stop offset=".78" stop-color="#38569d"/><stop offset="1" stop-color="#355699"/></radialGradient><clipPath id="uuid-384659da-b2f3-4449-bb1b-afbdd965607f"><path d="m149.29,119.33c-8.79,0-13.28,5.51-17.24,10.36-3.96,4.85-7.25,8.89-14.14,8.89-2.95.06-5.84-.87-8.19-2.65-1.38-12.25-2.77-24.51-4.15-36.76l-3.2-28.22v-.09c0-.07,0-.14,0-.21,0-.06-.02-.12-.05-.17-.03-.07-.06-.14-.09-.21l-.12-.11-.15-.21-.07-.09-.21-.2-.07-.06-.24-.16h-.09l-.25-.1h-1.76v-37.22c0-.06,0-.13,0-.19-.04-.36-.18-.71-.4-1l-19.61-25.43c-.74-.87-2.05-.97-2.92-.23-.08.07-.16.15-.23.23l-19.59,25.39c-.22.29-.36.64-.4,1v37.29h-1.53l-.27.11h-.06l-.27.17h-.05c-.08.07-.15.14-.22.21l-.06.07c-.06.07-.11.14-.16.22l-.07.12c-.04.07-.07.15-.1.22,0,.05-.03.11-.05.16,0,.07,0,.14,0,.21v.09l-3.2,28.2-4.11,36c-1.79-1.66-3.44-3.47-4.92-5.41-4-4.85-8.45-10.36-17.24-10.36s-13.35,5.65-17.31,10.51c-.65.79-1.29,1.58-2,2.35-.63.91-.41,2.15.5,2.78.77.54,1.81.46,2.5-.17.69-.8,1.36-1.62,2-2.43,3.89-4.77,7.25-8.89,14.14-8.89s10.25,4.11,14.14,8.89c3.89,4.78,8.55,10.36,17.33,10.36s13.28-5.51,17.24-10.36c2.85-3.49,5.34-6.56,9.09-8.01,2.26-.87,4.25-.89,5.05-.88,3.9.03,6.69,1.7,7.8,2.38,2.37,1.45,2.83,2.25,6.35,6.54,3.11,3.8,6.22,7.54,11.14,9.33,1.78.65,3.8,1.03,6.11,1.03,8.8,0,13.28-5.51,17.24-10.36,3.96-4.85,7.25-8.89,14.14-8.89,1.1,0,2-.9,2-2s-.9-2-2-2l.02-.04Zm-50.72-46.03l2.75,24.11h-6.14l-7-12.11,6.95-12h3.44Zm-27.87,10.01l-5.79-10.01h25.58l-5.79,10.01h-14Zm7-73.32l15.5,20.16h-31l15.5-20.16Zm-17.59,24.12h35.16v35.1h-35.16v-35.1Zm-6.34,67.3h6.46l7,12.11-7,12.11h-9.22l2.76-24.22Zm1.34,37.2c-1.88.02-3.74-.35-5.47-1.08l.9-7.88h9.71l3.45,6c-2.42,1.98-5.47,3.03-8.59,2.96m31.4-19.26c-8.8,0-13.28,5.5-17.24,10.35-.87,1.06-1.71,2.06-2.57,3.06l-3-5.12,7-12.11h14.17l2.24,3.84c-.19.01-.37-.03-.58-.03h-.02Zm62.78,0-63.71-61.88c1.1.05,1.96.99,1.9,2.1-.05,1.11-.99,1.96-2.1,1.9h-15.43c-1.11,0-2-.9-2-2s.89-2,2-2h15.62m0-8.01c1.1.05,1.96.99,1.9,2.1-.05,1.11-.99,1.96-2.1,1.9h-15.43c-1.11,0-2-.89-2-2s.89-2,2-2h15.62m0-8c1.1.05,1.96.99,1.9,2.1-.05,1.11-.99,1.96-2.1,1.9h-15.6c-1.11-.05-1.96-.98-1.92-2.08.05-1.1.98-1.96,2.08-1.92h15.62m27.53,15.31s0,0,0,0c.66-.89,1.91-1.07,2.8-.42l20,16.09c.78.69.91,1.86.29,2.69-.66.89-1.91,1.07-2.8.42l-20-16.09c-.78-.68-.91-1.85-.29-2.69m1.54-14.57c-.61,0-1.18-.28-1.56-.75-.69-.86-.55-2.12.31-2.81l20-16.07c.84-.62,2.01-.49,2.69.29.73.83.65,2.09-.18,2.82l-20,16.09c-.36.27-.81.41-1.26.39h0v.04Zm2.32,6.81c0-1.1.9-2,2-2h26.66c1.1.05,1.96.99,1.9,2.1-.05,1.1-.99,1.96-2.1,1.9h-26.47c-1.1,0-2-.9-2-2m-77.5,7.28c.86-.69,2.13-.55,2.82.31.69.86.56,2.13-.31,2.82l-19.97,16.09c-.86.7-2.12.57-2.83-.28-.7-.86-.57-2.12.28-2.83l20-16.11h0m-20.1-30.78c-.83-.74-.91-2-.17-2.83.73-.83,2-.9,2.83-.17l19.98,16.11c.78.69.91,1.86.29,2.69-.66.89-1.91,1.07-2.8.42l-20-16.1h0l-.13-.12Zm-9.63,25.5c-1.1-.05-1.96-.98-1.91-2.08.05-1.1.98-1.96,2.08-1.92h26.47c1.11,0,2,.9,2,2s-.89,2-2,2H9.74" style="fill:none; stroke-width:0px;"/></clipPath><radialGradient id="uuid-03cced09-29a8-48fb-b249-7c31c0a5ce1d" cx="77.71" cy="73.7" fx="77.71" fy="-49.12" r="203.08" gradientTransform="translate(.15 46.88) rotate(.33) scale(1 .36)" gradientUnits="userSpaceOnUse"><stop offset=".01" stop-color="#7c60e6"/><stop offset=".09" stop-color="#725edb"/><stop offset=".32" stop-color="#575abe"/><stop offset=".55" stop-color="#4458a9"/><stop offset=".78" stop-color="#38569d"/><stop offset="1" stop-color="#355699"/></radialGradient></defs><g id="uuid-158855ba-d179-44b8-9ca5-042102da2983"><g style="clip-path:url(#uuid-db61184a-e9d3-4254-9026-79c5566c0fa7);"><rect x="162.44" y="21.97" width="371.04" height="103.46" style="fill:url(#uuid-fb2bcaf4-ee53-420d-a46c-36c157af79d6); stroke-width:0px;"/></g></g><g id="uuid-c60eb996-7c6c-4b95-aacc-1518303d009f"><g style="clip-path:url(#uuid-384659da-b2f3-4449-bb1b-afbdd965607f);"><rect x="4.16" y=".15" width="147.1" height="147.1" style="fill:url(#uuid-03cced09-29a8-48fb-b249-7c31c0a5ce1d); stroke-width:0px;"/></g></g></svg>