<?xml version="1.0" encoding="utf-8"?>
<!-- Generator: Adobe Illustrator 21.0.0, SVG Export Plug-In . SVG Version: 6.00 Build 0)  -->
<svg version="1.1" id="Layer_1" xmlns="http://www.w3.org/2000/svg" xmlns:xlink="http://www.w3.org/1999/xlink" x="0px" y="0px"
	 viewBox="0 0 56 52" style="enable-background:new 0 0 56 52;" xml:space="preserve">
<style type="text/css">
	.st0{fill-opacity:0;}
</style>
<rect y="0" class="st0" width="55.5" height="52"/>
<path d="M48.2,47.1c1.5-1.8,3.2-3.9,6.5-3.9c0.4,0,0.7,0.3,0.7,0.8s-0.3,0.7-0.7,0.8c-2.6,0-3.9,1.6-5.3,3.4
	c-1.5,1.8-3.2,3.9-6.5,3.9c-3.3,0-5-2.1-6.5-3.9l0,0l0,0L36.3,48c-0.3-0.3-0.6-0.7-0.8-1c-0.1-0.1-0.3-0.2-0.3-0.4
	c-0.7-0.8-1.5-1.4-2.5-1.7c0,0-0.1,0-0.1,0l-0.1,0l0,0c-0.4-0.1-0.9-0.2-1.3-0.2c-2.6,0-3.9,1.6-5.3,3.4c-1.5,1.8-3.2,3.9-6.5,3.9
	c-3.3,0-5-2.1-6.5-3.9l0,0c-1.5-1.8-2.7-3.4-5.3-3.4c-2.6,0-3.9,1.6-5.3,3.4L2,48.2l0,0l0,0c-0.2,0.3-0.4,0.5-0.7,0.8
	c-0.3,0.3-0.7,0.3-1,0.1c-0.3-0.3-0.3-0.7-0.1-1c0.3-0.3,0.5-0.6,0.7-0.9c1.5-1.8,3.2-3.9,6.5-3.9c3.3,0,5,2.1,6.5,3.9l0,0
	c0.6,0.8,1.2,1.5,1.9,2l1.5-13.6L18.5,25v0c0,0,0-0.1,0-0.1c0,0,0,0,0-0.1l0,0c0,0,0,0,0,0l0,0l0,0c0,0,0-0.1,0.1-0.1l0,0l0,0l0,0
	l0,0l0.1,0l0,0l0,0l0,0c0,0,0,0,0.1,0l0,0c0,0,0.1,0,0.1,0h0.4v-14v-0.1v0c0-0.1,0.1-0.3,0.2-0.4l7.4-9.6C27.3,0.1,27.5,0,27.7,0
	c0.2,0,0.4,0.1,0.6,0.3l7.4,9.6c0.1,0.1,0.1,0.2,0.2,0.4v0l0,0c0,0,0,0,0,0v14h0.5l0.1,0c0,0,0.1,0,0.1,0l0.1,0c0,0,0.1,0,0.1,0l0,0
	c0,0,0.1,0,0.1,0.1l0,0c0,0,0.1,0,0.1,0.1l0,0c0,0,0,0.1,0.1,0.1l0,0c0,0,0,0.1,0,0.1c0,0,0,0,0,0.1l0,0.1l0,0v0l1.2,10.6l1.6,13.8
	c0,0,0,0.1,0,0.1c0.9,0.7,2,1,3.1,1C45.5,50.5,46.8,48.9,48.2,47.1z M35.6,25.8h-0.3l0,0l0,0l-0.1,0l0,0h-0.8l-2.6,4.5l2.6,4.6h2.3
	L35.6,25.8z M25.1,31.1h5.3l2.7,4.6l-2.6,4.5h-5.3l-2.6-4.6L25.1,31.1z M22.9,25.8l2.2,3.8h5.3l2.2-3.8H22.9z M27.7,2l5.8,7.6H21.9
	L27.7,2z M34.4,11.1H21.1v13.2h13.3V11.1z M19.9,25.8h0.2c0.1,0,0.1,0,0.2,0h0.8l2.6,4.6L21.2,35h-2.3L19.9,25.8z M21.2,36.5h-2.4
	l-1,9.1h3.5l2.6-4.6L21.2,36.5z M19.2,50.5c-0.7,0-1.4-0.1-2.1-0.4l0.3-3h3.7l1.3,2.3C21.6,50.1,20.4,50.5,19.2,50.5z M24.6,47.1
	c1.5-1.8,3.2-3.9,6.5-3.9c0,0,0.1,0,0.1,0l0.1,0l0,0l0,0l-0.8-1.5h-5.3l-2.6,4.6l1.1,1.9C23.9,47.9,24.2,47.5,24.6,47.1L24.6,47.1z
	 M36.2,45.6c-0.8-0.9-1.8-1.6-3-2L31.8,41l2.6-4.6h2.4l1,9.1H36.2z M37.5,47.1L37.5,47.1l0.2,0.3c0.1,0.1,0.2,0.3,0.3,0.4L38,47.1
	H37.5z"/>
<path d="M30.7,20.1h-5.8c-0.4,0-0.7,0.3-0.7,0.7c0,0.4,0.3,0.7,0.7,0.7h5.8c0.3,0,0.5-0.1,0.7-0.3c0.1-0.2,0.2-0.5,0-0.7
	C31.2,20.2,30.9,20.1,30.7,20.1z"/>
<path d="M30.7,16.9h-5.8c-0.4,0-0.7,0.3-0.7,0.7c0,0.4,0.3,0.7,0.7,0.7h5.8c0.4,0,0.8-0.3,0.8-0.7C31.4,17.2,31.1,16.9,30.7,16.9
	L30.7,16.9z"/>
<path d="M30.7,14.1h-5.8c-0.4,0-0.8,0.3-0.8,0.7c0,0.4,0.3,0.7,0.7,0.7h5.8c0.4,0,0.8-0.3,0.8-0.7C31.4,14.5,31.1,14.2,30.7,14.1z"
	/>
<path d="M41.1,19.9c-0.2,0.3-0.2,0.8,0.1,1l7.6,6.2c0.3,0.2,0.8,0.2,1-0.1c0.3-0.3,0.2-0.8-0.1-1.1l-7.6-6.2
	c-0.2-0.1-0.4-0.2-0.6-0.1C41.4,19.7,41.2,19.8,41.1,19.9z"/>
<path d="M41.7,14.6c0.2,0,0.3-0.1,0.5-0.2l7.6-6.2c0.3-0.3,0.3-0.7,0.1-1.1c-0.3-0.3-0.7-0.4-1-0.1l-7.6,6.2
	c-0.3,0.2-0.3,0.6-0.2,0.9C41.1,14.4,41.3,14.6,41.7,14.6z"/>
<path d="M42.7,16.6c0,0.4,0.3,0.7,0.7,0.7h9.8c0.4,0,0.8-0.3,0.8-0.7c0-0.4-0.3-0.7-0.7-0.7h-9.9C43.1,16,42.7,16.3,42.7,16.6z"/>
<path d="M13.3,19.8L13.3,19.8L5.7,26c-0.2,0.2-0.3,0.5-0.3,0.7c0,0.3,0.2,0.5,0.5,0.6c0.3,0.1,0.5,0.1,0.8-0.1l7.6-6.2
	c0.2-0.2,0.3-0.4,0.3-0.7c0-0.3-0.2-0.5-0.5-0.6C13.8,19.6,13.5,19.6,13.3,19.8z"/>
<path d="M5.8,8.2l7.6,6.2c0.3,0.2,0.8,0.2,1-0.1c0.3-0.3,0.2-0.8-0.1-1.1L6.7,7C6.5,6.9,6.2,6.8,6,6.9C5.7,7,5.5,7.2,5.5,7.5
	C5.4,7.8,5.5,8,5.8,8.2L5.8,8.2z"/>
<path d="M2.1,17.3H12c0.4,0,0.7-0.3,0.7-0.7S12.4,16,12,16H2.1c-0.4,0-0.8,0.3-0.8,0.7C1.3,17,1.7,17.3,2.1,17.3z"/>
</svg>
