<svg xmlns="http://www.w3.org/2000/svg" xmlns:xlink="http://www.w3.org/1999/xlink" xmlns:lucid="lucid" width="1787.6" height="1245.38"><g transform="translate(-18.092592592592595 -40)" lucid:page-tab-id="0_0"><path d="M330.67 66a6 6 0 0 1 6-6H514a6 6 0 0 1 6 6v48a6 6 0 0 1-6 6H336.67a6 6 0 0 1-6-6z" fill="none"/><use xlink:href="#a" transform="matrix(1,0,0,1,330.66666666666674,60) translate(22.561728395061735 34.44444444444444)"/><use xlink:href="#b" transform="matrix(1,0,0,1,330.66666666666674,60) translate(78.67283950617283 34.44444444444444)"/><path d="M580 66a6 6 0 0 1 6-6h177.33a6 6 0 0 1 6 6v48a6 6 0 0 1-6 6H586a6 6 0 0 1-6-6z" fill="none"/><use xlink:href="#a" transform="matrix(1,0,0,1,580,60) translate(41.141975308641975 21.111111111111114)"/><use xlink:href="#c" transform="matrix(1,0,0,1,580,60) translate(97.25308641975309 21.111111111111114)"/><use xlink:href="#d" transform="matrix(1,0,0,1,580,60) translate(50.617283950617285 47.777777777777786)"/><path d="M840.77 66a6 6 0 0 1 6-6h177.33a6 6 0 0 1 6 6v48a6 6 0 0 1-6 6H846.77a6 6 0 0 1-6-6z" fill="none"/><use xlink:href="#a" transform="matrix(1,0,0,1,840.7664041994916,60.00000000003877) translate(25.740740740740748 21.111111111111114)"/><use xlink:href="#e" transform="matrix(1,0,0,1,840.7664041994916,60.00000000003877) translate(81.85185185185185 21.111111111111114)"/><use xlink:href="#f" transform="matrix(1,0,0,1,840.7664041994916,60.00000000003877) translate(5.154320987654316 47.777777777777786)"/><use xlink:href="#g" transform="matrix(1,0,0,1,840.7664041994916,60.00000000003877) translate(132.62345679012344 47.777777777777786)"/><path d="M1089.33 66a6 6 0 0 1 6-6h177.34a6 6 0 0 1 6 6v48a6 6 0 0 1-6 6h-177.34a6 6 0 0 1-6-6z" fill="none"/><use xlink:href="#h" transform="matrix(1,0,0,1,1089.3333333333333,60.00000000003877) translate(10.277777777777771 21.111111111111114)"/><use xlink:href="#i" transform="matrix(1,0,0,1,1089.3333333333333,60.00000000003877) translate(66.38888888888889 21.111111111111114)"/><use xlink:href="#j" transform="matrix(1,0,0,1,1089.3333333333333,60.00000000003877) translate(50.617283950617285 47.777777777777786)"/><path d="M335.33 176.58a6 6 0 0 1 6-6h168a6 6 0 0 1 6 6v48a6 6 0 0 1-6 6h-168a6 6 0 0 1-6-6z" stroke="#4881b3" stroke-width="3" fill="#f5fbff"/><use xlink:href="#k" transform="matrix(1,0,0,1,347.33333333333337,182.58333333334312) translate(29.69753086419753 22.27777777777778)"/><use xlink:href="#l" transform="matrix(1,0,0,1,347.33333333333337,182.58333333334312) translate(84.51234567901234 22.27777777777778)"/><path d="M335.33 287.92a6 6 0 0 1 6-6h168a6 6 0 0 1 6 6v65.33a6 6 0 0 1-6 6h-168a6 6 0 0 1-6-6z" stroke="#4881b3" stroke-width="3" fill="#f5fbff"/><use xlink:href="#m" transform="matrix(1,0,0,1,347.33333333333337,293.91666666667646) translate(21.70370370370371 21.15277777777778)"/><use xlink:href="#n" transform="matrix(1,0,0,1,347.33333333333337,293.91666666667646) translate(74.0493827160494 21.15277777777778)"/><use xlink:href="#l" transform="matrix(1,0,0,1,347.33333333333337,293.91666666667646) translate(57.10493827160494 47.81944444444444)"/><path d="M335.33 416.58a6 6 0 0 1 6-6h168a6 6 0 0 1 6 6v65.34a6 6 0 0 1-6 6h-168a6 6 0 0 1-6-6z" stroke="#4881b3" stroke-width="3" fill="#f5fbff"/><use xlink:href="#o" transform="matrix(1,0,0,1,347.33333333333337,422.583333333343) translate(2.1975308641975317 31.27777777777778)"/><use xlink:href="#p" transform="matrix(1,0,0,1,347.33333333333337,422.583333333343) translate(64.4814814814815 31.27777777777778)"/><use xlink:href="#l" transform="matrix(1,0,0,1,347.33333333333337,422.583333333343) translate(112.01234567901234 31.27777777777778)"/><path d="M335.33 537.33a6 6 0 0 1 6-6h168a6 6 0 0 1 6 6v65.34a6 6 0 0 1-6 6h-168a6 6 0 0 1-6-6z" stroke="#4881b3" stroke-width="3" fill="#f5fbff"/><use xlink:href="#q" transform="matrix(1,0,0,1,347.33333333333337,543.3333333333721) translate(18.27777777777778 31.27777777777778)"/><use xlink:href="#r" transform="matrix(1,0,0,1,347.33333333333337,543.3333333333721) translate(52.166666666666664 31.27777777777778)"/><use xlink:href="#l" transform="matrix(1,0,0,1,347.33333333333337,543.3333333333721) translate(95.9320987654321 31.27777777777778)"/><path d="M335.33 997.33a6 6 0 0 1 6-6h168a6 6 0 0 1 6 6v65.34a6 6 0 0 1-6 6h-168a6 6 0 0 1-6-6z" stroke="#4881b3" stroke-width="3" fill="#f5fbff"/><use xlink:href="#s" transform="matrix(1,0,0,1,347.33333333333337,1003.3333333333723) translate(33.64814814814815 31.27777777777778)"/><path d="M426.33 971.37h-2v-.03h2zm0-21.37h-2v-17.53h2z" stroke="#224c72" stroke-width=".05" fill="#224c72"/><path d="M425.33 931.47l1-.04v1.07h-2v-1.07z" fill="#224c72"/><path d="M425.33 931.45l1.03-.05v1.12h-2.05v-1.12zm-.97 1.02h1.95v-1.02l-.97.05-.97-.05z" stroke="#224c72" stroke-width=".05" fill="#224c72"/><path d="M425.33 986.63l-4.63-14.26h9.27z" fill="#224c72"/><path d="M425.33 989.87l-6-18.5h12.02zm-3.26-16.5l3.26 10.03 3.26-10.03z" stroke="#224c72" stroke-width=".05" fill="#224c72"/><use xlink:href="#t" transform="matrix(1,0,0,1,412.54320987654324,950.0047213024264) translate(0 14.222222222222223)"/><path d="M590.67 997.33a6 6 0 0 1 6-6h168a6 6 0 0 1 6 6v65.34a6 6 0 0 1-6 6h-168a6 6 0 0 1-6-6z" stroke="#4881b3" stroke-width="3" fill="#f5fbff"/><use xlink:href="#s" transform="matrix(1,0,0,1,602.6666666666667,1003.3333333333723) translate(33.64814814814815 31.27777777777778)"/><path d="M681.67 971.37h-2L679.6 882h2zM549.4 872.33v-2h113.56v2z" stroke="#224c72" stroke-width=".05" fill="#224c72"/><path d="M549.42 872.33h-1.14l.12-1-.1-.97 1.12-.03z" fill="#224c72"/><path d="M549.45 872.36h-1.2l.12-1.03-.1-1 1.18-.02zm-1.14-1.98l.12.95-.1.98h1.08v-1.94z" stroke="#224c72" stroke-width=".05" fill="#224c72"/><path d="M680.67 986.63l-4.64-14.26h9.27z" fill="#224c72"/><path d="M680.67 989.87l-6.02-18.5h12.03zm-3.26-16.5l3.27 10.03 3.26-10.03z" stroke="#224c72" stroke-width=".05" fill="#224c72"/><use xlink:href="#u" transform="matrix(1,0,0,1,662.9604054180311,860.6666666667055) translate(0 14.222222222222223)"/><path d="M419.92 813.92a12.53 12.53 0 0 1 10.83 0l114.5 54.82a2.87 2.87 0 0 1 0 5.18l-114.5 54.82a12.53 12.53 0 0 1-10.83 0l-114.5-54.82a2.87 2.87 0 0 1 0-5.18z" stroke="#4881b3" stroke-width="3" fill="#f5fbff"/><use xlink:href="#v" transform="matrix(1,0,0,1,305,816.3333333333721) translate(3.555555555555557 32.77777777777778)"/><use xlink:href="#w" transform="matrix(1,0,0,1,305,816.3333333333721) translate(52.62962962962963 32.77777777777778)"/><use xlink:href="#x" transform="matrix(1,0,0,1,305,816.3333333333721) translate(160.4074074074074 32.77777777777778)"/><use xlink:href="#y" transform="matrix(1,0,0,1,305,816.3333333333721) translate(205.4074074074074 32.77777777777778)"/><use xlink:href="#z" transform="matrix(1,0,0,1,305,816.3333333333721) translate(79.38888888888889 59.44444444444445)"/><use xlink:href="#A" transform="matrix(1,0,0,1,305,816.3333333333721) translate(41.61111111111113 86.11111111111111)"/><path d="M1100 176.58a6 6 0 0 1 6-6h168a6 6 0 0 1 6 6v48a6 6 0 0 1-6 6h-168a6 6 0 0 1-6-6z" stroke="#4881b3" stroke-width="3" fill="#f5fbff"/><use xlink:href="#B" transform="matrix(1,0,0,1,1112,182.58333333334312) translate(7.475308641975317 22.27777777777778)"/><use xlink:href="#C" transform="matrix(1,0,0,1,1112,182.58333333334312) translate(61.73456790123457 22.27777777777778)"/><use xlink:href="#l" transform="matrix(1,0,0,1,1112,182.58333333334312) translate(106.73456790123457 22.27777777777778)"/><path d="M1321.34 66a6 6 0 0 1 6-6h205.32a6 6 0 0 1 6 6v48a6 6 0 0 1-6 6h-205.32a6 6 0 0 1-6-6z" fill="none"/><use xlink:href="#h" transform="matrix(1,0,0,1,1321.3385826771657,60.00000000003877) translate(13.290123456790127 21.111111111111114)"/><use xlink:href="#D" transform="matrix(1,0,0,1,1321.3385826771657,60.00000000003877) translate(69.40123456790124 21.111111111111114)"/><use xlink:href="#E" transform="matrix(1,0,0,1,1321.3385826771657,60.00000000003877) translate(115.57407407407408 21.111111111111114)"/><use xlink:href="#F" transform="matrix(1,0,0,1,1321.3385826771657,60.00000000003877) translate(198.53703703703704 21.111111111111114)"/><use xlink:href="#G" transform="matrix(1,0,0,1,1321.3385826771657,60.00000000003877) translate(10.851851851851848 47.777777777777786)"/><use xlink:href="#H" transform="matrix(1,0,0,1,1321.3385826771657,60.00000000003877) translate(129.74074074074076 47.777777777777786)"/><path d="M1100 287.92a6 6 0 0 1 6-6h168a6 6 0 0 1 6 6v65.33a6 6 0 0 1-6 6h-168a6 6 0 0 1-6-6z" stroke="#4881b3" stroke-width="3" fill="#f5fbff"/><use xlink:href="#I" transform="matrix(1,0,0,1,1112,293.91666666667646) translate(21.70370370370371 21.15277777777778)"/><use xlink:href="#J" transform="matrix(1,0,0,1,1112,293.91666666667646) translate(74.0493827160494 21.15277777777778)"/><use xlink:href="#K" transform="matrix(1,0,0,1,1112,293.91666666667646) translate(57.10493827160494 47.81944444444444)"/><path d="M1100 416.58a6 6 0 0 1 6-6h168a6 6 0 0 1 6 6v65.34a6 6 0 0 1-6 6h-168a6 6 0 0 1-6-6z" stroke="#4881b3" stroke-width="3" fill="#f5fbff"/><use xlink:href="#o" transform="matrix(1,0,0,1,1112,422.5833333333043) translate(2.1975308641975317 31.27777777777778)"/><use xlink:href="#p" transform="matrix(1,0,0,1,1112,422.5833333333043) translate(64.4814814814815 31.27777777777778)"/><use xlink:href="#l" transform="matrix(1,0,0,1,1112,422.5833333333043) translate(112.01234567901234 31.27777777777778)"/><path d="M1100 537.33a6 6 0 0 1 6-6h168a6 6 0 0 1 6 6v65.34a6 6 0 0 1-6 6h-168a6 6 0 0 1-6-6z" stroke="#4881b3" stroke-width="3" fill="#f5fbff"/><use xlink:href="#q" transform="matrix(1,0,0,1,1112,543.3333333333334) translate(18.27777777777778 31.27777777777778)"/><use xlink:href="#r" transform="matrix(1,0,0,1,1112,543.3333333333334) translate(52.166666666666664 31.27777777777778)"/><use xlink:href="#l" transform="matrix(1,0,0,1,1112,543.3333333333334) translate(95.9320987654321 31.27777777777778)"/><path d="M425.33 490.38v21" stroke="#224c72" stroke-width="2" fill="none"/><path d="M426.33 490.4h-2v-1.02h2z" stroke="#224c72" stroke-width=".05" fill="#224c72"/><path d="M425.33 526.63l-4.63-14.26h9.27z" stroke="#224c72" stroke-width="2" fill="#224c72"/><path d="M425.33 361.7v28.92" stroke="#224c72" stroke-width="2" fill="none"/><path d="M426.33 361.74h-2v-1.03h2z" stroke="#224c72" stroke-width=".05" fill="#224c72"/><path d="M425.33 405.88l-4.63-14.26h9.27z" stroke="#224c72" stroke-width="2" fill="#224c72"/><path d="M425.33 233.05v28.9" stroke="#224c72" stroke-width="2" fill="none"/><path d="M426.33 233.07h-2v-1.02h2z" stroke="#224c72" stroke-width=".05" fill="#224c72"/><path d="M425.33 277.22l-4.63-14.27h9.27z" stroke="#224c72" stroke-width="2" fill="#224c72"/><path d="M1190 233.05v28.9" stroke="#224c72" stroke-width="2" fill="none"/><path d="M1191 233.07h-2v-1.02h2z" stroke="#224c72" stroke-width=".05" fill="#224c72"/><path d="M1190 277.22l-4.64-14.27h9.28z" stroke="#224c72" stroke-width="2" fill="#224c72"/><path d="M1190 361.7v28.92" stroke="#224c72" stroke-width="2" fill="none"/><path d="M1191 361.74h-2v-1.03h2z" stroke="#224c72" stroke-width=".05" fill="#224c72"/><path d="M1190 405.88l-4.64-14.26h9.28z" stroke="#224c72" stroke-width="2" fill="#224c72"/><path d="M1190 490.38v21" stroke="#224c72" stroke-width="2" fill="none"/><path d="M1191 490.4h-2v-1.02h2z" stroke="#224c72" stroke-width=".05" fill="#224c72"/><path d="M1190 526.63l-4.64-14.26h9.28z" stroke="#224c72" stroke-width="2" fill="#224c72"/><path d="M1190 611.13v360.24" stroke="#224c72" stroke-width="2" fill="none"/><path d="M1191 611.16h-2v-1.03h2z" stroke="#224c72" stroke-width=".05" fill="#224c72"/><path d="M1190 986.63l-4.64-14.26h9.28z" stroke="#224c72" stroke-width="2" fill="#224c72"/><path d="M420.1 654.25a10.8 10.8 0 0 1 10.48 0l79.5 44.17a3.33 3.33 0 0 1 0 5.83l-79.5 44.17a10.8 10.8 0 0 1-10.5 0l-79.5-44.17a3.33 3.33 0 0 1 0-5.83z" stroke="#4881b3" stroke-width="3" fill="#f5fbff"/><use xlink:href="#L" transform="matrix(1,0,0,1,340.33333333333337,656.3333333333721) translate(30.52469135802469 36.111111111111114)"/><use xlink:href="#M" transform="matrix(1,0,0,1,340.33333333333337,656.3333333333721) translate(113.67283950617283 36.111111111111114)"/><use xlink:href="#N" transform="matrix(1,0,0,1,340.33333333333337,656.3333333333721) translate(10.432098765432116 62.77777777777778)"/><path d="M426.33 792.7h-2v-.8h2zm0-22.13h-2v-18.3h2z" stroke="#224c72" stroke-width=".05" fill="#224c72"/><path d="M425.33 751.28l1-.05v1.08h-2v-1.07z" fill="#224c72"/><path d="M425.33 751.26l1.03-.06v1.13h-2.05v-1.13zm-.97 1.02h1.95v-1.02l-.97.05-.97-.04z" stroke="#224c72" stroke-width=".05" fill="#224c72"/><path d="M425.33 807.96l-4.63-14.27h9.27z" fill="#224c72"/><path d="M425.33 811.2l-6-18.5h12.02zm-3.26-16.5l3.26 10.02 3.26-10.03z" stroke="#224c72" stroke-width=".05" fill="#224c72"/><use xlink:href="#t" transform="matrix(1,0,0,1,412.54320987654324,770.5705788330185) translate(0 14.222222222222223)"/><path d="M930.53 700.42l1.07.25 1 .42.95.57.84.7.7.85.57.93.42 1.02.26 1.1.07 265.1h-2l-.07-264.86-.17-.7-.3-.74-.42-.66-.5-.6-.6-.5-.68-.42-.72-.3-.77-.18-.8-.07h-49.92v-2h50zm-416.22 1.9v-2h343.5v2z" stroke="#224c72" stroke-width=".05" fill="#224c72"/><path d="M514.34 702.33h-1.14l.1-1-.1-1h1.14z" fill="#224c72"/><path d="M514.36 702.36h-1.18l.1-1.03-.1-1.02h1.18zm-1.13-2l.1.97-.1.98h1.08v-1.94z" stroke="#224c72" stroke-width=".05" fill="#224c72"/><path d="M935.43 986.63l-4.63-14.26h9.27z" fill="#224c72"/><path d="M935.43 989.87l-6-18.5h12zm-3.26-16.5l3.26 10.03 3.26-10.03z" stroke="#224c72" stroke-width=".05" fill="#224c72"/><use xlink:href="#u" transform="matrix(1,0,0,1,857.8011075829049,690.6666666667055) translate(0 14.222222222222223)"/><path d="M290.75 141.5a.75.75 0 0 1 .75-.75h1492.7a.75.75 0 0 1 .74.75.75.75 0 0 1-.75.75H291.5a.75.75 0 0 1-.75-.75z" stroke="#4881b3" stroke-width="1.5" fill="none"/><path d="M40 177.33a6 6 0 0 1 6-6h177.33a6 6 0 0 1 6 6v48a6 6 0 0 1-6 6H46a6 6 0 0 1-6-6z" fill="none"/><use xlink:href="#O" transform="matrix(1,0,0,1,40,171.33333333337214) translate(5.987654320987659 34.44444444444444)"/><use xlink:href="#P" transform="matrix(1,0,0,1,40,171.33333333337214) translate(69.44444444444446 34.44444444444444)"/><path d="M250.83 172.08a.75.75 0 0 1 .75.75V960.5a.75.75 0 0 1-.75.75.75.75 0 0 1-.75-.75V172.83a.75.75 0 0 1 .75-.75zM250.83 984.75a.75.75 0 0 1 .75.75v107a.75.75 0 0 1-.75.75.75.75 0 0 1-.75-.75v-107a.75.75 0 0 1 .75-.75z" stroke="#4881b3" stroke-width="1.5" fill="none"/><path d="M40 1014.67a6 6 0 0 1 6-6h177.33a6 6 0 0 1 6 6v48a6 6 0 0 1-6 6H46a6 6 0 0 1-6-6z" fill="none"/><use xlink:href="#Q" transform="matrix(1,0,0,1,40,1008.6666666666279) translate(0.09259259259259522 34.44444444444444)"/><use xlink:href="#R" transform="matrix(1,0,0,1,40,1008.6666666666279) translate(96.88271604938272 34.44444444444444)"/><use xlink:href="#S" transform="matrix(1,0,0,1,40,1008.6666666666279) translate(137.00617283950618 34.44444444444444)"/><path d="M250.83 1120.75a.75.75 0 0 1 .75.75v142.38a.75.75 0 0 1-.75.75.75.75 0 0 1-.75-.75V1121.5a.75.75 0 0 1 .75-.75z" stroke="#4881b3" stroke-width="1.5" fill="none"/><path d="M845.43 997.33a6 6 0 0 1 6-6h168a6 6 0 0 1 6 6v65.34a6 6 0 0 1-6 6h-168a6 6 0 0 1-6-6z" stroke="#4881b3" stroke-width="3" fill="#f5fbff"/><use xlink:href="#s" transform="matrix(1,0,0,1,857.4330708661582,1003.3333333333721) translate(33.64814814814815 31.27777777777778)"/><path d="M1100 997.33a6 6 0 0 1 6-6h168a6 6 0 0 1 6 6v65.34a6 6 0 0 1-6 6h-168a6 6 0 0 1-6-6z" stroke="#4881b3" stroke-width="3" fill="#f5fbff"/><use xlink:href="#s" transform="matrix(1,0,0,1,1111.9999999999611,1003.3333333333723) translate(33.64814814814815 31.27777777777778)"/><path d="M60 1151.6a6 6 0 0 1 6-6h177.33a6 6 0 0 1 6 6v48a6 6 0 0 1-6 6H66a6 6 0 0 1-6-6z" fill="none"/><use xlink:href="#T" transform="matrix(1,0,0,1,59.999999999999886,1145.6100000000197) translate(0 17.77777777777778)"/><use xlink:href="#U" transform="matrix(1,0,0,1,59.999999999999886,1145.6100000000197) translate(79.44444444444444 17.77777777777778)"/><use xlink:href="#V" transform="matrix(1,0,0,1,59.999999999999886,1145.6100000000197) translate(7.222222222222221 44.44444444444444)"/><use xlink:href="#W" transform="matrix(1,0,0,1,59.999999999999886,1145.6100000000197) translate(22.22222222222222 44.44444444444444)"/><use xlink:href="#V" transform="matrix(1,0,0,1,59.999999999999886,1145.6100000000197) translate(7.222222222222221 71.11111111111111)"/><use xlink:href="#X" transform="matrix(1,0,0,1,59.999999999999886,1145.6100000000197) translate(22.22222222222222 71.11111111111111)"/><use xlink:href="#V" transform="matrix(1,0,0,1,59.999999999999886,1145.6100000000197) translate(7.222222222222221 97.77777777777777)"/><use xlink:href="#Y" transform="matrix(1,0,0,1,59.999999999999886,1145.6100000000197) translate(22.22222222222222 97.77777777777777)"/><path d="M425.33 611.13v21.75" stroke="#224c72" stroke-width="2" fill="none"/><path d="M426.33 611.16h-2v-1.03h2z" stroke="#224c72" stroke-width=".05" fill="#224c72"/><path d="M425.33 648.15l-4.63-14.27h9.27z" stroke="#224c72" stroke-width="2" fill="#224c72"/><path d="M1580 997.33a6 6 0 0 1 6-6h168a6 6 0 0 1 6 6v65.34a6 6 0 0 1-6 6h-168a6 6 0 0 1-6-6z" stroke="#4881b3" stroke-width="3" fill="#f5fbff"/><use xlink:href="#Z" transform="matrix(1,0,0,1,1591.9999999999611,1003.3333333333334) translate(33.64814814814815 31.27777777777778)"/><path d="M1569.33 66a6 6 0 0 1 6-6h177.34a6 6 0 0 1 6 6v48a6 6 0 0 1-6 6h-177.34a6 6 0 0 1-6-6z" fill="none"/><use xlink:href="#aa" transform="matrix(1,0,0,1,1569.3333333332944,60) translate(38.858024691358025 21.111111111111114)"/><use xlink:href="#ab" transform="matrix(1,0,0,1,1569.3333333332944,60) translate(100.58641975308642 21.111111111111114)"/><use xlink:href="#ac" transform="matrix(1,0,0,1,1569.3333333332944,60) translate(20.80246913580247 47.777777777777786)"/><use xlink:href="#ad" transform="matrix(1,0,0,1,1569.3333333332944,60) translate(119.93827160493828 47.777777777777786)"/><path d="M1580 176.58a6 6 0 0 1 6-6h168a6 6 0 0 1 6 6v48a6 6 0 0 1-6 6h-168a6 6 0 0 1-6-6z" stroke="#4881b3" stroke-width="3" fill="#f5fbff"/><use xlink:href="#ae" transform="matrix(1,0,0,1,1591.9999999999611,182.58333333337214) translate(54.66666666666667 22.27777777777778)"/><path d="M1580 1142.94a6 6 0 0 1 6-6h168a6 6 0 0 1 6 6v65.34a6 6 0 0 1-6 6h-168a6 6 0 0 1-6-6z" stroke="#4881b3" stroke-width="3" fill="#f5fbff"/><g><use xlink:href="#af" transform="matrix(1,0,0,1,1591.9999999999613,1148.9433333333532) translate(45.376543209876544 31.27777777777778)"/></g><path d="M1430 233.05v157.57" stroke="#224c72" stroke-width="2" fill="none"/><path d="M1431 233.07h-2v-1.02h2z" stroke="#224c72" stroke-width=".05" fill="#224c72"/><path d="M1430 405.88l-4.64-14.26h9.28z" stroke="#224c72" stroke-width="2" fill="#224c72"/><path d="M1430 490.38v21" stroke="#224c72" stroke-width="2" fill="none"/><path d="M1431 490.4h-2v-1.02h2z" stroke="#224c72" stroke-width=".05" fill="#224c72"/><path d="M1430 526.63l-4.64-14.26h9.28z" stroke="#224c72" stroke-width="2" fill="#224c72"/><path d="M1430 611.13v360.24" stroke="#224c72" stroke-width="2" fill="none"/><path d="M1431 611.16h-2v-1.03h2z" stroke="#224c72" stroke-width=".05" fill="#224c72"/><path d="M1430 986.63l-4.64-14.26h9.28z" stroke="#224c72" stroke-width="2" fill="#224c72"/><path d="M1340 176.58a6 6 0 0 1 6-6h168a6 6 0 0 1 6 6v48a6 6 0 0 1-6 6h-168a6 6 0 0 1-6-6z" stroke="#4881b3" stroke-width="3" fill="#f5fbff"/><g><use xlink:href="#ae" transform="matrix(1,0,0,1,1351.9999999999611,182.58333333337214) translate(54.66666666666667 22.27777777777778)"/></g><path d="M1340 416.58a6 6 0 0 1 6-6h168a6 6 0 0 1 6 6v65.34a6 6 0 0 1-6 6h-168a6 6 0 0 1-6-6z" stroke="#4881b3" stroke-width="3" fill="#f5fbff"/><g><use xlink:href="#ag" transform="matrix(1,0,0,1,1351.9999999999611,422.5833333332169) translate(2.1975308641975317 31.27777777777778)"/><use xlink:href="#ah" transform="matrix(1,0,0,1,1351.9999999999611,422.5833333332169) translate(64.4814814814815 31.27777777777778)"/><use xlink:href="#K" transform="matrix(1,0,0,1,1351.9999999999611,422.5833333332169) translate(112.01234567901234 31.27777777777778)"/></g><path d="M1340 537.33a6 6 0 0 1 6-6h168a6 6 0 0 1 6 6v65.34a6 6 0 0 1-6 6h-168a6 6 0 0 1-6-6z" stroke="#4881b3" stroke-width="3" fill="#f5fbff"/><g><use xlink:href="#ai" transform="matrix(1,0,0,1,1351.9999999999611,543.3333333333334) translate(18.27777777777778 31.27777777777778)"/><use xlink:href="#aj" transform="matrix(1,0,0,1,1351.9999999999611,543.3333333333334) translate(52.166666666666664 31.27777777777778)"/><use xlink:href="#K" transform="matrix(1,0,0,1,1351.9999999999611,543.3333333333334) translate(95.9320987654321 31.27777777777778)"/></g><path d="M1340 997.33a6 6 0 0 1 6-6h168a6 6 0 0 1 6 6v65.34a6 6 0 0 1-6 6h-168a6 6 0 0 1-6-6z" stroke="#4881b3" stroke-width="3" fill="#f5fbff"/><g><use xlink:href="#Z" transform="matrix(1,0,0,1,1351.9999999999611,1003.3333333333334) translate(33.64814814814815 31.27777777777778)"/></g><path d="M1670 233.05v738.32" stroke="#224c72" stroke-width="2" fill="none"/><path d="M1671 233.07h-2v-1.02h2z" stroke="#224c72" stroke-width=".05" fill="#224c72"/><path d="M1670 986.63l-4.64-14.26h9.28z" stroke="#224c72" stroke-width="2" fill="#224c72"/><path d="M581.33 176.58a6 6 0 0 1 6-6h177.34a6 6 0 0 1 6 6v48a6 6 0 0 1-6 6H587.33a6 6 0 0 1-6-6z" fill="none"/><g><use xlink:href="#ak" transform="matrix(1,0,0,1,581.3333333333335,170.58333333334312) translate(12.31481481481481 34.44444444444444)"/><use xlink:href="#al" transform="matrix(1,0,0,1,581.3333333333335,170.58333333334312) translate(68.42592592592592 34.44444444444444)"/><use xlink:href="#am" transform="matrix(1,0,0,1,581.3333333333335,170.58333333334312) translate(93.73456790123456 34.44444444444444)"/></g><path d="M840.67 176.58a6 6 0 0 1 6-6H1024a6 6 0 0 1 6 6v48a6 6 0 0 1-6 6H846.67a6 6 0 0 1-6-6z" fill="none"/><g><use xlink:href="#ak" transform="matrix(1,0,0,1,840.6666666666279,170.58333333334312) translate(12.31481481481481 34.44444444444444)"/><use xlink:href="#al" transform="matrix(1,0,0,1,840.6666666666279,170.58333333334312) translate(68.42592592592592 34.44444444444444)"/><use xlink:href="#am" transform="matrix(1,0,0,1,840.6666666666279,170.58333333334312) translate(93.73456790123456 34.44444444444444)"/></g><path d="M330.67 1142.94a6 6 0 0 1 6-6H1514a6 6 0 0 1 6 6v65.34a6 6 0 0 1-6 6H336.67a6 6 0 0 1-6-6z" fill-opacity="0"/><path d="M353.76 1137.02h12.03m12 0h12.03m12.03 0h12.02m12.02 0h12.03m12.02 0h12.02m12.02 0H486m12.02 0h12.02m12.03 0l12-.02m12.03 0h12.03m12.02 0h12.02m12.03 0h12.02m12.02 0h12.03m12.02 0h12.02m12.03 0h12.02m12 0h12.04m12.02 0h12.02m12.02 0h12.03m12.02 0h12.02m12.03 0h12.02m12.02 0h12.03m12.02 0h12m12.04-.02h12.02m12.02 0h12.03m12.03 0h12.02m12.03 0h12.02m12.02 0h12.03m12.02 0H991m12 0h12.04m12.02 0h12.02m12.03 0h12.03m12.02 0h12.03m12.02 0h12.02m12.03 0h12.02m12.02 0h12.02m12.02-.02h12.02m12.03 0h12m12.03 0h12.03m12.02 0h12.02m12.02 0h12.03m12.02 0h12.02m12.02 0h12.02m12.02 0h12.03m12 0h12.03m12.03 0h12.02m12.02 0h12.03m12.02 0h12.02m12.03 0h12.02m12.02 0l12.03-.02m12.02 0h6l.94.08.9.22.88.36.8.5.72.6.6.72.5.8.37.87.23.9v5.53m0 11.04l.03 11.05m0 11.04l.02 11.05m0 11.05l.02 5.53-.07.94-.22.9-.35.88-.5.8-.6.72-.72.6-.8.5-.88.36-.9.22h-6.02m-12.03 0h-12.02m-12.02 0h-12.03m-12.02 0h-12m-12.04 0h-12.02m-12.02 0h-12.02m-12.03 0h-12.02m-12.02 0h-12.03m-12.02 0l-12.02.02m-12.03 0h-12.02m-12 0h-12.04m-12.02 0h-12.02m-12.03 0h-12.03m-12.02 0h-12.03m-12.02 0h-12.02m-12.03 0h-12.02m-12.02 0h-12m-12.04 0h-12.02m-12.02 0h-12.03m-12.03 0h-12.02m-12.03 0H1028m-12.02 0h-12.03m-12.02.02H979.9m-12.02 0h-12.02m-12.02 0H931.8m-12 0h-12.03m-12.03 0h-12.02m-12.02 0h-12.02m-12.03 0h-12.02m-12.02 0H811.6m-12.02 0h-12.02m-12.03 0h-12m-12.03 0h-12.03m-12.02 0H715.4m-12.03 0h-12.02m-12.02.02H667.3m-12.02 0h-12.02m-12.03 0H619.2m-12 0h-12.03m-12.03 0h-12.02m-12.02 0h-12.03m-12.02 0h-12.02m-12.03 0h-12.02m-12.02 0h-12.03m-12.02 0h-12m-12.04 0h-12.02m-12.02 0H402.8m-12.03 0h-12.02m-12.03 0l-12.02.02m-12.02 0h-6l-.95-.08-.92-.22-.86-.36-.8-.5-.72-.6-.6-.72-.5-.8-.36-.87-.22-.9v-5.54m-.02-11.05v-11.05m-.02-11.04v-11.05m-.03-11.03v-5.53l.07-.94.22-.9.36-.88.5-.8.6-.72.72-.6.8-.5.87-.36.93-.22h6" stroke="#224c72" stroke-width="3" fill="none"/><g><use xlink:href="#an" transform="matrix(1,0,0,1,342.66666666666674,1148.943333333353) translate(179.4074074074075 31.45833333333333)"/><use xlink:href="#ao" transform="matrix(1,0,0,1,342.66666666666674,1148.943333333353) translate(218.59259259259267 31.45833333333333)"/><use xlink:href="#ap" transform="matrix(1,0,0,1,342.66666666666674,1148.943333333353) translate(324.29629629629636 31.45833333333333)"/><use xlink:href="#aq" transform="matrix(1,0,0,1,342.66666666666674,1148.943333333353) translate(436.00000000000006 31.45833333333333)"/><use xlink:href="#ar" transform="matrix(1,0,0,1,342.66666666666674,1148.943333333353) translate(479.5555555555556 31.45833333333333)"/><use xlink:href="#as" transform="matrix(1,0,0,1,342.66666666666674,1148.943333333353) translate(541.0370370370371 31.45833333333333)"/><use xlink:href="#at" transform="matrix(1,0,0,1,342.66666666666674,1148.943333333353) translate(568.4444444444445 31.45833333333333)"/><use xlink:href="#au" transform="matrix(1,0,0,1,342.66666666666674,1148.943333333353) translate(613.5555555555555 31.45833333333333)"/><use xlink:href="#av" transform="matrix(1,0,0,1,342.66666666666674,1148.943333333353) translate(649.7777777777778 31.45833333333333)"/><use xlink:href="#aw" transform="matrix(1,0,0,1,342.66666666666674,1148.943333333353) translate(784.074074074074 31.45833333333333)"/><use xlink:href="#ax" transform="matrix(1,0,0,1,342.66666666666674,1148.943333333353) translate(908.2962962962962 31.45833333333333)"/></g><path d="M1670 1071.13v45.85" stroke="#224c72" stroke-width="2" fill="none"/><path d="M1671 1071.16h-2v-1.03h2z" stroke="#224c72" stroke-width=".05" fill="#224c72"/><path d="M1670 1132.24l-4.64-14.26h9.28z" stroke="#224c72" stroke-width="2" fill="#224c72"/><path d="M1430 1071.13v45.82" stroke="#224c72" stroke-width="2" fill="none"/><path d="M1431 1071.16h-2v-1.03h2z" stroke="#224c72" stroke-width=".05" fill="#224c72"/><path d="M1430 1132.2l-4.64-14.25h9.28z" stroke="#224c72" stroke-width="2" fill="#224c72"/><path d="M1190 1071.13v45.83" stroke="#224c72" stroke-width="2" fill="none"/><path d="M1191 1071.16h-2v-1.03h2z" stroke="#224c72" stroke-width=".05" fill="#224c72"/><path d="M1190 1132.23l-4.64-14.27h9.28z" stroke="#224c72" stroke-width="2" fill="#224c72"/><path d="M935.43 1071.13v45.85" stroke="#224c72" stroke-width="2" fill="none"/><path d="M936.43 1071.16h-2v-1.03h2z" stroke="#224c72" stroke-width=".05" fill="#224c72"/><path d="M935.43 1132.24l-4.63-14.26h9.27z" stroke="#224c72" stroke-width="2" fill="#224c72"/><path d="M680.67 1071.13V1117" stroke="#224c72" stroke-width="2" fill="none"/><path d="M681.67 1071.16h-2v-1.03h2z" stroke="#224c72" stroke-width=".05" fill="#224c72"/><path d="M680.67 1132.26l-4.64-14.27h9.27z" stroke="#224c72" stroke-width="2" fill="#224c72"/><path d="M425.33 1071.13V1117" stroke="#224c72" stroke-width="2" fill="none"/><path d="M426.33 1071.16h-2v-1.03h2z" stroke="#224c72" stroke-width=".05" fill="#224c72"/><path d="M425.33 1132.28L420.7 1118h9.27z" stroke="#224c72" stroke-width="2" fill="#224c72"/><defs><path fill="#1d262b" d="M140-221c-55 0-64 47-64 103S8-14 140-14c56 0 64-48 64-104s-9-103-64-103zm0 225C61 4 18-36 18-118c0-81 41-120 122-120 80 0 122 39 122 120C262-36 219 4 140 4" id="ay"/><path fill="#1d262b" d="M76-115c0 75 46 117 116 94v-68l-30-5v-13h108v13l-23 5v77C218-3 181 4 145 4 67 4 18-36 18-115c0-83 46-123 130-123 37-1 66 6 91 15v54h-15c2-41-32-51-70-51-60 0-78 41-78 105" id="az"/><path fill="#1d262b" d="M76-116c0 86 71 126 135 84l6-39h16l-1 60C138 21 18 1 18-115c0-117 106-141 210-112l1 57h-16l-5-34c-13-9-32-16-54-16-60 0-78 42-78 104" id="aA"/><g id="a"><use transform="matrix(0.06172839506172839,0,0,0.06172839506172839,0,0)" xlink:href="#ay"/><use transform="matrix(0.06172839506172839,0,0,0.06172839506172839,17.28395061728395,0)" xlink:href="#az"/><use transform="matrix(0.06172839506172839,0,0,0.06172839506172839,34.5679012345679,0)" xlink:href="#aA"/></g><path fill="#1d262b" d="M185-72C185 13 82 14 19-9v-63h16c2 37 21 58 61 58 46 0 69-51 31-71-42-23-106-23-106-90 0-69 87-70 148-56v56h-16l-7-32c-26-25-110-13-82 35 39 34 121 26 121 100" id="aB"/><path fill="#1d262b" d="M78-41c-2 24 21 26 40 20C122 3 98 2 77 4 5 10 32-84 27-147H6v-11l25-7 21-38h26v38h35v18H78v106" id="aC"/><path fill="#1d262b" d="M31-163c51-5 127-20 127 40v107l17 4V0h-61l-4-13C82 13 12 12 12-46c0-51 46-52 95-53 9-45-22-69-57-44l-7 20H31v-40zM62-47c0 30 26 34 45 23v-59c-28 0-45 6-45 36" id="aD"/><path fill="#1d262b" d="M127-114c3-31-26-38-50-25v123l15 4V0H10v-12l16-4v-133l-16-5v-11h64l2 14c31-23 102-32 102 30v105l17 4V0h-82v-12l14-4v-98" id="aE"/><path fill="#1d262b" d="M15-82c-4-69 47-101 113-83l-1-69-17-4v-12h68v234l18 4V0h-63l-4-9C77 23 5-9 15-82zm112-66c-43-16-64 17-61 65 2 33 3 67 32 67 12 0 22-3 29-8v-124" id="aF"/><path fill="#1d262b" d="M132-132c-21 0-37 9-50 16v100l26 4V0H10v-12l21-4v-133l-21-5v-11h69l2 34c17-18 35-41 71-40v61c-17 3-14-14-20-22" id="aG"/><g id="b"><use transform="matrix(0.06172839506172839,0,0,0.06172839506172839,0,0)" xlink:href="#aB"/><use transform="matrix(0.06172839506172839,0,0,0.06172839506172839,12.345679012345679,0)" xlink:href="#aC"/><use transform="matrix(0.06172839506172839,0,0,0.06172839506172839,19.691358024691358,0)" xlink:href="#aD"/><use transform="matrix(0.06172839506172839,0,0,0.06172839506172839,30.80246913580247,0)" xlink:href="#aE"/><use transform="matrix(0.06172839506172839,0,0,0.06172839506172839,43.148148148148145,0)" xlink:href="#aF"/><use transform="matrix(0.06172839506172839,0,0,0.06172839506172839,55.49382716049382,0)" xlink:href="#aD"/><use transform="matrix(0.06172839506172839,0,0,0.06172839506172839,66.60493827160494,0)" xlink:href="#aG"/><use transform="matrix(0.06172839506172839,0,0,0.06172839506172839,76.41975308641975,0)" xlink:href="#aF"/></g><path fill="#1d262b" d="M92-20c74 11 92-29 92-98 0-66-23-103-92-98v196zm150-99C242 9 136 6 6 0v-13l31-5v-200l-31-5v-13h112c81 0 124 34 124 117" id="aH"/><path fill="#1d262b" d="M107-230c-31-13-29 30-29 65h34v18H78v131l27 4V0H10v-12l18-4v-131H3v-12l25-7c-8-66 31-98 95-84v39h-11" id="aI"/><g id="c"><use transform="matrix(0.06172839506172839,0,0,0.06172839506172839,0,0)" xlink:href="#aH"/><use transform="matrix(0.06172839506172839,0,0,0.06172839506172839,15.987654320987653,0)" xlink:href="#aG"/><use transform="matrix(0.06172839506172839,0,0,0.06172839506172839,25.80246913580247,0)" xlink:href="#aD"/><use transform="matrix(0.06172839506172839,0,0,0.06172839506172839,36.91358024691358,0)" xlink:href="#aI"/><use transform="matrix(0.06172839506172839,0,0,0.06172839506172839,44.25925925925926,0)" xlink:href="#aC"/></g><g id="d"><use transform="matrix(0.06172839506172839,0,0,0.06172839506172839,0,0)" xlink:href="#aB"/><use transform="matrix(0.06172839506172839,0,0,0.06172839506172839,12.345679012345679,0)" xlink:href="#aC"/><use transform="matrix(0.06172839506172839,0,0,0.06172839506172839,19.691358024691358,0)" xlink:href="#aD"/><use transform="matrix(0.06172839506172839,0,0,0.06172839506172839,30.80246913580247,0)" xlink:href="#aE"/><use transform="matrix(0.06172839506172839,0,0,0.06172839506172839,43.148148148148145,0)" xlink:href="#aF"/><use transform="matrix(0.06172839506172839,0,0,0.06172839506172839,55.49382716049382,0)" xlink:href="#aD"/><use transform="matrix(0.06172839506172839,0,0,0.06172839506172839,66.60493827160494,0)" xlink:href="#aG"/><use transform="matrix(0.06172839506172839,0,0,0.06172839506172839,76.41975308641975,0)" xlink:href="#aF"/></g><path fill="#1d262b" d="M75-13V0H4v-13l17-5 84-220h51l83 220 18 5V0H152v-13l28-5-23-61H67L45-18zm38-189L74-98h76" id="aJ"/><path fill="#1d262b" d="M72-18c49 15 64-22 62-69-1-34-4-62-34-63-10-1-23 2-28 6v126zm33 22C77 4 48-3 21-8v-226l-16-4v-12h67c-1 31 2 66-2 94 11-8 28-14 47-14 51 0 70 31 69 83-1 55-26 91-81 91" id="aK"/><path fill="#1d262b" d="M102-142c-14-17-68-15-54 18 24 26 83 17 83 72 0 62-72 62-120 47v-45h12c4 23 16 37 43 37 35 0 39-37 9-46-31-9-65-19-64-61 0-52 59-55 108-45v43h-11" id="aL"/><path fill="#1d262b" d="M109-18c15 0 31-2 42-6v14c-11 9-31 13-51 13-59 0-86-28-88-86-3-75 66-101 135-80v48h-13c-3-20-7-40-34-37-51 7-55 138 9 134" id="aM"/><g id="e"><use transform="matrix(0.06172839506172839,0,0,0.06172839506172839,0,0)" xlink:href="#aJ"/><use transform="matrix(0.06172839506172839,0,0,0.06172839506172839,15.987654320987653,0)" xlink:href="#aK"/><use transform="matrix(0.06172839506172839,0,0,0.06172839506172839,28.333333333333332,0)" xlink:href="#aL"/><use transform="matrix(0.06172839506172839,0,0,0.06172839506172839,36.9753086419753,0)" xlink:href="#aC"/><use transform="matrix(0.06172839506172839,0,0,0.06172839506172839,44.32098765432098,0)" xlink:href="#aG"/><use transform="matrix(0.06172839506172839,0,0,0.06172839506172839,54.1358024691358,0)" xlink:href="#aD"/><use transform="matrix(0.06172839506172839,0,0,0.06172839506172839,65.24691358024691,0)" xlink:href="#aM"/><use transform="matrix(0.06172839506172839,0,0,0.06172839506172839,75.06172839506172,0)" xlink:href="#aC"/></g><path fill="#1d262b" d="M186-86c2 69-46 103-114 85l1 62 25 4v12H5V65l18-4v-210l-18-5v-11h67v8c12-8 26-13 46-13 49 2 67 30 68 84zm-83 71c28 0 31-33 31-69 0-34-2-66-30-66-12 0-23 3-31 7v124c9 2 20 4 30 4" id="aN"/><path fill="#1d262b" d="M12-83c0-55 22-85 75-86 52-1 66 33 63 88H64c-1 37 6 64 44 63 14 0 28-4 39-6 3 28-28 25-55 27-57 4-80-31-80-86zm90-17c2-26 0-63-27-48-10 9-11 28-11 48h38" id="aO"/><path fill="#1d262b" d="M77-16l18 4V0H8v-12l18-4v-133l-17-5v-11h68v149zM51-196c-16 0-27-10-27-27s10-27 27-27 27 11 27 27c0 17-10 27-27 27" id="aP"/><path fill="#1d262b" d="M90-170c54-1 76 32 76 87 1 56-23 87-77 87-53 0-75-32-75-87s23-86 76-87zM89-14c28-2 26-38 26-69s3-69-26-69c-27 0-24 39-24 69s-3 66 24 69" id="aQ"/><g id="f"><use transform="matrix(0.06172839506172839,0,0,0.06172839506172839,0,0)" xlink:href="#aB"/><use transform="matrix(0.06172839506172839,0,0,0.06172839506172839,12.345679012345679,0)" xlink:href="#aN"/><use transform="matrix(0.06172839506172839,0,0,0.06172839506172839,24.691358024691358,0)" xlink:href="#aO"/><use transform="matrix(0.06172839506172839,0,0,0.06172839506172839,34.50617283950617,0)" xlink:href="#aM"/><use transform="matrix(0.06172839506172839,0,0,0.06172839506172839,44.32098765432099,0)" xlink:href="#aP"/><use transform="matrix(0.06172839506172839,0,0,0.06172839506172839,50.49382716049383,0)" xlink:href="#aI"/><use transform="matrix(0.06172839506172839,0,0,0.06172839506172839,57.839506172839506,0)" xlink:href="#aP"/><use transform="matrix(0.06172839506172839,0,0,0.06172839506172839,64.01234567901234,0)" xlink:href="#aM"/><use transform="matrix(0.06172839506172839,0,0,0.06172839506172839,73.82716049382715,0)" xlink:href="#aD"/><use transform="matrix(0.06172839506172839,0,0,0.06172839506172839,84.93827160493827,0)" xlink:href="#aC"/><use transform="matrix(0.06172839506172839,0,0,0.06172839506172839,92.28395061728395,0)" xlink:href="#aP"/><use transform="matrix(0.06172839506172839,0,0,0.06172839506172839,98.45679012345678,0)" xlink:href="#aQ"/><use transform="matrix(0.06172839506172839,0,0,0.06172839506172839,109.5679012345679,0)" xlink:href="#aE"/></g><path fill="#1d262b" d="M54 0v-13l38-5v-199l-66 3-4 44H6v-66h229v66h-17l-4-44c-17-2-44-3-67-3v199l38 5V0H54" id="aR"/><g id="g"><use transform="matrix(0.06172839506172839,0,0,0.06172839506172839,0,0)" xlink:href="#aR"/><use transform="matrix(0.06172839506172839,0,0,0.06172839506172839,12.777777777777777,0)" xlink:href="#aQ"/><use transform="matrix(0.06172839506172839,0,0,0.06172839506172839,23.888888888888886,0)" xlink:href="#aN"/><use transform="matrix(0.06172839506172839,0,0,0.06172839506172839,36.23456790123456,0)" xlink:href="#aP"/><use transform="matrix(0.06172839506172839,0,0,0.06172839506172839,42.407407407407405,0)" xlink:href="#aM"/></g><g id="h"><use transform="matrix(0.06172839506172839,0,0,0.06172839506172839,0,0)" xlink:href="#ay"/><use transform="matrix(0.06172839506172839,0,0,0.06172839506172839,17.28395061728395,0)" xlink:href="#az"/><use transform="matrix(0.06172839506172839,0,0,0.06172839506172839,34.5679012345679,0)" xlink:href="#aA"/></g><path fill="#1d262b" d="M126-114c3-31-27-37-49-25v123l15 4V0H10v-12l16-4v-133l-16-5v-11h64l2 14c24-16 81-33 96 3 30-24 105-39 105 27v105l17 4V0h-82v-12l14-4v-98c4-33-27-37-51-24 5 35 0 82 2 122l17 4V0h-83v-12l15-4v-98" id="aS"/><path fill="#1d262b" d="M73-51c-3 31 27 38 51 25v-123l-16-5v-11h66v149l17 4V0h-65l-2-14C94 9 22 18 22-44v-105l-17-5v-11h68v114" id="aT"/><path fill="#1d262b" d="M81 5L15-149c-7-2-13-5-11-16h84v11l-20 5 39 91 35-91-19-5v-11h53c2 11-4 13-11 15C134-81 111-5 75 58 65 77 34 83 8 74V32h11c0 24 29 35 43 12 7-11 13-25 19-39" id="aU"/><g id="i"><use transform="matrix(0.06172839506172839,0,0,0.06172839506172839,0,0)" xlink:href="#aA"/><use transform="matrix(0.06172839506172839,0,0,0.06172839506172839,15.987654320987653,0)" xlink:href="#aQ"/><use transform="matrix(0.06172839506172839,0,0,0.06172839506172839,27.098765432098766,0)" xlink:href="#aS"/><use transform="matrix(0.06172839506172839,0,0,0.06172839506172839,45.55555555555556,0)" xlink:href="#aS"/><use transform="matrix(0.06172839506172839,0,0,0.06172839506172839,64.01234567901234,0)" xlink:href="#aT"/><use transform="matrix(0.06172839506172839,0,0,0.06172839506172839,76.35802469135803,0)" xlink:href="#aE"/><use transform="matrix(0.06172839506172839,0,0,0.06172839506172839,88.70370370370371,0)" xlink:href="#aP"/><use transform="matrix(0.06172839506172839,0,0,0.06172839506172839,94.87654320987654,0)" xlink:href="#aC"/><use transform="matrix(0.06172839506172839,0,0,0.06172839506172839,102.22222222222223,0)" xlink:href="#aU"/></g><g id="j"><use transform="matrix(0.06172839506172839,0,0,0.06172839506172839,0,0)" xlink:href="#aB"/><use transform="matrix(0.06172839506172839,0,0,0.06172839506172839,12.345679012345679,0)" xlink:href="#aC"/><use transform="matrix(0.06172839506172839,0,0,0.06172839506172839,19.691358024691358,0)" xlink:href="#aD"/><use transform="matrix(0.06172839506172839,0,0,0.06172839506172839,30.80246913580247,0)" xlink:href="#aE"/><use transform="matrix(0.06172839506172839,0,0,0.06172839506172839,43.148148148148145,0)" xlink:href="#aF"/><use transform="matrix(0.06172839506172839,0,0,0.06172839506172839,55.49382716049382,0)" xlink:href="#aD"/><use transform="matrix(0.06172839506172839,0,0,0.06172839506172839,66.60493827160494,0)" xlink:href="#aG"/><use transform="matrix(0.06172839506172839,0,0,0.06172839506172839,76.41975308641975,0)" xlink:href="#aF"/></g><path fill="#1d262b" d="M178-68c0 79-95 82-154 59v-54h12c1 35 22 52 60 52 50 0 69-58 33-82-39-24-105-21-105-85 0-67 86-66 142-53v49h-12l-6-29c-31-27-121-7-89 42 28 43 119 24 119 101" id="aV"/><path fill="#1d262b" d="M319-222L242 5h-10l-61-162L108 5h-9L21-222l-21-4v-10h90v10l-34 4 56 166 63-163h8l61 163 54-166-37-4v-10h78v10" id="aW"/><path fill="#1d262b" d="M52-115c0 90 69 126 140 93v-67l-30-5v-9h87v9l-23 5v77c-27 8-56 16-90 16C59 2 15-37 15-115c-1-82 41-123 122-123 31 0 59 4 83 10v51h-12l-5-29c-15-12-38-18-65-18-66-1-86 42-86 109" id="aX"/><g id="k"><use transform="matrix(0.06172839506172839,0,0,0.06172839506172839,0,0)" xlink:href="#aV"/><use transform="matrix(0.06172839506172839,0,0,0.06172839506172839,12.345679012345679,0)" xlink:href="#aW"/><use transform="matrix(0.06172839506172839,0,0,0.06172839506172839,33.2716049382716,0)" xlink:href="#aX"/></g><path fill="#1d262b" d="M13-81c0-71 46-101 114-85l-1-72-28-4v-8h57v238c8 3 24-2 21 12h-47l-2-12C80 23 13-1 13-81zm77-74c-37 1-44 33-45 74 0 38 9 66 45 66 14 0 27-3 36-7v-130c-10-1-24-3-36-3" id="aY"/><path fill="#1d262b" d="M57-145c16-10 35-24 60-25v45c-19 1-8-30-40-17l-20 6v124l29 4v8H7v-8l21-4v-141c-8-3-24 2-21-12h48" id="aZ"/><path fill="#1d262b" d="M32-163c41-10 102-14 102 39v112c8 3 24-2 21 12h-45l-4-17C83 13 3 13 13-46c-2-50 45-50 92-51 4-36-5-70-42-56-6 2-12 4-16 6-4 7 0 23-15 20v-36zM42-47c0 41 41 33 63 22v-59c-34 1-63-1-63 37" id="ba"/><path fill="#1d262b" d="M103-236c-39-15-35 32-34 71h44v15H69v136l35 6v8H15v-8l25-6v-136H11v-9l29-7c-6-59 23-100 80-84v36c-15 2-12-14-17-22" id="bb"/><path fill="#1d262b" d="M54-38c-1 25 24 26 44 20v12C71 10 25 9 25-35v-115H4c-2-14 14-10 21-15l18-38h11v38h38v15H54v112" id="bc"/><g id="l"><use transform="matrix(0.06172839506172839,0,0,0.06172839506172839,0,0)" xlink:href="#aY"/><use transform="matrix(0.06172839506172839,0,0,0.06172839506172839,11.11111111111111,0)" xlink:href="#aZ"/><use transform="matrix(0.06172839506172839,0,0,0.06172839506172839,18.45679012345679,0)" xlink:href="#ba"/><use transform="matrix(0.06172839506172839,0,0,0.06172839506172839,28.271604938271608,0)" xlink:href="#bb"/><use transform="matrix(0.06172839506172839,0,0,0.06172839506172839,35.617283950617285,0)" xlink:href="#bc"/></g><path fill="#1d262b" d="M130-224c-62 0-78 43-78 106 0 64 16 108 78 108s78-45 78-108-16-106-78-106zm0 228C53 4 15-39 15-118c-1-80 37-120 115-120s115 42 115 120C245-39 207 4 130 4" id="bd"/><path fill="#1d262b" d="M81-9v9H4v-9l26-5 81-224h33l83 224 30 5v9h-99v-9l31-5-23-68H73L49-14zm38-203L78-98h82" id="be"/><path fill="#1d262b" d="M75-131c50 2 93 3 93-48 0-46-48-41-93-41v89zm0 115c55 4 111 6 111-51 0-53-58-48-111-48v99zm148-52C223 24 102-3 10 0v-9l31-5v-208l-31-4v-10c77 6 193-24 194 56 0 33-20 48-48 54 36 5 67 20 67 58" id="bf"/><g id="m"><use transform="matrix(0.06172839506172839,0,0,0.06172839506172839,0,0)" xlink:href="#bd"/><use transform="matrix(0.06172839506172839,0,0,0.06172839506172839,15.987654320987653,0)" xlink:href="#be"/><use transform="matrix(0.06172839506172839,0,0,0.06172839506172839,31.975308641975307,0)" xlink:href="#bf"/></g><path fill="#1d262b" d="M84-170c49 0 66 33 63 87H46c-8 60 38 80 95 63v10C128-2 108 4 88 4 34 4 14-29 14-84c-1-54 22-86 70-86zm33 73c12-57-57-82-69-24-1 7-2 15-2 24h71" id="bg"/><path fill="#1d262b" d="M164-154L98 4H85L17-153c-7-3-20 0-17-12h77v8l-26 4L99-38l46-115-26-4v-8h61v8" id="bh"/><path fill="#1d262b" d="M47-200c-23 0-25-39 0-38 13 0 18 7 20 19-1 11-8 19-20 19zM65-12l28 4v8H8v-8l28-4v-141l-24-4v-8h53v153" id="bi"/><path fill="#1d262b" d="M240-154L185 4h-14l-41-109L90 4H77L20-153c-7-3-23 1-20-12h79v8l-27 4L91-41l40-108h14l40 109 38-113-28-4v-8h63v8" id="bj"/><g id="n"><use transform="matrix(0.06172839506172839,0,0,0.06172839506172839,0,0)" xlink:href="#aZ"/><use transform="matrix(0.06172839506172839,0,0,0.06172839506172839,7.345679012345679,0)" xlink:href="#bg"/><use transform="matrix(0.06172839506172839,0,0,0.06172839506172839,17.160493827160494,0)" xlink:href="#bh"/><use transform="matrix(0.06172839506172839,0,0,0.06172839506172839,28.271604938271604,0)" xlink:href="#bi"/><use transform="matrix(0.06172839506172839,0,0,0.06172839506172839,34.44444444444444,0)" xlink:href="#bg"/><use transform="matrix(0.06172839506172839,0,0,0.06172839506172839,44.25925925925926,0)" xlink:href="#bj"/></g><path fill="#1d262b" d="M75-108c48 3 76-12 76-58s-28-57-76-54v112zm111-58c-1 60-46 78-111 74v78l37 5v9H13v-9l28-5v-208l-31-4v-10c81 1 178-14 176 70" id="bk"/><path fill="#1d262b" d="M124-13C89 8 26 15 26-45v-108c-8-3-24 2-21-12h50v118c-3 37 42 32 69 25v-131l-25-4v-8h54v153c8 3 24-2 21 12h-48" id="bl"/><path fill="#1d262b" d="M53-14c58 12 82-15 82-73 0-52-35-77-82-58v131zM89 4C64 4 42-2 24-9v-229l-24-4v-8h53l-1 94c48-33 114-4 114 69 0 57-23 91-77 91" id="bm"/><path fill="#1d262b" d="M65-12l28 4v8H7v-8l28-4v-226l-28-4v-8h58v238" id="bn"/><path fill="#1d262b" d="M45-84c0 64 52 80 104 63 1 25-30 25-55 25-56 0-80-32-80-88 0-76 62-98 131-80v46h-10c-5-15-4-31-23-35-47-10-67 21-67 69" id="bo"/><g id="o"><use transform="matrix(0.06172839506172839,0,0,0.06172839506172839,0,0)" xlink:href="#bk"/><use transform="matrix(0.06172839506172839,0,0,0.06172839506172839,12.345679012345679,0)" xlink:href="#bl"/><use transform="matrix(0.06172839506172839,0,0,0.06172839506172839,23.45679012345679,0)" xlink:href="#bm"/><use transform="matrix(0.06172839506172839,0,0,0.06172839506172839,34.5679012345679,0)" xlink:href="#bn"/><use transform="matrix(0.06172839506172839,0,0,0.06172839506172839,40.74074074074074,0)" xlink:href="#bi"/><use transform="matrix(0.06172839506172839,0,0,0.06172839506172839,46.91358024691358,0)" xlink:href="#bo"/></g><path fill="#1d262b" d="M199-173c-1 36-21 56-49 65l64 94 26 5v9h-57l-66-103H75v89l35 5v9H13v-9l28-5v-208l-31-4v-10c80 4 190-20 189 63zM75-119c50 2 89-1 89-51 0-49-39-52-89-50v101" id="bp"/><path fill="#1d262b" d="M75-106v92l39 5v9H13v-9l28-5v-208l-31-4v-10h177v57h-11l-6-38c-28-4-63-3-95-3v98h69l5-28h11v73h-11l-5-29H75" id="bq"/><path fill="#1d262b" d="M52-115c0 93 80 130 150 87l7-35h11l-1 55c-23 7-52 12-83 12C60 4 19-37 15-115c-5-113 97-141 201-114l1 51h-12l-5-30c-15-9-39-16-62-16-66 0-86 41-86 109" id="br"/><g id="p"><use transform="matrix(0.06172839506172839,0,0,0.06172839506172839,0,0)" xlink:href="#bp"/><use transform="matrix(0.06172839506172839,0,0,0.06172839506172839,14.814814814814813,0)" xlink:href="#bq"/><use transform="matrix(0.06172839506172839,0,0,0.06172839506172839,27.160493827160494,0)" xlink:href="#br"/></g><path fill="#1d262b" d="M55 0v-9l38-5v-207c-22 1-53 0-70 4l-5 37H7v-56h207v56h-12l-5-37-70-3v206l37 5v9H55" id="bs"/><g id="q"><use transform="matrix(0.06172839506172839,0,0,0.06172839506172839,0,0)" xlink:href="#bs"/><use transform="matrix(0.06172839506172839,0,0,0.06172839506172839,13.518518518518517,0)" xlink:href="#br"/></g><path fill="#1d262b" d="M90-170c52 0 76 32 76 87 0 54-24 87-77 87-51 0-75-34-75-87 0-54 24-87 76-87zM89-10c39 0 46-35 46-73 0-39-7-73-46-73-39 1-44 34-44 73s6 72 44 73" id="bt"/><g id="r"><use transform="matrix(0.06172839506172839,0,0,0.06172839506172839,0,0)" xlink:href="#bh"/><use transform="matrix(0.06172839506172839,0,0,0.06172839506172839,11.11111111111111,0)" xlink:href="#bt"/><use transform="matrix(0.06172839506172839,0,0,0.06172839506172839,22.22222222222222,0)" xlink:href="#bc"/><use transform="matrix(0.06172839506172839,0,0,0.06172839506172839,28.39506172839506,0)" xlink:href="#bg"/></g><path fill="#1d262b" d="M166-85c3 67-44 102-111 85l1 64 29 4v9H6v-9l21-4v-217c-7-3-22 1-19-12h46l1 9c11-8 26-14 45-14 47 2 64 36 66 85zM56-13c53 14 83-14 78-72 7-53-33-79-78-60v132" id="bu"/><g id="s"><use transform="matrix(0.06172839506172839,0,0,0.06172839506172839,0,0)" xlink:href="#be"/><use transform="matrix(0.06172839506172839,0,0,0.06172839506172839,15.987654320987653,0)" xlink:href="#bu"/><use transform="matrix(0.06172839506172839,0,0,0.06172839506172839,27.098765432098766,0)" xlink:href="#bu"/><use transform="matrix(0.06172839506172839,0,0,0.06172839506172839,38.20987654320987,0)" xlink:href="#aZ"/><use transform="matrix(0.06172839506172839,0,0,0.06172839506172839,45.55555555555555,0)" xlink:href="#bt"/><use transform="matrix(0.06172839506172839,0,0,0.06172839506172839,56.66666666666666,0)" xlink:href="#bh"/><use transform="matrix(0.06172839506172839,0,0,0.06172839506172839,67.77777777777777,0)" xlink:href="#bg"/><use transform="matrix(0.06172839506172839,0,0,0.06172839506172839,77.59259259259258,0)" xlink:href="#aY"/></g><path fill="#1d262b" d="M160-93v75l38 5V0H67v-13l38-5v-74L33-218l-27-5v-13h122v13l-32 5 54 98 52-98-29-5v-13h80v13l-25 5" id="bv"/><g id="t"><use transform="matrix(0.04938271604938272,0,0,0.04938271604938272,0,0)" xlink:href="#bv"/><use transform="matrix(0.04938271604938272,0,0,0.04938271604938272,10.814814814814817,0)" xlink:href="#aO"/><use transform="matrix(0.04938271604938272,0,0,0.04938271604938272,18.666666666666668,0)" xlink:href="#aL"/></g><path fill="#1d262b" d="M203-218l-32-5v-13h84v13l-30 5V0h-21L59-189v171l32 5V0H7v-13l30-5v-200l-30-5v-13h81L203-85v-133" id="bw"/><g id="u"><use transform="matrix(0.04938271604938272,0,0,0.04938271604938272,0,0)" xlink:href="#bw"/><use transform="matrix(0.04938271604938272,0,0,0.04938271604938272,12.790123456790125,0)" xlink:href="#aQ"/></g><path fill="#1d262b" d="M126-119c3-38-42-31-69-25v132l23 4v8H7v-8l21-4v-226l-24-4v-8h53l-1 98c31-22 99-31 99 31v109c7 3 23-1 20 12h-71v-8l22-4v-107" id="bx"/><g id="v"><use transform="matrix(0.06172839506172839,0,0,0.06172839506172839,0,0)" xlink:href="#aW"/><use transform="matrix(0.06172839506172839,0,0,0.06172839506172839,20.061728395061728,0)" xlink:href="#bi"/><use transform="matrix(0.06172839506172839,0,0,0.06172839506172839,26.234567901234566,0)" xlink:href="#bc"/><use transform="matrix(0.06172839506172839,0,0,0.06172839506172839,32.407407407407405,0)" xlink:href="#bx"/></g><path fill="#1d262b" d="M126-118c4-37-42-32-68-25v131l24 4v8H8C5-13 21-9 28-12v-141c-7-3-23 1-20-12h48l1 13c22-15 77-30 92 2 32-22 104-36 104 29v109c8 3 24-2 21 12h-75v-8l25-4v-106c3-39-45-31-72-24 7 37 1 88 3 130l25 4v8h-78v-8l24-4v-106" id="by"/><path fill="#1d262b" d="M125-118c4-37-41-34-68-26v132l23 4v8H8C5-13 21-9 28-12v-141c-7-3-23 1-20-12h47l2 13c31-23 98-29 98 31v109c7 3 23-1 20 12h-72v-8l22-4v-106" id="bz"/><g id="w"><use transform="matrix(0.06172839506172839,0,0,0.06172839506172839,0,0)" xlink:href="#bo"/><use transform="matrix(0.06172839506172839,0,0,0.06172839506172839,9.814814814814815,0)" xlink:href="#bt"/><use transform="matrix(0.06172839506172839,0,0,0.06172839506172839,20.925925925925924,0)" xlink:href="#by"/><use transform="matrix(0.06172839506172839,0,0,0.06172839506172839,38.20987654320987,0)" xlink:href="#bu"/><use transform="matrix(0.06172839506172839,0,0,0.06172839506172839,49.32098765432099,0)" xlink:href="#bn"/><use transform="matrix(0.06172839506172839,0,0,0.06172839506172839,55.49382716049383,0)" xlink:href="#bi"/><use transform="matrix(0.06172839506172839,0,0,0.06172839506172839,61.66666666666667,0)" xlink:href="#ba"/><use transform="matrix(0.06172839506172839,0,0,0.06172839506172839,71.48148148148148,0)" xlink:href="#bz"/><use transform="matrix(0.06172839506172839,0,0,0.06172839506172839,82.5925925925926,0)" xlink:href="#bo"/><use transform="matrix(0.06172839506172839,0,0,0.06172839506172839,92.4074074074074,0)" xlink:href="#bg"/></g><path fill="#1d262b" d="M41-130c7 48 86 23 86 84 0 56-69 57-112 41v-40c20 0 9 29 31 31 35 19 77-26 41-50-27-18-72-13-72-59 0-50 58-52 100-41v36c-19 1-8-25-28-25-21-7-50-1-46 23" id="bA"/><g id="x"><use transform="matrix(0.06172839506172839,0,0,0.06172839506172839,0,0)" xlink:href="#bc"/><use transform="matrix(0.06172839506172839,0,0,0.06172839506172839,6.172839506172839,0)" xlink:href="#bg"/><use transform="matrix(0.06172839506172839,0,0,0.06172839506172839,15.987654320987653,0)" xlink:href="#bA"/><use transform="matrix(0.06172839506172839,0,0,0.06172839506172839,24.62962962962963,0)" xlink:href="#bc"/><use transform="matrix(0.06172839506172839,0,0,0.06172839506172839,30.80246913580247,0)" xlink:href="#bA"/></g><g id="y"><use transform="matrix(0.06172839506172839,0,0,0.06172839506172839,0,0)" xlink:href="#ba"/><use transform="matrix(0.06172839506172839,0,0,0.06172839506172839,9.814814814814815,0)" xlink:href="#bz"/><use transform="matrix(0.06172839506172839,0,0,0.06172839506172839,20.925925925925924,0)" xlink:href="#aY"/></g><g id="z"><use transform="matrix(0.06172839506172839,0,0,0.06172839506172839,0,0)" xlink:href="#aZ"/><use transform="matrix(0.06172839506172839,0,0,0.06172839506172839,7.345679012345679,0)" xlink:href="#bg"/><use transform="matrix(0.06172839506172839,0,0,0.06172839506172839,17.160493827160494,0)" xlink:href="#bb"/><use transform="matrix(0.06172839506172839,0,0,0.06172839506172839,24.50617283950617,0)" xlink:href="#bg"/><use transform="matrix(0.06172839506172839,0,0,0.06172839506172839,34.32098765432099,0)" xlink:href="#aZ"/><use transform="matrix(0.06172839506172839,0,0,0.06172839506172839,41.666666666666664,0)" xlink:href="#bg"/><use transform="matrix(0.06172839506172839,0,0,0.06172839506172839,51.48148148148148,0)" xlink:href="#bz"/><use transform="matrix(0.06172839506172839,0,0,0.06172839506172839,62.592592592592595,0)" xlink:href="#bo"/><use transform="matrix(0.06172839506172839,0,0,0.06172839506172839,72.4074074074074,0)" xlink:href="#bg"/></g><path fill="#1d262b" d="M19-231c61-19 146-3 123 76-8 29-32 42-62 48l-3 45H63l-4-58c33-4 57-15 54-56 6-47-42-58-77-39l-6 29H19v-45zM72-37c14 0 21 9 21 21S84 5 72 5 50-2 51-16c0-13 8-21 21-21" id="bB"/><g id="A"><use transform="matrix(0.06172839506172839,0,0,0.06172839506172839,0,0)" xlink:href="#bi"/><use transform="matrix(0.06172839506172839,0,0,0.06172839506172839,6.172839506172839,0)" xlink:href="#by"/><use transform="matrix(0.06172839506172839,0,0,0.06172839506172839,23.456790123456788,0)" xlink:href="#bu"/><use transform="matrix(0.06172839506172839,0,0,0.06172839506172839,34.5679012345679,0)" xlink:href="#bn"/><use transform="matrix(0.06172839506172839,0,0,0.06172839506172839,40.74074074074074,0)" xlink:href="#bg"/><use transform="matrix(0.06172839506172839,0,0,0.06172839506172839,50.55555555555556,0)" xlink:href="#by"/><use transform="matrix(0.06172839506172839,0,0,0.06172839506172839,67.8395061728395,0)" xlink:href="#bg"/><use transform="matrix(0.06172839506172839,0,0,0.06172839506172839,77.65432098765432,0)" xlink:href="#bz"/><use transform="matrix(0.06172839506172839,0,0,0.06172839506172839,88.76543209876543,0)" xlink:href="#bc"/><use transform="matrix(0.06172839506172839,0,0,0.06172839506172839,94.93827160493827,0)" xlink:href="#ba"/><use transform="matrix(0.06172839506172839,0,0,0.06172839506172839,104.75308641975307,0)" xlink:href="#bc"/><use transform="matrix(0.06172839506172839,0,0,0.06172839506172839,110.92592592592591,0)" xlink:href="#bi"/><use transform="matrix(0.06172839506172839,0,0,0.06172839506172839,117.09876543209874,0)" xlink:href="#bt"/><use transform="matrix(0.06172839506172839,0,0,0.06172839506172839,128.20987654320984,0)" xlink:href="#bz"/><use transform="matrix(0.06172839506172839,0,0,0.06172839506172839,139.32098765432096,0)" xlink:href="#bA"/><use transform="matrix(0.06172839506172839,0,0,0.06172839506172839,147.96296296296293,0)" xlink:href="#bB"/></g><path fill="#1d262b" d="M60-80l68-73c-7-3-20 0-17-12h58c3 13-13 9-20 12l-47 48 60 93c7 3 21-1 18 12h-68c-3-12 9-9 15-12L82-83 60-60v48c7 3 21-1 18 12H10v-8l21-4v-226l-24-4v-8h53v170" id="bC"/><g id="B"><use transform="matrix(0.06172839506172839,0,0,0.06172839506172839,0,0)" xlink:href="#aW"/><use transform="matrix(0.06172839506172839,0,0,0.06172839506172839,19.1358024691358,0)" xlink:href="#bt"/><use transform="matrix(0.06172839506172839,0,0,0.06172839506172839,30.24691358024691,0)" xlink:href="#aZ"/><use transform="matrix(0.06172839506172839,0,0,0.06172839506172839,37.59259259259259,0)" xlink:href="#bC"/></g><g id="C"><use transform="matrix(0.06172839506172839,0,0,0.06172839506172839,0,0)" xlink:href="#bi"/><use transform="matrix(0.06172839506172839,0,0,0.06172839506172839,6.172839506172839,0)" xlink:href="#bc"/><use transform="matrix(0.06172839506172839,0,0,0.06172839506172839,12.345679012345679,0)" xlink:href="#bg"/><use transform="matrix(0.06172839506172839,0,0,0.06172839506172839,22.160493827160494,0)" xlink:href="#by"/></g><path fill="#1d262b" d="M92-134c39 3 62-4 62-44 0-37-25-40-62-38v82zm0 115c49 5 80-2 80-50 0-44-34-49-80-46v96zm138-50C230 26 101-4 6 0v-13l30-5v-200l-30-5v-13c79 7 206-26 206 54 0 33-22 49-49 56 39 3 67 18 67 57" id="bD"/><g id="D"><use transform="matrix(0.06172839506172839,0,0,0.06172839506172839,0,0)" xlink:href="#bD"/><use transform="matrix(0.06172839506172839,0,0,0.06172839506172839,14.814814814814813,0)" xlink:href="#aO"/><use transform="matrix(0.06172839506172839,0,0,0.06172839506172839,24.629629629629626,0)" xlink:href="#aL"/><use transform="matrix(0.06172839506172839,0,0,0.06172839506172839,33.2716049382716,0)" xlink:href="#aC"/></g><path fill="#1d262b" d="M92-112c43 4 61-13 61-54s-18-54-61-50v104zm118-54c0 63-50 78-118 74v74l39 5V0H8v-13l28-5v-200l-30-5v-13c88 3 205-20 204 70" id="bE"/><g id="E"><use transform="matrix(0.06172839506172839,0,0,0.06172839506172839,0,0)" xlink:href="#bE"/><use transform="matrix(0.06172839506172839,0,0,0.06172839506172839,13.518518518518517,0)" xlink:href="#aG"/><use transform="matrix(0.06172839506172839,0,0,0.06172839506172839,23.333333333333332,0)" xlink:href="#aD"/><use transform="matrix(0.06172839506172839,0,0,0.06172839506172839,34.44444444444444,0)" xlink:href="#aM"/><use transform="matrix(0.06172839506172839,0,0,0.06172839506172839,44.25925925925926,0)" xlink:href="#aC"/><use transform="matrix(0.06172839506172839,0,0,0.06172839506172839,51.60493827160494,0)" xlink:href="#aP"/><use transform="matrix(0.06172839506172839,0,0,0.06172839506172839,57.77777777777778,0)" xlink:href="#aM"/><use transform="matrix(0.06172839506172839,0,0,0.06172839506172839,67.5925925925926,0)" xlink:href="#aO"/></g><path fill="#1d262b" d="M21 4H-4l83-241h25" id="bF"/><use transform="matrix(0.06172839506172839,0,0,0.06172839506172839,0,0)" xlink:href="#bF" id="F"/><g id="G"><use transform="matrix(0.06172839506172839,0,0,0.06172839506172839,0,0)" xlink:href="#aA"/><use transform="matrix(0.06172839506172839,0,0,0.06172839506172839,15.987654320987653,0)" xlink:href="#aQ"/><use transform="matrix(0.06172839506172839,0,0,0.06172839506172839,27.098765432098766,0)" xlink:href="#aS"/><use transform="matrix(0.06172839506172839,0,0,0.06172839506172839,45.55555555555556,0)" xlink:href="#aS"/><use transform="matrix(0.06172839506172839,0,0,0.06172839506172839,64.01234567901234,0)" xlink:href="#aT"/><use transform="matrix(0.06172839506172839,0,0,0.06172839506172839,76.35802469135803,0)" xlink:href="#aE"/><use transform="matrix(0.06172839506172839,0,0,0.06172839506172839,88.70370370370371,0)" xlink:href="#aP"/><use transform="matrix(0.06172839506172839,0,0,0.06172839506172839,94.87654320987654,0)" xlink:href="#aC"/><use transform="matrix(0.06172839506172839,0,0,0.06172839506172839,102.22222222222223,0)" xlink:href="#aU"/></g><g id="H"><use transform="matrix(0.06172839506172839,0,0,0.06172839506172839,0,0)" xlink:href="#bE"/><use transform="matrix(0.06172839506172839,0,0,0.06172839506172839,13.518518518518517,0)" xlink:href="#aG"/><use transform="matrix(0.06172839506172839,0,0,0.06172839506172839,23.333333333333332,0)" xlink:href="#aD"/><use transform="matrix(0.06172839506172839,0,0,0.06172839506172839,34.44444444444444,0)" xlink:href="#aM"/><use transform="matrix(0.06172839506172839,0,0,0.06172839506172839,44.25925925925926,0)" xlink:href="#aC"/><use transform="matrix(0.06172839506172839,0,0,0.06172839506172839,51.60493827160494,0)" xlink:href="#aP"/><use transform="matrix(0.06172839506172839,0,0,0.06172839506172839,57.77777777777778,0)" xlink:href="#aM"/><use transform="matrix(0.06172839506172839,0,0,0.06172839506172839,67.5925925925926,0)" xlink:href="#aO"/></g><g id="I"><use transform="matrix(0.06172839506172839,0,0,0.06172839506172839,0,0)" xlink:href="#bd"/><use transform="matrix(0.06172839506172839,0,0,0.06172839506172839,15.987654320987653,0)" xlink:href="#be"/><use transform="matrix(0.06172839506172839,0,0,0.06172839506172839,31.975308641975307,0)" xlink:href="#bf"/></g><g id="J"><use transform="matrix(0.06172839506172839,0,0,0.06172839506172839,0,0)" xlink:href="#aZ"/><use transform="matrix(0.06172839506172839,0,0,0.06172839506172839,7.345679012345679,0)" xlink:href="#bg"/><use transform="matrix(0.06172839506172839,0,0,0.06172839506172839,17.160493827160494,0)" xlink:href="#bh"/><use transform="matrix(0.06172839506172839,0,0,0.06172839506172839,28.271604938271604,0)" xlink:href="#bi"/><use transform="matrix(0.06172839506172839,0,0,0.06172839506172839,34.44444444444444,0)" xlink:href="#bg"/><use transform="matrix(0.06172839506172839,0,0,0.06172839506172839,44.25925925925926,0)" xlink:href="#bj"/></g><g id="K"><use transform="matrix(0.06172839506172839,0,0,0.06172839506172839,0,0)" xlink:href="#aY"/><use transform="matrix(0.06172839506172839,0,0,0.06172839506172839,11.11111111111111,0)" xlink:href="#aZ"/><use transform="matrix(0.06172839506172839,0,0,0.06172839506172839,18.45679012345679,0)" xlink:href="#ba"/><use transform="matrix(0.06172839506172839,0,0,0.06172839506172839,28.271604938271608,0)" xlink:href="#bb"/><use transform="matrix(0.06172839506172839,0,0,0.06172839506172839,35.617283950617285,0)" xlink:href="#bc"/></g><path fill="#1d262b" d="M77-14l30 5v9H13v-9l30-5v-208l-30-4v-10h94v10l-30 4v208" id="bG"/><g id="L"><use transform="matrix(0.06172839506172839,0,0,0.06172839506172839,0,0)" xlink:href="#bG"/><use transform="matrix(0.06172839506172839,0,0,0.06172839506172839,7.345679012345679,0)" xlink:href="#bz"/><use transform="matrix(0.06172839506172839,0,0,0.06172839506172839,18.45679012345679,0)" xlink:href="#bc"/><use transform="matrix(0.06172839506172839,0,0,0.06172839506172839,24.62962962962963,0)" xlink:href="#bg"/><use transform="matrix(0.06172839506172839,0,0,0.06172839506172839,34.44444444444444,0)" xlink:href="#bz"/><use transform="matrix(0.06172839506172839,0,0,0.06172839506172839,45.55555555555556,0)" xlink:href="#aY"/><use transform="matrix(0.06172839506172839,0,0,0.06172839506172839,56.66666666666667,0)" xlink:href="#bg"/><use transform="matrix(0.06172839506172839,0,0,0.06172839506172839,66.48148148148148,0)" xlink:href="#aY"/></g><g id="M"><use transform="matrix(0.06172839506172839,0,0,0.06172839506172839,0,0)" xlink:href="#bb"/><use transform="matrix(0.06172839506172839,0,0,0.06172839506172839,7.345679012345679,0)" xlink:href="#bt"/><use transform="matrix(0.06172839506172839,0,0,0.06172839506172839,18.45679012345679,0)" xlink:href="#aZ"/></g><g id="N"><use transform="matrix(0.06172839506172839,0,0,0.06172839506172839,0,0)" xlink:href="#bi"/><use transform="matrix(0.06172839506172839,0,0,0.06172839506172839,6.172839506172839,0)" xlink:href="#by"/><use transform="matrix(0.06172839506172839,0,0,0.06172839506172839,23.456790123456788,0)" xlink:href="#bu"/><use transform="matrix(0.06172839506172839,0,0,0.06172839506172839,34.5679012345679,0)" xlink:href="#bn"/><use transform="matrix(0.06172839506172839,0,0,0.06172839506172839,40.74074074074074,0)" xlink:href="#bg"/><use transform="matrix(0.06172839506172839,0,0,0.06172839506172839,50.55555555555556,0)" xlink:href="#by"/><use transform="matrix(0.06172839506172839,0,0,0.06172839506172839,67.8395061728395,0)" xlink:href="#bg"/><use transform="matrix(0.06172839506172839,0,0,0.06172839506172839,77.65432098765432,0)" xlink:href="#bz"/><use transform="matrix(0.06172839506172839,0,0,0.06172839506172839,88.76543209876543,0)" xlink:href="#bc"/><use transform="matrix(0.06172839506172839,0,0,0.06172839506172839,94.93827160493827,0)" xlink:href="#ba"/><use transform="matrix(0.06172839506172839,0,0,0.06172839506172839,104.75308641975307,0)" xlink:href="#bc"/><use transform="matrix(0.06172839506172839,0,0,0.06172839506172839,110.92592592592591,0)" xlink:href="#bi"/><use transform="matrix(0.06172839506172839,0,0,0.06172839506172839,117.09876543209874,0)" xlink:href="#bt"/><use transform="matrix(0.06172839506172839,0,0,0.06172839506172839,128.20987654320984,0)" xlink:href="#bz"/><use transform="matrix(0.06172839506172839,0,0,0.06172839506172839,139.32098765432096,0)" xlink:href="#bB"/></g><path fill="#1d262b" d="M212-48C187 29 15 22 33-85l22-133-26-5 3-13h108l-2 13-31 5L83-68c-6 66 95 54 109 10 15-47 21-108 32-160l-31-5 2-13h80l-2 13-27 5c-12 56-17 119-34 170" id="bH"/><path fill="#1d262b" d="M144-170c70 0 21 104 18 154l21 4-3 12h-68l22-127c-7-34-45-7-53 8C63-87 64-39 54 0H7l26-149-15-5 2-11h59l-2 31c16-20 34-36 67-36" id="bI"/><path fill="#1d262b" d="M98-25C87-11 72 4 49 4 17 4 5-21 4-54c-1-72 43-130 119-111l11-69-28-4 2-12h76L143-15l17 4-2 11h-58zm20-119c-46-28-68 37-68 82 0 34 24 52 43 25 18-25 15-73 25-107" id="bJ"/><path fill="#1d262b" d="M8-58c3-72 59-136 130-101 9 5 14 13 14 25 0 48-53 54-95 64-3 26 4 52 31 52 20 0 33-9 45-17l8 11C108 13 5 18 8-58zm101-78c-5-28-28-9-35 5-6 12-12 25-14 42 27-4 47-18 49-47" id="bK"/><path fill="#1d262b" d="M77-130c13-23 31-45 66-38l-10 59h-10l-8-24c-22 1-32 14-42 28L55 0H7l27-149-21-5 2-11h66" id="bL"/><g id="O"><use transform="matrix(0.06172839506172839,0,0,0.06172839506172839,0,0)" xlink:href="#bH"/><use transform="matrix(0.06172839506172839,0,0,0.06172839506172839,15.987654320987653,0)" xlink:href="#bI"/><use transform="matrix(0.06172839506172839,0,0,0.06172839506172839,28.333333333333332,0)" xlink:href="#bJ"/><use transform="matrix(0.06172839506172839,0,0,0.06172839506172839,39.44444444444444,0)" xlink:href="#bK"/><use transform="matrix(0.06172839506172839,0,0,0.06172839506172839,49.25925925925926,0)" xlink:href="#bL"/></g><path fill="#1d262b" d="M118-165c22 0 57-7 42 26-24 52-60 95-88 143H50L14-150l-11-4 2-11h53L84-50c15-29 42-50 47-87 2-11-6-15-15-17" id="bM"/><path fill="#1d262b" d="M58-16l21 4-2 12H8l41-234-16-4 2-12h64" id="bN"/><path fill="#1d262b" d="M75-14c36-8 43-53 45-96 1-23-4-40-22-42-35 9-46 53-46 96 0 21 6 40 23 42zm93-86C168-39 132 4 71 4 29 4 6-22 6-66c0-62 36-104 96-104 43 0 66 27 66 70" id="bO"/><path fill="#1d262b" d="M124-170c31 0 45 25 45 59C170-40 123 20 52-2l-9 63 28 4-2 12h-95l2-12 19-4 37-211-17-5 2-10h61l-1 24c11-15 25-29 47-29zM57-22c45 27 66-36 66-81 0-26-13-53-34-33-5 4-10 9-15 16" id="bP"/><path fill="#1d262b" d="M169-135c20-49 103-47 90 26l-17 93 21 4-2 12h-68l21-127c1-27-25-14-34-3-24 31-22 86-33 130h-47l21-127c2-24-26-18-33-5C63-102 65-44 54 0H7l26-149-16-5 3-11h57v29c15-32 90-55 92 1" id="bQ"/><path fill="#1d262b" d="M62-57c-4 16-6 39 13 38 8 0 13-3 20-4l4 12C72 11 3 12 13-44l18-103H11l2-11 25-7 24-38h26l-7 38h28l-3 18H78" id="bR"/><g id="P"><use transform="matrix(0.06172839506172839,0,0,0.06172839506172839,0,0)" xlink:href="#bJ"/><use transform="matrix(0.06172839506172839,0,0,0.06172839506172839,11.11111111111111,0)" xlink:href="#bK"/><use transform="matrix(0.06172839506172839,0,0,0.06172839506172839,20.925925925925924,0)" xlink:href="#bM"/><use transform="matrix(0.06172839506172839,0,0,0.06172839506172839,30.74074074074074,0)" xlink:href="#bK"/><use transform="matrix(0.06172839506172839,0,0,0.06172839506172839,40.55555555555556,0)" xlink:href="#bN"/><use transform="matrix(0.06172839506172839,0,0,0.06172839506172839,46.7283950617284,0)" xlink:href="#bO"/><use transform="matrix(0.06172839506172839,0,0,0.06172839506172839,57.839506172839506,0)" xlink:href="#bP"/><use transform="matrix(0.06172839506172839,0,0,0.06172839506172839,68.95061728395062,0)" xlink:href="#bQ"/><use transform="matrix(0.06172839506172839,0,0,0.06172839506172839,86.23456790123457,0)" xlink:href="#bK"/><use transform="matrix(0.06172839506172839,0,0,0.06172839506172839,96.04938271604938,0)" xlink:href="#bI"/><use transform="matrix(0.06172839506172839,0,0,0.06172839506172839,108.39506172839506,0)" xlink:href="#bR"/></g><path fill="#1d262b" d="M113-112c63 10 84-104 17-104h-12L99-112h14zm109-61c0 66-54 85-126 81L82-18l39 5-2 13H0l2-13 28-5 36-200-30-5 2-13c79 3 184-17 184 63" id="bS"/><path fill="#1d262b" d="M118-31C102 5 2 26 14-39l20-110-21-5 2-11h68L62-38c7 34 44 5 53-9 18-31 17-79 27-118h46L162-16l20 4-3 12h-62" id="bT"/><path fill="#1d262b" d="M54-22c43 30 69-33 69-81 0-34-25-52-44-25-18 25-15 72-25 106zm115-89C172-18 95 27 5-8l40-226-17-4 2-12h65L74-140c11-15 26-30 49-30 33 0 45 24 46 59" id="bU"/><path fill="#1d262b" d="M59-16l21 4-2 12H9l27-149-16-5 1-11h65zm39-207c0 38-54 32-54 0 0-16 10-27 28-27 17 0 26 11 26 27" id="bV"/><path fill="#1d262b" d="M108-141c-17-26-77-2-45 26 22 19 57 24 59 63C125 7 47 13-2-6l8-46h12c-1 24 9 40 34 39 18-1 30-9 31-27-10-38-66-30-66-80 0-55 66-55 112-44l-8 42h-11" id="bW"/><path fill="#1d262b" d="M144-170c70 0 20 103 18 154l20 4-2 12h-68l22-127c-6-34-44-7-53 8C63-88 64-39 54 0H7l41-234-16-4 2-12h64L77-135c16-19 35-35 67-35" id="bX"/><g id="Q"><use transform="matrix(0.06172839506172839,0,0,0.06172839506172839,0,0)" xlink:href="#bS"/><use transform="matrix(0.06172839506172839,0,0,0.06172839506172839,13.518518518518517,0)" xlink:href="#bT"/><use transform="matrix(0.06172839506172839,0,0,0.06172839506172839,25.864197530864196,0)" xlink:href="#bU"/><use transform="matrix(0.06172839506172839,0,0,0.06172839506172839,36.9753086419753,0)" xlink:href="#bN"/><use transform="matrix(0.06172839506172839,0,0,0.06172839506172839,43.148148148148145,0)" xlink:href="#bV"/><use transform="matrix(0.06172839506172839,0,0,0.06172839506172839,49.32098765432099,0)" xlink:href="#bW"/><use transform="matrix(0.06172839506172839,0,0,0.06172839506172839,57.96296296296296,0)" xlink:href="#bX"/><use transform="matrix(0.06172839506172839,0,0,0.06172839506172839,70.30864197530865,0)" xlink:href="#bK"/><use transform="matrix(0.06172839506172839,0,0,0.06172839506172839,80.12345679012346,0)" xlink:href="#bJ"/></g><path fill="#1d262b" d="M4-56c-1-80 62-132 143-106 7-3 13-7 24-6L145-16l19 6-2 10h-61v-24C89-11 75 4 51 4 17 4 5-22 4-56zm116-90c-48-23-67 38-70 84-2 36 29 52 46 24 2-3 5-6 7-9" id="bY"/><g id="R"><use transform="matrix(0.06172839506172839,0,0,0.06172839506172839,0,0)" xlink:href="#bY"/><use transform="matrix(0.06172839506172839,0,0,0.06172839506172839,11.11111111111111,0)" xlink:href="#bI"/><use transform="matrix(0.06172839506172839,0,0,0.06172839506172839,23.45679012345679,0)" xlink:href="#bJ"/></g><path fill="#1d262b" d="M135-24C103 15 5 16 5-58c0-84 66-131 150-104l-9 51h-13c0-23-2-44-28-41-39 5-49 47-53 92-4 49 52 49 76 25" id="bZ"/><g id="S"><use transform="matrix(0.06172839506172839,0,0,0.06172839506172839,0,0)" xlink:href="#bY"/><use transform="matrix(0.06172839506172839,0,0,0.06172839506172839,11.11111111111111,0)" xlink:href="#bZ"/><use transform="matrix(0.06172839506172839,0,0,0.06172839506172839,20.925925925925924,0)" xlink:href="#bR"/><use transform="matrix(0.06172839506172839,0,0,0.06172839506172839,27.098765432098762,0)" xlink:href="#bV"/><use transform="matrix(0.06172839506172839,0,0,0.06172839506172839,33.2716049382716,0)" xlink:href="#bM"/><use transform="matrix(0.06172839506172839,0,0,0.06172839506172839,43.08641975308642,0)" xlink:href="#bK"/></g><path fill="#1d262b" d="M82-18l29 5-2 13H-4l3-13 31-5 35-200-29-5 2-13h112l-2 13-31 5" id="ca"/><g id="T"><use transform="matrix(0.06172839506172839,0,0,0.06172839506172839,0,0)" xlink:href="#ca"/><use transform="matrix(0.06172839506172839,0,0,0.06172839506172839,8.641975308641975,0)" xlink:href="#bI"/><use transform="matrix(0.06172839506172839,0,0,0.06172839506172839,20.98765432098765,0)" xlink:href="#bY"/><use transform="matrix(0.06172839506172839,0,0,0.06172839506172839,32.09876543209876,0)" xlink:href="#bZ"/><use transform="matrix(0.06172839506172839,0,0,0.06172839506172839,41.913580246913575,0)" xlink:href="#bR"/><use transform="matrix(0.06172839506172839,0,0,0.06172839506172839,48.08641975308642,0)" xlink:href="#bV"/><use transform="matrix(0.06172839506172839,0,0,0.06172839506172839,54.25925925925926,0)" xlink:href="#bM"/><use transform="matrix(0.06172839506172839,0,0,0.06172839506172839,64.07407407407408,0)" xlink:href="#bK"/></g><path fill="#1d262b" d="M95-140c0 18-13 28-29 30-17-1-29-12-29-30 1-17 11-29 29-29 17 0 28 12 29 29zM70-24C70-7 59 5 41 5 24 4 12-7 12-24s12-28 29-29c18 0 29 12 29 29" id="cb"/><g id="U"><use transform="matrix(0.06172839506172839,0,0,0.06172839506172839,0,0)" xlink:href="#bW"/><use transform="matrix(0.06172839506172839,0,0,0.06172839506172839,8.641975308641975,0)" xlink:href="#bR"/><use transform="matrix(0.06172839506172839,0,0,0.06172839506172839,14.814814814814813,0)" xlink:href="#bY"/><use transform="matrix(0.06172839506172839,0,0,0.06172839506172839,25.925925925925924,0)" xlink:href="#bR"/><use transform="matrix(0.06172839506172839,0,0,0.06172839506172839,32.098765432098766,0)" xlink:href="#bK"/><use transform="matrix(0.06172839506172839,0,0,0.06172839506172839,41.91358024691358,0)" xlink:href="#bW"/><use transform="matrix(0.06172839506172839,0,0,0.06172839506172839,50.55555555555556,0)" xlink:href="#cb"/></g><path fill="#1d262b" d="M114-119c0 29-19 49-48 49-30 0-49-20-49-49s19-49 49-49c29 0 48 20 48 49" id="cc"/><use transform="matrix(0.06172839506172839,0,0,0.06172839506172839,0,0)" xlink:href="#cc" id="V"/><path fill="#1d262b" d="M83-20c80 9 114-41 114-116 0-55-25-82-80-80zm169-119C251-34 178 11 65 0H-3l2-13 32-5 35-200-29-5 2-13c105-2 214-6 213 97" id="cd"/><g id="W"><use transform="matrix(0.06172839506172839,0,0,0.06172839506172839,0,0)" xlink:href="#cd"/><use transform="matrix(0.06172839506172839,0,0,0.06172839506172839,15.987654320987653,0)" xlink:href="#bK"/><use transform="matrix(0.06172839506172839,0,0,0.06172839506172839,25.80246913580247,0)" xlink:href="#bP"/><use transform="matrix(0.06172839506172839,0,0,0.06172839506172839,36.91358024691358,0)" xlink:href="#bL"/><use transform="matrix(0.06172839506172839,0,0,0.06172839506172839,45.55555555555556,0)" xlink:href="#bK"/><use transform="matrix(0.06172839506172839,0,0,0.06172839506172839,55.370370370370374,0)" xlink:href="#bZ"/><use transform="matrix(0.06172839506172839,0,0,0.06172839506172839,65.18518518518519,0)" xlink:href="#bY"/><use transform="matrix(0.06172839506172839,0,0,0.06172839506172839,76.2962962962963,0)" xlink:href="#bR"/><use transform="matrix(0.06172839506172839,0,0,0.06172839506172839,82.46913580246914,0)" xlink:href="#bK"/><use transform="matrix(0.06172839506172839,0,0,0.06172839506172839,92.28395061728395,0)" xlink:href="#bJ"/></g><path fill="#1d262b" d="M223-176c0 42-25 62-58 71l36 87 25 5-2 13h-70l-37-100H97L82-18l30 5-2 13H-1l3-13 28-5 36-200-30-5 3-13c77 4 183-20 184 60zm-51 3c1-33-18-46-54-43l-18 97c43 2 70-15 72-54" id="ce"/><g id="X"><use transform="matrix(0.06172839506172839,0,0,0.06172839506172839,0,0)" xlink:href="#ce"/><use transform="matrix(0.06172839506172839,0,0,0.06172839506172839,14.814814814814813,0)" xlink:href="#bK"/><use transform="matrix(0.06172839506172839,0,0,0.06172839506172839,24.629629629629626,0)" xlink:href="#bW"/><use transform="matrix(0.06172839506172839,0,0,0.06172839506172839,33.2716049382716,0)" xlink:href="#bZ"/><use transform="matrix(0.06172839506172839,0,0,0.06172839506172839,43.08641975308642,0)" xlink:href="#bV"/><use transform="matrix(0.06172839506172839,0,0,0.06172839506172839,49.25925925925926,0)" xlink:href="#bI"/><use transform="matrix(0.06172839506172839,0,0,0.06172839506172839,61.60493827160494,0)" xlink:href="#bJ"/><use transform="matrix(0.06172839506172839,0,0,0.06172839506172839,72.71604938271605,0)" xlink:href="#bK"/><use transform="matrix(0.06172839506172839,0,0,0.06172839506172839,82.53086419753086,0)" xlink:href="#bJ"/></g><g id="Y"><use transform="matrix(0.06172839506172839,0,0,0.06172839506172839,0,0)" xlink:href="#ce"/><use transform="matrix(0.06172839506172839,0,0,0.06172839506172839,14.814814814814813,0)" xlink:href="#bK"/><use transform="matrix(0.06172839506172839,0,0,0.06172839506172839,24.629629629629626,0)" xlink:href="#bR"/><use transform="matrix(0.06172839506172839,0,0,0.06172839506172839,30.802469135802465,0)" xlink:href="#bV"/><use transform="matrix(0.06172839506172839,0,0,0.06172839506172839,36.9753086419753,0)" xlink:href="#bL"/><use transform="matrix(0.06172839506172839,0,0,0.06172839506172839,45.61728395061728,0)" xlink:href="#bK"/><use transform="matrix(0.06172839506172839,0,0,0.06172839506172839,55.432098765432094,0)" xlink:href="#bJ"/></g><g id="Z"><use transform="matrix(0.06172839506172839,0,0,0.06172839506172839,0,0)" xlink:href="#be"/><use transform="matrix(0.06172839506172839,0,0,0.06172839506172839,15.987654320987653,0)" xlink:href="#bu"/><use transform="matrix(0.06172839506172839,0,0,0.06172839506172839,27.098765432098766,0)" xlink:href="#bu"/><use transform="matrix(0.06172839506172839,0,0,0.06172839506172839,38.20987654320987,0)" xlink:href="#aZ"/><use transform="matrix(0.06172839506172839,0,0,0.06172839506172839,45.55555555555555,0)" xlink:href="#bt"/><use transform="matrix(0.06172839506172839,0,0,0.06172839506172839,56.66666666666666,0)" xlink:href="#bh"/><use transform="matrix(0.06172839506172839,0,0,0.06172839506172839,67.77777777777777,0)" xlink:href="#bg"/><use transform="matrix(0.06172839506172839,0,0,0.06172839506172839,77.59259259259258,0)" xlink:href="#aY"/></g><path fill="#1d262b" d="M127-114c3-31-26-38-50-25v123l15 4V0H10v-12l16-4v-218l-17-4v-12h68l-1 99c31-23 102-32 102 30v105l17 4V0h-82v-12l14-4v-98" id="cf"/><g id="aa"><use transform="matrix(0.06172839506172839,0,0,0.06172839506172839,0,0)" xlink:href="#ay"/><use transform="matrix(0.06172839506172839,0,0,0.06172839506172839,17.28395061728395,0)" xlink:href="#aC"/><use transform="matrix(0.06172839506172839,0,0,0.06172839506172839,24.629629629629626,0)" xlink:href="#cf"/><use transform="matrix(0.06172839506172839,0,0,0.06172839506172839,36.9753086419753,0)" xlink:href="#aO"/><use transform="matrix(0.06172839506172839,0,0,0.06172839506172839,46.79012345679012,0)" xlink:href="#aG"/></g><g id="ab"><use transform="matrix(0.06172839506172839,0,0,0.06172839506172839,0,0)" xlink:href="#ay"/><use transform="matrix(0.06172839506172839,0,0,0.06172839506172839,17.28395061728395,0)" xlink:href="#az"/><use transform="matrix(0.06172839506172839,0,0,0.06172839506172839,34.5679012345679,0)" xlink:href="#aA"/></g><g id="ac"><use transform="matrix(0.06172839506172839,0,0,0.06172839506172839,0,0)" xlink:href="#aF"/><use transform="matrix(0.06172839506172839,0,0,0.06172839506172839,12.345679012345679,0)" xlink:href="#aQ"/><use transform="matrix(0.06172839506172839,0,0,0.06172839506172839,23.45679012345679,0)" xlink:href="#aM"/><use transform="matrix(0.06172839506172839,0,0,0.06172839506172839,33.27160493827161,0)" xlink:href="#aT"/><use transform="matrix(0.06172839506172839,0,0,0.06172839506172839,45.617283950617285,0)" xlink:href="#aS"/><use transform="matrix(0.06172839506172839,0,0,0.06172839506172839,64.07407407407408,0)" xlink:href="#aO"/><use transform="matrix(0.06172839506172839,0,0,0.06172839506172839,73.88888888888889,0)" xlink:href="#aE"/><use transform="matrix(0.06172839506172839,0,0,0.06172839506172839,86.23456790123457,0)" xlink:href="#aC"/></g><g id="ad"><use transform="matrix(0.06172839506172839,0,0,0.06172839506172839,0,0)" xlink:href="#aC"/><use transform="matrix(0.06172839506172839,0,0,0.06172839506172839,7.345679012345679,0)" xlink:href="#aU"/><use transform="matrix(0.06172839506172839,0,0,0.06172839506172839,18.45679012345679,0)" xlink:href="#aN"/><use transform="matrix(0.06172839506172839,0,0,0.06172839506172839,30.80246913580247,0)" xlink:href="#aO"/><use transform="matrix(0.06172839506172839,0,0,0.06172839506172839,40.617283950617285,0)" xlink:href="#aL"/></g><path fill="#1d262b" d="M75-17c87 13 134-18 134-103 0-78-51-106-134-100v203zm171-102C246 5 139 7 10 0v-9l31-5v-208l-31-4v-10h107c82 0 129 35 129 117" id="cg"/><g id="ae"><use transform="matrix(0.06172839506172839,0,0,0.06172839506172839,0,0)" xlink:href="#cg"/><use transform="matrix(0.06172839506172839,0,0,0.06172839506172839,15.987654320987653,0)" xlink:href="#aZ"/><use transform="matrix(0.06172839506172839,0,0,0.06172839506172839,23.333333333333332,0)" xlink:href="#ba"/><use transform="matrix(0.06172839506172839,0,0,0.06172839506172839,33.148148148148145,0)" xlink:href="#bb"/><use transform="matrix(0.06172839506172839,0,0,0.06172839506172839,40.49382716049382,0)" xlink:href="#bc"/></g><g id="af"><use transform="matrix(0.06172839506172839,0,0,0.06172839506172839,0,0)" xlink:href="#bp"/><use transform="matrix(0.06172839506172839,0,0,0.06172839506172839,14.814814814814813,0)" xlink:href="#bg"/><use transform="matrix(0.06172839506172839,0,0,0.06172839506172839,24.629629629629626,0)" xlink:href="#bc"/><use transform="matrix(0.06172839506172839,0,0,0.06172839506172839,30.802469135802465,0)" xlink:href="#bi"/><use transform="matrix(0.06172839506172839,0,0,0.06172839506172839,36.9753086419753,0)" xlink:href="#aZ"/><use transform="matrix(0.06172839506172839,0,0,0.06172839506172839,44.32098765432098,0)" xlink:href="#bg"/><use transform="matrix(0.06172839506172839,0,0,0.06172839506172839,54.1358024691358,0)" xlink:href="#aY"/></g><g id="ag"><use transform="matrix(0.06172839506172839,0,0,0.06172839506172839,0,0)" xlink:href="#bk"/><use transform="matrix(0.06172839506172839,0,0,0.06172839506172839,12.345679012345679,0)" xlink:href="#bl"/><use transform="matrix(0.06172839506172839,0,0,0.06172839506172839,23.45679012345679,0)" xlink:href="#bm"/><use transform="matrix(0.06172839506172839,0,0,0.06172839506172839,34.5679012345679,0)" xlink:href="#bn"/><use transform="matrix(0.06172839506172839,0,0,0.06172839506172839,40.74074074074074,0)" xlink:href="#bi"/><use transform="matrix(0.06172839506172839,0,0,0.06172839506172839,46.91358024691358,0)" xlink:href="#bo"/></g><g id="ah"><use transform="matrix(0.06172839506172839,0,0,0.06172839506172839,0,0)" xlink:href="#bp"/><use transform="matrix(0.06172839506172839,0,0,0.06172839506172839,14.814814814814813,0)" xlink:href="#bq"/><use transform="matrix(0.06172839506172839,0,0,0.06172839506172839,27.160493827160494,0)" xlink:href="#br"/></g><g id="ai"><use transform="matrix(0.06172839506172839,0,0,0.06172839506172839,0,0)" xlink:href="#bs"/><use transform="matrix(0.06172839506172839,0,0,0.06172839506172839,13.518518518518517,0)" xlink:href="#br"/></g><g id="aj"><use transform="matrix(0.06172839506172839,0,0,0.06172839506172839,0,0)" xlink:href="#bh"/><use transform="matrix(0.06172839506172839,0,0,0.06172839506172839,11.11111111111111,0)" xlink:href="#bt"/><use transform="matrix(0.06172839506172839,0,0,0.06172839506172839,22.22222222222222,0)" xlink:href="#bc"/><use transform="matrix(0.06172839506172839,0,0,0.06172839506172839,28.39506172839506,0)" xlink:href="#bg"/></g><path fill="#1d262b" d="M128-140c85 34 48 161-52 144C49 5 24-2 7-9l11-63h15v38c24 36 125 19 95-37-22-41-94-36-94-101 0-71 88-73 151-59l-10 56h-15l-2-34c-26-23-99-7-75 36 9 16 30 23 45 33" id="ch"/><g id="ak"><use transform="matrix(0.06172839506172839,0,0,0.06172839506172839,0,0)" xlink:href="#ch"/><use transform="matrix(0.06172839506172839,0,0,0.06172839506172839,12.345679012345679,0)" xlink:href="#bY"/><use transform="matrix(0.06172839506172839,0,0,0.06172839506172839,23.45679012345679,0)" xlink:href="#bQ"/><use transform="matrix(0.06172839506172839,0,0,0.06172839506172839,40.74074074074074,0)" xlink:href="#bK"/></g><g id="al"><use transform="matrix(0.06172839506172839,0,0,0.06172839506172839,0,0)" xlink:href="#bY"/><use transform="matrix(0.06172839506172839,0,0,0.06172839506172839,11.11111111111111,0)" xlink:href="#bW"/></g><g id="am"><use transform="matrix(0.06172839506172839,0,0,0.06172839506172839,0,0)" xlink:href="#ch"/><use transform="matrix(0.06172839506172839,0,0,0.06172839506172839,12.345679012345679,0)" xlink:href="#bR"/><use transform="matrix(0.06172839506172839,0,0,0.06172839506172839,18.51851851851852,0)" xlink:href="#bY"/><use transform="matrix(0.06172839506172839,0,0,0.06172839506172839,29.62962962962963,0)" xlink:href="#bI"/><use transform="matrix(0.06172839506172839,0,0,0.06172839506172839,41.97530864197531,0)" xlink:href="#bJ"/><use transform="matrix(0.06172839506172839,0,0,0.06172839506172839,53.08641975308642,0)" xlink:href="#bY"/><use transform="matrix(0.06172839506172839,0,0,0.06172839506172839,64.19753086419753,0)" xlink:href="#bL"/><use transform="matrix(0.06172839506172839,0,0,0.06172839506172839,72.8395061728395,0)" xlink:href="#bJ"/></g><g id="an"><use transform="matrix(0.07407407407407406,0,0,0.07407407407407406,0,0)" xlink:href="#be"/><use transform="matrix(0.07407407407407406,0,0,0.07407407407407406,19.18518518518518,0)" xlink:href="#bz"/></g><g id="ao"><use transform="matrix(0.07407407407407406,0,0,0.07407407407407406,0,0)" xlink:href="#ba"/><use transform="matrix(0.07407407407407406,0,0,0.07407407407407406,11.777777777777775,0)" xlink:href="#bu"/><use transform="matrix(0.07407407407407406,0,0,0.07407407407407406,25.11111111111111,0)" xlink:href="#bu"/><use transform="matrix(0.07407407407407406,0,0,0.07407407407407406,38.444444444444436,0)" xlink:href="#aZ"/><use transform="matrix(0.07407407407407406,0,0,0.07407407407407406,47.25925925925926,0)" xlink:href="#bt"/><use transform="matrix(0.07407407407407406,0,0,0.07407407407407406,60.59259259259258,0)" xlink:href="#bh"/><use transform="matrix(0.07407407407407406,0,0,0.07407407407407406,73.92592592592591,0)" xlink:href="#bg"/><use transform="matrix(0.07407407407407406,0,0,0.07407407407407406,85.70370370370368,0)" xlink:href="#aY"/></g><g id="ap"><use transform="matrix(0.07407407407407406,0,0,0.07407407407407406,0,0)" xlink:href="#aY"/><use transform="matrix(0.07407407407407406,0,0,0.07407407407407406,13.33333333333333,0)" xlink:href="#bt"/><use transform="matrix(0.07407407407407406,0,0,0.07407407407407406,26.66666666666666,0)" xlink:href="#bo"/><use transform="matrix(0.07407407407407406,0,0,0.07407407407407406,38.444444444444436,0)" xlink:href="#bl"/><use transform="matrix(0.07407407407407406,0,0,0.07407407407407406,51.777777777777764,0)" xlink:href="#by"/><use transform="matrix(0.07407407407407406,0,0,0.07407407407407406,72.5185185185185,0)" xlink:href="#bg"/><use transform="matrix(0.07407407407407406,0,0,0.07407407407407406,84.29629629629628,0)" xlink:href="#bz"/><use transform="matrix(0.07407407407407406,0,0,0.07407407407407406,97.6296296296296,0)" xlink:href="#bc"/></g><g id="aq"><use transform="matrix(0.07407407407407406,0,0,0.07407407407407406,0,0)" xlink:href="#bo"/><use transform="matrix(0.07407407407407406,0,0,0.07407407407407406,11.777777777777775,0)" xlink:href="#ba"/><use transform="matrix(0.07407407407407406,0,0,0.07407407407407406,23.55555555555555,0)" xlink:href="#bz"/></g><path fill="#1d262b" d="M50-238c28 0 22 38 0 38-10-2-19-7-19-19s7-18 19-19zM3 58c24 15 35-10 35-42v-169l-25-4v-8h54V7c4 51-28 81-77 66V38C3 36-1 51 3 58" id="ci"/><g id="ar"><use transform="matrix(0.07407407407407406,0,0,0.07407407407407406,0,0)" xlink:href="#ci"/><use transform="matrix(0.07407407407407406,0,0,0.07407407407407406,7.407407407407406,0)" xlink:href="#bl"/><use transform="matrix(0.07407407407407406,0,0,0.07407407407407406,20.740740740740737,0)" xlink:href="#by"/><use transform="matrix(0.07407407407407406,0,0,0.07407407407407406,41.481481481481474,0)" xlink:href="#bu"/></g><g id="as"><use transform="matrix(0.07407407407407406,0,0,0.07407407407407406,0,0)" xlink:href="#bc"/><use transform="matrix(0.07407407407407406,0,0,0.07407407407407406,7.407407407407406,0)" xlink:href="#bt"/></g><path fill="#1d262b" d="M161-154L85 37C75 66 49 86 8 75V39c18-2 6 24 29 21 30-4 38-32 47-58L21-153c-7-3-20 0-17-12h77v8l-26 4 45 116 43-116-26-4v-8h62v8" id="cj"/><g id="at"><use transform="matrix(0.07407407407407406,0,0,0.07407407407407406,0,0)" xlink:href="#ba"/><use transform="matrix(0.07407407407407406,0,0,0.07407407407407406,11.777777777777775,0)" xlink:href="#bz"/><use transform="matrix(0.07407407407407406,0,0,0.07407407407407406,25.11111111111111,0)" xlink:href="#cj"/></g><path fill="#1d262b" d="M50-37c14 0 21 9 21 21S62 5 50 5C37 5 28-4 28-16s8-21 22-21zm0-132c12 0 21 9 21 21 0 13-9 22-21 22-13 0-22-9-22-22 0-12 9-21 22-21" id="ck"/><g id="au"><use transform="matrix(0.07407407407407406,0,0,0.07407407407407406,0,0)" xlink:href="#bt"/><use transform="matrix(0.07407407407407406,0,0,0.07407407407407406,13.33333333333333,0)" xlink:href="#bb"/><use transform="matrix(0.07407407407407406,0,0,0.07407407407407406,22.148148148148145,0)" xlink:href="#ck"/></g><path fill="#1d262b" d="M42-37c43 0 23 74-4 81-7 4-14 8-24 11V42c17-5 29-14 31-30C42-2 20 1 21-18c0-12 9-19 21-19" id="cl"/><g id="av"><use transform="matrix(0.07407407407407406,0,0,0.07407407407407406,0,0)" xlink:href="#cg"/><use transform="matrix(0.07407407407407406,0,0,0.07407407407407406,19.18518518518518,0)" xlink:href="#bg"/><use transform="matrix(0.07407407407407406,0,0,0.07407407407407406,30.962962962962955,0)" xlink:href="#bu"/><use transform="matrix(0.07407407407407406,0,0,0.07407407407407406,44.29629629629628,0)" xlink:href="#aZ"/><use transform="matrix(0.07407407407407406,0,0,0.07407407407407406,53.1111111111111,0)" xlink:href="#bg"/><use transform="matrix(0.07407407407407406,0,0,0.07407407407407406,64.88888888888887,0)" xlink:href="#bo"/><use transform="matrix(0.07407407407407406,0,0,0.07407407407407406,76.66666666666664,0)" xlink:href="#ba"/><use transform="matrix(0.07407407407407406,0,0,0.07407407407407406,88.4444444444444,0)" xlink:href="#bc"/><use transform="matrix(0.07407407407407406,0,0,0.07407407407407406,95.8518518518518,0)" xlink:href="#bg"/><use transform="matrix(0.07407407407407406,0,0,0.07407407407407406,107.62962962962959,0)" xlink:href="#aY"/><use transform="matrix(0.07407407407407406,0,0,0.07407407407407406,120.96296296296292,0)" xlink:href="#cl"/></g><g id="aw"><use transform="matrix(0.07407407407407406,0,0,0.07407407407407406,0,0)" xlink:href="#bp"/><use transform="matrix(0.07407407407407406,0,0,0.07407407407407406,17.777777777777775,0)" xlink:href="#bg"/><use transform="matrix(0.07407407407407406,0,0,0.07407407407407406,29.55555555555555,0)" xlink:href="#bA"/><use transform="matrix(0.07407407407407406,0,0,0.07407407407407406,39.92592592592592,0)" xlink:href="#bo"/><use transform="matrix(0.07407407407407406,0,0,0.07407407407407406,51.70370370370369,0)" xlink:href="#bi"/><use transform="matrix(0.07407407407407406,0,0,0.07407407407407406,59.1111111111111,0)" xlink:href="#bz"/><use transform="matrix(0.07407407407407406,0,0,0.07407407407407406,72.44444444444443,0)" xlink:href="#aY"/><use transform="matrix(0.07407407407407406,0,0,0.07407407407407406,85.77777777777776,0)" xlink:href="#bg"/><use transform="matrix(0.07407407407407406,0,0,0.07407407407407406,97.55555555555553,0)" xlink:href="#aY"/><use transform="matrix(0.07407407407407406,0,0,0.07407407407407406,110.88888888888886,0)" xlink:href="#cl"/></g><g id="ax"><use transform="matrix(0.07407407407407406,0,0,0.07407407407407406,0,0)" xlink:href="#bp"/><use transform="matrix(0.07407407407407406,0,0,0.07407407407407406,17.777777777777775,0)" xlink:href="#bg"/><use transform="matrix(0.07407407407407406,0,0,0.07407407407407406,29.55555555555555,0)" xlink:href="#bc"/><use transform="matrix(0.07407407407407406,0,0,0.07407407407407406,36.962962962962955,0)" xlink:href="#bi"/><use transform="matrix(0.07407407407407406,0,0,0.07407407407407406,44.37037037037036,0)" xlink:href="#aZ"/><use transform="matrix(0.07407407407407406,0,0,0.07407407407407406,53.18518518518517,0)" xlink:href="#bg"/><use transform="matrix(0.07407407407407406,0,0,0.07407407407407406,64.96296296296295,0)" xlink:href="#aY"/></g></defs></g></svg>