<?xml version="1.0" encoding="UTF-8"?><svg id="uuid-025413ec-7b33-4cab-9252-e1a1cbcbc7d4" xmlns="http://www.w3.org/2000/svg" width="216.86mm" height="51.44mm" viewBox="0 0 614.73 145.8"><rect x="40.59" y="-.11" width="9.37" height="145.75" style="fill:#0f3c80;"/><rect x="84.49" y="-.11" width="9.37" height="145.75" style="fill:#0f3c80;"/><rect x="129.99" y="-.11" width="9.37" height="145.75" style="fill:#0f3c80;"/><rect x="122.95" y="101.81" width="24.05" height="24.05" transform="translate(120.03 -62.1) rotate(45)" style="fill:#0f3c80;"/><rect x="77.01" y="60.88" width="24.05" height="24.05" transform="translate(77.63 -41.61) rotate(45)" style="fill:#0f3c80;"/><rect x="33.12" y="21.55" width="24.05" height="24.05" transform="translate(36.97 -22.09) rotate(45)" style="fill:#0f3c80;"/><path d="M191.41,25.36h42.05c9.98,0,17.57,2.4,22.75,7.2,5.18,4.8,7.78,11.71,7.78,20.74,0,5.47-.99,10.01-2.95,13.61-1.97,3.6-4.97,6.65-9,9.14,4.03.77,7.46,1.94,10.3,3.53,2.83,1.58,5.13,3.53,6.91,5.83,1.78,2.3,3.05,4.9,3.82,7.78.77,2.88,1.15,5.95,1.15,9.22,0,5.09-.89,9.6-2.66,13.54-1.78,3.94-4.27,7.25-7.49,9.94-3.22,2.69-7.13,4.71-11.74,6.05-4.61,1.34-9.79,2.02-15.55,2.02h-45.36V25.36ZM219.63,67.98h5.18c8.83,0,13.25-3.5,13.25-10.51s-4.42-10.51-13.25-10.51h-5.18v21.02ZM219.63,112.05h6.19c7.1,0,12.19-.91,15.26-2.74,3.07-1.82,4.61-4.75,4.61-8.78s-1.54-6.96-4.61-8.78c-3.07-1.82-8.16-2.74-15.26-2.74h-6.19v23.04Z" style="fill:#0f3c80;"/><path d="M315.68,25.36v108.58h-28.22V25.36h28.22Z" style="fill:#0f3c80;"/><path d="M363.05,133.93h-28.22V25.36h44.93c12.19,0,21.53,3.17,28.01,9.5,6.48,6.34,9.72,15.26,9.72,26.78s-3.24,20.45-9.72,26.78c-6.48,6.34-15.82,9.5-28.01,9.5h-16.7v36ZM363.05,75.18h9.36c10.37,0,15.55-4.51,15.55-13.54s-5.18-13.54-15.55-13.54h-9.36v27.07Z" style="fill:#0f3c80;"/><path d="M423.96,133.93l18.43-108.58h27.94l21.74,57.89,21.6-57.89h27.94l18.43,108.58h-28.08l-9.36-62.5-25.63,62.5h-11.23l-24.34-62.5-9.36,62.5h-28.08Z" style="fill:#0f3c80;"/></svg>