<?xml version="1.0" encoding="UTF-8"?><svg xmlns="http://www.w3.org/2000/svg" xmlns:xlink="http://www.w3.org/1999/xlink" viewBox="0 0 1023 338"><defs><style>.f{fill:none;}.g{fill:#3d7cc9;}.h{fill:url(#b);}.h,.i,.j,.k{mix-blend-mode:multiply;}.i{fill:url(#e);}.i,.j,.k{opacity:.2;}.j{fill:url(#d);}.k{fill:url(#c);}.l{opacity:.5;}.m{isolation:isolate;}</style><linearGradient id="b" x1="80.41" y1="124.72" x2="300.75" y2="124.72" gradientTransform="matrix(1, 0, 0, 1, 0, 0)" gradientUnits="userSpaceOnUse"><stop offset="0" stop-color="#fff" stop-opacity="0"/><stop offset=".19" stop-color="#fdfefe" stop-opacity="0"/><stop offset=".22" stop-color="#fdfefe" stop-opacity="0"/><stop offset=".4" stop-color="#c9cbce" stop-opacity=".22"/><stop offset=".69" stop-color="#3c444c" stop-opacity=".83"/><stop offset=".76" stop-color="#151e28"/></linearGradient><linearGradient id="c" x1="483.27" y1="106.17" x2="336.41" y2="106.17" xlink:href="#b"/><linearGradient id="d" x1="461.32" y1="241.65" x2="355.69" y2="241.65" xlink:href="#b"/><linearGradient id="e" x1="230" y1="227.24" x2="121.35" y2="227.24" xlink:href="#b"/></defs><g style="isolation:isolate;"><g id="a"><g><g><path d="M406.58,137.45h-41.9c-4.78,.14-10.9,1.82-17.51,8.78l-15.27,17.89h51.68l23-26.67Z" style="fill:#3d7cc9;"/><path d="M204.85,225.43h-60.72c-17.43,0-31.61-14.18-31.61-31.61v-11.86h64.53v-31.79H112.52v-.3c0-17.43,14.18-31.61,31.61-31.61h82.73l31.48,36.03,23.23-21.73-26.3-30.11c-11.32-13.02-24.3-15.58-30.78-15.99h-80.36c-34.96,0-63.4,28.44-63.4,63.4v43.95c0,34.96,28.44,63.4,63.4,63.4h32.94l27.77-31.79Z" style="fill:#3d7cc9;"/><g style="opacity:.5;"><path d="M255.26,102.45c-11.31-13.01-24.3-15.57-30.77-15.98h-80.36c-34.96,0-63.4,28.44-63.4,63.4v13.1l31.79-12.8v-.3c0-17.43,14.18-31.61,31.61-31.61h82.73l31.48,36.03,23.23-21.73-26.31-30.11Z" style="fill:url(#b); mix-blend-mode:multiply;"/></g><path d="M454.93,86.44s-73.74,.02-73.72,0h-25.49c-.77,0-1.58,.13-2.34,.23-6.7,.85-17.54,3.98-27.35,14.61l-29.66,33.88,21.1,24.15,29.26-33.39c5.47-4.64,10.52-7.36,15.3-7.66l65.48-.02,27.42-31.79Z" style="fill:#3d7cc9;"/><path d="M454.96,86.44h-57.34c-.12,.01-2.15,.22-2.15,.22-6.7,.85-17.54,3.98-27.35,14.61l-21.36,24.63c5.47-4.64,10.52-7.31,15.3-7.66l65.48-.02,27.41-31.78Z" style="fill:url(#c); mix-blend-mode:multiply; opacity:.2;"/><path d="M413.54,257.56l27.41-31.78-77.98-.03-39.85-45.61-.04,.04-68.9-78.87c-11.05-11.98-23.42-14.44-29.69-14.84h-25.49l67.64,77.42,.04-.04,68.9,78.87c11.06,11.98,23.42,14.44,29.69,14.84h25.49l-.02-.02,22.8,.02Z" style="fill:#3d7cc9;"/><path d="M440.96,225.78l-77.82-.03,13.73,15.83c9.59,10.39,20.05,14.44,27.6,15.97h9.08l27.41-31.77Z" style="fill:url(#d); mix-blend-mode:multiply; opacity:.2;"/><path d="M257.12,180.18l-.04-.04-67.64,77.42h25.49c5.39,0,18.64-2.86,29.69-14.84l39.94-45-21.08-24.13-6.35,6.59Z" style="fill:#3d7cc9;"/><path d="M177.07,257.22l27.77-31.79h-60.72c-16.27,0-29.7-12.36-31.41-28.18,1.8,33.36,29.43,59.97,63.23,59.97h1.13Z" style="fill:url(#e); mix-blend-mode:multiply; opacity:.2;"/></g><g><g><path d="M548.46,163.15v10.23h-42.63v-55.06h41.61v10.23h-28.94v11.96h25.56v9.91h-25.56v12.74h29.97Z" style="fill:#3d7cc9;"/><path d="M604.54,173.38l-13.29-19.11-13.06,19.11h-14.63l20.37-28-19.35-27.06h14.47l12.66,17.85,12.43-17.85h13.76l-19.19,26.58,20.53,28.47h-14.71Z" style="fill:#3d7cc9;"/><path d="M672.62,120.76c3.59,1.63,6.36,3.93,8.3,6.92,1.94,2.99,2.91,6.53,2.91,10.62s-.97,7.56-2.91,10.58c-1.94,3.02-4.71,5.32-8.3,6.92-3.59,1.6-7.83,2.4-12.7,2.4h-11.09v15.18h-12.74v-55.06h23.83c4.88,0,9.11,.81,12.7,2.44Zm-4.68,24.58c1.99-1.65,2.99-4,2.99-7.04s-1-5.47-2.99-7.12c-1.99-1.65-4.9-2.48-8.73-2.48h-10.38v19.11h10.38c3.83,0,6.74-.83,8.73-2.48Z" style="fill:#3d7cc9;"/><path d="M739.75,173.38l-10.62-15.34h-11.72v15.34h-12.74v-55.06h23.83c4.88,0,9.11,.81,12.7,2.44,3.59,1.63,6.36,3.93,8.3,6.92,1.94,2.99,2.91,6.53,2.91,10.62s-.98,7.62-2.95,10.58c-1.97,2.96-4.76,5.23-8.38,6.8l12.35,17.7h-13.69Zm-3.22-42.2c-1.99-1.65-4.9-2.48-8.73-2.48h-10.38v19.19h10.38c3.83,0,6.74-.84,8.73-2.52,1.99-1.68,2.99-4.04,2.99-7.08s-1-5.47-2.99-7.12Z" style="fill:#3d7cc9;"/><path d="M816.9,163.15v10.23h-42.63v-55.06h41.61v10.23h-28.94v11.96h25.56v9.91h-25.56v12.74h29.97Z" style="fill:#3d7cc9;"/><path d="M844.31,172.55c-4.06-1.18-7.33-2.71-9.79-4.6l4.33-9.6c2.36,1.73,5.16,3.12,8.42,4.17,3.25,1.05,6.5,1.57,9.75,1.57,3.62,0,6.29-.54,8.02-1.61,1.73-1.07,2.6-2.5,2.6-4.29,0-1.31-.51-2.4-1.53-3.26-1.02-.87-2.33-1.56-3.93-2.08-1.6-.52-3.76-1.1-6.49-1.73-4.2-1-7.63-1.99-10.3-2.99-2.67-1-4.97-2.6-6.88-4.8s-2.87-5.14-2.87-8.81c0-3.2,.87-6.1,2.6-8.69,1.73-2.6,4.34-4.65,7.83-6.17,3.49-1.52,7.75-2.28,12.78-2.28,3.51,0,6.95,.42,10.3,1.26,3.36,.84,6.29,2.04,8.81,3.62l-3.93,9.67c-5.09-2.88-10.17-4.33-15.26-4.33-3.57,0-6.2,.58-7.91,1.73-1.7,1.15-2.56,2.67-2.56,4.56s.98,3.29,2.95,4.21c1.97,.92,4.97,1.82,9.01,2.71,4.19,1,7.63,1.99,10.3,2.99,2.67,1,4.97,2.57,6.88,4.72,1.91,2.15,2.87,5.06,2.87,8.73,0,3.15-.88,6.02-2.63,8.61-1.76,2.6-4.39,4.65-7.91,6.17-3.51,1.52-7.79,2.28-12.82,2.28-4.35,0-8.56-.59-12.62-1.77Z" style="fill:#3d7cc9;"/><path d="M906.29,172.55c-4.06-1.18-7.33-2.71-9.79-4.6l4.33-9.6c2.36,1.73,5.16,3.12,8.42,4.17,3.25,1.05,6.5,1.57,9.75,1.57,3.62,0,6.29-.54,8.02-1.61,1.73-1.07,2.6-2.5,2.6-4.29,0-1.31-.51-2.4-1.53-3.26-1.02-.87-2.33-1.56-3.93-2.08-1.6-.52-3.76-1.1-6.49-1.73-4.2-1-7.63-1.99-10.3-2.99-2.67-1-4.97-2.6-6.88-4.8s-2.87-5.14-2.87-8.81c0-3.2,.87-6.1,2.6-8.69,1.73-2.6,4.34-4.65,7.83-6.17,3.49-1.52,7.75-2.28,12.78-2.28,3.51,0,6.95,.42,10.3,1.26,3.36,.84,6.29,2.04,8.81,3.62l-3.93,9.67c-5.09-2.88-10.17-4.33-15.26-4.33-3.57,0-6.2,.58-7.91,1.73-1.7,1.15-2.56,2.67-2.56,4.56s.98,3.29,2.95,4.21c1.97,.92,4.97,1.82,9.01,2.71,4.19,1,7.63,1.99,10.3,2.99,2.67,1,4.97,2.57,6.88,4.72,1.91,2.15,2.87,5.06,2.87,8.73,0,3.15-.88,6.02-2.63,8.61-1.76,2.6-4.39,4.65-7.91,6.17-3.51,1.52-7.79,2.28-12.82,2.28-4.35,0-8.56-.59-12.62-1.77Z" style="fill:#3d7cc9;"/></g><g><path d="M507.8,196.81h2.88v17.68h10.93v2.51h-13.82v-20.19Z" style="fill:#3d7cc9;"/><path d="M541.05,203.13c1.12,1.04,1.69,2.59,1.69,4.64v9.23h-2.62v-2.02c-.46,.71-1.12,1.25-1.98,1.63s-1.87,.56-3.04,.56c-1.71,0-3.08-.41-4.11-1.24-1.03-.83-1.54-1.91-1.54-3.26s.49-2.43,1.47-3.25,2.54-1.23,4.67-1.23h4.38v-.55c0-1.19-.35-2.11-1.04-2.74-.69-.63-1.71-.95-3.06-.95-.9,0-1.79,.15-2.65,.45-.87,.3-1.6,.7-2.19,1.2l-1.15-2.08c.79-.63,1.73-1.12,2.83-1.46,1.1-.34,2.26-.5,3.49-.5,2.12,0,3.74,.52,4.86,1.56Zm-2.75,11.21c.77-.47,1.33-1.14,1.67-2v-2.13h-4.27c-2.35,0-3.52,.79-3.52,2.37,0,.77,.3,1.38,.89,1.82,.6,.44,1.42,.66,2.48,.66s1.97-.24,2.74-.71Z" style="fill:#3d7cc9;"/><path d="M566.66,203.26c1.14,1.12,1.72,2.77,1.72,4.95v8.8h-2.77v-8.48c0-1.48-.36-2.6-1.07-3.35-.71-.75-1.73-1.12-3.06-1.12-1.5,0-2.68,.44-3.55,1.31-.87,.88-1.3,2.13-1.3,3.76v7.87h-2.77v-15.29h2.65v2.31c.56-.79,1.31-1.39,2.26-1.82s2.03-.63,3.25-.63c1.94,0,3.49,.56,4.63,1.69Z" style="fill:#3d7cc9;"/><path d="M594.22,201.72v13.21c0,2.67-.66,4.65-1.99,5.93-1.33,1.28-3.31,1.92-5.94,1.92-1.44,0-2.82-.2-4.12-.59-1.31-.39-2.37-.96-3.17-1.69l1.33-2.13c.71,.62,1.59,1.1,2.64,1.46,1.05,.36,2.13,.53,3.25,.53,1.79,0,3.11-.42,3.97-1.27,.86-.85,1.28-2.13,1.28-3.87v-1.21c-.65,.79-1.46,1.38-2.41,1.77s-1.99,.59-3.1,.59c-1.46,0-2.78-.31-3.97-.94-1.18-.62-2.11-1.5-2.78-2.62s-1.01-2.41-1.01-3.85,.34-2.73,1.01-3.85,1.6-1.99,2.78-2.61c1.18-.62,2.5-.92,3.97-.92,1.15,0,2.23,.21,3.22,.63s1.8,1.05,2.44,1.88v-2.37h2.62Zm-5.26,11.59c.8-.42,1.42-1.01,1.88-1.77s.68-1.62,.68-2.58c0-1.48-.49-2.68-1.47-3.59s-2.24-1.37-3.78-1.37-2.83,.46-3.81,1.37-1.47,2.11-1.47,3.59c0,.96,.23,1.82,.68,2.58,.45,.76,1.08,1.35,1.88,1.77,.8,.42,1.71,.63,2.73,.63s1.9-.21,2.7-.63Z" style="fill:#3d7cc9;"/><path d="M619.75,201.72v15.29h-2.62v-2.31c-.56,.79-1.29,1.4-2.21,1.83-.91,.43-1.91,.65-2.99,.65-2.04,0-3.64-.56-4.82-1.69s-1.76-2.78-1.76-4.98v-8.8h2.77v8.48c0,1.48,.36,2.6,1.07,3.36,.71,.76,1.73,1.14,3.06,1.14,1.46,0,2.62-.44,3.46-1.33,.85-.88,1.27-2.13,1.27-3.75v-7.9h2.77Z" style="fill:#3d7cc9;"/><path d="M641.45,203.13c1.12,1.04,1.69,2.59,1.69,4.64v9.23h-2.62v-2.02c-.46,.71-1.12,1.25-1.98,1.63s-1.87,.56-3.04,.56c-1.71,0-3.08-.41-4.11-1.24-1.03-.83-1.54-1.91-1.54-3.26s.49-2.43,1.47-3.25,2.54-1.23,4.67-1.23h4.38v-.55c0-1.19-.35-2.11-1.04-2.74-.69-.63-1.71-.95-3.06-.95-.9,0-1.79,.15-2.65,.45-.87,.3-1.6,.7-2.19,1.2l-1.15-2.08c.79-.63,1.73-1.12,2.83-1.46,1.1-.34,2.26-.5,3.49-.5,2.12,0,3.74,.52,4.86,1.56Zm-2.75,11.21c.77-.47,1.33-1.14,1.67-2v-2.13h-4.27c-2.35,0-3.52,.79-3.52,2.37,0,.77,.3,1.38,.89,1.82,.6,.44,1.42,.66,2.48,.66s1.97-.24,2.74-.71Z" style="fill:#3d7cc9;"/><path d="M668.99,201.72v13.21c0,2.67-.66,4.65-1.99,5.93-1.33,1.28-3.31,1.92-5.94,1.92-1.44,0-2.82-.2-4.12-.59-1.31-.39-2.37-.96-3.17-1.69l1.33-2.13c.71,.62,1.59,1.1,2.64,1.46,1.05,.36,2.13,.53,3.25,.53,1.79,0,3.11-.42,3.97-1.27,.86-.85,1.28-2.13,1.28-3.87v-1.21c-.65,.79-1.46,1.38-2.41,1.77s-1.99,.59-3.1,.59c-1.46,0-2.78-.31-3.97-.94-1.18-.62-2.11-1.5-2.78-2.62s-1.01-2.41-1.01-3.85,.34-2.73,1.01-3.85,1.6-1.99,2.78-2.61c1.18-.62,2.5-.92,3.97-.92,1.15,0,2.23,.21,3.22,.63s1.8,1.05,2.44,1.88v-2.37h2.62Zm-5.26,11.59c.8-.42,1.42-1.01,1.88-1.77s.68-1.62,.68-2.58c0-1.48-.49-2.68-1.47-3.59s-2.24-1.37-3.78-1.37-2.83,.46-3.81,1.37-1.47,2.11-1.47,3.59c0,.96,.23,1.82,.68,2.58,.45,.76,1.08,1.35,1.88,1.77,.8,.42,1.71,.63,2.73,.63s1.9-.21,2.7-.63Z" style="fill:#3d7cc9;"/><path d="M694.02,210.28h-12.4c.17,1.35,.76,2.43,1.77,3.25,1.01,.82,2.26,1.23,3.76,1.23,1.83,0,3.3-.62,4.41-1.85l1.53,1.79c-.69,.81-1.55,1.42-2.58,1.85-1.03,.42-2.18,.63-3.45,.63-1.62,0-3.05-.33-4.3-1-1.25-.66-2.22-1.59-2.9-2.78s-1.02-2.54-1.02-4.04,.33-2.82,1-4.01c.66-1.19,1.58-2.12,2.74-2.78,1.16-.66,2.48-1,3.94-1s2.76,.33,3.91,1c1.14,.66,2.04,1.59,2.68,2.78,.64,1.19,.97,2.56,.97,4.1,0,.21-.02,.49-.06,.84Zm-10.83-5.16c-.89,.81-1.42,1.87-1.57,3.17h9.81c-.15-1.29-.68-2.34-1.57-3.16-.89-.82-2-1.23-3.33-1.23s-2.44,.4-3.33,1.21Z" style="fill:#3d7cc9;"/><path d="M720.96,199.32v7.04h10.12v2.48h-10.12v8.16h-2.88v-20.19h14.25v2.51h-11.36Z" style="fill:#3d7cc9;"/><path d="M743.95,216.17c-1.21-.67-2.16-1.6-2.84-2.78s-1.02-2.52-1.02-4.02,.34-2.84,1.02-4.02,1.63-2.11,2.84-2.77c1.21-.66,2.58-1,4.1-1s2.88,.33,4.08,1c1.2,.66,2.14,1.59,2.83,2.77,.68,1.18,1.02,2.52,1.02,4.02s-.34,2.84-1.02,4.02c-.68,1.18-1.63,2.11-2.83,2.78-1.2,.67-2.56,1.01-4.08,1.01s-2.88-.34-4.1-1.01Zm6.74-2.09c.78-.45,1.39-1.09,1.83-1.9s.66-1.75,.66-2.81-.22-2-.66-2.81-1.05-1.45-1.83-1.89c-.78-.44-1.66-.66-2.64-.66s-1.86,.22-2.64,.66c-.78,.44-1.39,1.07-1.85,1.89-.45,.82-.68,1.75-.68,2.81s.23,2,.68,2.81c.45,.82,1.07,1.45,1.85,1.9,.78,.45,1.66,.68,2.64,.68s1.86-.23,2.64-.68Z" style="fill:#3d7cc9;"/><path d="M780.06,201.72v15.29h-2.62v-2.31c-.56,.79-1.29,1.4-2.21,1.83-.91,.43-1.91,.65-2.99,.65-2.04,0-3.64-.56-4.82-1.69s-1.76-2.78-1.76-4.98v-8.8h2.77v8.48c0,1.48,.36,2.6,1.07,3.36,.71,.76,1.73,1.14,3.06,1.14,1.46,0,2.62-.44,3.46-1.33,.85-.88,1.27-2.13,1.27-3.75v-7.9h2.77Z" style="fill:#3d7cc9;"/><path d="M804.13,203.26c1.14,1.12,1.72,2.77,1.72,4.95v8.8h-2.77v-8.48c0-1.48-.36-2.6-1.07-3.35-.71-.75-1.73-1.12-3.06-1.12-1.5,0-2.68,.44-3.55,1.31-.87,.88-1.3,2.13-1.3,3.76v7.87h-2.77v-15.29h2.65v2.31c.56-.79,1.31-1.39,2.26-1.82s2.03-.63,3.25-.63c1.94,0,3.49,.56,4.63,1.69Z" style="fill:#3d7cc9;"/><path d="M831.49,195.6v21.4h-2.65v-2.42c-.62,.85-1.39,1.49-2.34,1.93s-1.98,.66-3.12,.66c-1.48,0-2.81-.33-3.98-.98-1.17-.65-2.09-1.57-2.75-2.75-.66-1.18-1-2.54-1-4.08s.33-2.89,1-4.07c.66-1.17,1.58-2.09,2.75-2.74,1.17-.65,2.5-.98,3.98-.98,1.1,0,2.11,.21,3.03,.62,.92,.41,1.69,1.02,2.31,1.83v-8.42h2.77Zm-5.25,18.47c.79-.45,1.4-1.09,1.85-1.9s.66-1.75,.66-2.81-.22-2-.66-2.81-1.06-1.45-1.85-1.89c-.79-.44-1.66-.66-2.62-.66s-1.86,.22-2.64,.66c-.78,.44-1.39,1.07-1.85,1.89-.45,.82-.68,1.75-.68,2.81s.23,2,.68,2.81c.45,.82,1.07,1.45,1.85,1.9,.78,.45,1.66,.68,2.64,.68s1.84-.23,2.62-.68Z" style="fill:#3d7cc9;"/><path d="M853.17,203.13c1.12,1.04,1.69,2.59,1.69,4.64v9.23h-2.62v-2.02c-.46,.71-1.12,1.25-1.98,1.63s-1.87,.56-3.04,.56c-1.71,0-3.08-.41-4.11-1.24-1.03-.83-1.54-1.91-1.54-3.26s.49-2.43,1.47-3.25,2.54-1.23,4.67-1.23h4.38v-.55c0-1.19-.35-2.11-1.04-2.74-.69-.63-1.71-.95-3.06-.95-.9,0-1.79,.15-2.65,.45-.87,.3-1.6,.7-2.19,1.2l-1.15-2.08c.79-.63,1.73-1.12,2.83-1.46,1.1-.34,2.26-.5,3.49-.5,2.12,0,3.74,.52,4.86,1.56Zm-2.75,11.21c.77-.47,1.33-1.14,1.67-2v-2.13h-4.27c-2.35,0-3.52,.79-3.52,2.37,0,.77,.3,1.38,.89,1.82,.6,.44,1.42,.66,2.48,.66s1.97-.24,2.74-.71Z" style="fill:#3d7cc9;"/><path d="M874.59,216.11c-.4,.35-.9,.61-1.5,.79-.6,.18-1.21,.27-1.85,.27-1.54,0-2.73-.41-3.58-1.24-.85-.83-1.27-2.01-1.27-3.55v-8.39h-2.6v-2.28h2.6v-3.35h2.77v3.35h4.38v2.28h-4.38v8.28c0,.83,.21,1.46,.62,1.9,.41,.44,1,.66,1.77,.66,.85,0,1.57-.24,2.16-.72l.87,1.99Z" style="fill:#3d7cc9;"/><path d="M883.97,198.26c-.36-.35-.53-.77-.53-1.27s.18-.93,.53-1.28c.36-.36,.8-.53,1.34-.53s.98,.17,1.34,.5c.36,.34,.53,.75,.53,1.25s-.18,.96-.53,1.31-.8,.53-1.34,.53-.99-.17-1.34-.52Zm-.04,3.46h2.77v15.29h-2.77v-15.29Z" style="fill:#3d7cc9;"/><path d="M900.43,216.17c-1.21-.67-2.16-1.6-2.84-2.78s-1.02-2.52-1.02-4.02,.34-2.84,1.02-4.02,1.63-2.11,2.84-2.77c1.21-.66,2.58-1,4.1-1s2.88,.33,4.08,1c1.2,.66,2.14,1.59,2.83,2.77,.68,1.18,1.02,2.52,1.02,4.02s-.34,2.84-1.02,4.02c-.68,1.18-1.63,2.11-2.83,2.78-1.2,.67-2.56,1.01-4.08,1.01s-2.88-.34-4.1-1.01Zm6.74-2.09c.78-.45,1.39-1.09,1.83-1.9s.66-1.75,.66-2.81-.22-2-.66-2.81-1.05-1.45-1.83-1.89c-.78-.44-1.66-.66-2.64-.66s-1.86,.22-2.64,.66c-.78,.44-1.39,1.07-1.85,1.89-.45,.82-.68,1.75-.68,2.81s.23,2,.68,2.81c.45,.82,1.07,1.45,1.85,1.9,.78,.45,1.66,.68,2.64,.68s1.86-.23,2.64-.68Z" style="fill:#3d7cc9;"/><path d="M935.09,203.26c1.14,1.12,1.72,2.77,1.72,4.95v8.8h-2.77v-8.48c0-1.48-.36-2.6-1.07-3.35-.71-.75-1.73-1.12-3.06-1.12-1.5,0-2.68,.44-3.55,1.31-.87,.88-1.3,2.13-1.3,3.76v7.87h-2.77v-15.29h2.65v2.31c.56-.79,1.31-1.39,2.26-1.82s2.03-.63,3.25-.63c1.94,0,3.49,.56,4.63,1.69Z" style="fill:#3d7cc9;"/></g></g></g><rect width="1023" height="338" style="fill:none;"/></g></g></svg>