<?xml version="1.0" encoding="UTF-8"?><svg id="uuid-9904fc61-5966-45a2-a96d-82a541efe75d" xmlns="http://www.w3.org/2000/svg" viewBox="0 0 900 250"><g><path d="M284.54,152.15c10.06,0,17.34-4.66,20.99-10.64l10.79,6.12c-6.41,9.91-17.49,16.47-32.07,16.47-23.47,0-39.07-16.47-39.07-38.34s15.45-38.34,38.19-38.34,36.3,18.08,36.3,38.48c0,1.9-.15,3.79-.44,5.69h-61.08c2.47,13.12,12.83,20.55,26.39,20.55Zm-26.39-31.63h48.68c-2.19-14.43-12.53-21.14-23.47-21.14-13.7,0-23.18,8.46-25.21,21.14Z" style="fill:#348f41;"/><path d="M398.81,117.46v44.75h-12.68v-44.02c0-11.95-6.85-18.66-18.07-18.66s-21.14,6.85-21.14,24.05v38.63h-12.68V89.32h12.68v10.5c5.39-8.6,13.41-12.39,23.61-12.39,17.06,0,28.28,11.37,28.28,30.03Z" style="fill:#348f41;"/><path d="M412.36,125.77c0-21.58,17.06-38.34,38.34-38.34s38.48,16.76,38.48,38.34-17.2,38.34-38.48,38.34-38.34-16.76-38.34-38.34Zm64.14,0c0-14.72-11.22-25.95-25.8-25.95s-25.66,11.22-25.66,25.95,11.22,25.95,25.66,25.95,25.8-11.22,25.8-25.95Z" style="fill:#348f41;"/><path d="M554.33,142.24c0,13.56-11.67,21.87-27.26,21.87-14.58,0-24.79-7-29.01-17.05l10.93-6.27c2.33,7,9.04,11.37,18.08,11.37,7.72,0,14.43-2.77,14.43-9.91,0-15.6-40.81-6.71-40.81-33.09,0-12.83,11.08-21.72,25.8-21.72,11.95,0,21.58,5.69,26.24,15.16l-10.64,5.98c-2.77-6.56-9.19-9.33-15.6-9.33s-12.98,3.21-12.98,9.77c0,15.6,40.82,6.41,40.82,33.24Z" style="fill:#348f41;"/><path d="M602.57,152.15c10.06,0,17.35-4.66,20.99-10.64l10.79,6.12c-6.41,9.91-17.49,16.47-32.07,16.47-23.47,0-39.06-16.47-39.06-38.34s15.45-38.34,38.19-38.34,36.3,18.08,36.3,38.48c0,1.9-.14,3.79-.44,5.69h-61.08c2.48,13.12,12.83,20.55,26.39,20.55Zm-26.39-31.63h48.69c-2.19-14.43-12.54-21.14-23.47-21.14-13.7,0-23.18,8.46-25.22,21.14Z" style="fill:#348f41;"/><path d="M758.39,116.88v45.34h-12.68v-44.9c0-11.51-6.41-17.78-16.04-17.78-10.2,0-17.93,6.41-17.93,22.16v40.52h-12.68v-44.9c0-11.51-5.98-17.78-15.45-17.78s-18.66,6.41-18.66,22.16v40.52h-12.68V89.32h12.68v9.77c5.25-8.16,12.83-11.66,21.72-11.66,9.91,0,17.2,4.52,21.43,12.39,5.1-8.31,13.41-12.39,22.88-12.39,16.18,0,27.41,11.22,27.41,29.45Z" style="fill:#348f41;"/><path d="M849.05,89.32v72.89h-12.68v-12.54c-5.83,8.89-15.16,14.43-27.55,14.43-20.26,0-36.88-16.76-36.88-38.34s16.62-38.34,36.88-38.34c12.39,0,21.72,5.54,27.55,14.43v-12.54h12.68Zm-12.68,36.45c0-14.87-11.22-26.09-25.95-26.09s-25.8,11.22-25.8,26.09,11.22,26.09,25.8,26.09,25.95-11.23,25.95-26.09Z" style="fill:#348f41;"/></g><path d="M123.16,52.79c-39.81,0-72.21,32.39-72.21,72.2s32.39,72.21,72.21,72.21,72.21-32.39,72.21-72.21S162.97,52.79,123.16,52.79Zm0,11.67c29.59,0,54.28,21.35,59.51,49.45-5.95-7.43-19.87-22.25-32.04-16.01-15.65,8.02-32.87,68.46-87.68,33.35-.21-2.06-.32-4.15-.32-6.26,0-33.38,27.16-60.54,60.54-60.54Zm0,121.08c-27.15,0-50.19-17.97-57.84-42.64,11.52,6.91,37.66,18.87,60.5,2.36,28.52-20.62,40.19-43.23,57.29-11.95-4.06,29.46-29.39,52.23-59.96,52.23Z" style="fill:#348f41;"/></svg>