<?xml version="1.0" encoding="UTF-8"?><svg id="uuid-73864094-f043-4722-bdaa-7af47c32468a" xmlns="http://www.w3.org/2000/svg" width="387.08mm" height="110.25mm" viewBox="0 0 1097.23 312.52"><path d="M542.72,166.51h-6.4l8.61-70.03h6.4l-8.61,70.03Z" style="fill:#231f20;"/><path d="M563.01,123.35c2.52-2.52,5.88-4.51,9.45-4.51,5.35,0,7.87,3.57,7.87,8.61,0,1.47-.1,2.94-.31,4.31l-4.2,34.75h-5.88l4.09-33.7c.21-1.36.42-2.73.42-4.09,0-2.83-1.47-5.04-4.41-5.04-6.4,0-7.87,6.19-8.4,11.23l-3.89,31.6h-5.88l5.77-46.93h5.77l-.42,3.78Z" style="fill:#231f20;"/><path d="M604.05,125.03h-7.77l-5.14,41.47h-5.77l5.15-41.47h-4.94l.63-5.46h5.04l1.57-13.33h5.77l-1.57,13.33h7.66l-.63,5.46Z" style="fill:#231f20;"/><path d="M627.88,150.55c-1.15,7.56-4.62,16.69-13.75,16.69s-10.92-9.34-10.92-16.8c0-4.3.42-8.82,1.36-13.02,1.47-7.35,6.09-18.58,15.12-18.58s10.08,9.45,10.08,16.27c0,3.15-.31,6.09-.84,9.13h-19.42c-.31,2.1-.52,4.1-.52,6.19,0,3.99.21,11.23,5.67,11.23s6.61-7.14,7.35-11.13h5.88ZM623.89,139.21c.1-1.68.21-3.57.21-5.35,0-3.36-.31-9.55-4.93-9.55-6.09,0-8.29,10.4-9.03,14.91h13.75Z" style="fill:#231f20;"/><path d="M651.97,125.66c-7.88,0-8.61,6.09-9.34,12.39l-3.57,28.45h-5.88l5.88-46.93h5.77l-.74,6.09c2-3.36,4.41-6.61,8.71-6.82l-.84,6.82Z" style="fill:#231f20;"/><path d="M662.73,123.35c2.52-2.52,5.88-4.51,9.45-4.51,5.35,0,7.88,3.57,7.88,8.61,0,1.47-.11,2.94-.32,4.31l-4.2,34.75h-5.88l4.09-33.7c.21-1.36.42-2.73.42-4.09,0-2.83-1.47-5.04-4.41-5.04-6.4,0-7.88,6.19-8.4,11.23l-3.88,31.6h-5.88l5.77-46.93h5.78l-.42,3.78Z" style="fill:#231f20;"/><path d="M707.43,166.51h-5.77l.42-3.78c-2.42,2.73-4.83,4.51-8.5,4.51-7.24,0-8.61-6.82-8.61-12.6,0-7.87,1.47-23.52,5.46-30.24,2.1-3.36,5.67-5.56,9.76-5.56,3.15,0,5.04,1.15,6.82,3.88l.42-3.15h5.78l-5.78,46.93ZM700.92,123.56c-2.73,0-4.3,1.68-5.56,3.88-3.04,5.56-4.41,19.53-4.41,26.04,0,3.57.21,8.92,5.04,8.92,5.56,0,6.93-6.61,7.67-10.81,1.26-6.4,2.31-12.81,2.31-19.42,0-3.36-.52-8.61-5.04-8.61Z" style="fill:#231f20;"/><path d="M736.11,125.03h-7.77l-5.14,41.47h-5.77l5.14-41.47h-4.93l.63-5.46h5.04l1.58-13.33h5.78l-1.58,13.33h7.66l-.63,5.46Z" style="fill:#231f20;"/><path d="M741,166.51h-5.88l5.77-46.93h5.78l-5.67,46.93ZM745.09,109.18c-2.21,0-3.88-1.68-3.88-3.78,0-2.73,2.31-5.04,5.04-5.04,2.1,0,3.78,1.68,3.78,3.88,0,2.73-2.31,4.94-4.93,4.94Z" style="fill:#231f20;"/><path d="M777.6,133.85c0,10.5-2.1,33.39-16.48,33.39-9.55,0-11.03-9.45-11.03-17.01,0-10.39,3.15-31.39,16.9-31.39,7.67,0,10.61,6.51,10.61,13.23v1.78ZM766.26,124.3c-8.61,0-10.18,20.68-10.18,26.77,0,3.68.52,10.6,5.56,10.6,8.4,0,9.87-20.47,9.87-26.46,0-3.78-.11-10.92-5.25-10.92Z" style="fill:#231f20;"/><path d="M792.23,123.35c2.52-2.52,5.88-4.51,9.45-4.51,5.35,0,7.88,3.57,7.88,8.61,0,1.47-.11,2.94-.32,4.31l-4.2,34.75h-5.88l4.09-33.7c.21-1.36.42-2.73.42-4.09,0-2.83-1.47-5.04-4.41-5.04-6.4,0-7.88,6.19-8.4,11.23l-3.88,31.6h-5.88l5.77-46.93h5.78l-.42,3.78Z" style="fill:#231f20;"/><path d="M836.93,166.51h-5.77l.42-3.78c-2.42,2.73-4.83,4.51-8.5,4.51-7.24,0-8.61-6.82-8.61-12.6,0-7.87,1.47-23.52,5.46-30.24,2.1-3.36,5.67-5.56,9.76-5.56,3.15,0,5.04,1.15,6.82,3.88l.42-3.15h5.78l-5.78,46.93ZM830.42,123.56c-2.73,0-4.3,1.68-5.56,3.88-3.04,5.56-4.41,19.53-4.41,26.04,0,3.57.21,8.92,5.04,8.92,5.56,0,6.93-6.61,7.67-10.81,1.26-6.4,2.31-12.81,2.31-19.42,0-3.36-.52-8.61-5.04-8.61Z" style="fill:#231f20;"/><path d="M851.31,166.51h-5.88l9.45-76.54h5.78l-9.34,76.54Z" style="fill:#231f20;"/><path d="M650.67,220.69c-2.42-1.79-4.62-3.04-7.67-3.04-4.41,0-7.87,2.73-10.08,6.4-5.25,8.5-7.04,26.14-7.04,36.12,0,6.3.63,16.8,9.24,16.8,3.36,0,6.19-1.36,8.92-3.15l-.74,6.51c-2.83,1.79-5.98,2.94-9.34,2.94-12.07,0-14.91-12.81-14.91-22.47,0-12.28,3.04-32.65,10.71-42.42,3.36-4.2,8.19-7.03,13.65-7.03,2.83,0,5.77.52,8.08,2.21l-.84,7.14Z" style="fill:#231f20;"/><path d="M676.08,249.67c0,10.5-2.1,33.39-16.48,33.39-9.55,0-11.02-9.45-11.02-17.01,0-10.39,3.15-31.39,16.9-31.39,7.66,0,10.6,6.51,10.6,13.23v1.78ZM664.74,240.11c-8.61,0-10.18,20.68-10.18,26.77,0,3.68.53,10.6,5.56,10.6,8.4,0,9.87-20.47,9.87-26.46,0-3.78-.11-10.92-5.25-10.92Z" style="fill:#231f20;"/><path d="M685.47,282.32h-5.88l9.45-76.54h5.77l-9.34,76.54Z" style="fill:#231f20;"/><path d="M722.24,249.67c0,10.5-2.1,33.39-16.48,33.39-9.55,0-11.02-9.45-11.02-17.01,0-10.39,3.15-31.39,16.9-31.39,7.67,0,10.6,6.51,10.6,13.23v1.78ZM710.9,240.11c-8.61,0-10.18,20.68-10.18,26.77,0,3.68.53,10.6,5.56,10.6,8.4,0,9.87-20.47,9.87-26.46,0-3.78-.1-10.92-5.25-10.92Z" style="fill:#231f20;"/><path d="M744.54,241.48c-7.88,0-8.61,6.09-9.34,12.39l-3.57,28.45h-5.88l5.88-46.93h5.77l-.74,6.09c2-3.36,4.41-6.61,8.71-6.82l-.84,6.82Z" style="fill:#231f20;"/><path d="M1067.14,235.85c-6.88,0-12.45-5.58-12.45-12.45s5.58-12.46,12.45-12.46,12.42,5.62,12.42,12.46-5.54,12.45-12.42,12.45ZM1067.14,212.71c-5.87,0-10.51,4.82-10.51,10.65s4.64,10.73,10.51,10.73,10.47-4.9,10.47-10.69-4.57-10.69-10.47-10.69ZM1069.19,230.63l-2.95-6.34v6.34h-2.52v-14.51h3.31c2.99,0,4.17.97,4.17,4,0,1.8-.68,3.56-2.7,3.71l3.31,6.8h-2.63ZM1066.88,222.14c1.55,0,1.87-.76,1.87-2.16,0-1.51-.4-2.09-1.98-2.09h-.54v4.25h.65Z" style="fill:#231f20;"/><path d="M355.46,49.53c-6.88,0-12.45-5.58-12.45-12.45s5.58-12.46,12.45-12.46,12.42,5.62,12.42,12.46-5.54,12.45-12.42,12.45ZM355.46,26.39c-5.87,0-10.51,4.82-10.51,10.65s4.64,10.73,10.51,10.73,10.47-4.9,10.47-10.69-4.57-10.69-10.47-10.69ZM357.51,44.31l-2.95-6.34v6.34h-2.52v-14.51h3.31c2.99,0,4.18.97,4.18,4,0,1.8-.68,3.56-2.7,3.71l3.31,6.8h-2.63ZM355.21,35.82c1.55,0,1.87-.76,1.87-2.16,0-1.51-.4-2.09-1.98-2.09h-.54v4.25h.65Z" style="fill:#231f20;"/><polygon points="437.19 312.52 232.24 123.65 516.06 299.55 437.19 312.52" style="fill:#00aeef;"/><polyline points="568.51 266.35 232.24 123.65 516.02 299.54 568.51 266.35" style="fill:#fff200;"/><polygon points="604.4 223.52 567.74 267.13 232.24 123.65 604.4 223.52" style="fill:#231f20;"/><path d="M268.04,132.99s21.15-26.49,25.42-44.1c4.66-19.21-1.89-33.3-4.15-39.95-.84-2.49-1.56-6.23-1.56-6.23l56.56,8.3S266.57,17.25,234.81,6.36C224.42,2.79,202.45-.37,192.31.03c-50.93,2.01-83.71,29.27-92.07,37.88-7.48,7.71-51.64,59.4-54.8,63.94C32.27,120.77,0,140.08,0,140.08c0,0,28.11.98,44.92-11.24,27.17-19.75,36.73-33.62,39.43-37.36,1.95-2.69,8.42-9.83,10.38-9.86,3.11-.05,10.73,32.24,22.31,43.59,25.94,25.42,49.29,25.42,49.29,25.42,0,0-40.99-18.68-45.66-57.59-4.67-38.91,29.41-56.03,33.09-57.47,12.59-4.89,26.53-5.75,26.53-5.75,0,0-15.77,16.99-16.55,31.04-.52,9.33,11.29,48.22,30.09,48.26,16.77.03,32.78-25.03,30.61-43.07-2.19-18.18-6.75-38.91-6.75-38.91,0,0,23.1,2.93,43.59,21.79,9.04,8.32,21.27,23.87,17.12,45.14-4.15,21.27-17.81,37.08-17.81,37.08l7.44,1.84Z" style="fill:#231f20;"/><polygon points="232.24 123.65 353.3 310.86 437.46 312.5 232.24 123.65" style="fill:#ec008c;"/><path d="M796.99,221.63c-2.42-1.79-4.62-3.04-7.66-3.04-4.41,0-7.88,2.73-10.08,6.4-5.25,8.5-7.03,26.14-7.03,36.12,0,6.3.63,16.8,9.24,16.8,3.36,0,6.19-1.36,8.92-3.15l-.74,6.51c-2.83,1.79-5.98,2.94-9.34,2.94-12.07,0-14.91-12.81-14.91-22.47,0-12.28,3.04-32.65,10.71-42.42,3.36-4.2,8.19-7.03,13.65-7.03,2.83,0,5.77.52,8.08,2.21l-.84,7.14Z" style="fill:#231f20;"/><path d="M822.4,250.61c0,10.5-2.1,33.39-16.48,33.39-9.55,0-11.03-9.45-11.03-17.01,0-10.39,3.15-31.39,16.9-31.39,7.67,0,10.61,6.51,10.61,13.23v1.78ZM811.06,241.06c-8.61,0-10.18,20.68-10.18,26.77,0,3.67.52,10.6,5.56,10.6,8.4,0,9.87-20.47,9.87-26.46,0-3.78-.11-10.92-5.25-10.92Z" style="fill:#231f20;"/><path d="M837.04,240.11c2.52-2.52,5.88-4.51,9.45-4.51,5.35,0,7.88,3.57,7.88,8.61,0,1.47-.11,2.94-.32,4.31l-4.2,34.75h-5.88l4.09-33.7c.21-1.36.42-2.73.42-4.09,0-2.83-1.47-5.04-4.41-5.04-6.4,0-7.88,6.19-8.4,11.23l-3.88,31.6h-5.88l5.77-46.93h5.78l-.42,3.78Z" style="fill:#231f20;"/><path d="M879.84,245.89c-1.79-2.52-3.99-4.83-7.35-4.83-3.88,0-6.61,3.36-6.61,7.14,0,7.98,12.28,10.29,12.28,20.58,0,7.87-5.99,15.22-14.07,15.22-3.25,0-5.88-1.15-8.19-3.25l.73-6.93c2,2.52,4.2,4.62,7.67,4.62,4.41,0,7.66-4.1,7.66-8.29,0-7.98-12.18-11.55-12.18-21.1,0-7.24,5.46-13.44,12.91-13.44,3.15,0,5.56,1.05,7.88,3.04l-.74,7.24Z" style="fill:#231f20;"/><path d="M909.94,250.61c0,10.5-2.1,33.39-16.48,33.39-9.55,0-11.03-9.45-11.03-17.01,0-10.39,3.15-31.39,16.9-31.39,7.67,0,10.61,6.51,10.61,13.23v1.78ZM898.6,241.06c-8.61,0-10.18,20.68-10.18,26.77,0,3.67.52,10.6,5.56,10.6,8.4,0,9.87-20.47,9.87-26.46,0-3.78-.11-10.92-5.25-10.92Z" style="fill:#231f20;"/><path d="M932.24,242.42c-7.88,0-8.61,6.09-9.34,12.39l-3.57,28.45h-5.88l5.88-46.93h5.77l-.74,6.09c2-3.36,4.41-6.61,8.71-6.82l-.84,6.82Z" style="fill:#231f20;"/><path d="M954.07,241.79h-7.77l-5.14,41.47h-5.77l5.14-41.47h-4.93l.63-5.46h5.04l1.58-13.33h5.78l-1.58,13.33h7.66l-.63,5.46Z" style="fill:#231f20;"/><path d="M958.95,283.26h-5.88l5.77-46.93h5.78l-5.67,46.93ZM963.04,225.94c-2.21,0-3.88-1.68-3.88-3.78,0-2.73,2.31-5.04,5.04-5.04,2.1,0,3.78,1.68,3.78,3.88,0,2.73-2.31,4.94-4.93,4.94Z" style="fill:#231f20;"/><path d="M992.79,271.82c-.95,7.45-6.09,12.18-13.65,12.18-6.4,0-10.5-3.67-10.5-10.18,0-.63,0-1.36.1-1.99l4.3-35.49h5.88l-3.78,30.55c-.21,1.79-.42,3.67-.42,5.35,0,3.78,1.26,6.19,5.25,6.19,6.51,0,6.93-6.72,7.56-11.55l3.78-30.55h5.77l-4.3,35.49Z" style="fill:#231f20;"/><path d="M1011.05,240.22c2.52-2.52,5.56-4.62,8.92-4.62,3.99,0,6.61,1.78,7.88,5.46,2.94-3.15,5.77-5.46,10.29-5.46,5.77,0,8.61,3.15,8.61,8.4,0,1.47-.21,2.94-.42,4.31l-4.2,34.96h-5.88l4.3-34.75c.1-.84.21-1.89.21-2.83,0-3.15-1.26-5.25-4.62-5.25-2.94,0-5.77,2.1-6.93,4.83-.94,2.31-1.36,5.46-1.68,7.98l-3.67,30.03h-5.77l4.2-34.65c.11-.95.21-2.1.21-3.15,0-2.83-1.05-5.04-4.09-5.04-2.31,0-4.72,1.16-6.09,3.04-2.1,2.83-2.62,7.24-3.04,10.71l-3.57,29.08h-5.88l5.77-46.93h5.88l-.42,3.88Z" style="fill:#231f20;"/></svg>