<?xml version="1.0" encoding="UTF-8"?><svg id="uuid-1e25dacd-7d56-41c4-88ff-93630a461cdb" xmlns="http://www.w3.org/2000/svg" width="499.98" height="500" viewBox="0 0 499.98 500"><rect width="499.98" height="500" style="fill:#0061a9; stroke-width:0px;"/><rect x="54.16" y="108.12" width="41.1" height="202.53" style="fill:#fff; stroke-width:0px;"/><path d="m273.21,103.37h-100.09c-9.68,0-23.92,10.82-23.92,26.11v148.47c0,12.14,10.99,32.39,29.84,32.39h96.1v-17.09h-68.17c-12.1,0-17.86-5.8-17.86-13.19v-55.37c0-5.81-2.45-15.3,4.8-15.3h59.96v-15.29h-58.52c-7.74,0-6.24-5.54-6.24-10.28v-46.67c0-5.28-.15-14.38,9.99-14.38h74.11v-19.39Z" style="fill:#fff; stroke-width:0px;"/><path d="m449.7,137.13s-22.26-37.98-72.54-37.98c-41.09,0-94.78,38.51-94.78,109.72,0,77.52,60.93,106,97.69,106,56.09,0,76.38-52.22,76.38-52.22l-9.67-8.96s-25.75,46.16-64.19,46.16c-23.68,0-61.53-23.47-61.53-90.98,0-74.91,32.02-93.9,61.53-93.9,36.27,0,56.94,32.7,56.94,32.7l10.16-10.54Z" style="fill:#fff; stroke-width:0px;"/><path d="m387.12,368.67H54.17v-8.71h343.9s-.4-.79-5.8,3.56c-3.94,3.17-5.14,5.15-5.14,5.15" style="fill:#fff; stroke-width:0px;"/><rect x="54.16" y="382.95" width="329.41" height="9.76" style="fill:#fff; stroke-width:0px;"/><path d="m397.79,416.96l-343.64-.13v-8.59l332.83.14s1.72,1.54,3.95,3.83c4.36,4.44,6.85,4.74,6.85,4.74" style="fill:#fff; stroke-width:0px;"/><path d="m423.52,418.1c15.65,0,28.33-13.27,28.33-29.64s-12.68-29.66-28.33-29.66-28.33,13.27-28.33,29.66,12.68,29.64,28.33,29.64" style="fill:#fff; stroke-width:0px;"/><path d="m422.86,429.46c22.55,0,40.83-18.36,40.83-41s-18.27-41.03-40.83-41.03-40.84,18.36-40.84,41.03,18.29,41,40.84,41" style="fill:#0061a9; stroke-width:0px;"/><path d="m423.64,418.1c15.65,0,28.34-13.27,28.34-29.64s-12.69-29.66-28.34-29.66-28.34,13.27-28.34,29.66,12.69,29.64,28.34,29.64" style="fill:#fff; stroke-width:0px;"/></svg>