<?xml version="1.0" encoding="utf-8"?>
<!-- Generator: Adobe Illustrator 24.1.2, SVG Export Plug-In . SVG Version: 6.00 Build 0)  -->
<svg version="1.1" id="Layer_1" xmlns="http://www.w3.org/2000/svg" xmlns:xlink="http://www.w3.org/1999/xlink" x="0px" y="0px"
	 viewBox="0 0 300 100.2" style="enable-background:new 0 0 300 100.2;" xml:space="preserve">
<style type="text/css">
	.st0{fill-rule:evenodd;clip-rule:evenodd;fill:#00AAA9;}
	.st1{fill-rule:evenodd;clip-rule:evenodd;fill:#FEFEFE;}
	.st2{fill-rule:evenodd;clip-rule:evenodd;fill:#05164D;}
	.st3{fill-rule:evenodd;clip-rule:evenodd;fill:#FEDC5B;}
	.st4{fill-rule:evenodd;clip-rule:evenodd;fill:#F5EED6;}
	.st5{fill-rule:evenodd;clip-rule:evenodd;fill:#001F46;}
	.st6{filter:url(#Adobe_OpacityMaskFilter);}
	.st7{fill-rule:evenodd;clip-rule:evenodd;fill:#FFFFFF;}
	.st8{mask:url(#mask-2_1_);fill-rule:evenodd;clip-rule:evenodd;fill:#001F46;}
	.st9{filter:url(#Adobe_OpacityMaskFilter_1_);}
	.st10{mask:url(#mask-2_2_);fill-rule:evenodd;clip-rule:evenodd;fill:#001F46;}
	.st11{filter:url(#Adobe_OpacityMaskFilter_2_);}
	.st12{mask:url(#mask-2_3_);fill-rule:evenodd;clip-rule:evenodd;fill:#001F46;}
	.st13{filter:url(#Adobe_OpacityMaskFilter_3_);}
	.st14{mask:url(#mask-2_4_);fill-rule:evenodd;clip-rule:evenodd;fill:#001F46;}
	.st15{filter:url(#Adobe_OpacityMaskFilter_4_);}
	.st16{mask:url(#mask-2_5_);fill-rule:evenodd;clip-rule:evenodd;fill:#001F46;}
	.st17{filter:url(#Adobe_OpacityMaskFilter_5_);}
	.st18{mask:url(#mask-2_6_);fill-rule:evenodd;clip-rule:evenodd;fill:#001F46;}
	.st19{filter:url(#Adobe_OpacityMaskFilter_6_);}
	.st20{mask:url(#mask-2_7_);fill-rule:evenodd;clip-rule:evenodd;fill:#001F46;}
	.st21{filter:url(#Adobe_OpacityMaskFilter_7_);}
	.st22{mask:url(#mask-2_8_);fill-rule:evenodd;clip-rule:evenodd;fill:#001F46;}
	.st23{filter:url(#Adobe_OpacityMaskFilter_8_);}
	.st24{mask:url(#mask-2_9_);fill-rule:evenodd;clip-rule:evenodd;fill:#001F46;}
	.st25{filter:url(#Adobe_OpacityMaskFilter_9_);}
	.st26{mask:url(#mask-2_10_);fill-rule:evenodd;clip-rule:evenodd;fill:#001F46;}
	.st27{filter:url(#Adobe_OpacityMaskFilter_10_);}
	.st28{mask:url(#mask-2_11_);fill-rule:evenodd;clip-rule:evenodd;fill:#001F46;}
	.st29{filter:url(#Adobe_OpacityMaskFilter_11_);}
	.st30{mask:url(#mask-2_12_);fill-rule:evenodd;clip-rule:evenodd;fill:#001F46;}
	.st31{filter:url(#Adobe_OpacityMaskFilter_12_);}
	.st32{mask:url(#mask-2_13_);fill-rule:evenodd;clip-rule:evenodd;fill:#001F46;}
	.st33{filter:url(#Adobe_OpacityMaskFilter_13_);}
	.st34{mask:url(#mask-2_14_);fill-rule:evenodd;clip-rule:evenodd;fill:#001F46;}
	.st35{filter:url(#Adobe_OpacityMaskFilter_14_);}
	.st36{mask:url(#mask-2_15_);fill-rule:evenodd;clip-rule:evenodd;fill:#001F46;}
	.st37{filter:url(#Adobe_OpacityMaskFilter_15_);}
	.st38{mask:url(#mask-2_16_);fill-rule:evenodd;clip-rule:evenodd;fill:#001F46;}
	.st39{filter:url(#Adobe_OpacityMaskFilter_16_);}
	.st40{mask:url(#mask-2_17_);fill-rule:evenodd;clip-rule:evenodd;fill:#001F46;}
	.st41{filter:url(#Adobe_OpacityMaskFilter_17_);}
	.st42{mask:url(#mask-2_18_);fill-rule:evenodd;clip-rule:evenodd;fill:#001F46;}
	.st43{filter:url(#Adobe_OpacityMaskFilter_18_);}
	.st44{mask:url(#mask-2_19_);fill-rule:evenodd;clip-rule:evenodd;fill:#001F46;}
	.st45{filter:url(#Adobe_OpacityMaskFilter_19_);}
	.st46{mask:url(#mask-2_20_);fill-rule:evenodd;clip-rule:evenodd;fill:#001F46;}
	.st47{filter:url(#Adobe_OpacityMaskFilter_20_);}
	.st48{mask:url(#mask-2_21_);fill-rule:evenodd;clip-rule:evenodd;fill:#001F46;}
	.st49{filter:url(#Adobe_OpacityMaskFilter_21_);}
	.st50{mask:url(#mask-2_22_);fill-rule:evenodd;clip-rule:evenodd;fill:#001F46;}
	.st51{filter:url(#Adobe_OpacityMaskFilter_22_);}
	.st52{mask:url(#mask-2_23_);fill-rule:evenodd;clip-rule:evenodd;fill:#001F46;}
	.st53{filter:url(#Adobe_OpacityMaskFilter_23_);}
	.st54{mask:url(#mask-2_24_);fill-rule:evenodd;clip-rule:evenodd;fill:#001F46;}
	.st55{filter:url(#Adobe_OpacityMaskFilter_24_);}
	.st56{mask:url(#mask-2_25_);fill-rule:evenodd;clip-rule:evenodd;fill:#001F46;}
	.st57{filter:url(#Adobe_OpacityMaskFilter_25_);}
	.st58{mask:url(#mask-2_26_);fill-rule:evenodd;clip-rule:evenodd;fill:#001F46;}
	.st59{filter:url(#Adobe_OpacityMaskFilter_26_);}
	.st60{mask:url(#mask-2_27_);fill-rule:evenodd;clip-rule:evenodd;fill:#001F46;}
	.st61{filter:url(#Adobe_OpacityMaskFilter_27_);}
	.st62{mask:url(#mask-2_28_);fill-rule:evenodd;clip-rule:evenodd;fill:#001F46;}
	.st63{filter:url(#Adobe_OpacityMaskFilter_28_);}
	.st64{mask:url(#mask-2_29_);fill-rule:evenodd;clip-rule:evenodd;fill:#001F46;}
</style>
<desc>Created with Sketch.</desc>
<g>
	<g transform="translate(-21.000000, -60.000000)">
		<g transform="translate(21.000000, 60.000000)">
			<g>
				<g transform="translate(100.000000, 0.000000)">
					<g>
						<polygon class="st0" points="100,100.2 200,100.2 200,0.2 100,0.2 						"/>
						<g transform="translate(20.000000, 36.000000)">
							<polygon class="st1" points="100.5,25.8 108.1,25.8 108.1,1.3 100.5,1.3 							"/>
							<polygon class="st1" points="112,1.3 119.5,1.3 119.5,9.8 126.6,9.8 126.6,1.3 134.2,1.3 134.2,25.8 126.6,25.8 126.6,16.1 
								119.5,16.1 119.5,25.8 112,25.8 							"/>
							<path class="st1" d="M148.4,20.3c1.9,0,4.9-1.3,4.9-6.7c0-5.5-3-6.7-4.9-6.7c-1.9,0-4.9,1.3-4.9,6.7
								C143.5,19,146.5,20.3,148.4,20.3 M148.4,0.7c7.5,0,12.5,5.4,12.5,12.8s-5,12.8-12.5,12.8c-7.5,0-12.5-5.4-12.5-12.8
								S140.9,0.7,148.4,0.7"/>
						</g>
					</g>
				</g>
				<g>
					<g>
						<polygon class="st2" points="100,100.2 200,100.2 200,0.2 100,0.2 						"/>
						<g transform="translate(19.811321, 15.277778)">
							<path class="st3" d="M128.7,10.7c-0.2,0-0.3,0.2-0.3,0.4c0,0.2,0.2,0.3,0.4,0.3c0.2,0,0.3-0.2,0.3-0.4
								C129.1,10.9,128.9,10.7,128.7,10.7"/>
							<path class="st3" d="M130.2,35.9l0.3-2.4c0-0.3,0.1-0.5,0.2-0.8h-6.3v-8.2h-4.2v20.6h4.2v-8.4h5.7
								C130.2,36.4,130.2,36.1,130.2,35.9"/>
							<path class="st3" d="M134,26.5c-0.1-0.6-0.5-1.2-1.1-1.5l-0.6-0.4V26c0.3,0.2,0.5,0.5,0.5,0.8c0.1,0.3,0,0.7-0.2,1
								c-0.1,0.2-0.2,0.3-0.4,0.4v1.2c0.6-0.2,1-0.5,1.3-1C134,27.8,134.1,27.1,134,26.5"/>
							<path class="st3" d="M128.2,47.6l0.4-0.6c-0.1-0.2-0.2-0.4-0.3-0.6c-0.3-0.8-0.3-1.7,0.1-2.5l1-2.2c0.4-1,1.2-1.6,2.2-1.9V39
								c-0.5-0.3-0.8-0.8-1.1-1.3h-2.8v10c0.2,0,0.3,0,0.5,0C128.2,47.6,128.2,47.6,128.2,47.6"/>
							<path class="st3" d="M129.6,20.6c-0.7,0-1.3,0-1.9,0.1v10.9h3.8c0,0,0,0,0,0h0.1v-0.1v-0.4v-9.8v-0.6
								C130.9,20.6,130.2,20.6,129.6,20.6"/>
							<path class="st3" d="M144.1,55.4c-0.3,0.2-0.3,0.6-0.1,0.9c0.2,0.3,0.6,0.4,0.9,0.2c0.3-0.2,0.3-0.6,0.1-0.9
								C144.7,55.3,144.4,55.2,144.1,55.4"/>
							<polygon class="st3" points="131.6,60.3 132.4,60.2 131.9,59 							"/>
							<path class="st3" d="M114.1,55.5c-0.2,0.3-0.2,0.7,0.1,0.9c0.3,0.2,0.6,0.1,0.9-0.2c0.2-0.3,0.2-0.7-0.1-0.9
								C114.7,55.1,114.3,55.2,114.1,55.5"/>
							<path class="st3" d="M138.4,57.4c-0.5,0.2-0.7,0.7-0.5,1.3c0.2,0.5,0.7,0.8,1.3,0.6c0.5-0.2,0.7-0.7,0.5-1.3
								C139.5,57.4,139,57.2,138.4,57.4"/>
							<path class="st3" d="M151.8,47c-0.3,0.6-0.7,1.1-1,1.7l1.3,0.8l-15.9,5.3c-1.5,0.5-3,0.8-4.6,1v-1.3
								c-0.6,0.1-1.3,0.1-1.9,0.1c-0.1,0-0.1,0-0.2,0l-0.2,0.2c-0.4,0.5-0.8,0.8-1.4,1c-1.6-0.1-3.1-0.5-4.6-0.9l-16.1-5.4l1.3-0.8
								c-0.4-0.6-0.7-1.1-1-1.7l-7.2,4c0.4,0.8,0.9,1.5,1.3,2.2l2.2-1.4l26,16.8l26-16.8l2.2,1.4c0.5-0.7,0.9-1.5,1.3-2.2L151.8,47z
								"/>
							<path class="st3" d="M132.3,41.6c0,0-0.1,0-0.1,0c-0.4,0.1-0.8,0.3-1,0.8l-1,2.2c-0.1,0.3-0.1,0.7,0,1
								c0.1,0.3,0.4,0.6,0.7,0.7c0.2,0.1,0.3,0.1,0.5,0.1c0.2,0,0.3,0,0.5-0.1c0.3-0.1,0.6-0.4,0.7-0.7l1-2.2c0.3-0.6,0-1.4-0.6-1.7
								C132.6,41.7,132.4,41.6,132.3,41.6 M131.3,47.5c-0.3,0-0.7-0.1-1-0.2c-0.6-0.3-1-0.7-1.3-1.3c-0.2-0.6-0.2-1.3,0-1.8l1-2.2
								c0.4-0.9,1.2-1.4,2.2-1.4c0.3,0,0.7,0.1,1,0.2c1.2,0.5,1.8,2,1.2,3.2l-1,2.2c-0.3,0.6-0.7,1-1.3,1.3
								c-0.2,0.1-0.4,0.1-0.6,0.2C131.5,47.5,131.4,47.5,131.3,47.5"/>
							<path class="st3" d="M133.7,32.6c-0.3,0-0.5,0.1-0.7,0.3c-0.3,0.2-0.4,0.5-0.5,0.8l-0.3,2.4c0,0.3,0,0.7,0.2,0.9
								s0.5,0.4,0.8,0.5c0.1,0,0.1,0,0.2,0c0.6,0,1.2-0.5,1.2-1.1l0.3-2.4c0-0.3,0-0.7-0.2-0.9c-0.2-0.3-0.5-0.4-0.8-0.5
								C133.9,32.6,133.8,32.6,133.7,32.6L133.7,32.6L133.7,32.6z M133.4,38.7c-0.1,0-0.2,0-0.3,0c-0.6-0.1-1.2-0.4-1.6-0.9
								c-0.4-0.5-0.6-1.2-0.5-1.8l0.3-2.4c0.1-0.6,0.4-1.2,0.9-1.6c0.4-0.3,0.9-0.5,1.4-0.5c0.1,0,0.2,0,0.3,0
								c0.6,0.1,1.2,0.4,1.6,0.9c0.4,0.5,0.6,1.2,0.5,1.8l-0.3,2.4C135.6,37.8,134.6,38.7,133.4,38.7L133.4,38.7z"/>
							<path class="st3" d="M124,17.5c-0.1,0-0.2,0-0.3,0.1c-0.7,0.2-1.1,0.9-0.9,1.6l0.7,2.3c0.2,0.5,0.7,0.9,1.2,0.9
								c0.1,0,0.2,0,0.3,0c0.3-0.1,0.6-0.3,0.8-0.6c0.2-0.3,0.2-0.6,0.1-1l-0.7-2.3c-0.1-0.3-0.3-0.6-0.6-0.8
								c-0.1-0.1-0.2-0.1-0.3-0.1C124.2,17.5,124.1,17.5,124,17.5 M124.7,23.5c-0.2,0-0.4,0-0.6-0.1c-0.8-0.2-1.5-0.8-1.7-1.7
								l-0.7-2.3c-0.4-1.3,0.4-2.6,1.6-3c0.2-0.1,0.4-0.1,0.7-0.1c0.4,0,0.8,0.1,1.2,0.3c0.6,0.3,1,0.8,1.1,1.4l0.7,2.3
								c0.2,0.6,0.1,1.3-0.2,1.8c-0.3,0.6-0.8,1-1.4,1.2C125.1,23.5,124.9,23.5,124.7,23.5"/>
							<path class="st3" d="M122.2,9c0.2-0.3,0.5-0.5,0.9-0.5c0,0,0.1,0,0.1,0c0.1,0,0.2,0,0.3,0c0.2,0.1,0.4,0.2,0.6,0.3l1.3-0.1
								c0-0.1-0.1-0.2-0.1-0.3c-0.3-0.5-0.9-0.9-1.5-1.1c-0.2,0-0.4-0.1-0.5-0.1c-1.1,0-2,0.7-2.3,1.8L122.2,9z"/>
							<path class="st3" d="M129.7,5.4c-0.3-0.4-0.8-0.4-1.2-0.2l-5.3,3.7l3.2-0.3l3-2.1C129.9,6.2,129.9,5.7,129.7,5.4"/>
							<path class="st3" d="M120.3,14.1c0,0.1,0.1,0.1,0.1,0.2c0.3,0.5,0.9,0.9,1.5,1.1c0.2,0,0.4,0.1,0.5,0.1c0.1,0,0.2,0,0.3,0
								c0.4,0,0.7-0.2,1-0.4c0.2-0.2,0.5-0.4,0.6-0.6L120.3,14.1z"/>
							<path class="st3" d="M121.2,12.7l0.4-1.6c-0.2,0-0.5,0-0.7,0c-0.1,0-0.3,0-0.4-0.1l-0.3,1.4c-0.1,0.2-0.1,0.5,0,0.7l1.2,0.1
								C121.1,13.1,121.1,12.9,121.2,12.7"/>
							<path class="st3" d="M125.3,11c-0.4,0-0.8,0.1-1.2,0.1l-0.5,2.2c0,0.1,0,0.2-0.1,0.2l1.2,0.1c0,0,0-0.1,0-0.1l0.5-2.4
								C125.3,11.1,125.3,11.1,125.3,11"/>
							<path class="st3" d="M134.7,24.4v6.3c1.5,0.5,2.5,2,2.3,3.6l-0.3,2.4c-0.2,1.2-0.9,2.1-2,2.6v1.4c0.8,0.9,1.1,2.3,0.6,3.5
								l-0.4,0.8h4V24.4H134.7z"/>
							<path class="st3" d="M129.6,16.1c-1.2,0-2.3,0.1-3.4,0.3c0.4,0.4,0.8,0.9,0.9,1.5l0.5,1.7c0.7-0.1,1.3-0.1,2-0.1
								c8.4,0,15.2,6.9,15.2,15.3c0,7.9-5.9,14.4-13.5,15.2c0,0.2,0.1,0.4,0.1,0.5c0.1,0.9-0.2,1.7-0.7,2.4l-0.4,0.5
								c9.9-0.4,17.8-8.6,17.8-18.7C148.1,24.4,139.8,16.1,129.6,16.1"/>
							<path class="st3" d="M124.1,50.7l1-1.3c-6.2-1.9-10.7-7.8-10.7-14.7c0-5.5,2.8-10.2,7.1-13l-0.6-2.1
								c-0.1-0.5-0.2-0.9-0.1-1.4c-5.8,3.2-9.7,9.3-9.7,16.4c0,8.1,5.2,15.1,12.3,17.6C123.5,51.7,123.7,51.2,124.1,50.7"/>
							<path class="st3" d="M129.1,51.6l-1.5,1.9c-0.2,0.3-0.5,0.4-0.8,0.5c-0.2,0-0.3,0-0.5,0c-0.2,0-0.3-0.1-0.5-0.2
								c-0.3-0.2-0.4-0.5-0.5-0.8c0-0.3,0-0.7,0.3-0.9l1.5-1.9c0.3-0.4,0.7-0.5,1.2-0.5c0,0,0.1,0,0.1,0c0.2,0,0.3,0.1,0.5,0.2
								C129.4,50.3,129.5,51.1,129.1,51.6 M129.6,49c-0.3-0.2-0.6-0.4-0.9-0.4c-0.9-0.2-1.9,0.1-2.5,0.9l-1.5,1.9
								c-0.4,0.5-0.6,1.1-0.5,1.8c0.1,0.6,0.4,1.2,0.9,1.6c0,0,0,0,0,0c0.7,0.2,1.5,0.3,2.2,0.4c0.4-0.2,0.8-0.4,1.1-0.8l1.5-1.9
								C130.8,51.3,130.6,49.8,129.6,49"/>
							<path class="st3" d="M133.8,34.2c-0.1,0-0.2,0-0.2,0c-0.2-0.1-0.3-0.2-0.4-0.3l-0.9-2.1l0-3.3l2.1,4.9c0.1,0.3,0,0.7-0.3,0.9
								C134,34.2,133.9,34.2,133.8,34.2"/>
							<path class="st3" d="M124.4,21.9c-0.1-0.1-0.2-0.3-0.2-0.5c0-0.2,0.1-0.3,0.2-0.5c0.1-0.1,0.3-0.2,0.4-0.2
								c0.2,0,0.3,0.1,0.5,0.2l1.4,1.5v1.9L124.4,21.9z"/>
							<path class="st3" d="M132.3,43.2c0,0-0.1,0-0.1,0c-0.4-0.1-0.6-0.4-0.5-0.8l1-6c0.1-0.3,0.3-0.5,0.6-0.5c0,0,0.1,0,0.1,0
								c0.2,0,0.3,0.1,0.4,0.3c0.1,0.1,0.1,0.3,0.1,0.5l-1,5.9C132.9,43,132.6,43.2,132.3,43.2"/>
							<path class="st3" d="M126.6,54.9c-0.5-0.1-0.9-0.1-1.3-0.2l0.6-1.8c0.1-0.3,0.3-0.4,0.6-0.4c0.1,0,0.1,0,0.2,0
								c0.2,0.1,0.3,0.2,0.4,0.3c0.1,0.2,0.1,0.3,0,0.5L126.6,54.9z"/>
							<path class="st3" d="M128.2,51.3c-0.1,0-0.2,0-0.3-0.1c-0.1-0.1-0.3-0.2-0.3-0.4c0-0.2,0-0.3,0.1-0.5l3-5.2
								c0.1-0.2,0.3-0.3,0.6-0.3c0.1,0,0.2,0,0.3,0.1c0.3,0.2,0.4,0.6,0.2,0.9l-3,5.2C128.6,51.1,128.4,51.3,128.2,51.3L128.2,51.3z
								"/>
							<path class="st3" d="M123.9,19c-0.3,0-0.5-0.2-0.6-0.5l-1.1-4.1l1.3,0l1,3.7c0,0.2,0,0.3-0.1,0.5c-0.1,0.2-0.2,0.3-0.4,0.3
								C124.1,19,124,19,123.9,19L123.9,19z"/>
							<path class="st3" d="M132.3,12.9l0.2-1.7l-0.6,0.1l0.1-0.6l1.1-0.3l-0.3,2.5L132.3,12.9z M131.6,12.3l0,0.5l-1.6-0.1l0-0.4
								l0.9-0.8c0.1-0.1,0.2-0.2,0.2-0.4c0-0.2-0.1-0.3-0.3-0.3c-0.2,0-0.4,0.1-0.5,0.2l-0.3-0.4c0.2-0.2,0.4-0.4,0.9-0.4
								c0.5,0,0.8,0.4,0.8,0.8c0,0.3-0.1,0.5-0.4,0.7l-0.5,0.4L131.6,12.3z M129.5,11.7l-0.6,1l-0.7,0l0.6-0.8l0,0
								c-0.5,0-0.9-0.3-0.9-0.8c0-0.5,0.4-0.9,0.9-0.9c0.5,0,1,0.3,1,0.8C129.7,11.3,129.6,11.5,129.5,11.7z M127,12.9l-0.2-1.7
								l-0.5,0.3l-0.1-0.6l1-0.6l0.3,2.5L127,12.9z M146.8,10.7l-15.3-1.4V8.5c1.2-0.7,2.1-2,2.1-3.5c0-2.2-1.8-4-4-4
								c-2.2,0-4,1.8-4,4c0,0.5,0.1,1,0.3,1.4l1.8-1.3c0,0,0-0.1,0-0.1c0-1.1,0.9-1.9,1.9-1.9c1.1,0,1.9,0.9,1.9,1.9
								c0,0.1,0,0.2,0,0.3c0,0.1,0,0.2-0.1,0.3c0,0,0,0,0,0c0,0.1-0.1,0.2-0.1,0.3c0,0,0,0,0,0.1c0,0.1-0.1,0.1-0.1,0.2
								c0,0,0,0.1-0.1,0.1c-0.1,0.1-0.1,0.1-0.2,0.2c0,0-0.1,0.1-0.1,0.1c-0.1,0-0.1,0.1-0.2,0.1c0,0-0.1,0.1-0.2,0.1
								c-0.1,0-0.1,0.1-0.2,0.1c-0.1,0-0.1,0-0.2,0.1c0,0-0.1,0-0.1,0c0,0-0.1,0.1-0.2,0.1l-2.2,1.5v0.9l-15.3,1.4l1.3,1.9l14,1.2
								V15c0.6-0.1,1.3-0.1,1.9-0.1c0.7,0,1.3,0,1.9,0.1v-1.1l13.9-1.2L146.8,10.7z"/>
						</g>
					</g>
				</g>
			</g>
			<g transform="translate(0.000000, 100.000000)">
				<polygon class="st4" points="0,0 100,0 100,-100 0,-100 				"/>
				<polygon class="st5" points="16,-59 17,-59 17,-67 16,-67 				"/>
				<g>
					<path class="st5" d="M18.9-64.7h0.7v1h0c0.3-0.7,1-1.1,1.8-1.1c1.6,0,2.1,0.8,2.1,2.2v3.6h-0.7v-3.5c0-1-0.3-1.7-1.4-1.7
						c-1.1,0-1.7,0.8-1.8,1.9v3.3h-0.7V-64.7z"/>
					<path class="st5" d="M26.4-64.7h1.1v0.6h-1.1v3.8c0,0.4,0.1,0.7,0.6,0.7c0.2,0,0.4,0,0.6,0v0.6c-0.2,0-0.4,0-0.6,0
						c-0.9,0-1.2-0.3-1.2-1.3v-3.9h-1v-0.6h1v-1.7h0.7V-64.7z"/>
					<path class="st5" d="M33.2-62.3c0-1-0.7-2-1.8-2c-1.1,0-1.7,1-1.9,2H33.2z M29.5-61.7c0,1,0.5,2.2,1.9,2.2c1,0,1.6-0.6,1.8-1.4
						h0.7c-0.3,1.3-1,2-2.5,2c-1.8,0-2.5-1.4-2.5-3c0-1.5,0.8-3,2.5-3c1.8,0,2.5,1.6,2.5,3.2H29.5z"/>
					<path class="st5" d="M35.4-64.7H36v1.3h0c0.3-0.9,1.1-1.4,2.1-1.4v0.7c-1.2-0.1-2.1,0.9-2.1,2v3h-0.7V-64.7z"/>
					<path class="st5" d="M39.5-64.7h0.7v1h0c0.3-0.7,1-1.1,1.8-1.1c1.6,0,2.1,0.8,2.1,2.2v3.6h-0.7v-3.5c0-1-0.3-1.7-1.4-1.7
						c-1.1,0-1.7,0.8-1.8,1.9v3.3h-0.7V-64.7z"/>
					<path class="st5" d="M49.6-62.2L49.6-62.2C49.5-62,49.1-62,49-61.9c-1.2,0.2-2.6,0.2-2.6,1.3c0,0.7,0.6,1.1,1.3,1.1
						c1,0,2-0.7,2-1.8V-62.2z M45.9-63c0.1-1.3,1-1.9,2.3-1.9c1,0,2.1,0.3,2.1,1.8v3c0,0.3,0.1,0.4,0.4,0.4c0.1,0,0.2,0,0.2,0v0.6
						c-0.2,0-0.3,0-0.4,0c-0.7,0-0.8-0.4-0.8-1h0c-0.5,0.7-1,1.1-2.1,1.1c-1,0-1.9-0.5-1.9-1.6c0-1.6,1.5-1.6,3-1.8
						c0.6-0.1,0.9-0.1,0.9-0.8c0-0.9-0.7-1.2-1.5-1.2c-0.9,0-1.5,0.4-1.5,1.3H45.9z"/>
					<path class="st5" d="M53.3-64.7h1.1v0.6h-1.1v3.8c0,0.4,0.1,0.7,0.6,0.7c0.2,0,0.4,0,0.6,0v0.6c-0.2,0-0.4,0-0.6,0
						c-0.9,0-1.2-0.3-1.2-1.3v-3.9h-1v-0.6h1v-1.7h0.7V-64.7z"/>
					<defs>
						<filter id="Adobe_OpacityMaskFilter" filterUnits="userSpaceOnUse" x="56" y="-66.9" width="0.7" height="7.8">
							<feColorMatrix  type="matrix" values="1 0 0 0 0  0 1 0 0 0  0 0 1 0 0  0 0 0 1 0"/>
						</filter>
					</defs>
					<mask maskUnits="userSpaceOnUse" x="56" y="-66.9" width="0.7" height="7.8" id="mask-2_1_">
						<g class="st6">
							<polygon id="path-1_1_" class="st7" points="0,0 99.8,0 99.8,-99.8 0,-99.8 							"/>
						</g>
					</mask>
					<path class="st8" d="M56-59.1h0.7v-5.6H56V-59.1z M56-65.8h0.7v-1.1H56V-65.8z"/>
					<defs>
						<filter id="Adobe_OpacityMaskFilter_1_" filterUnits="userSpaceOnUse" x="58.2" y="-64.9" width="5.3" height="6">
							<feColorMatrix  type="matrix" values="1 0 0 0 0  0 1 0 0 0  0 0 1 0 0  0 0 0 1 0"/>
						</filter>
					</defs>
					<mask maskUnits="userSpaceOnUse" x="58.2" y="-64.9" width="5.3" height="6" id="mask-2_2_">
						<g class="st9">
							<polygon id="path-1_2_" class="st7" points="0,0 99.8,0 99.8,-99.8 0,-99.8 							"/>
						</g>
					</mask>
					<path class="st10" d="M58.9-61.9c0,1.2,0.7,2.4,2,2.4c1.3,0,2-1.2,2-2.4c0-1.2-0.7-2.4-2-2.4C59.6-64.3,58.9-63.1,58.9-61.9
						 M63.6-61.9c0,1.6-0.9,3-2.7,3c-1.7,0-2.7-1.4-2.7-3s0.9-3,2.7-3C62.6-64.9,63.6-63.5,63.6-61.9"/>
					<defs>
						<filter id="Adobe_OpacityMaskFilter_2_" filterUnits="userSpaceOnUse" x="65.1" y="-64.9" width="4.6" height="5.8">
							<feColorMatrix  type="matrix" values="1 0 0 0 0  0 1 0 0 0  0 0 1 0 0  0 0 0 1 0"/>
						</filter>
					</defs>
					<mask maskUnits="userSpaceOnUse" x="65.1" y="-64.9" width="4.6" height="5.8" id="mask-2_3_">
						<g class="st11">
							<polygon id="path-1_3_" class="st7" points="0,0 99.8,0 99.8,-99.8 0,-99.8 							"/>
						</g>
					</mask>
					<path class="st12" d="M65.1-64.7h0.7v1h0c0.3-0.7,1-1.1,1.8-1.1c1.6,0,2.1,0.8,2.1,2.2v3.6H69v-3.5c0-1-0.3-1.7-1.4-1.7
						c-1.1,0-1.7,0.8-1.8,1.9v3.3h-0.7V-64.7z"/>
					<defs>
						<filter id="Adobe_OpacityMaskFilter_3_" filterUnits="userSpaceOnUse" x="71.3" y="-64.9" width="5.2" height="6">
							<feColorMatrix  type="matrix" values="1 0 0 0 0  0 1 0 0 0  0 0 1 0 0  0 0 0 1 0"/>
						</filter>
					</defs>
					<mask maskUnits="userSpaceOnUse" x="71.3" y="-64.9" width="5.2" height="6" id="mask-2_4_">
						<g class="st13">
							<polygon id="path-1_4_" class="st7" points="0,0 99.8,0 99.8,-99.8 0,-99.8 							"/>
						</g>
					</mask>
					<path class="st14" d="M75.2-62.2L75.2-62.2c-0.1,0.2-0.4,0.2-0.6,0.3c-1.2,0.2-2.6,0.2-2.6,1.3c0,0.7,0.6,1.1,1.3,1.1
						c1,0,2-0.7,2-1.8V-62.2z M71.5-63c0.1-1.3,1-1.9,2.3-1.9c1,0,2.1,0.3,2.1,1.8v3c0,0.3,0.1,0.4,0.4,0.4c0.1,0,0.2,0,0.2,0v0.6
						c-0.2,0-0.3,0-0.4,0c-0.7,0-0.8-0.4-0.8-1h0c-0.5,0.7-1,1.1-2.1,1.1c-1,0-1.9-0.5-1.9-1.6c0-1.6,1.5-1.6,3-1.8
						c0.6-0.1,0.9-0.1,0.9-0.8c0-0.9-0.7-1.2-1.5-1.2c-0.9,0-1.5,0.4-1.5,1.3H71.5z"/>
					<defs>
						<filter id="Adobe_OpacityMaskFilter_4_" filterUnits="userSpaceOnUse" x="77.8" y="-66.9" width="0.7" height="7.8">
							<feColorMatrix  type="matrix" values="1 0 0 0 0  0 1 0 0 0  0 0 1 0 0  0 0 0 1 0"/>
						</filter>
					</defs>
					<mask maskUnits="userSpaceOnUse" x="77.8" y="-66.9" width="0.7" height="7.8" id="mask-2_5_">
						<g class="st15">
							<polygon id="path-1_5_" class="st7" points="0,0 99.8,0 99.8,-99.8 0,-99.8 							"/>
						</g>
					</mask>
					<polygon class="st16" points="77.8,-59.1 78.5,-59.1 78.5,-66.9 77.8,-66.9 					"/>
					<defs>
						<filter id="Adobe_OpacityMaskFilter_5_" filterUnits="userSpaceOnUse" x="16.1" y="-52.6" width="6.1" height="7.8">
							<feColorMatrix  type="matrix" values="1 0 0 0 0  0 1 0 0 0  0 0 1 0 0  0 0 0 1 0"/>
						</filter>
					</defs>
					<mask maskUnits="userSpaceOnUse" x="16.1" y="-52.6" width="6.1" height="7.8" id="mask-2_6_">
						<g class="st17">
							<polygon id="path-1_6_" class="st7" points="0,0 99.8,0 99.8,-99.8 0,-99.8 							"/>
						</g>
					</mask>
					<polygon class="st18" points="16.1,-52.6 16.8,-52.6 16.8,-49.2 21.5,-49.2 21.5,-52.6 22.2,-52.6 22.2,-44.8 21.5,-44.8 
						21.5,-48.5 16.8,-48.5 16.8,-44.8 16.1,-44.8 					"/>
					<defs>
						<filter id="Adobe_OpacityMaskFilter_6_" filterUnits="userSpaceOnUse" x="23.6" y="-50.4" width="5" height="7.7">
							<feColorMatrix  type="matrix" values="1 0 0 0 0  0 1 0 0 0  0 0 1 0 0  0 0 0 1 0"/>
						</filter>
					</defs>
					<mask maskUnits="userSpaceOnUse" x="23.6" y="-50.4" width="5" height="7.7" id="mask-2_7_">
						<g class="st19">
							<polygon id="path-1_7_" class="st7" points="0,0 99.8,0 99.8,-99.8 0,-99.8 							"/>
						</g>
					</mask>
					<path class="st20" d="M23.6-50.4h0.7l1.9,4.8l1.7-4.8h0.7l-2.4,6.5c-0.4,1-0.6,1.2-1.5,1.2c-0.3,0-0.4,0-0.5-0.1v-0.6
						c0.2,0,0.3,0.1,0.5,0.1c0.6,0,0.8-0.4,1-0.9l0.2-0.6L23.6-50.4z"/>
					<defs>
						<filter id="Adobe_OpacityMaskFilter_7_" filterUnits="userSpaceOnUse" x="29.6" y="-52.6" width="5.2" height="8">
							<feColorMatrix  type="matrix" values="1 0 0 0 0  0 1 0 0 0  0 0 1 0 0  0 0 0 1 0"/>
						</filter>
					</defs>
					<mask maskUnits="userSpaceOnUse" x="29.6" y="-52.6" width="5.2" height="8" id="mask-2_8_">
						<g class="st21">
							<polygon id="path-1_8_" class="st7" points="0,0 99.8,0 99.8,-99.8 0,-99.8 							"/>
						</g>
					</mask>
					<path class="st22" d="M32.1-45.2c1.5,0,2-1.2,2-2.4s-0.5-2.4-2-2.4c-1.3,0-1.8,1.2-1.8,2.4S30.8-45.2,32.1-45.2z M34.8-44.8
						h-0.6v-1.1h0c-0.3,0.7-1.2,1.2-2,1.2c-1.7,0-2.5-1.4-2.5-3s0.8-3,2.5-3c0.8,0,1.7,0.4,2,1.2h0v-3.2h0.7V-44.8z"/>
					<defs>
						<filter id="Adobe_OpacityMaskFilter_8_" filterUnits="userSpaceOnUse" x="36.6" y="-50.5" width="2.8" height="5.7">
							<feColorMatrix  type="matrix" values="1 0 0 0 0  0 1 0 0 0  0 0 1 0 0  0 0 0 1 0"/>
						</filter>
					</defs>
					<mask maskUnits="userSpaceOnUse" x="36.6" y="-50.5" width="2.8" height="5.7" id="mask-2_9_">
						<g class="st23">
							<polygon id="path-1_9_" class="st7" points="0,0 99.8,0 99.8,-99.8 0,-99.8 							"/>
						</g>
					</mask>
					<path class="st24" d="M36.6-50.4h0.6v1.3h0c0.3-0.9,1.1-1.4,2.1-1.4v0.7c-1.2-0.1-2.1,0.9-2.1,2v3h-0.7V-50.4z"/>
					<defs>
						<filter id="Adobe_OpacityMaskFilter_9_" filterUnits="userSpaceOnUse" x="40.1" y="-50.6" width="5.3" height="6">
							<feColorMatrix  type="matrix" values="1 0 0 0 0  0 1 0 0 0  0 0 1 0 0  0 0 0 1 0"/>
						</filter>
					</defs>
					<mask maskUnits="userSpaceOnUse" x="40.1" y="-50.6" width="5.3" height="6" id="mask-2_10_">
						<g class="st25">
							<polygon id="path-1_10_" class="st7" points="0,0 99.8,0 99.8,-99.8 0,-99.8 							"/>
						</g>
					</mask>
					<path class="st26" d="M40.8-47.6c0,1.2,0.7,2.4,2,2.4c1.3,0,2-1.2,2-2.4s-0.7-2.4-2-2.4C41.5-50,40.8-48.8,40.8-47.6
						 M45.5-47.6c0,1.6-0.9,3-2.7,3c-1.7,0-2.7-1.4-2.7-3s0.9-3,2.7-3C44.5-50.6,45.5-49.2,45.5-47.6"/>
					<defs>
						<filter id="Adobe_OpacityMaskFilter_10_" filterUnits="userSpaceOnUse" x="46.8" y="-50.6" width="5" height="8.1">
							<feColorMatrix  type="matrix" values="1 0 0 0 0  0 1 0 0 0  0 0 1 0 0  0 0 0 1 0"/>
						</filter>
					</defs>
					<mask maskUnits="userSpaceOnUse" x="46.8" y="-50.6" width="5" height="8.1" id="mask-2_11_">
						<g class="st27">
							<polygon id="path-1_11_" class="st7" points="0,0 99.8,0 99.8,-99.8 0,-99.8 							"/>
						</g>
					</mask>
					<path class="st28" d="M51.1-47.6c0-1.1-0.5-2.3-1.8-2.3c-1.3,0-1.9,1.2-1.9,2.3c0,1.1,0.6,2.2,1.9,2.2
						C50.5-45.4,51.1-46.5,51.1-47.6z M51.8-45.2c0,1.7-0.7,2.7-2.5,2.7c-1.1,0-2.2-0.5-2.3-1.7h0.7c0.2,0.8,0.9,1.1,1.7,1.1
						c1.3,0,1.8-0.8,1.8-2.1V-46h0c-0.3,0.7-1,1.2-1.8,1.2c-1.8,0-2.5-1.3-2.5-2.9c0-1.6,0.9-2.8,2.5-2.8c0.8,0,1.5,0.5,1.8,1.1h0
						v-1h0.7V-45.2z"/>
					<defs>
						<filter id="Adobe_OpacityMaskFilter_11_" filterUnits="userSpaceOnUse" x="53.7" y="-50.5" width="2.8" height="5.7">
							<feColorMatrix  type="matrix" values="1 0 0 0 0  0 1 0 0 0  0 0 1 0 0  0 0 0 1 0"/>
						</filter>
					</defs>
					<mask maskUnits="userSpaceOnUse" x="53.7" y="-50.5" width="2.8" height="5.7" id="mask-2_12_">
						<g class="st29">
							<polygon id="path-1_12_" class="st7" points="0,0 99.8,0 99.8,-99.8 0,-99.8 							"/>
						</g>
					</mask>
					<path class="st30" d="M53.7-50.4h0.6v1.3h0c0.4-0.9,1.1-1.4,2.1-1.4v0.7c-1.2-0.1-2.1,0.9-2.1,2v3h-0.7V-50.4z"/>
					<defs>
						<filter id="Adobe_OpacityMaskFilter_12_" filterUnits="userSpaceOnUse" x="57.4" y="-50.6" width="5.2" height="6">
							<feColorMatrix  type="matrix" values="1 0 0 0 0  0 1 0 0 0  0 0 1 0 0  0 0 0 1 0"/>
						</filter>
					</defs>
					<mask maskUnits="userSpaceOnUse" x="57.4" y="-50.6" width="5.2" height="6" id="mask-2_13_">
						<g class="st31">
							<polygon id="path-1_13_" class="st7" points="0,0 99.8,0 99.8,-99.8 0,-99.8 							"/>
						</g>
					</mask>
					<path class="st32" d="M61.3-47.8L61.3-47.8c-0.1,0.2-0.4,0.2-0.6,0.3c-1.2,0.2-2.6,0.2-2.6,1.3c0,0.7,0.6,1.1,1.3,1.1
						c1,0,2-0.7,2-1.8V-47.8z M57.6-48.7c0.1-1.3,1-1.9,2.3-1.9c1,0,2.1,0.3,2.1,1.8v3c0,0.3,0.1,0.4,0.4,0.4c0.1,0,0.2,0,0.2,0v0.6
						c-0.2,0-0.3,0-0.4,0c-0.7,0-0.8-0.4-0.8-1h0c-0.5,0.7-1,1.1-2.1,1.1c-1,0-1.9-0.5-1.9-1.6c0-1.6,1.5-1.6,3-1.8
						c0.6-0.1,0.9-0.1,0.9-0.8c0-0.9-0.7-1.2-1.5-1.2c-0.9,0-1.5,0.4-1.5,1.3H57.6z"/>
					<defs>
						<filter id="Adobe_OpacityMaskFilter_13_" filterUnits="userSpaceOnUse" x="63.9" y="-50.6" width="5.2" height="7.9">
							<feColorMatrix  type="matrix" values="1 0 0 0 0  0 1 0 0 0  0 0 1 0 0  0 0 0 1 0"/>
						</filter>
					</defs>
					<mask maskUnits="userSpaceOnUse" x="63.9" y="-50.6" width="5.2" height="7.9" id="mask-2_14_">
						<g class="st33">
							<polygon id="path-1_14_" class="st7" points="0,0 99.8,0 99.8,-99.8 0,-99.8 							"/>
						</g>
					</mask>
					<path class="st34" d="M66.6-50c-1.5,0-2,1.1-2,2.4c0,1.2,0.5,2.4,2,2.4c1.3,0,1.8-1.2,1.8-2.4S67.9-50,66.6-50z M63.9-50.4h0.6
						v1.1h0c0.3-0.8,1.1-1.2,2-1.2c1.7,0,2.5,1.4,2.5,3c0,1.6-0.8,3-2.5,3c-0.8,0-1.7-0.4-2-1.2h0v3.2h-0.7V-50.4z"/>
					<defs>
						<filter id="Adobe_OpacityMaskFilter_14_" filterUnits="userSpaceOnUse" x="70.7" y="-52.6" width="4.6" height="7.8">
							<feColorMatrix  type="matrix" values="1 0 0 0 0  0 1 0 0 0  0 0 1 0 0  0 0 0 1 0"/>
						</filter>
					</defs>
					<mask maskUnits="userSpaceOnUse" x="70.7" y="-52.6" width="4.6" height="7.8" id="mask-2_15_">
						<g class="st35">
							<polygon id="path-1_15_" class="st7" points="0,0 99.8,0 99.8,-99.8 0,-99.8 							"/>
						</g>
					</mask>
					<path class="st36" d="M70.7-52.6h0.7v3.1h0c0.3-0.7,1-1.1,1.8-1.1c1.6,0,2.1,0.8,2.1,2.2v3.6h-0.7v-3.5c0-1-0.3-1.7-1.4-1.7
						c-1.1,0-1.7,0.8-1.8,1.9v3.3h-0.7V-52.6z"/>
					<defs>
						<filter id="Adobe_OpacityMaskFilter_15_" filterUnits="userSpaceOnUse" x="77.1" y="-52.6" width="0.7" height="7.8">
							<feColorMatrix  type="matrix" values="1 0 0 0 0  0 1 0 0 0  0 0 1 0 0  0 0 0 1 0"/>
						</filter>
					</defs>
					<mask maskUnits="userSpaceOnUse" x="77.1" y="-52.6" width="0.7" height="7.8" id="mask-2_16_">
						<g class="st37">
							<polygon id="path-1_16_" class="st7" points="0,0 99.8,0 99.8,-99.8 0,-99.8 							"/>
						</g>
					</mask>
					<path class="st38" d="M77.1-44.8h0.7v-5.6h-0.7V-44.8z M77.1-51.5h0.7v-1.1h-0.7V-51.5z"/>
					<defs>
						<filter id="Adobe_OpacityMaskFilter_16_" filterUnits="userSpaceOnUse" x="79.4" y="-50.6" width="5" height="6">
							<feColorMatrix  type="matrix" values="1 0 0 0 0  0 1 0 0 0  0 0 1 0 0  0 0 0 1 0"/>
						</filter>
					</defs>
					<mask maskUnits="userSpaceOnUse" x="79.4" y="-50.6" width="5" height="6" id="mask-2_17_">
						<g class="st39">
							<polygon id="path-1_17_" class="st7" points="0,0 99.8,0 99.8,-99.8 0,-99.8 							"/>
						</g>
					</mask>
					<path class="st40" d="M83.7-48.6C83.5-49.5,83-50,82.1-50c-1.3,0-2,1.2-2,2.4s0.7,2.4,2,2.4c0.9,0,1.6-0.7,1.6-1.6h0.7
						c-0.2,1.4-1.1,2.2-2.3,2.2c-1.7,0-2.7-1.4-2.7-3s0.9-3,2.7-3c1.2,0,2.1,0.6,2.3,1.9H83.7z"/>
					<defs>
						<filter id="Adobe_OpacityMaskFilter_17_" filterUnits="userSpaceOnUse" x="15.7" y="-38.4" width="7.4" height="8.1">
							<feColorMatrix  type="matrix" values="1 0 0 0 0  0 1 0 0 0  0 0 1 0 0  0 0 0 1 0"/>
						</filter>
					</defs>
					<mask maskUnits="userSpaceOnUse" x="15.7" y="-38.4" width="7.4" height="8.1" id="mask-2_18_">
						<g class="st41">
							<polygon id="path-1_18_" class="st7" points="0,0 99.8,0 99.8,-99.8 0,-99.8 							"/>
						</g>
					</mask>
					<path class="st42" d="M19.4-30.9c2.1,0,2.9-1.7,2.9-3.4c0-1.7-0.9-3.4-2.9-3.4c-2.1,0-2.9,1.7-2.9,3.4
						C16.4-32.6,17.3-30.9,19.4-30.9 M19.4-38.4c2.4,0,3.7,1.9,3.7,4.1c0,2.1-1.2,4.1-3.7,4.1c-2.5,0-3.7-1.9-3.7-4.1
						C15.7-36.4,16.9-38.4,19.4-38.4"/>
					<defs>
						<filter id="Adobe_OpacityMaskFilter_18_" filterUnits="userSpaceOnUse" x="24.6" y="-36.1" width="2.8" height="5.7">
							<feColorMatrix  type="matrix" values="1 0 0 0 0  0 1 0 0 0  0 0 1 0 0  0 0 0 1 0"/>
						</filter>
					</defs>
					<mask maskUnits="userSpaceOnUse" x="24.6" y="-36.1" width="2.8" height="5.7" id="mask-2_19_">
						<g class="st43">
							<polygon id="path-1_19_" class="st7" points="0,0 99.8,0 99.8,-99.8 0,-99.8 							"/>
						</g>
					</mask>
					<path class="st44" d="M24.6-36h0.6v1.3h0c0.3-0.9,1.1-1.4,2.1-1.4v0.7c-1.2-0.1-2.1,0.9-2.1,2v3h-0.7V-36z"/>
					<defs>
						<filter id="Adobe_OpacityMaskFilter_19_" filterUnits="userSpaceOnUse" x="28.3" y="-36.2" width="5" height="8.1">
							<feColorMatrix  type="matrix" values="1 0 0 0 0  0 1 0 0 0  0 0 1 0 0  0 0 0 1 0"/>
						</filter>
					</defs>
					<mask maskUnits="userSpaceOnUse" x="28.3" y="-36.2" width="5" height="8.1" id="mask-2_20_">
						<g class="st45">
							<polygon id="path-1_20_" class="st7" points="0,0 99.8,0 99.8,-99.8 0,-99.8 							"/>
						</g>
					</mask>
					<path class="st46" d="M32.7-33.3c0-1.1-0.5-2.3-1.8-2.3c-1.3,0-1.9,1.2-1.9,2.3c0,1.1,0.6,2.2,1.9,2.2
						C32-31,32.7-32.1,32.7-33.3z M33.4-30.9c0,1.7-0.7,2.7-2.5,2.7c-1.1,0-2.2-0.5-2.3-1.7h0.7c0.2,0.8,0.9,1.1,1.6,1.1
						c1.3,0,1.8-0.8,1.8-2.1v-0.8h0c-0.3,0.7-1,1.2-1.8,1.2c-1.8,0-2.5-1.3-2.5-2.9c0-1.6,0.9-2.8,2.5-2.8c0.8,0,1.5,0.5,1.8,1.1h0
						v-1h0.7V-30.9z"/>
					<defs>
						<filter id="Adobe_OpacityMaskFilter_20_" filterUnits="userSpaceOnUse" x="34.9" y="-36.2" width="5.2" height="6">
							<feColorMatrix  type="matrix" values="1 0 0 0 0  0 1 0 0 0  0 0 1 0 0  0 0 0 1 0"/>
						</filter>
					</defs>
					<mask maskUnits="userSpaceOnUse" x="34.9" y="-36.2" width="5.2" height="6" id="mask-2_21_">
						<g class="st47">
							<polygon id="path-1_21_" class="st7" points="0,0 99.8,0 99.8,-99.8 0,-99.8 							"/>
						</g>
					</mask>
					<path class="st48" d="M38.8-33.5L38.8-33.5c-0.1,0.2-0.4,0.2-0.6,0.3c-1.2,0.2-2.6,0.2-2.6,1.3c0,0.7,0.6,1.1,1.3,1.1
						c1,0,2-0.7,2-1.8V-33.5z M35.2-34.3c0.1-1.3,1-1.9,2.3-1.9c1,0,2.1,0.3,2.1,1.8v3c0,0.3,0.1,0.4,0.4,0.4c0.1,0,0.2,0,0.2,0v0.6
						c-0.2,0-0.3,0-0.4,0c-0.7,0-0.8-0.4-0.8-1h0c-0.5,0.7-1,1.1-2.1,1.1c-1,0-1.9-0.5-1.9-1.6c0-1.6,1.5-1.6,3-1.8
						c0.6-0.1,0.9-0.1,0.9-0.8c0-0.9-0.7-1.2-1.5-1.2c-0.9,0-1.5,0.4-1.5,1.3H35.2z"/>
					<defs>
						<filter id="Adobe_OpacityMaskFilter_21_" filterUnits="userSpaceOnUse" x="41.4" y="-36.2" width="4.6" height="5.8">
							<feColorMatrix  type="matrix" values="1 0 0 0 0  0 1 0 0 0  0 0 1 0 0  0 0 0 1 0"/>
						</filter>
					</defs>
					<mask maskUnits="userSpaceOnUse" x="41.4" y="-36.2" width="4.6" height="5.8" id="mask-2_22_">
						<g class="st49">
							<polygon id="path-1_22_" class="st7" points="0,0 99.8,0 99.8,-99.8 0,-99.8 							"/>
						</g>
					</mask>
					<path class="st50" d="M41.4-36h0.7v1h0c0.3-0.7,1-1.1,1.8-1.1c1.6,0,2.1,0.8,2.1,2.2v3.6h-0.7v-3.5c0-1-0.3-1.7-1.4-1.7
						c-1.1,0-1.7,0.8-1.8,1.9v3.3h-0.7V-36z"/>
					<defs>
						<filter id="Adobe_OpacityMaskFilter_22_" filterUnits="userSpaceOnUse" x="47.9" y="-38.2" width="0.7" height="7.8">
							<feColorMatrix  type="matrix" values="1 0 0 0 0  0 1 0 0 0  0 0 1 0 0  0 0 0 1 0"/>
						</filter>
					</defs>
					<mask maskUnits="userSpaceOnUse" x="47.9" y="-38.2" width="0.7" height="7.8" id="mask-2_23_">
						<g class="st51">
							<polygon id="path-1_23_" class="st7" points="0,0 99.8,0 99.8,-99.8 0,-99.8 							"/>
						</g>
					</mask>
					<path class="st52" d="M47.9-30.4h0.7V-36h-0.7V-30.4z M47.9-37.1h0.7v-1.1h-0.7V-37.1z"/>
					<defs>
						<filter id="Adobe_OpacityMaskFilter_23_" filterUnits="userSpaceOnUse" x="49.9" y="-36" width="4.7" height="5.6">
							<feColorMatrix  type="matrix" values="1 0 0 0 0  0 1 0 0 0  0 0 1 0 0  0 0 0 1 0"/>
						</filter>
					</defs>
					<mask maskUnits="userSpaceOnUse" x="49.9" y="-36" width="4.7" height="5.6" id="mask-2_24_">
						<g class="st53">
							<polygon id="path-1_24_" class="st7" points="0,0 99.8,0 99.8,-99.8 0,-99.8 							"/>
						</g>
					</mask>
					<polygon class="st54" points="50.8,-31 54.6,-31 54.6,-30.4 49.9,-30.4 49.9,-31 53.6,-35.5 50.2,-35.5 50.2,-36 54.5,-36 
						54.5,-35.5 					"/>
					<defs>
						<filter id="Adobe_OpacityMaskFilter_24_" filterUnits="userSpaceOnUse" x="55.7" y="-36.2" width="5.2" height="6">
							<feColorMatrix  type="matrix" values="1 0 0 0 0  0 1 0 0 0  0 0 1 0 0  0 0 0 1 0"/>
						</filter>
					</defs>
					<mask maskUnits="userSpaceOnUse" x="55.7" y="-36.2" width="5.2" height="6" id="mask-2_25_">
						<g class="st55">
							<polygon id="path-1_25_" class="st7" points="0,0 99.8,0 99.8,-99.8 0,-99.8 							"/>
						</g>
					</mask>
					<path class="st56" d="M59.6-33.5L59.6-33.5c-0.1,0.2-0.4,0.2-0.6,0.3c-1.2,0.2-2.6,0.2-2.6,1.3c0,0.7,0.6,1.1,1.3,1.1
						c1,0,2-0.7,2-1.8V-33.5z M56-34.3c0.1-1.3,1-1.9,2.3-1.9c1,0,2.1,0.3,2.1,1.8v3c0,0.3,0.1,0.4,0.4,0.4c0.1,0,0.2,0,0.2,0v0.6
						c-0.2,0-0.3,0-0.4,0c-0.7,0-0.8-0.4-0.8-1h0c-0.5,0.7-1,1.1-2.1,1.1c-1,0-1.9-0.5-1.9-1.6c0-1.6,1.5-1.6,3-1.8
						c0.6-0.1,0.9-0.1,0.9-0.8c0-0.9-0.7-1.2-1.5-1.2c-0.9,0-1.5,0.4-1.5,1.3H56z"/>
					<defs>
						<filter id="Adobe_OpacityMaskFilter_25_" filterUnits="userSpaceOnUse" x="61.7" y="-37.7" width="2.8" height="7.4">
							<feColorMatrix  type="matrix" values="1 0 0 0 0  0 1 0 0 0  0 0 1 0 0  0 0 0 1 0"/>
						</filter>
					</defs>
					<mask maskUnits="userSpaceOnUse" x="61.7" y="-37.7" width="2.8" height="7.4" id="mask-2_26_">
						<g class="st57">
							<polygon id="path-1_26_" class="st7" points="0,0 99.8,0 99.8,-99.8 0,-99.8 							"/>
						</g>
					</mask>
					<path class="st58" d="M63.4-36h1.1v0.6h-1.1v3.8c0,0.4,0.1,0.7,0.6,0.7c0.2,0,0.4,0,0.6,0v0.6c-0.2,0-0.4,0-0.6,0
						c-0.9,0-1.2-0.3-1.2-1.3v-3.9h-1V-36h1v-1.7h0.7V-36z"/>
					<defs>
						<filter id="Adobe_OpacityMaskFilter_26_" filterUnits="userSpaceOnUse" x="66.1" y="-38.2" width="0.7" height="7.8">
							<feColorMatrix  type="matrix" values="1 0 0 0 0  0 1 0 0 0  0 0 1 0 0  0 0 0 1 0"/>
						</filter>
					</defs>
					<mask maskUnits="userSpaceOnUse" x="66.1" y="-38.2" width="0.7" height="7.8" id="mask-2_27_">
						<g class="st59">
							<polygon id="path-1_27_" class="st7" points="0,0 99.8,0 99.8,-99.8 0,-99.8 							"/>
						</g>
					</mask>
					<path class="st60" d="M66.1-30.4h0.7V-36h-0.7V-30.4z M66.1-37.1h0.7v-1.1h-0.7V-37.1z"/>
					<defs>
						<filter id="Adobe_OpacityMaskFilter_27_" filterUnits="userSpaceOnUse" x="68.3" y="-36.2" width="5.3" height="6">
							<feColorMatrix  type="matrix" values="1 0 0 0 0  0 1 0 0 0  0 0 1 0 0  0 0 0 1 0"/>
						</filter>
					</defs>
					<mask maskUnits="userSpaceOnUse" x="68.3" y="-36.2" width="5.3" height="6" id="mask-2_28_">
						<g class="st61">
							<polygon id="path-1_28_" class="st7" points="0,0 99.8,0 99.8,-99.8 0,-99.8 							"/>
						</g>
					</mask>
					<path class="st62" d="M69-33.2c0,1.2,0.7,2.4,2,2.4c1.3,0,2-1.2,2-2.4s-0.7-2.4-2-2.4C69.7-35.6,69-34.4,69-33.2 M73.7-33.2
						c0,1.6-0.9,3-2.7,3s-2.7-1.4-2.7-3c0-1.6,0.9-3,2.7-3S73.7-34.8,73.7-33.2"/>
					<defs>
						<filter id="Adobe_OpacityMaskFilter_28_" filterUnits="userSpaceOnUse" x="75.2" y="-36.2" width="4.6" height="5.8">
							<feColorMatrix  type="matrix" values="1 0 0 0 0  0 1 0 0 0  0 0 1 0 0  0 0 0 1 0"/>
						</filter>
					</defs>
					<mask maskUnits="userSpaceOnUse" x="75.2" y="-36.2" width="4.6" height="5.8" id="mask-2_29_">
						<g class="st63">
							<polygon id="path-1_29_" class="st7" points="0,0 99.8,0 99.8,-99.8 0,-99.8 							"/>
						</g>
					</mask>
					<path class="st64" d="M75.2-36h0.7v1h0c0.2-0.7,1-1.1,1.8-1.1c1.6,0,2.1,0.8,2.1,2.2v3.6h-0.7v-3.5c0-1-0.3-1.7-1.4-1.7
						c-1.1,0-1.7,0.8-1.8,1.9v3.3h-0.7V-36z"/>
				</g>
			</g>
		</g>
	</g>
</g>
</svg>
