<?xml version="1.0" encoding="UTF-8"?><svg id="uuid-1109cab6-80a6-42ae-880b-5df3ea9573c2" xmlns="http://www.w3.org/2000/svg" width="500" height="500" viewBox="0 0 500 500"><path d="m0,500h500V0H0v500Z" style="fill:#e3000f; stroke-width:0px;"/><path d="m384.81,343.81c-8.05,11.48-17.5,21.88-28.13,30.97-16.32-4.56-34.75-8.02-54.31-10.25,2.18-6.55,4.18-13.49,5.95-20.72h-10.73c-1.8,6.99-3.76,13.57-5.88,19.63-13.87-1.25-28.19-1.9-42.65-1.9s-27.44.58-40.57,1.68c-2.09-6-4.03-12.51-5.8-19.41h-10.73c1.76,7.12,3.7,13.97,5.87,20.43-19.62,2.13-38.07,5.52-54.76,10.08-10.42-8.97-19.69-19.23-27.6-30.52h-12.64c31.16,48.6,85.55,80.88,147.31,80.88s116.16-32.28,147.32-80.88h-12.64Zm-231.16,38.67c14.7-3.57,30.95-6.29,48.02-8.06,6.43,16.46,14.87,30,23.22,38.49-25.99-4.2-50.82-15.43-71.23-30.43Zm96.49,32.49c-13.21,0-26.89-15.6-37.63-41.53,11.94-.95,24.2-1.44,36.55-1.44,13.09,0,26.06.56,38.65,1.61-10.74,25.83-24.37,41.37-37.57,41.37Zm25.27-2.06c8.32-8.47,16.72-21.93,23.13-38.28,16.93,1.84,33,4.61,47.55,8.25-20.29,14.78-44.92,25.87-70.68,30.03Z" style="fill:#fff; stroke-width:0px;"/><path d="m250.14,75.31c-61.76,0-116.15,32.27-147.31,80.87h12.64c8.05-11.46,17.5-21.87,28.12-30.97,16.33,4.56,34.76,8.02,54.32,10.25-2.19,6.55-4.18,13.48-5.95,20.71h10.73c1.79-6.98,3.75-13.57,5.88-19.63,13.86,1.25,28.18,1.91,42.65,1.91s27.43-.58,40.57-1.69c2.08,6,4.02,12.51,5.79,19.41h10.73c-1.76-7.11-3.7-13.97-5.86-20.42,19.62-2.14,38.06-5.53,54.74-10.09,10.43,8.97,19.7,19.23,27.62,30.51h12.64c-31.16-48.6-85.55-80.87-147.32-80.87Zm-48.4,50.05c-16.93-1.84-33-4.61-47.56-8.23,20.29-14.8,44.93-25.88,70.69-30.05-8.32,8.47-16.73,21.93-23.13,38.28Zm49.48,2.64c-13.1,0-26.06-.56-38.65-1.6,10.74-25.83,24.37-41.37,37.56-41.37s26.89,15.6,37.64,41.53c-11.95.94-24.2,1.43-36.55,1.43Zm47.4-2.43c-6.44-16.45-14.87-29.98-23.22-38.5,25.98,4.21,50.82,15.44,71.23,30.45-14.7,3.57-30.94,6.29-48.01,8.05Z" style="fill:#fff; stroke-width:0px;"/><path d="m216.57,295.57c18.98,0,26.7-4.3,26.7-12.02,0-25.07-96.57,4.14-96.57-62.88,0-34.06,28.84-49.47,70.94-49.47,10.22,0,20.42,1.07,33.86,2.68h36.54v45.53h-36.54v-9.68c-5.38-2.86-18.09-5.92-31.35-5.92-17.03,0-23.65,5.03-23.65,11.48,0,26.69,97.46-3.94,97.46,62.73,0,27.59-18.46,50.17-73.81,50.17-10.22,0-22.39-1.07-35.83-2.69h-36.55v-45.52h36.55v9.68c5.37,2.87,17.91,5.91,32.25,5.91" style="fill:#fff; stroke-width:0px;"/><polygon points="39.2 288.18 63.74 288.18 63.74 211.83 39.2 211.83 39.2 174.19 136.84 174.19 136.84 211.83 112.29 211.83 112.29 288.18 136.84 288.18 136.84 325.8 39.2 325.8 39.2 288.18" style="fill:#fff; stroke-width:0px;"/><path d="m383.39,171.2c-48.38,0-82.95,28.13-82.95,78.48s34.57,78.49,82.95,78.49,82.93-28.13,82.93-78.49-34.58-78.48-82.93-78.48Zm-.43,121.31c-19.12,0-31.26-12.18-31.26-42.83s12.14-42.82,31.26-42.82,31.24,12.18,31.24,42.82-12.14,42.83-31.24,42.83Z" style="fill:#fff; stroke-width:0px;"/></svg>