<?xml version="1.0" encoding="UTF-8"?><svg id="uuid-9887f21c-3c43-4585-91ca-d5cbbe994e19" xmlns="http://www.w3.org/2000/svg" width="501.3" height="552.8" viewBox="0 0 501.3 552.8"><path d="m98.44,228.25c1.44,0,2.6,1.17,2.6,2.6v157.32c0,1.44-1.17,2.6-2.6,2.6h-47.09c-1.44,0-2.6-1.17-2.6-2.6v-157.32c0-1.44,1.17-2.6,2.6-2.6h47.09" style="fill:#0e99d5; stroke-width:0px;"/><path d="m268.59,228.25c1.44,0,2.6,1.17,2.6,2.6v38.73c0,1.44-1.17,2.6-2.6,2.6h-41.11c-1.44,0-2.6,1.17-2.6,2.6v113.38c0,1.44-1.17,2.6-2.6,2.6h-47.09c-1.44,0-2.6-1.17-2.6-2.6v-113.38c0-1.44-1.17-2.6-2.6-2.6h-40.16c-1.44,0-2.6-1.17-2.6-2.6v-38.73c0-1.44,1.17-2.6,2.6-2.6h138.78" style="fill:#0e99d5; stroke-width:0px;"/><path d="m451.86,228.25c1.44,0,2.6,1.17,2.6,2.6v80.17c0,53.11-27.83,81.18-80.47,81.18s-76.65-27.72-76.65-82.38v-78.98c0-1.44,1.17-2.6,2.6-2.6h47.09c1.44,0,2.6,1.17,2.6,2.6v78.73c0,17.32,4.56,37.96,26.26,37.96,17.67,0,26.26-12.42,26.26-37.96v-78.73c0-1.44,1.17-2.6,2.6-2.6h47.09" style="fill:#0e99d5; stroke-width:0px;"/><path d="m501.3,552.8c-31.26-15.41-66.42-32.99-98.85-52.33,5.53-4.28,10.87-8.78,16.02-13.5,50.31-45.4,81.89-110.86,81.89-183.65,0-51.76-15.97-99.81-43.28-139.58-44.9-66.63-121.04-110.54-207.25-110.54-48.79,0-94.35,14.08-132.85,38.36C96.71,63.28,76.35,32.61,54.81,0c6.78,13.75,26.87,56.14,50.41,99.44C51.71,137.58,13.82,196.27,3.15,263.89c-2.07,12.84-3.15,26.01-3.15,39.43,0,38.58,8.87,75.1,24.7,107.67,40.36,83.75,126.11,141.69,225.13,141.69,51.01,0,98.48-15.38,138.05-41.73,38.01,15.72,76.2,28.85,113.42,41.85Zm-274.9-21.68c-57.97-5.89-109.59-33.06-146.79-73.52-5.67-8.15-9.12-18.12-10.31-29.62,23.12,22.41,52.42,42.73,85.77,58.67,36.38,17.39,74.53,28.41,110.92,32.36-12.94,9.05-26.33,13.23-39.6,12.11Zm-162.57-124.19c-.23,2.3-.36,4.55-.46,6.78-2.07-2.24-4.1-4.5-6.05-6.78h-7.42c4.14,5.09,8.64,10.11,13.41,15.04.24,6.99,1.19,13.53,2.84,19.57-29.36-38.41-46.79-86.3-46.79-138.22,0-46.63,14.06-90,38.19-126.18-2.78,10.93-3.98,22.63-3.56,34.93h5.57c-.65-18.13,2.31-35.16,9.15-50.27,9.14-11.52,19.37-22.15,30.54-31.74,5.81-3.26,11.79-6.3,17.91-9.13,13.61,23.88,27.79,46.62,40.82,63.41-2.54.16-23.85,1.43-43.99-.92l2.38.68c-.75-.07-1.5-.14-2.27-.21,4.65,9.66,9.73,19.04,15.12,28.18h94.92c-4.96-4.06-9.84-8.28-14.65-12.62,22.11-17.89,45.11-33.03,67.97-44.78,7.29,8.27,17.01,15.8,28.44,21.75,14.64,7.62,30.06,11.57,43.95,11.99,1.67,7.69,3.11,15.58,4.3,23.66h5.67c-1.17-8.08-2.6-15.99-4.25-23.69,14.18-.6,26.27-5.14,33.52-13.45,11.95,11.58,22.53,24.04,31.59,37.15h6.76c-9.88-14.79-21.61-28.82-35.04-41.75,3.99-6.94,4.87-15.21,2.53-24-1.49-5.62-4.24-11.23-8-16.62,11.14,2.17,20.52,6.53,27.76,13.04,40.99,41.33,66.29,98.03,66.29,160.59,0,29.11-5.49,56.95-15.47,82.56-19.52,40.61-66.76,62.67-124.81,64.28,24.52-6.2,44.04-14.7,67.2-29.36-8.66-3.97-17.35-8.32-26.04-12.96-2.68.13-5.4.23-8.2.23-48.36,0-78.49-21.3-88.28-63.41-15.19-11.65-30.03-23.78-44.38-36.14v35.25c20.32,18.51,40.61,35.51,59.56,51.18-14.58,9.72-61.78,24.05-71.03,25.66,7.95,6.37,16,12.39,24.12,18.16-19.32-5.39-38.9-12.69-58.29-21.96-1.87-.89-3.72-1.8-5.56-2.72-.26-.13-.52-.26-.78-.39-3.45-1.73-6.85-3.51-10.21-5.34-24.1-13.17-44.97-28.72-61.68-45.69v7.81c5.49,5.32,11.3,10.47,17.46,15.39,18.32,14.63,39.48,27.42,62.65,37.97,22.99,10.65,46.49,18.73,69.75,24.12,12.96,8.63,26.1,16.6,39.38,24.01-.16.27-.31.55-.47.81-10.27,17.39-21.41,31.13-33.01,40.92-36.7-3.19-76.68-13.92-115.52-32.49-34.92-16.69-65.28-38.19-88.53-61.79-.04-4.02.15-8.18.6-12.5h-5.61Zm200.55-275.35c1.68,6.33,4.92,12.65,9.45,18.66-23.08,11.96-46.26,27.3-68.52,45.37-25.28-23.45-48.7-50.87-71.85-81.59.13-.05.25-.1.38-.15.03,0,.05-.02.07-.03h0c10.33-3.87,21.21-6.95,32.6-9.17,32.59-6.35,66.83-5.24,100.39,2.92-3.99,6.94-4.87,15.2-2.53,23.99Zm5.41-1.44c-2.06-7.75-1.17-14.92,2.57-20.75.08-.12.17-.23.24-.35,17.87,4.78,35.5,11.56,52.55,20.28-3.55,1.03-7.15,2.16-10.82,3.41-11.64,3.98-23.48,9-35.36,14.9-4.45-5.7-7.63-11.65-9.19-17.5Zm57.6-5.94c-16.47-8.4-33.48-15.05-50.73-19.85,6.9-6.25,17.59-9.42,29.96-9.44,7.52,7.73,14.51,17.56,20.77,29.29Zm-12.55-28.86c11.52,1.19,24.01,4.88,35.98,11.12,8.55,4.45,16.17,9.93,22.39,15.93-11.53-.39-24.34,1.08-38.18,4.36-6.06-12.37-12.84-22.88-20.2-31.4Zm1.3,42.7c5.39-1.84,10.65-3.41,15.78-4.74,2.27,4.89,4.43,10.05,6.46,15.48,4,10.71,7.39,22.14,10.21,34.1-12.63-.66-26.68-4.44-40.1-11.43-10.18-5.3-19.02-12.05-25.78-19.41,11.24-5.52,22.43-10.23,33.43-14Zm27.49,8.78c-1.2-3.22-2.45-6.34-3.73-9.37,16.62,9.84,31.7,21.18,45.13,33.63-6.4,7.56-17.5,11.55-30.67,11.88-2.93-12.69-6.5-24.8-10.73-36.14Zm-3.18-15.52c14.1-2.95,27.06-3.87,38.5-2.76,5.18,6.21,8.86,12.78,10.58,19.22,1.81,6.81,1.34,13.18-1.34,18.58-14.17-13.04-30.13-24.85-47.73-35.03Zm12.96-29.81c-14.65-7.63-30.1-11.57-44-11.98-4.2-4.15-8.56-7.69-13.07-10.6,37.46,7.54,71.62,24.09,100.1,47.25-4.61-1.47-9.54-2.52-14.78-3.14-7.27-8.18-16.91-15.63-28.24-21.53Zm-52.3-11.79c-12.9,1.01-23.86,5.38-30.68,13-35.04-8.84-70.89-10.17-104.99-3.52-12.04,2.35-23.55,5.63-34.46,9.78h0c-.34.14-.67.28-1.01.41-.27-.36-.53-.71-.8-1.07,35.18-21.54,76.62-33.98,121-33.98,6.87,0,13.67.3,20.39.88,10.65,1.27,20.96,6.22,30.55,14.49Zm-26.85,430.08c7.15.57,14.22.89,21.18.89,5.17,0,10.29-.16,15.33-.48,6.86-.43,13.45-1.17,19.81-2.18-24.09,8.89-50.07,13.89-77.19,14.26,7.07-2.87,14.05-7.04,20.86-12.49Zm6.39-5.51c10.59-9.85,20.72-22.79,30.07-38.64.19-.32.37-.64.55-.96,18.01,9.85,36.25,18.71,54.59,26.85-1.27.73-2.56,1.42-3.84,2.13-22.76,8.81-50.77,12.41-81.37,10.62Zm58.14-58.46c7.79-.17,15.46-.67,22.96-1.56,38.5-4.56,69.47-18.34,90.17-39.63-16.63,29.6-39.68,55.18-67.29,74.84-16.78-10.75-32.4-22-45.84-33.66Z" style="fill:#0e99d5; stroke-width:0px;"/></svg>