<?xml version="1.0" standalone="no"?>
<!DOCTYPE svg PUBLIC "-//W3C//DTD SVG 1.1//EN" "http://www.w3.org/Graphics/SVG/1.1/DTD/svg11.dtd">
<svg xmlns="http://www.w3.org/2000/svg" xmlns:xlink="http://www.w3.org/1999/xlink" version="1.1"
 width="500" height="500" viewBox="-500 -500 1000 1000">
<title>Japanese Industrial Standards symbol (Industrial products)</title>
<path d="
M	-304.0559159	304.0559159
A	430	430	0	1	0	-425.7149916	60.5536616
A	98.34751899	98.34751899	0	0	0	-230	46.704121
V	-225
H	-140
V	46.704121
A	178.2958789	178.2958789	0	0	1	-494.7028312	72.5886272
A	500	500	0	1	1	-353.5533906	353.5533906

M	50	-225
V	225
H	-50
V	-225

M	293.5231467	-0.2032168
A	130	130	0	0	1	205	225
H	125
V	145
H	190
A	55	55	0	0	0	227.4521005	49.721716
L	164.8815897	-8.4584454
A	125	125	0	0	1	250	-225
H	310
V	-145
H	265
A	50	50	0	0	0	230.9526359	-58.3833781

" />
</svg>
