<?xml version="1.0" encoding="UTF-8"?><svg xmlns="http://www.w3.org/2000/svg" width="140mm" height="65mm" viewBox="0 0 396.85 184.25"><g id="uuid-13e915c0-f781-450d-a5f1-cc4a313b78c6"><g id="uuid-934f53a2-bca8-4d79-b0eb-a40439cb3345"><path d="M222.13,131.57l.35.29-.36.24.36.59c-.24.33-.22.71-.37,1.06-.37.86-1.39,1.92-1.62,2.88-.06.23.18.47.22.74.09.63-.2.43-.24.47-.68-.28-1.1.49-1.77.24.03-.05-.04-.26,0-.38.05-.13.38-.28.43-.37.09-.16.22-.71.31-.87.13-.24.52-.26.54-.28.07-.08-.02-.35.02-.5.04-.18.79-1.05.94-1.36.19-.42.3-.93.49-1.35.22-.46.64-.89.7-1.4Z" style="fill:#aaabab;"/><path d="M110.53,25.48c-.49-.2-.46.21-.73.39-.08.06-.26.02-.29.06-.06.07.01.27-.06.42-.1.2-.49.49-.6.63-.06.08-.13.05-.07.24.64-.2.73.41,1.27.2.22-.08.24-.49.31-.64.08-.19.1-.08.2-.55.02-.11.34-.02.23-.47,0-.02-.25-.27-.26-.28ZM120.5,28.16c.29-.55.2-.3.67-.51.05-.02.17-.37.63-.2.16-.41-.22-.49-.24-.55-.05-.22.03-.51,0-.75-.29.03-.62-.04-.9,0-.12.01-.56.49-1.05.24-.07.34-.43.7-.78.72-.31.02-.65-.2-.98-.12-.08.02-.08.18-.12.2-.14.06-.29.01-.4.07-.17.09-.2.51-.51.44v-.64c-.26-.29-.37.16-.43.17-.44.09-.64.22-.71.24-.24.06-.55-.05-.79,0-.09.02-.06.21-.16.23-.15.03-.3-.03-.48.04-.12.04-.29.66-.74.44v.83s-.48,0-.48,0v.71s-.47,0-.47,0c.06.71-.74.61-.48,1.53l-.35.06.02.4h.34c.06.04-.33.91.4.72.09-.02.07-.21.16-.23.47-.11.42.06.4.47h-.47c-.11.33.21.18.24.32.03.12-.01.26,0,.39.51.13.44-.37.95-.24-.12.51.22.96.75.83.1-.02.03-.22.25-.24.36-.04,1.19-.04,1.55,0,.17.02.3.44.76.25.09-.1-.19-.93.18-.83.02,0,.29.3.29.32.04.15-.01.3,0,.45.02.24.54-.2.48-.46-.03-.11-.62-.31-.47-.54.35-.25.63-.33,1.09-.24.08.02.24.33.32.39.44.3.72-.47.59-.87.62-.08.81.4.71.95.31.13.19-.21.31-.24s.27.02.4,0v.48s.59,0,.59,0c-.17.62.2.56.23.6.14.19-.41.29-.25.7l-.33.02-.02.46c.45.18.59-.18.63-.2.14-.06.29-.02.4-.07.17-.09.2-.51.51-.44l-.23.71c.73.18.36.76.47,1.22.02.09.21.07.23.16.06.25-.03.6,0,.87h-.48c-.04.32.08.74-.03,1.04-.03.08-1.12,1.13-1.19,1.17-.09.06-.61.05-.22.27.04.02.13,0,.26.09.35.27.17.34.24.66.02.1.21.07.23.16.04.19-.02.43,0,.63-.05.05-.78-.05-.99,0-.09.02-.07.21-.16.23-.43.1-1.04.14-1.5.24-.09.02-.07.21-.16.24-.3.07-1.09-.15-1.22.33-.04.15.04.32-.04.47-.02.03-.18.02-.2.11-.04.17.04.38,0,.55-.01.06-.41.15-.24.55.2.03.46-.05.64,0,.11.03.07.23.08.24.23.18.22-.17.26-.2.1-.07.28,0,.35-.04.21-.12.65-.44.69-.7h.23c-.08.52.46,0,.48-.09.06-.28-.18-.84.24-.75-.08.52.1.29.38.36.07.02.22.42.68.23v.71s.47,0,.47,0v.71c.44.17.48-.23.53-.24.27-.06.11.27.41.24l-.06.24h-.41s0,.59,0,.59c.37-.05.89.08,1.22,0,.1-.02.03-.22.25-.24.54-.06,1.84-.06,2.38,0,.14.01.46.61.79,0,.21-.38-.25-.66-.62-.59.07-.72-.09-.37-.51-.47-.04-.01-.54-.4-.65-.46-.07-.04-.23.01-.34-.05-.36-.19-.29-.67-.27-1.03h.46s.02.34.02.34l.4.02.07-.35.52-.02.07.35c.15.15,1.27-.25,1.18.25.43.11.16-.42.24-.75,0-.03.19-.34.27-.52.02-.05.3,0,.2-.43-.06-.24-.52-.28-.61-.33-.11-.06-.1-.17-.14-.19-.12-.07-.28-.01-.4-.08-.4-.21-.22-.62-.28-.94-.03-.16-1.15-.64-.03-1.3l.27-.79c.4-.08.17.27.24.51.01.06.4.16.24.55.2.02.43-.04.63,0,.11.02,1.17.9.91,1.18.5-.12.45.37.94.24v-1.18s.47,0,.47,0c-.12-.48.33-.45.25-.93.38.14.43-.51.58-.6.3-.19.15.39.47.23-.09-.36.13-.62.47-.71.03-.33-.38-.19-.23-.71-.36-.09-.62.13-.71.47-.28.09-.2-.14-.28-.19s-.19-.03-.27-.09c-.07-.05,0-.17-.1-.2-.27-.06-.12.21-.25.24-.24.06-1.07.11-.79-.24.08-.1.26-.06.16-.48h-.48s0-.59,0-.59c-.46-.1-.64.21-.78.6h-.46c-.08-.52-.67-.5-.54-1.07-.49.12-.45-.37-.94-.24-.18-.12.52-.67.71-.47.15-.5-.31-.4-.24-.83h.71s0-.47,0-.47h-.71s0-.47,0-.47c.61.08.81-.39.71-.95h-.47s0,.47,0,.47h-.47c.02-.2-.04-.44,0-.63.02-.09.37-.09.24-.43-.38.17-.5-.22-.56-.23-.62-.14-.57-.2-1.08-.47-.17-.09-.57-.04-.62-.48l-.24.06v.65s-.47,0-.47,0l-.18-.48-.1.2-.55.28c-.03-.4-.07-.67.28-.9.21-.14.41.1.29-.51l-.35-.07v-.76c-.26.04-.61-.06-.86,0-.1.02-.02.22-.25.24-.38.03-.27-.22-.38-.24-.28-.07-1.12-.02-1.46,0ZM107.6,29.23h-1.3s0,.47,0,.47c-.27.03-.6-.05-.86,0-.06.01-.63.74-.91.71l.06.24h.53s0,1.06,0,1.06c-.24.03-.53-.05-.75,0-.06.01-.14.4-.55.24v-.48c-.67-.05-.38.02-.48.39-.03.11-.34.03-.23.48,0,.04.32.32.41.33.37.03.28-.39.77-.25-.07.71.76.62.47,1.54.75.26.88-.77,1.34-1.03.11-.06.27,0,.34-.04.14-.07.14-.36.57-.23-.13-.59.24-.4.56-.74l.04-1.03c-.33-.07-.23.12-.24.35-.56.09-.27-.15-.36-.51-.02-.09-.21-.07-.24-.15-.12-.45.44-.76.83-.63v-.71ZM138.92,30.68c-.38-.14-1.08.03-1.51-.04-.05.05.05.78,0,.99-.02.09-.21.07-.23.16-.04.19.02.43,0,.63.32.11.19-.21.31-.24.11-.02.5-.04.52.06v.41c-.1.09-.72-.2-.59.24.3-.04.71.07.99,0,.09-.02.07-.22.16-.24.19-.04.39.04.6-.03.03-.01.45-.44.47-.47.22-.52-.35-.55-.4-.71-.07-.18-.01-.65-.3-.76ZM120.94,36.01c-.56-.25-.59.36-.72.64-.02.04-.18.03-.2.11-.11.39.34.74.71.63-.13-.43.15-.42.23-.57.07-.12-.11-.42.23-.39.13-.06-.23-.41-.25-.43ZM166.17,40.94h1.66v-.83c.06-.06.99.06,1.22,0,.08-.02.08-.18.12-.2.41-.18.63-.19,1.06-.28.12-.02.34-.6.66-.48l.02-.7h.71c.16-.56-.34-.56-.24-1.06h-.83c.13-.49-.37-.46-.24-.95h-.47s-.07-.48-.07-.48h-.64s0,.48,0,.48c-.63-.18-.69.33-1.23.24l-.31-.24v.47s-.24-.47-.24-.47c-.45-.09-.8.26-.71.71-.39.04-.37-.62-.83-.47.19.72-.27.69-.48,1.18l-.24-.06c-.03-.25.06-.58,0-.81-.01-.05-.4-.16-.24-.55h-.47s0,.47,0,.47h-.63s-.91.71-.91.71l.06.23c.5.07.38-.21.5-.24.47-.1.28-.06.54-.2.37-.2.59.03.4.41-.02.04-.19.04-.2.09-.11.42.33.16.24.53-.2.02-.44-.04-.63,0-.09.02-.07.21-.16.23-.24.06-.6-.16-.51.24.31.04.69-.06.99,0,.09.02.07.18.14.21.18.08.56-.17.41.42-.04.16-.7.35-.47.79.36.09.12-.22.4-.25.21-.02.76-.03.94.01.09.02.07.21.16.23.22.05.51-.03.75,0,.12.47-.31.22-.24.59ZM105.56,36.24c-.41-.23-.45.18-.53.2-.23.05-.54-.05-.71.28-.07.13-.01.31-.08.4-.06.09-.42.35-.54.49-.05.05-.22-.01-.14.26h.71s0,.59,0,.59c.51.1.48-.38,1.06-.25l.02-.33c.33.04.58-.12.71-.42v-1.01c-.43.14-.46-.17-.51-.2ZM112.07,42.16c-.11-.06-.21-.04-.32-.04-.03.24.05.53,0,.75-.02.1-.22.03-.24.25-.02.19.05.98.01,1.01h-.48s0,.47,0,.47h-.48s0,.59,0,.59h.71s0,.47,0,.47c.25.05.34-.26.52-.43.05-.05.21-.02.27-.08.05-.05.03-.19.08-.27.03-.05.17-.06.19-.13.16-.66-.22-1.24.95-1.1v.47s-.47,0-.47,0c-.11.1.29.46.32.47.57.12,1.03-.02,1.46-.3v-.64c-.47-.14-.45.52-.84.47-.02-.2.04-.44,0-.63-.01-.04-.46-.59-.47-.63-.04-.16.01-.35,0-.51-.04-.05-.89.05-1.11,0-.09-.02-.09-.18-.11-.2ZM113.28,45.67c-.32-.32-1.02.79-1.22.9-.31.18-.62-.1-.55.28.23-.03.53.05.75,0,.08-.02.08-.18.12-.2.14-.06.3-.01.4-.07.13-.07.69-.72.51-.91ZM180.37,54.9c.07-.04.46.04.63,0,.03,0,.3-.48.55-.23.23.23-.42.64-.24.95h.71c-.04.27.06.62,0,.87,0,.04-.43.22-.23.67-.51.08-.91-.03-.96-.57l-.46-.02v.59s.47,0,.47,0c.12.27-.43.41-.47.53-.11.32.4.11.48.18v.71c-.69-.19-.54.65-1.05.61-.15.62.12.36.3.5.07.05,0,.18.1.2.23.05.26-.62.44-.03.49.21.43-.18.45-.2.27-.2.25.65.54,0h.63s0,.47,0,.47c-.41-.15-.45.22-.64.25-.62.08-.53-.22-.61-.25-.54-.14-.55.41-.67.67-.03.05-.32.11-.22.5-.33,0-.36.02-.35.35l-.46.02v.47s.83,0,.83,0c-.11-.4.22-.49.31-.84.32-.03.74.07,1.04,0,.1-.02.03-.22.25-.24.38-.04.95.09,1.29,0,.09-.02.07-.21.16-.23.3-.07.73.07,1.02,0,.09-.02.07-.21.16-.23.55-.14.51.21.59.24.43.12.39-.39.87-.24v-.47s-.47,0-.47,0c-.17-.86.9-.52.96-1.23.02-.33-.03-.69,0-1.02-.25,0-.5.09-.48-.22h-.23c.03.08-.34.61-.47.46v-.95s-.59,0-.59,0v-.59s.34-.02.34-.02l.02-.46c-.19,0-.38.04-.56-.03-.06-.02-.91-.89-.94-.95-.17-.3-.36-.79-.47-1.07-.06-.14-.02-.29-.08-.4-.14-.26-.96-.66-1.26-.51l.47-.24c.16-.41-.22-.48-.24-.55-.13-.5.18-.55.47-.83v-1.34c-.44-.17-.47.23-.53.24-.28.06-.05-.37-.57-.24-.09.02-.3.39-.38.47-.25.05-.62-.68-.33-.71.51.09.31-.1.44-.3.15-.24.12-.24.23-.49.02-.04.35-.1.2-.51-.77-.08-1.25,0-1.77.56v.97s-.48,0-.48,0c.02.2-.05.45,0,.64.03.12.22.03.24.14.05.23-.62.26-.03.44.22.47-.3.38-.21.8h.48c.14.45-.2.39-.24.71-.16,0-.32,0-.47,0v.24s.95,0,.95,0v2.01c.63.17.56-.22.59-.24ZM201.78,50.88c-.45-.13-.43.27-.81.25l-.02,1.05c.72.08.46-.03.63-.31.03-.05.17-.05.19-.13.06-.25-.03-.6,0-.86ZM179.06,54.66c0-.12,0-.24,0-.36-.2-.02-.44.04-.63,0-.07-.02-.13-.4-.83-.23-.09.02-.07.21-.16.23-.19.04-.43-.02-.63,0v1.07s-.21.4-.24.47c-.34.03-.18-.38-.71-.23-.04.27.06.61,0,.86-.02.08-.16.08-.19.13-.11.18.04.39-.4.31-.08.35.14.17.31.28s-.06.13.45.2c.75.1.08.23.06.31-.04.18.05.38-.03.61-.05.13-.69.3-.45.85h-.33c-.11.62.07.38.3.52.05.03.05.17.13.19.18.04.39-.04.55,0,.11.02.07.22.08.23.23.16.34-.34.5-.43.35-.19,1.02-.38,1.04-.85.8.14.84-1.06.7-1.6-.03-.12-.23-.07-.24-.08-.18-.25.21-.21.24-.31.05-.2-.06-.93,0-.99h.71c.16-.41-.22-.48-.24-.55-.04-.17,0-.43,0-.63ZM136,65.31c.07-.4.27-.09.24-.47-.5-.11-.49.4-1.06.24l.35-.24c.06-.33-.11-.22-.34-.25l-.02-.41.35-.06v-.59s-1.46,0-1.46,0l-.08.35-.46.02v-.83c-.14.01-.28-.02-.42,0-.31.04-.31.54-.65.48.01-.2-.04-.43,0-.62.02-.09.45-.32.47-.4.03-.18-.05-.54.02-.62.02-.03.2,0,.29-.05.4-.26.29-.59.28-1.02-.31-.05-.97-.02-1.06.33-.04.14.03.3-.04.47-.01.04-.42.26-.44.35-.07.34.04.81,0,1.17-.02.22-.22.15-.24.25-.05.21.05.94,0,.99h-.71s0,.88,0,.88c-.45.18-.98.58-.84,1.13.44.14.45-.17.5-.2.18-.1,1.95-.05,2.34-.04.52.01,1.31-.2,1.42.47-.1-.03-.62.34-.47.48.46.09.79-.27.71-.71l.45-.03c.05-.07.02-.14.02-.21l.59.06c.09.55-.26.26-.23.65.99.67,1.33-.07,1.18-1.06h-.47s-.25-.47-.25-.47ZM125.93,63.55l-.46-.02v.59c.36-.25,1.07.69,1.15.71.32.07.76-.04,1.1,0,.12-.42-.4-.16-.47-.23.06-.67-.02-.38-.38-.48-.11-.03-.08-.21-.17-.23-.19-.05-.68.06-.74-.01l-.02-.33ZM129.02,67.8h-.83c.14.41-.28.6-.43.87-.07.12-.02.26-.08.4-.05.1-.33.07-.19.66.02.09.28.12.23.32l.24-.06c-.04-.37-.04-.64.28-.84.09-.06.26-.03.29-.05.08-.08-.02-.53.02-.73.03-.16.57-.27.47-.56ZM106.51,99.07c-.1-.06-2.18-.08-2.37-.03-.08.02-.08.18-.12.2-.14.06-.3.01-.4.07-.04.02-.64.63-.66.67-.11.18-.1.27-.08.47.32.1.17-.19.33-.23.1-.03.23.02.35-.04.08-.04.72-.85.77-.88.47-.2.43.18.53.2.54.11.9.43,1.06.47.19.05.43-.02.63,0v.47c.39-.16.5.22.55.23.23.06,1.16-.06,1.22,0,.02.26-.06.54.04.8.11.3,1.07.25.91.91-.03.12-.37,0-.24.31.3-.04.7.06.98,0,.1-.02.03-.22.25-.24.42-.04,1.02.09,1.4,0,.07-.02.15-.36.44-.23l-.44-.47h-.86s.24-.48.24-.48c-.57,0-.76.14-1.14-.29-.2-.24-.18-.19-.35-.35-.09-.08-.29-.39-.31-.39-.22-.08-.41,0-.6-.03-.09-.02-.07-.21-.16-.24-.19-.04-.84.04-.87,0,.07-.86-.5-.6-.99-.71-.08-.02-.07-.18-.11-.2ZM113.96,102.74c-.14-.08-.29-.03-.44-.04-.28.92.54.82.47,1.54-.2-.02-.44.04-.63,0-.09-.02-.09-.23-.14-.24-.34-.09-.42.61-.73,0-.49-.07-.42.02-.4.47.1.08,2.16-.05,2.55,0,.2.02.21.41.64.25v-.47c.36-.09.12.21.41.25.63.07.49-.23.71-.26.23-.02,1.32.06,1.37,0v-.71s-1.23,0-1.23,0c-.13-.57-.37-.47-.74-.64-.04-.02-.04-.18-.12-.2-.15-.04-.63-.03-.79,0-.07.02-.14.4-.83.23-.09-.02-.08-.18-.11-.2ZM108.76,104.04c-.34-.19-.44.11-.68.26l.56.65c.57,0,1,.12,1.45-.24.09-.4-.24-.17-.51-.24-.07-.02-.28-.15-.71-.24-.09-.02-.08-.18-.11-.2ZM105.59,112.4h-.47s-.01.59-.01.59l-.33.02c.1.49-.35.42-.25.86,0,.04.58.49.63.52.11.06.48.27.51.28.18.04.54-.06.62.02.03.02,0,.19.05.29.26.42.1.37.23.73.01.03.44.46.47.47.18.07.34,0,.48.03.12.03.07.21.09.23.22.16.21-.11.28-.17.23-.22.51-.31.42-.68,0-.04-.52-.54-.56-.55-.2-.04-.95.04-.98,0,.18-.46-.18-.58-.2-.63-.06-.14-.01-.3-.07-.4-.05-.09-.59-.45-.64-.54-.06-.11-.01-.26-.07-.4-.02-.05-.37-.17-.2-.63Z" style="fill:#aaabab;"/><path d="M76.13,92.76s.21-.06.24.08c.11.47-.13.75.6.94.03.28-.07.66,0,.92.02.09.21.07.23.16.05.24-.05.53,0,.78.02.09.45.31.47.4.07.34-.07.81,0,1.14.02.1.22.03.24.25.03.24-.06,1.33-.01,1.37h.47c-.16.39.22.5.23.55.03.13.11.71-.17.63-.03,0-.48-.48-.5-.51-.07-.12,0-.28-.07-.4s-.89-.88-.91-.95v-1.27s-.35-.07-.35-.07c.08-.22-.12-.78-.33-.82-.2-.04-.39.04-.6-.04-.03-.01-.49-.49-.5-.52-.12-.48.32-.45.44-.66.06-.11.01-.26.07-.4.02-.04.18-.03.2-.12.1-.38-.06-1.03,0-1.46.08,0,.16,0,.24,0Z" style="fill:#aaabab;"/><path d="M164.16,26.74c-.11-.12-.37-.41-.53-.54-.23-.2-.52-.23-.74-.32-.04-.02-.04-.18-.12-.2-.25-.06-.6.04-.87,0-.13-.31.21-.19.24-.31.08-.37-.02-.49-.39-.39-.19.05-.18.54-.73.48-.07,0-.64-.52-.65-.57-.06-.29.03-.67,0-.98.49.22.75-.22.79-.23.15-.03.3.03.48-.04.16-.06.54-.94.97-.68v.48c.22.01.44-.02.66,0s.47-.13.41.24c-.12,0-.24,0-.36,0v.24s-.12.02-.19-.05c-.45-.45-1.17-.23-1.3.41h-1.23s0,.46,0,.46c.46-.16.45.33.77.24.05-.01.04-.18.09-.2.12-.07.27-.01.41-.07.04-.02.04-.18.11-.2.51-.14.3.3.57.24.12-.03.03-.12.06-.16.3-.4.64.79.47,1.11.48-.16.54.15.63.2.13.07.31,0,.41.07.02.02.22.59.27-.03l.47.47c-.33.05-.83-.22-.71.36Z" style="fill:#aaabab;"/><path d="M140.49,33.96s.24.38.25.41c.05.44.13,1.77-.42,1.85-.7.1-.65-.22-.74-.24-.16-.04-.62-.03-.78,0-.13.03-.19.41-.56.47.18-.43-.32-.45-.24-.76,0-.03.47-.49.51-.5.16-.07.4,0,.44-.03.04-.03-.15-.69.27-.91.12-.06.26-.02.4-.08.04-.02.03-.18.12-.2.1-.02.71-.02.75,0Z" style="fill:#aaabab;"/><path d="M164.63,22.48c-.03.14.12.56-.18.47-.03-.01-.49-.47-.5-.5-.16-.43-.05-.93.2-1.27.29-.14.19.21.31.24.17.04.43,0,.63,0,.43.01.87,0,1.3,0v.59s-.76,0-.76,0l-.08-.35-.46-.02v.59s-.71,0-.71,0c-.04.33.02.21.24.24Z" style="fill:#aaabab;"/><path d="M198.47,31.47s0-.11.05-.19c.04-.05.14-.05.15-.07.22-.41-.56-.71-.91-.57v-.47s.47,0,.47,0v-.71c.14-.16.64.48.48.64-.66.37-.05.24.28.3.13.03,0,.35.31.24.04-.28-.18-.47.24-.47v.71s-.47,0-.47,0v.52s-.59.07-.59.07Z" style="fill:#aaabab;"/><path d="M166.17,40.94c-.07-.37.36-.12.24-.59-.24-.03-.53.05-.75,0-.09-.02-.07-.21-.16-.23-.18-.04-.72-.03-.94-.01-.28.02-.05.34-.4.25-.23-.45.43-.63.47-.79.15-.59-.23-.34-.41-.42-.07-.03-.04-.19-.14-.21-.29-.06-.68.04-.99,0-.09-.4.27-.18.51-.24.09-.02.07-.21.16-.23.19-.05.43.02.63,0,.09-.37-.35-.11-.24-.53.01-.04.18-.05.2-.09.19-.38-.03-.6-.4-.41-.26.14-.07.1-.54.2-.11.02,0,.31-.5.24l-.06-.23.91-.71h.63s0-.48,0-.48h.47c-.16.39.22.5.24.55.06.23-.03.55,0,.81l.24.06c.2-.49.66-.46.48-1.18.46-.15.44.51.83.47-.09-.45.26-.8.71-.71l.24.47v-.47s.31.24.31.24c.54.1.6-.42,1.23-.24v-.48s.64,0,.64,0l.07.48h.47c-.13.49.37.45.24.94h.83c-.11.5.4.5.24,1.07h-.71s-.02.7-.02.7c-.32-.12-.54.46-.66.48-.43.08-.65.09-1.06.28-.04.02-.03.18-.12.2-.23.06-1.16-.06-1.22,0v.83s-1.66,0-1.66,0Z" style="fill:#aaabab;"/><path d="M164.39,25.91c-.05.63-.24.05-.27.03-.1-.07-.28,0-.41-.07-.09-.05-.14-.36-.63-.2.17-.31-.17-1.51-.47-1.11-.03.04.06.13-.06.16-.27.06-.06-.38-.57-.24-.08.02-.07.18-.11.2-.14.06-.28,0-.41.07-.05.03-.04.19-.09.2-.31.09-.31-.4-.77-.24v-.47s1.23,0,1.23,0c.13-.64.86-.86,1.3-.41.06.06.18.04.19.05.03.06-.05.29,0,.34.07.06.36-.02.56.05.03.01.49.49.5.52.05.25.03.82,0,1.1Z" style="fill:#aaabab;"/><path d="M220.47,137.84c-.22.25-.46,1-.49,1.05-.03.04-.21,0-.29.06-.62.44-1.03,1.32-1.26,1.94-.01.04-.62.49-.64.53-.06.15,0,.36-.05.43-.03.04-.7.31-.77.52-.16.44-.3.83-.54,1.24-.07.12-.85.71-.88.78-.06.15,0,.36-.05.43-.02.03-.2,0-.33.1-.2.16-.21.38-.33.5-.24.26-1.73,1.58-1.77,1.69-.18.47.28.65-.63.56,0,.15.03.29-.03.44-.04.1-1.33,1.24-1.54,1.45-.16.16-.28.28-.43.43-.34.35-1.72,1.91-1.98,2.05-.2.11-.48-.03-.5,0-.02.04.03.2-.04.31-.06.1-1.54,1.62-1.65,1.67-.15.06-.34,0-.42.05-.1.06-.09.51-.15.56s-.28-.01-.42.05c-.1.04-.84,1-1.01,1.11-.11.07-.29,0-.4.08-.16.12-.62.62-.66.64-.15.06-.36,0-.43.05-.04.03,0,.21-.06.29-.25.36-1.35,1.13-1.77,1.42-.21.14-.86.42-1.11.55-.23.12-.27.51-.29.53-.08.06-.27-.01-.36.03-.77.36-1.5,1.25-2.14,1.61-.24.14-.89.15-.81.61-.59-.08-1.34.87-1.73.96-.51.12-1.08.48-1.59.72-.14.07-.14.34-.56.24l-.02.32c-.41-.1-.59.3-.86.45-1.09.59-2.21.95-3.3,1.47-.14.07-.14.34-.56.24l-.02.33c-.07.07-.55-.03-.74.02-.07.02-.94.61-1.12.7-.87.42-1.74.62-2.59.99-.04.02-.03.18-.12.2-.19.05-.67-.06-.74.01v.33c-.21.05-.44-.03-.64.01-.05.01-.72.39-.82.44-.25.11-1.24.49-1.34.51-.57.12-1.67.27-2.14.51-.14.07-.96.42-1.05.44-.2.05-.42-.04-.63.01l-.07.35c-.28.03-.66-.07-.92,0-.09.02-.07.21-.16.23-.24.06-.55-.05-.79,0-.13.03-.45.15-.83.24-.09.02-.07.21-.16.23-.35.08-.91-.08-1.26,0-.09.02-.07.21-.16.23-.27.06-.64-.06-.91,0-.09.02-.07.21-.16.23-.49.11-1.25.12-1.74.24-.09.02-.07.21-.16.23-.38.09-1-.09-1.38,0-.09.02-.07.21-.16.23-.44.1-1.17-.1-1.62,0-.1.02-.03.22-.25.24-.55.06-1.21-.06-1.78-.02l-.13.37c-.79.05-1.71-.09-2.49-.02-.23.02-.11.23-.34.26-.97.1-2.13-.12-3.09-.02-.23.02-.11.23-.34.26-1.89.19-6.29.19-8.18,0-.23-.02-.11-.23-.34-.26-1.15-.12-2.53.13-3.68.02-.23-.02-.11-.23-.34-.26-.55-.06-1.21.05-1.78.02l-.13-.37c-.5-.06-1.29.12-1.75,0-.09-.02-.07-.21-.16-.23-.38-.09-1,.09-1.38,0-.09-.02-.07-.21-.16-.23-.38-.09-1,.09-1.38,0-.23-.05-.61-.16-.95-.24-.09-.02-.07-.21-.16-.23-.35-.08-.91.08-1.26,0-.09-.02-.06-.21-.16-.23-.45-.1-.55-.23-.59-.24-.38-.09-1,.09-1.38,0-.09-.02-.07-.21-.16-.23-.24-.06-.55.05-.79,0-.05-.01-.81-.46-.87-.47-.32-.08-.81.05-1.16,0l-.07-.35c-.2-.05-.42.03-.63-.01-.05-.01-.81-.46-.87-.47-.83-.18-1.84-.35-2.56-.67-.61-.27-1.13-.38-1.78-.51-.04,0-.21-.42-.66-.25v-.33c-.21-.05-.43.03-.64-.01-.05-.01-.72-.39-.82-.44-.9-.39-1.73-.62-2.65-1.02-.43-.19-.34-.1-.78-.2-.08-.02-.05-.19-.17-.23-.1-.03-.29.04-.37-.02-.04-.03,0-.2-.06-.29-.28-.42-.47-.21-.82-.28-.61-.13-2.23-1.23-2.96-1.62-.15-.08-.85-.27-.89-.3s0-.2-.06-.29c-.2-.3-.79-.42-1.1-.56-.39-.17-.79-.45-1.2-.66-.46-.24-1.34-.57-1.46-1.06-.64.12-1.11-.74-1.44-.93-.12-.07-.28,0-.4-.07-.29-.16-.27-.69-1.1-.44v-.48s-.46-.02-.46-.02c.05-.18-.4-.69-.52-.78-.1-.07-.28,0-.4-.08-.38-.23-2.06-1.39-2.25-1.66-.06-.09-.02-.27-.05-.29-.07-.06-.36.02-.55-.05-.05-.02-.66-.81-.77-.88-.66-.38-.58-.34-1.15-.9-.76-.74-1.77-1.37-2.59-2.18-.16-.15-.63-.89-.75-.94-.36-.15-.52.19-.44-.51h-.48s0-.47,0-.47h-.48s-.02-.46-.02-.46c-.2.02-.42-.14-.53-.3-.14-.21.1-.4-.52-.31v-.48s-.47,0-.47,0v-.48s-.47,0-.47,0c.15-.57-.34-.57-.58-.8-.55-.53-1.37-1.51-1.7-2.12-.02-.04-.53-.52-.6-.58-.46-.44-1.49-.99-1.81-1.5-.27-.43-.3-.58-.67-.98-.69-.74-1.14-1.82-1.65-2.73-.09-.16-.86-.54-.99-.78-.3-.56-.7-1.16-1.02-1.71-.05-.08-.62-.5-.64-.54-.06-.15,0-.36-.05-.43-.03-.04-.7-.31-.77-.52-.12-.34-.13-.37-.26-.66-.35-.75-.77-1.23-.96-2.07-.01-.06-.38-.17-.25-.55l-.32-.02c.22-.44-.63-.81-.69-.96-.06-.18,0-.33-.04-.48-.06-.26-1.04-1.4-1.18-1.83-.03-.11.04-.31-.02-.37l-.33-.02c-.07-.07.03-.55-.02-.74-.02-.09-.61-1.15-.75-1.46-.31-.69-.51-1.4-.67-2.2-.03-.14-.66-.66-.67-.71-.06-.15-.01-.29-.05-.43l-.33-.02c-.07-.07.03-.45-.01-.62-.02-.09-.22-.07-.24-.16-.14-.65-.21-1.5-.48-2.07-.11-.23-.67-1.09-.7-1.24-.13-.61-.16-.98-.23-1.65-.02-.22-.22-.15-.24-.25-.06-.26.03-.64,0-.92l-.35-.07c-.05-.2.03-.42-.01-.63-.02-.09-.21-.07-.23-.16-.06-.27.06-.64,0-.91-.02-.07-.46-1.04-.47-1.1-.12-.56-.12-1.38-.24-1.85-.02-.09-.21-.07-.23-.16-.07-.3.07-.73,0-1.02-.02-.09-.21-.07-.23-.16-.08-.35.08-.91,0-1.26-.02-.09-.21-.07-.23-.16-.08-.35.08-.91,0-1.26-.02-.09-.21-.07-.23-.16-.08-.35.08-.91,0-1.26-.02-.09-.21-.07-.23-.16-.09-.37.06-.99,0-1.39l-.37-.13c-.07-.53.12-1.39,0-1.87-.02-.09-.21-.07-.23-.16-.08-.35.08-.9,0-1.26-.02-.1-.22-.03-.24-.25-.11-1.07.3-2.55-.24-3.43.31-3.79-.37-8.13,0-11.85.02-.23.23-.11.26-.34.1-.96-.12-2.13-.02-3.09.02-.22.22-.15.24-.25.09-.41-.09-1.09,0-1.5.02-.09.21-.07.23-.16.1-.43-.07-1.16,0-1.63l.37-.13c.03-.42-.06-.9-.02-1.3.02-.22.22-.15.24-.25.08-.36-.08-.91,0-1.26.02-.09.21-.07.23-.16.09-.38-.09-1,0-1.38.01-.04.46-.59.47-.63.09-.38-.09-1,0-1.38.01-.05.46-.81.47-.87.08-.32-.08-.82,0-1.14.02-.09.22-.07.24-.16.1-.46.14-1.07.24-1.5.02-.09.21-.07.23-.16.05-.19-.06-.67.01-.74l.35-.07c.02-.25-.06-.57,0-.8.02-.09.22-.07.24-.16.14-.67.23-1.27.51-1.9.22-.5.09-.45.2-.9.02-.09.22-.07.23-.16.16-.73.2-1.2.51-1.9.02-.04.18-.03.2-.12.05-.2-.02-.47,0-.68l.35-.07c-.1-.42.17-.42.24-.56.35-.74.54-1.43.95-2.25.34-.69.43-1.44.73-2.06.07-.14.34-.14.24-.56l.32-.02c-.1-.42.18-.42.24-.56.43-.9.74-1.9,1.23-2.82.14-.27.55-.44.45-.86l.32-.02c-.09-.42.18-.42.24-.56.24-.5.36-.56.48-1.12,0-.04.45-.31.23-.79h.47c-.16-.63.61-.54.49-1.17l.33-.02c-.19-.62.32-.62.45-.86.39-.71.73-1.19,1.02-1.95.01-.04.62-.49.64-.53.06-.15,0-.36.05-.43.02-.02.41-.06.53-.29.25-.46.52-1,.79-1.47.04-.07.39-.26.4-.3.15-.36-.19-.52.51-.44l.02-.46c.33.02.6-.39.77-.64.08-.11,0-.29.08-.4.35-.53.93-.84,1.39-1.59.25-.4,1.87-1.67,1.97-1.9.15-.37-.2-.49.5-.46-.13-.41.47-.37.57-.61.15-.37-.18-.51.51-.44-.1-.5.52-.85.86-1.19.18-.18.4-.68.77-.82.31-.11.45.23.38-.48h.48s0-.47,0-.47c.5.08,1.1-.56.95-1.07.19,0,.38.04.56-.03.14-.06,1.58-1.78,1.71-1.83.19-.07.48.01.55-.05.09-.08.68-1.07.99-1.25.11-.07.29,0,.4-.07s.72-.86.77-.88c.19-.07.48.01.55-.05.03-.02,0-.2.05-.29.23-.34.46-.22.63-.32.12-.07.72-.86.77-.88.18-.07.36,0,.53-.07.04-.02.44-.33.7-.48.2-.11.25-.62.74-.44v-.59c.39.16.49-.22.56-.23.84-.19,1.26-.77,1.97-1.15.26-.14.88-.17.8-.61.49.13.53-.34.73-.46.11-.06.27,0,.34-.05.62-.33.64-.47,1.37-.73.03-.01.24-.37.3-.4.08-.05.49-.26.52-.27.18-.04.54.06.62-.02.03-.02,0-.2.05-.29.24-.37.4-.22.7-.29.73-.17,2.74-1.62,3.61-1.89.11-.03.31.04.37-.02l.02-.32c.38.13.5-.24.54-.25.47-.11.69-.06,1.19-.28.71-.31,1.46-.6,2.25-.95.11-.05.77-.42.82-.43.19-.05.67.06.74-.01l.02-.33c.38.13.5-.24.54-.25.4-.08.67-.23.71-.24.72-.15,1.46-.22,2.13-.51.1-.05.77-.42.82-.43.27-.06.64.06.91,0,.04-.01.59-.46.63-.47.26-.06.64.03.92,0l.13-.37c.25-.02.57.06.8,0,.05-.01.81-.46.87-.47.32-.08.82.08,1.14,0,.09-.02.07-.21.16-.23.54-.13,1.53-.1,2.09-.24.09-.02.07-.21.16-.23.35-.08.91.08,1.26,0,.09-.02.07-.21.16-.23.27-.06.64.06.91,0,.09-.02.07-.21.16-.23.49-.12,1.36.11,1.85,0,.09-.02.07-.21.16-.23.35-.08.9.08,1.26,0,.1-.02.03-.22.25-.24.7-.07,1.54.07,2.25.02l.13-.37c1.21-.08,2.61.14,3.79.02.23-.02.11-.23.34-.26,2.02-.2,6.75-.2,8.77,0,.23.02.11.23.34.26,1.15.11,2.5-.1,3.67-.02l.13.37c.53.03,1.14-.07,1.66-.02.23.02.11.23.34.26.51.05,1.32-.11,1.76,0,.09.02.07.21.16.23.44.1,1.18-.1,1.62,0,.09.02.07.21.16.23.32.08.82-.08,1.14,0,.09.02.07.21.16.23.3.07.73-.07,1.02,0,.09.02.07.21.16.23.32.08.82-.08,1.14,0,.05.01.81.46.87.47.3.07.73-.07,1.02,0,.09.02.07.22.16.23.21.05.46-.05.67,0,.09.02.07.21.16.23.34.08.9-.05,1.28,0l.07.35c.07.07.55-.03.74.01.05.01.81.46.87.47.72.15,1.46.22,2.13.51.1.05.77.42.82.44.44.1.94.15,1.38.24.04,0,.25.45.72.23l.07.35c.38-.13.5.24.54.25.47.11.69.06,1.19.28.82.35,1.73.75,2.55,1.11.13.06.27.01.34.05.14.07.14.34.56.24l.02.33c.45-.17.62.24.66.25.36.07.73.08,1.07.27.14.08.67.62.94.67,1,.21.42.16.9.44.37.21,1.28.31,1.28.85.92.26,1.73.81,2.57,1.19.34.16.72.34,1.05.52.23.12.27.51.29.53.08.06.26,0,.37.02.47.15,1.49.9,2.07,1.22.06.03.27.39.3.4.3.11.49-.08.76.32.06.09.02.26.06.29.07.06.28,0,.43.05.04.02.46.59.54.64.36.21,1.13.56,1.47.78.09.06.5.62.54.64.15.06.36,0,.43.05.03.02,0,.21.1.33.6.79,1.76,1.09,2.36,1.94.06.08.02.26.06.29.07.06.27-.01.42.06.32.16.72.77.9.87.64.37.77.48,1.34,1.03,1.66,1.61,3.47,3.44,5.08,5.08.61.62,1.15,1.53,1.79,2.2.19.2.9.68.94.75.31.57,1.19,2.02,1.74,2.41.08.06.26.02.29.06.06.06,0,.28.05.43.02.04.63.49.64.53.35.94.41.56.71,1.07.07.12,0,.28.07.4.14.25.74.49.77.52.06.07,0,.26.02.37.04.11.21.08.23.18.21.93.4.54.68,1.02.07.11,0,.29.07.4.05.09.66.52.67.59.04.21-.03.45,0,.66.03.13.68.36.49.78l.33.02v.47s.49,0,.49,0c-.16.39.22.5.23.56.13.62.36.72.47,1.07.09.28-.14.55.48.38.02.2-.04.44,0,.63.02.09.22.07.24.16.03.15-.05.42.02.5.02.02.4.04.54.28.06.11.01.27.05.34.32.61.32.44.47,1.2.02.08.42.31.44.35.11.3.17.68.31,1s.11.18.2.66c.03.14.74.39.48.91h.33c.05.21-.04.43.01.64.07.31.56.85.71,1.54.14.63,1.04,2.02,1.18,2.65.05.2-.04.42.01.63h.33c.05.21-.04.43.01.64.02.08.18.07.2.11.11.24.49,1.24.51,1.34.22,1.04.46,1.96.71,3.04.01.06.15.31.24.71.01.05.46.7.47.75.07.29-.04.73,0,1.04l.35.07c.07.07-.03.55.01.74.02.09.21.07.23.16.07.3-.07.73,0,1.02.02.09.22.07.24.16.1.49.13,1.16.24,1.62.02.1.22.03.24.25.14,1.37.49,2.48.45,3.92.51.43.11,1.17.25,1.75.02.09.21.07.23.16.14.59-.1,1.68,0,2.34l.37.13c.04.68-.08,1.47-.02,2.13.02.23.23.11.26.34.1.97-.12,2.13-.02,3.09.02.23.23.11.26.34.12,1.19.12,3.92,0,5.1-.02.23-.23.11-.26.34-.12,1.23.14,2.7.02,3.92-.02.23-.23.11-.26.34-.08.85.08,1.86.02,2.72l-.37.13c-.05.72.09,1.56.02,2.25-.02.22-.22.15-.24.25-.09.41.06,1.08,0,1.53-.02.22-.22.15-.24.25-.09.39.09,1,0,1.38-.02.09-.21.07-.23.16-.07.3.07.73,0,1.02-.02.09-.21.07-.23.16-.08.32.08.82,0,1.14-.02.09-.21.07-.23.16-.21.9-.27,1.9-.48,2.8-.02.09-.21.07-.23.16-.06.26.03.64,0,.92l-.35.07c-.05.2.03.42-.01.63-.02.09-.21.07-.23.16-.11.46-.13,1.14-.24,1.62-.01.05-.46.81-.47.87-.19.89-.38,1.78-.75,2.61-.19.42-.1.34-.2.78,0,.04-.38.17-.25.54l-.33.02c-.07.07.03.45-.01.62-.04.19-.68,1.34-.71,1.46-.23,1.11-.71,1.9-.95,3.04,0,.04-.38.17-.25.54l-.32.02c.13.38-.24.49-.25.55-.22.99-1.19,2.84-1.67,3.84-.07.14-.34.14-.24.56l-.33.02c.18.62-.32.62-.45.86-.19.34-.2.72-.27,1.07-.02.08-.18.07-.2.12-.16.37-.81,1.78-1.03,1.93-.09.06-.26.02-.29.06-.06.08,0,.26-.02.37-.16.49-.67,1.01-.93,1.49-.09.16-.04.59-.48.61-.04-.27-.27-.51-.22-.74.23-.96,1.25-2.03,1.62-2.88.15-.34.13-.72.37-1.06l-.36-.59.36-.24-.35-.29c.02-.13-.05-.39.02-.46.03-.03.2,0,.29-.06.11-.07.67-1.07.75-1.24.25-.53.27-1.09.52-1.64.03-.06.27.03.2-.45l-.23-.06c.05.24-.65.66-.68.74-.06.18,0,.33-.04.48-.02.1-.22.07-.23.16-.04.18.04.38,0,.55-.02.09-.19.05-.23.17-.03.11.04.29-.02.37-.02.02-.41.06-.53.29-.62,1.14-1.43,1.95-1.7,3.19-.02.09-.19.06-.23.17-.03.1.04.29-.02.37-.03.04-.21,0-.29.06-.26.18-.25.57-.75.43.16.39-.23.5-.24.55-.14.62-.18,1.08-.51,1.66-.12.2-.59.24-.45.73l-.32.02c.15.47-.56.86-.69,1.09-.05.08-.21.43-.26.53-.36.76-.09,1.17-.25,1.84,0,.04-.66.5,0,.55-.02-.19.15-.2.23-.33.24-.41.35-.72.52-1.17.01-.03.39-.26.41-.3.06-.15,0-.36.05-.43.03-.04.21,0,.29-.06.45-.32.54-.81.8-1.22.05-.07.19-.03.2-.04.67.25,1.09-.51,1.77-.24ZM199.53,30.17c.09,0,.26-.05.24.08v.39c.68.11.81-.06.94-.71h-.47s0-.47,0-.47c.44-.09.72.07,1.06.32.23.18.2.49.63.39.04,0,.54-.52.55-.56.12-.52-.06-.47-.19-.67-.06-.09-.03-.26-.06-.29-.06-.06-.28,0-.42-.05-.04-.02-.49-.63-.53-.64-.94-.35-.56-.41-1.07-.71-.12-.07-.28,0-.4-.07-.27-.15-.48-.74-.52-.78-.08-.07-.35.02-.5-.02-.05-.01-.17-.4-.55-.24.07-.7-.08-.36-.44-.51-.04-.02-.24-.37-.3-.4-.41-.23-.94-.56-1.3-.71-.85-.35-.46-.41-.69-.61-.05-.04-.93-.44-1.07-.5-.56-.26-.96-.64-1.49-.93-.07-.04-.23.02-.34-.05-.21-.12-.24-.59-.74-.45l-.02-.33c-.46.15-.57-.19-.62-.21-1.14-.5-2.19-.94-3.3-1.47-.14-.07-.14-.34-.56-.24l-.02-.33c-.46.15-.57-.19-.62-.21-1.29-.57-2.44-1.17-3.79-1.46-.05-.01-.7-.46-.75-.47-.17-.04-.56.05-.62-.01l-.02-.33c-.38.13-.5-.24-.54-.25-.44-.09-.94-.14-1.38-.24-.79-.17-2.29-.99-3.11-1.18-.24-.06-.55.05-.79,0-.09-.02-.07-.21-.16-.23-.21-.05-.47.02-.69,0l-.07-.35c-.07-.07-.65.04-.86-.01-.05-.01-.81-.46-.87-.47-.24-.06-.55.05-.79,0-.09-.02-.07-.21-.16-.23-.91-.22-2-.26-2.92-.48-.09-.02-.07-.21-.16-.23-.44-.1-1.18.1-1.62,0-.09-.02-.07-.21-.16-.23-.24-.06-.57.06-.79,0-.11-.03-.06-.23-.08-.24-.24-.19-.22.21-.31.24-.15.04-.35-.02-.52,0v.95s-.47,0-.47,0v.71c-.32.11-.19-.21-.31-.24-.25-.05-.6.04-.87,0v.59c.2.02.44-.04.63,0,.09.02.07.21.16.23.25.06.6-.04.87,0v.47s-.47-.24-.47-.24v.71c.2-.02.44.04.63,0,.11-.03.01-.31.37-.24.03,0,.48.48.5.51.07.12,0,.28.07.41.03.05.19.04.2.1.08.3-.1.24-.19.34-.06.07-.04.18-.05.18-.25.17-.22-.21-.31-.24-.22-.05-.9.07-.98,0l-.07-.35h-.65c-.05.06.05.8,0,1-.03.13-.36,0-.24.31.29.03.63-.07.92.04.33.12.22.62.27.83.02.1.22.02.25.25.03.28-.04.61,0,.9-.31.13-.19-.21-.31-.24-.25-.05-.6.04-.87,0-.15.13.38.51.47.47.11.38-.32.08-.23.47h.47s-.24.47-.24.47c-.2,0-.46.04-.63,0-.12-.03-.03-.38-.31-.24-.25.34-.37.84-.2,1.27.01.03.47.49.5.5.29.09.15-.34.18-.47.47.06.77.09.71.71-.44-.23-.65.44-.79.47-.25.05-.59-.01-.86,0,.07-.36-.18-.22-.41-.24s-.44.01-.66,0v-.48c-.43-.26-.81.62-.97.68-.18.06-.33,0-.48.04-.04,0-.31.45-.79.23.04.31-.06.69,0,.98,0,.04.58.56.65.57.55.06.55-.43.73-.48.38-.1.47.02.39.39-.03.12-.36,0-.24.31.27.04.62-.06.87,0,.08.02.08.18.12.2.22.1.51.13.74.32.16.13.41.42.53.54.02.02,0,.12.05.19.19.22.45.4.66.61v1.45s-.41,0-.41,0l-.06-.35c-.32-.07-.72.07-1.03-.05-.07-.03-.71-.74-.5-.91h-.47s0-.71,0-.71c-.64.17-.71-.34-1.3-.25v-.34h-1.66v.59h2.01s-.02.13.04.19c.08.08.25-.03.19.22-.2-.02-.22.3-.24.3h-2.01v.47c.47.22.74-.23.88-.25.42-.05.93.05,1.37,0v.47s-1.54,0-1.54,0c-.13.45.61.14.71.24v.59c.6,0,1.24.16,1.32-.57l.4-.02.07.34c.38-.13.49.24.54.25.31.08.81-.04,1.16,0l.06.24c-.12,0-.66.47-.67.51-.06.15,0,.36-.05.42-.03.04-.19,0-.29.06-.05.03-.05.17-.13.19-.18.04-.38-.03-.55,0-.04,0-.17.38-.54.25l-.02.33c-.58-.16-.71.21-1.1.45-.25.16-1.59.96-1.7.99-.21.05-.46-.04-.67,0-.09.02-.07.21-.16.23-.24.06-.55-.06-.79,0-.05.01-.61.47-.72.48-.23.02-.84.03-1.05-.01-.16-.03-.27-.57-.56-.47-.06.22.02.3.09.46.12.28.47.38.38.75-.08.33-.67.29-.7.32-.03.03.02.29-.04.44-.01.03-.44.46-.47.47-.3.11-.5-.07-.76.32-.14.22.1.4-.52.31.18.5-.32.54-.44.74-.05.08-.23.97-.51.59-.04-.05.07-.23-.23-.15-.1.36-.36.57-.75.47-.07-.02-.14-.4-.55-.24v.48s-1.47,0-1.47,0c0,.24-.28.4-.3.45-.14.49.16.4-.71.38-.1.28.44.4.47.56.05.26-.02.59,0,.86h-.48s0,1.3,0,1.3h-.48s0,.95,0,.95l-.47-.24v1c-.82.2-.47.64-.59,1.17-.01.04-.46.59-.47.63-.05.2.05.95,0,.98h-.47c-.11.32.21.19.24.31.03.15.03.53,0,.7-.05.41-.95.73-.72-.07h-.48s0-.71,0-.71c-.57-.16-.56.34-1.06.24.07-.46-.02-.6-.24-.94-.46-.09-.44.66-.47.7-.03.05-.59-.05-.75,0-.13.03,0,.36-.31.24.15-.39-.18-.47-.2-.51-.2-.44-.3-.89-.47-1.3-.06-.14-.01-.29-.08-.4-.19-.36-.54-.22-.82-.28-.26-.05-.41-.69-.32-.94h-.59c-.12-.47.31-.22.24-.59-.25.14-.84-.27-.7-.47.01-.02.2.03.23-.08.04-.15-.04-.61,0-.63.05-.03.26.04.38,0,.04-.01.58-.44.6-.47.07-.12.13-.17.09-.35h-.76s-.23.73-.54.59c.09-.43-.05-.71-.47-.83v-.23c.27.06.33-.31.2-.46-.03-.03-.37-.01-.2-.26.03-.04.35.09.23-.24-.5.14-.45-.37-.95-.24v-.23c.42.05.17-.45.24-.75.02-.09.4-.05.2-.52-.02-.04-.41-.26-.43-.35-.11-.43,0-.35.23-.39.37-.06.43-.44.56-.47.17-.03.62-.04.78,0,.09.02.03.34.74.24.55-.07.47-1.4.42-1.85,0-.02-.22-.4-.25-.41v-1.07s.71,0,.71,0c.12-.72-.68-.49-.47-1.34.01-.04.43-.22.23-.67h-1.45c-.35-.58-.46-.37-.95-.47-.05-.01-.17-.4-.55-.24v-.71s1.33,0,1.33,0c.32.5.37.37.83.47.1.02.07.21.16.23.19.04.43-.02.63,0,.08-.4-.35-.09-.23-.47h.23s0-.18,0-.18l-.23-.07v-.23c.36-.11.55-.35.46-.74-.11-.46-.94-.26-1.22-.32-.09-.02-.07-.21-.16-.23-.24-.06-.55.05-.79,0-.09-.02-.05-.4-.52-.2-.04.02-.51.65-.58.67-.4.1-1.09-.35-.5-.54-.2-.48.22-.67.23-.71.05-.2-.06-.65.02-.74.03-.03.21,0,.29-.05.59-.41.73-.83.05-1.23l-.02-1.21c-.85-.09-.46-.8-.58-1.35,0-.04-.47-.51-.5-.52-.16-.06-.41-.01-.44-.03s.03-.37,0-.51c-.01-.05-.4-.16-.24-.55-.03-.04-.78.04-.98,0-.09-.02-.27-.39-.36-.43-.11-.06-.26-.01-.4-.07-.04-.02-.03-.18-.12-.2-.18-.04-.38.03-.55,0-.09-.02-.03-.35-.48-.24-.1.03.02.25-.37.25s-.28-.4-.53-.24c-.02.01-.18.44-.32.47-.4.08-.71-.11-.86.47h-.22c-.29-.48-.85-.74-1.08,0h-.23c-.12-.65-.68.33-.48.71-.52.13-.44-.39-.99-.24-.13.04.02.29-.25.24-.4-.35-.31-.67-.3-1.18h-.71c-.14-.23.27-.84.47-.7.02.01-.03.2.08.23.97.25.51-.43.65-.58.02-.03.19,0,.29-.06.77-.47.58-.25,1.39-.43.1-.02.02-.22.25-.24.35-.04.77.05,1.13,0v-.47c-.3.04-.71-.06-.99,0-.11.03-.1.33-.86.24-.2-.02-.21-.4-.64-.25.09.62-.41.83-.98.71-.09-.02-.27-.39-.36-.43-.11-.06-.61-.1-.67-.36-.16-.72.2-.57.43-.91.06-.09.02-.27.05-.29.08-.07.44.02.62-.02.09-.02.07-.22.16-.24.71-.16,1.43-.18,2.07-.48.11-.05.61-.45.65-.46.32-.08.8.07,1.14,0,.05-.01.78-.74.79-.79.05-.23-.02-.5,0-.74-.32-.1-.17.19-.33.23-.38.1-.44.23-.46.24-.21.05-.79-.06-.86.01l-.07.35c-.22.02-.48-.05-.69,0-.09.02-.07.21-.16.23-.24.06-.55-.05-.79,0-.05.01-.81.46-.87.47-.73.16-1.21.2-1.9.51-.56.25-.55.08-1.02.2-.06.01-.16.4-.55.24-.11.42.37.16.48.24.09.27-.07.73-.33.82-.11.04-.34-.03-.38,0-.03.03.02.29-.04.44-.02.05-.66.69-.71.71-.33.13-.9-.02-1.27.03-.06.06.18.79-.27,1.03-.12.06-.26.02-.4.08-.04.02-.04.18-.12.2-.22.05-.51-.03-.75,0-.09.4.29.16.56.27.03.01.4.4.43.44.05.06.17.09.07.24-.02.04-.55.36-.67.52-.05.08-.03.2-.05.29l-.82.02c.21.27-.44.94-.47.65v-.65s-.47,0-.47,0v-.26s-.24-.09-.24-.09c0,.76-.58.49-.99.59-.09.02-.06.42-.31.24-.01,0,.04-.21-.08-.24-.18-.05-.44.03-.63,0v.71c-.2.02-.44-.04-.63,0-.09.02-.07.21-.16.23-.16.04-.63.03-.82.01-.2-.02-.21-.41-.64-.25v.48s-1.07,0-1.07,0l.02-.46.32-.02c-.06-.64.3-.57.69-.74.04-.02.04-.18.12-.2.18-.04.54.06.62-.02.03-.03,0-.19.05-.29.03-.05.17-.05.19-.13.09-.33-.28-.73-.63-.63-.08.02-.07.18-.11.2-.23.11-1.11.4-1.24.54-.06.06-.01.22-.04.31-.73-.2-.71.31-.97.45-.37.2-.71.4-1.11.55l-.39.43c.24-.03.53.05.75,0,.11-.03-.03-.27.5-.25.32.02.45.43,1,.25v.47s-.4,0-.4,0c-.29.08.18.58.24.59.22.04.46-.04.67,0,.1.02-.03.22.37.25.53.03.39-.22.5-.25.18-.04.38.04.55,0,.04,0,.17-.38.54-.25l.02-.33c.06-.06.35.02.5-.01.04,0,.59-.46.64-.47.29-.07.75.07,1.03,0,.14-.04-.02-.3.25-.24.04,0,.14.39.63.27.17.63.24-.21.49-.02.03.02-.04.38.48.23.16.55-.15.53-.24.67-.08.13,0,.29-.04.36-.02.04-.65.69-.7.7-.25.09-.49-.02-.72.03-.09.02-.07.21-.16.23-.87.21-1.94.18-2.8.47-.33.62-.58.01-.63,0-.54-.14-.65.59-.7.6h-.7s-.07-.35-.07-.35c-.61-.12-.37.09-.51.29-.16.24-.36.3-.64.32-.2.58-.2-.08-.44-.03-.09.02-.03.37-.41.24v-1s.34-.07.34-.07c-.13-.38.24-.49.25-.54.2-.81-.04-1.56-.98-1.34-.11.03,0,.27-.38.24-.23-.02-.15-.22-.25-.24-.64-.15-.63.21-.71.23-.15.03-.3-.03-.48.04-.12.04-.29.65-.74.44.15.39-.22.5-.24.55-.09.38.08.97,0,1.37,0,.04-.46.51-.5.52-.3.12-.66-.04-.96.04-.09.02-.07.21-.16.23-.19.04-.43-.02-.63,0,.02-.13-.03-.28,0-.4s.35,0,.24-.31h-.63s-1.42,1.38-1.42,1.38c-.55-.13-.61.54-.69.61-.07.06-.28,0-.42.05-.06.02-.25.4-.36.43-.14.04-.3-.03-.47.04-.09.03-1.14,1.31-1.24,1.35-.15.06-.29.03-.44.03-.19.45.23.59.24.76.04.37-.02.85,0,1.25h-.71c.02-.2-.04-.44,0-.63.02-.09.32-.02.24-.73l-.23-.06c.05.28-.2.2-.31.28-.08.06-.74.69-.76.74-.12.48.36.31.23.79-.02.08-.21.06-.23.16-.03.15.03.3-.04.48-.02.07-.43.21-.45.44-.04.43.08.3.48.3-.06-.53.53-1.06,1.06-.96v-.33s.72-.01.72-.01c0,.58-.07,1.3,0,1.84.02.17.44.3.25.76l.53-.59c.34-.1.1.54.18.59.46-.16.45.32.77.24.05-.01.05-.18.09-.2.38-.19.6.03.41.4-.03.05-.34.1-.2.5-.57.17-.56-.34-1.06-.24v1.18c-.62-.09-.38.09-.52.31-.21.32-.39.22-.63.32-.04.02-.03.18-.12.2-.14.03-.53.03-.67,0-.09-.02-.07-.21-.16-.23-.19-.04-.43.02-.63,0v-.77s-.23-.06-.23-.06c.05.33-.22.24-.47.23v.59s-.47,0-.47,0v.48c-.46-.18-.57.17-.63.2-.39.17-1,.35-1.35.55-.08.05-.27.41-.36.43-.28.06-.64-.06-.9,0-.05.01-.16.38-.54.25l-.02.32c-.39-.13-.49.24-.54.25-.4.11-.36-.14-.44-.19-.29-.18-.39.09-.31-.63h-1.1c-.13.24-1.03,1.07-.79,1.3.7.1.59-.74,1.42-.47v.71c-.63-.1-.59.29-.75.67-.02.04-.38.18-.2.63l.46-.02.02-.32c.38.13.5-.24.54-.25.63-.14,1.06-.18,1.66-.51.14-.08.28-.58.51-.43.01,0,0,.13.09.22.07.06.37.3.38.33.13.52-.29.29-.24.57,0,.04.44.15.24.65h.59s-.05-.88,0-1.1c.02-.1.63-.58.51-.88.18-.33,1.13-.3.84-.87h-.65c-.07-.78.39-.61.87-.71.05,0,.31-.46.83-.23.14-.56.63.06.55.4-.01.05-.41.15-.24.55.37.07.36-.57.71-.47v.47c.32.11.19-.21.31-.24.29-.07.81.29.82.6h.81c.22-.99,1.1-.44,1.76-.6.05-.01.16-.4.55-.24-.01-.48-.12-1.1.47-1.18l.24.47h.23s.24-.23.24-.23c-.02.2.04.44,0,.63,0,.03-.14.14-.24.46-.04.12-.39.08-.23.32,0,.01.14-.01.19.05.25.37.2.68.87.55.11-.32-.21-.19-.24-.31-.03-.14-.02-.44,0-.58.03-.22.22-.14.24-.26s-.03-.35,0-.38c.03-.03.29.02.44-.04.08-.03,1.06-1.06,1.17-1.2.1-.12-.06-.41.4-.31.14-.37-.33-.14-.36-.3v-.88c.25-.02.52.04.75,0,.2-.04.7-.87-.08-.71-.12.03,0,.35-.31.24v-.59s-.59.01-.59.01c-.03.23.09.41-.24.34.18-.52-.27-.56-.25-.89.02-.23.46-.38.48-.5.05-.25-.05-.55,0-.78,0-.04.43-.22.24-.67h.83c.12-.32-.21-.19-.24-.31s.02-.27,0-.4h.48c.02-.2-.04-.44,0-.63.05-.21.18-.27.24-.91.12-.03.4.04.47,0,.35-.09.27.34.23.51-.05.21-.83.46-.7.95.01.05.7.73.74.76.21.14.91.15.8.61l.46.02v.47s-.83,0-.83,0v.46c.24.03.42-.09.35.25-.64-.19-.61.34-1.06.48v.22c.32-.03.2.3.25.35.05.05,1.26-.13,1.05.65-.02.09-.21.06-.24.15-.07.3.05.77,0,1.1h.47c-.22-.44.45-.65.47-.79.03-.18-.03-.37,0-.54.03-.14.88-.58.71-.91.43-.05.02.41.59.41l-.02.4-.33.02c.15.5-.34.54-.45.74-.07.12,0,.28-.07.4-.04.08-.41.26-.43.36-.22,1.02.68.73.47,1.69.17.2,1.16-.56,1.26-.74.04-.07.26-.49.27-.52.07-.3.58-1.4.75-1.66.07-.1.65-.52.67-.59v-1.62c.23,0,.41-.29.44-.3.14-.04,1.28-.03,1.32.02.03.03,0,.19.05.29.1.15.33.17.19.64l.59-.24v.46s-.36.08-.36.08v.99s-.46,0-.46,0c.17.4-.22.5-.24.55-.12.44.39.38.24.87h.47c.14.42-.14,1.06-.51,1.27-.31.17-.8.37-1.11.55-.05.03-.59.64-.71.67-.14.03-.42.04-.55,0-.13-.03,0-.36-.31-.24v1.06c-.2-.02-.44.04-.63,0-.09-.02-.07-.21-.16-.23-.28-.07-.68.04-.98,0-.13.31.21.19.24.31.14.56-.67.5-.48,1.11-.43.16-.44-.23-.64-.25-.5-.05-1.09.06-1.61,0v.48s-.47,0-.47,0v.35s.65,0,.65,0l.13-.37h1.24c.2.46-.23.64-.24.68-.04.17.03.37,0,.55-.06.32-.67.29-.8.36-.03.02-.02.32-.43.2-.11-.03,0-.36-.31-.24-.01.51-.64.42-.71.47-.07.04.18,1.32-.71,1.07v1.18s-1.3,0-1.3,0v.83c-.5-.13-.64.37-.95.62-.11.09-.74.46-.79.59-.06.15-.01.42-.03.44-.04.05-.37-.06-.46.02-.03.03,0,.19-.06.29-.26.42-.45.68-.67,1.14-.07.14-.34.14-.24.56l-.33.02c-.07.07.03.55-.01.74-.02.09-.21.07-.23.16-.06.25.03.6,0,.87h1.3c.05.05-.05.88,0,1.1.02.08.37.05.24.6-.02.09-.4.06-.24.31.02.03.55.36.63.24.07-.33.77-.3,1.06-.23.08.02.08.18.12.2.42.19.64.18,1.07.27.05,0,.17.4.55.24v1.06c.45-.2.63.23.67.24.24.05.53-.05.78,0,.09.02.31.45.4.47.94.2,2.8-.59,2.4,1.11-.02.09-.22.07-.23.16-.08.38-.2.69-.24.83-.06.24.06.57,0,.79-.02.09-.39.05-.24.31.01.02.44.17.47.32.06.28-.05.62,0,.9.02.09.42.3.44.35.06.16.01.41.03.44s.37-.03.51,0c.09.02.07.22.16.24.48.11.41-.07.4-.47.78.07.61-.39.71-.87.02-.09.21-.07.24-.16.09-.38-.09-1,0-1.38.03-.11.22.03.25-.37.03-.53-.22-.39-.25-.5-.04-.17-.04-.95,0-1.14,0-.04.46-.51.5-.52,1-.37.71-.32,1.36-1.09.26-.31.76-.45.62-.95h.47c.16-.43-.22-.44-.25-.64-.09-.71.22-.65.24-.74.17-.74-.4-.99-.24-1.73-.5-.41-.8-.77-.71-1.45,0-.07.25-.36.28-.37.47-.19.5.2.44-.75h.59s0-1,0-1l-.36-.3.36-.06v-1.15c.06-.12.44-.32.46-.4.12-.48-.3-.29-.24-.69.08-.06.22-.41.25-.41h2.72c-.02-.1.46-.66.5-.68.45-.19.47.18.73.39.09.08.42.16.5.32.07.12,0,.29.07.4.18.31.77.66,1.15.51v.48s.83,0,.83,0v.35s-.34,0-.34,0c.13.38-.24.49-.25.55-.09.35.08.91,0,1.26-.02.09-.22.08-.24.14-.16.58.79.48,1.04.57.3.11.24.64.27.67.03.03.72-.01.71.47.42.06.43-.55.51-.67.19-.3,1.19-.82,1.26-1.18.16-.76.16-.58.47-1.2.07-.14.08-.67.48-.61v1.89s.15-.03.2.04c.1.16.11.36.32.51.09.06.26.03.29.05.08.08-.01.53.02.7-.09.09-.72-.2-.59.24h.83c.02.2-.04.43,0,.63s.85.61.23.75c-.16.54.68.52.48,1.11-.38-.1-.81.24-.71.63.19.11.6.82.74.88.16.07.4,0,.44.03.04.03-.12.76.27.91.34.13.89-.02,1.27.04v.83s.46-.01.46-.01l.02-.33h.46c.16.49-.2.52-.24.81-.55-.05-.42.16-.51.2-.17.08-.49.26-.52.27-.15.03-.3-.03-.48.04-.04.01-.26.42-.35.44-.2.04-.42-.01-.63,0-.03.41-.07.58.39.47.04-.01.6-.46.64-.47.15-.03.3.03.48-.04.04-.01.26-.42.35-.44.2-.04.42.01.63,0,.01-.16-.02-.32,0-.47.36.03.41.44.56.47.13.03.29-.02.42,0,.06.01.17.4.56.23v1.45c-.02.06-.82.73-.93.78-.45.23-1.09.28-1.52.52-.15.09-.26.54-.61.45l-.02.82c-.43-.26-.86.67-1.03.71-.31.06-.7-.04-1.02,0-.32.61-.36-.12-.83,0-.08.02-.07.18-.1.2-.46.25-.38-.32-.84-.2-.08.02-.06.21-.15.24-.38.09-.99-.09-1.38,0-.03,0-.21.47-.53.2-.03-.02-.02-.38-.26-.2-.01.01.03.21-.08.24-.16.04-.38-.04-.56,0-.04,0-.22.43-.67.24,0,.19.04.38-.03.56-.02.06-.88.92-.94.94-.15.06-.29.03-.44.03v.47c-.69-.15-.61.2-.88.54-.22.27-.55.27-.43.76h.71c-.09-.61.08-.37.31-.52.05-.03.04-.16.14-.19.41-.12.43.2.38-.6.12-.01.26.03.38,0,.25-.07.77-.65.83-.67.19-.07.44.02.54-.06.05-.04,0-.21.02-.21h1.66c-.03.27.05.6,0,.86-.02.07-.96.79-.71,1.15h-.95s0,.47,0,.47c.62.18.68-.31,1.18-.24.13.31-.21.19-.24.31-.03.14-.03.67,0,.8.02.09.43.07.24.31-.01.01-.21-.04-.24.08-.02.09-.03.73,0,.75.05.03.26-.03.38,0,.02,0,.32.22.33.23.19.3-.39.15-.23.47.2.02.44-.04.63,0,.09.02.07.21.16.23.15.04.51.03.67,0s.27-.57.56-.47c-.03.27.06.62,0,.86-.02.08-.16.08-.19.13-.06.1-.02.26-.06.29-.16.15-.6-.28-.46.49-.24.03-.53-.05-.75,0-.09.02-.07.22-.16.24-.19.04-.39-.04-.6.03-.03.01-.45.45-.46.47-.06.11,0,.28-.08.4-.25.48-1.93.46-1.73-.35.3-.2.5-.51.76-.75.07-.06.7-.44.75-.55.06-.18,0-.33.04-.48.02-.1.21-.07.23-.16.04-.19-.02-.43,0-.63-.38-.08-.17.22-.27.44-.01.03-.47.5-.5.51-.34.07-.28-.4-.76-.24v.59c-.17.03-.62-.06-.7.02-.03.03,0,.19-.06.29-.2.33-.1.18-.2.55-.13.47-1.14.31-1.53.33v.71s-1.18,0-1.18,0l-.02.82c-.66.06-.49.44-.58.87-.03.16-.63.32-.46.55.04.05.39,0,.23.6l-.25-.34-.46-.02v.59s-.68-.05-.87,0c-.09.02-.06.21-.16.23-.84.19-.42.24-.78.44-.12.07-.28.01-.4.08-.53.27-.12,1.23-.31,1.71-.02.05-.71.72-.76.74-.29.06-.67-.03-.98,0v1.77s-.16-.03-.21.02c-.12.15.12.53-.2.45-.21-.3-.34-.57-.77-.47-.17-.41.22-.49.24-.55.04-.21-.04-.45,0-.67.06-.31,1.76-.93-.24-.79-.05.05.05.68,0,.87,0,.04-.42.21-.25.67l-.35.07v.82s.35.08.35.08l.02.4-.37.12v.76s.6,0,.6,0c-.02.2.04.44,0,.63-.02.09-.35.03-.24.48.01.06.4.13.24.55h-.83c.22.62-.31.63-.44.86-.07.12,0,.29-.07.4-.03.04-.66.68-.71.71-.25.14-.74.22-1,.31-.09.03-1.01,1.37-1.24,1.47-.15.06-.41,0-.44.04-.02.02.02.29-.04.44-.05.14-.74.41-.79.59-.03.13.02.29,0,.42-.01.06-.15.31-.23.72-.02.11-.28,0-.25.38.02.23.22.15.24.25.09.37-.05.99,0,1.41.02.22.22.15.24.25.08.33-.08.82,0,1.14.02.09.21.07.23.16.06.24.04,1.47.01,1.76-.01.11-.47.68-.48.72-.04.16.01.35,0,.51-.19.06-.17-.02-.24-.07-.57-.44-.35-1.02-.51-1.43-.09-.23-1.27-.7-.49-1.26l.28-.54c-.49-.15-.41.31-.83.24v-.7s.36-.07.36-.07v-.81c-.47-.15-.7-.37-.6-.9-.27.04-.62-.06-.87,0-.1.02-.02.34-.47.23-.08-.02-.31-.42-.35-.44-.18-.07-.36,0-.53-.07-.02,0-.27-.39-.29-.4-.17-.07-.65-.08-.84-.03-.1.02-.03.22-.25.24-.57.06-1.5-.13-2,0-.1.02.02.17-.32.24-.07.01-.16-.01-.24,0v.48s-.59,0-.59,0c.2.65-.35.58-.47,1.07-.38-.02-.21-.07-.24-.47-.39.16-.5-.22-.55-.24-.18-.04-1.67-.04-1.85,0-.09.02-.07.21-.16.23-.3.07-.89-.14-1.07.27-.06.15,0,.36-.06.42-.03.04-.19,0-.29.06-.05.03-.05.17-.13.19-.17.04-.37-.03-.54,0-.06.01-.55.66-.59.67-.15.06-.36,0-.42.05-.1.09-.25.76-.27.79-.03.04-.2,0-.29.06-.34.23-.37.67-.28,1.06.02.1.22.03.24.25s.03.84-.01,1.05c-.02.08-.66.54-.67.58-.08.22,0,.41-.03.6-.02.09-.21.07-.24.16-.16.66.09,1.95,0,2.71-.02.22-.22.15-.24.25-.05.21.17.74.27.95.12.24.62.73.64.78.13.35-.02.79.61.81l.02.94c.27.03.6-.05.86,0,.09.02.31.45.4.47.18.04.62.03.81.01.22-.02.15-.23.25-.25.26-.05.87-.11,1.08-.27.06-.04.08-.56.34.04.34.11.55-.29.8-.44.12-.07.28-.02.4-.08.41-.22.2-.63.27-.95,0-.04.46-.59.47-.63.06-.28-.1-.63.27-.83.12-.06.26-.02.4-.08.04-.02.04-.18.12-.2.5-.11.71.16,1.07-.47h1.1c-.05.33.07.8,0,1.1-.02.08-.18.08-.2.12-.28.62-.15.88-.28,1.42-.02.09-.21.07-.23.16-.05.19.05.82,0,.87h-.71s0,1.77,0,1.77c0,.01-.21-.05-.24.08-.05.18.03.44,0,.63h-.59s0,.47,0,.47c.66-.06,1.43.07,2.08,0,.23-.02.11-.23.34-.26.34-.03,1.46-.05,1.76.01.21.04.43.6.32.82.04.05.79-.17,1.03.27.06.12.01.27.05.34.08.17.58.34,0,.64v.33c.37.13.18.31.24.58.02.11.22.03.24.25.03.32-.04.69,0,1.01h-.48s0,1.3,0,1.3h.48s0,.88,0,.88c-.7.09-.8.46-.71,1.13h.47c-.16-.21.21-.99.47-.82.25.35.3.52.25.99-.02.13-.26.03-.39.07-.09.02-.09.39-.72.23-.08-.02-.08-.16-.13-.19-.1-.06-.27-.03-.29-.05-.07-.08.01-.35-.02-.5-.02-.09-.21-.07-.24-.16-.04-.19.02-.43,0-.63h-.48c-.16-.41.22-.49.24-.55.15-.64-.22-.64-.23-.71-.04-.17.04-.72,0-.75-.03-.02-.56.03-.67-.27-.14-.39.17-.51-.51-.44.09-.19-.12-.62-.27-.67-.18-.07-1.68-.09-1.91-.04-.13.03,0,.35-.31.24v-.59h-2.01s-.3-.51-.52-.66c-.75-.53-1.18-.71-1.87-1.47-.1-.1-.24-.53-.41-.58-.13-.03-.29.02-.42,0-.11-.02-.03-.22-.25-.24-.2-.02-.76-.03-.94.01-.1.02-.03.22-.25.24-.87.09-1.9-.09-2.79,0v-.48c-.23-.03-.53.05-.75,0-.09-.02-.07-.21-.16-.23-.29-.07-.71.06-1.02,0-.07-.02-.17-.32-.83-.47-.04,0-.6-.45-.65-.47-.11-.03-.31.04-.37-.02l-.02-.33h-.7s0-.49,0-.49c-.57.31-.87-.59-1.1-.68-.15-.06-.41,0-.44-.04s.02-.29-.04-.44c-.02-.04-.43-.29-.44-.33-.08-.35.21-.26.24-.37.05-.24-.05-.55,0-.79.02-.1.22-.02.24-.25.02-.2.03-.76-.01-.93-.02-.09-.22-.07-.23-.16-.04-.2.04-.45,0-.67-.02-.09-.39-.27-.43-.35-.08-.13-.26-.86-.29-.9-.1-.12-.84-.13-.57-.85h-.48c.17-.57-.38-1.25-.95-1.18-.13-.49.44-.69.47-1.06-.46-.13-.42-.66-1.06-.47v-.71s-.47,0-.47,0c.16-.39-.22-.49-.23-.56-.18-.77-.39-.62-.44-.77-.08-.22,0-.41-.04-.6,0-.04-.46-.59-.47-.63-.1-.38.06-1.03,0-1.46h-1.77c.02.2-.04.44,0,.63.02.09.21.07.23.16.06.27-.06.63,0,.9,0,.02.22.3.23.32-.08,0-.16,0-.24,0-.78,0-.46-.55-1.18-.47v-1s-.34-.07-.34-.07c-.07-.07.04-.65-.01-.86-.02-.09-.21-.07-.23-.16-.08-.32.07-.8,0-1.14-.01-.06-.75-.79-.94-.56v8.94c.5.66.14,1.86.23,2.72.02.23.23.11.26.34.06.63-.08,1.4-.02,2.03.02.23.23.11.26.34.05.51-.11,1.32,0,1.76.02.09.21.07.23.16.06.27-.06.64,0,.91.02.09.21.07.23.16.08.34-.05.9,0,1.28l.37.13c.05.41-.1,1.02,0,1.39.02.09.21.07.23.16.07.3-.07.73,0,1.02.02.09.21.07.23.16.12.5.12,1.34.24,1.85.02.09.21.07.23.16.08.32-.08.82,0,1.14.02.09.21.07.23.16.12.52.12,1.36.24,1.85.01.05.46.81.47.87.05.2-.04.42.01.63l.35.07c.03.28-.07.66,0,.92.01.05.46.81.47.87.06.29.14.94.27,1.19.5.97.7,2.1,1.19,3.19.02.04.18.03.2.12.04.17-.05.56.01.62l.33.02c-.13.38.24.5.25.54.15.67.17.97.48,1.6.41.82.59,1.51.95,2.25.07.14.34.14.24.56l.33.02c-.18.62.31.62.45.86.06.11,0,.27.05.34.49.91.93,1.11,1.17,2.26.02.09.19.05.23.17.03.11-.04.29.02.37.18.22.26-.16.61.69.26.63.82,1.34,1.18,2.01.03.06.39.27.4.3.11.3-.08.49.32.76.09.06.26.02.29.06.06.07,0,.28.05.43.02.04.59.46.64.54.07.12,0,.28.07.4.2.36.22-.03.44.77.03.11.38.27.43.36.07.12,0,.28.08.4.1.19.64.35.75.55.33.59.7,1.15,1.02,1.7.1.16.82.66.91.83.11.2-.03.48,0,.5.04.02.2-.03.31.04.44.29,1.49,1.55,1.94,2.01.7.71,1.37,1.52,2.16,2.33.89.92,1.96,1.99,2.92,2.92.16.15.92,1.04.98,1.06.36.15.52-.19.44.51.16-.07.7.18.79.27.03.03.16.47.3.52.38.14.51-.18.44.51.5-.25,1.21,1.06,1.45,1.15.19.07.48-.01.55.05.05.04.48.85.76,1.01.11.07.29,0,.4.07.08.05.49.62.54.65.09.05.26-.06.41-.01.14.04.36.46.42.48.15.06.36,0,.43.05.04.03.27.6.52.77.1.06.28,0,.34.05.83.51,1.49,1,2.31,1.45.24.13.26.52.28.54.07.06.36-.02.55.05.03,0,.24.37.3.4.71.39,1.57.68,2.18,1.02.2.11.24.59.73.45l.02.32c.44-.18.61.41.73.46.76.28,1.71.62,2.42,1.02.16.09.4.46.63.43-.02-.2.04-.44,0-.63-.02-.09-.21-.07-.23-.16-.04-.18.06-.54-.02-.62-.03-.03-.54-.07-.58-.42-.06-.51.22-.39.24-.49.05-.21-.06-.79.01-.86l.35-.07v-.58s-.35-.07-.35-.07l-.02-.52.37-.13c.03-.45-.06-.98-.02-1.42.02-.2.34-.12.25-.83-.02-.15-.44-.39-.26-.87l-.35-.07c-.06-.48.11-1.2,0-1.63-.02-.1-.22-.03-.24-.25-.17-1.59.19-3.52.02-5.1-.02-.24-.28-.05-.26-.59.02-.4.23-.22.26-.46.07-.67.07-2.3,0-2.97-.02-.22-.22-.15-.24-.25-.05-.24.05-.55,0-.79-.02-.09-.21-.07-.23-.16-.06-.27.06-.64,0-.9-.02-.08-.18-.08-.2-.12-.08-.19-.04-.49-.31-.64-.12-.07-.28,0-.4-.08-.05-.03-.21-.3-.32-.39-.07-.06-.46-.2-.5-.31-.12-.31,0-.71-.04-1.03h-.71c.18-.5-.33-.54-.44-.74-.17-.31-.08-.8-.75-.67v-.59s-.59,0-.59,0c0-.15.03-.29-.03-.44-.02-.05-.67-.68-.71-.7-.12-.07-.28,0-.4-.07-.14-.08-.67-.7-.51-.91-.75.1-.46-.06-.63-.31-.11-.16-.62-.65-.67-.84-.06-.23.04-.53,0-.78,0-.05-.67-.62-.7-.76-.05-.25.06-.57,0-.79-.02-.09-.42-.06-.24-.31,0-.01.21.04.24-.08.04-.17.03-1.66,0-1.85-.03-.16-1.21-.92-1.26-1.06-.09-.26.03-.52-.07-.77-.03-.07-1.03-.87-1.11-1.01-.06-.11-.01-.26-.07-.4-.02-.04-.18-.04-.2-.12-.05-.2.06-.65-.02-.74-.03-.03-.2,0-.29-.05-.43-.28-.43-1.05,0-1.33.09-.06.27-.03.29-.05.07-.08-.02-.35.02-.5.01-.05.4-.17.24-.55h.71c.1-.32-.19-.17-.23-.33-.1-.38-.23-.44-.24-.46-.08-.33.05-.86,0-1.22h.47c-.13-.67.37-.58.67-.75.36-.2-.05-.25.78-.44.04,0,.6-.46.64-.47.19-.05.43.02.63,0-.2-.45.23-.63.23-.67.08-.35-.07-.89,0-1.26.02-.09.42-.31.43-.35.07-.17.08-.77.03-.96-.02-.1-.22-.03-.24-.25-.06-.54-.06-1.84,0-2.38.02-.19.4-.23.25-.64.45-.2.63.22.67.23.5.12,1.15-.28,1.34.47h.18c.18-.26.54-.55.89-.47v-.47c.46-.09.8.27.71.71h.71s-.04-.67,0-.87c.02-.09.21-.07.23-.16.05-.22-.03-.51,0-.75.44-.2.56.53.6.57.08.08.44-.02.62.02.04,0,.59.46.63.47.44.12.39-.21.48-.23.17-.04.62-.03.82-.01.28.03.05.34.4.25l.24-.47c0,.13.46.65.51.67.11.06.26.01.4.07.04.02.03.18.12.2.23.06,1.27-.14.98.24-.45-.05-.16.73-.23,1.07.43.1.17-.52.24-.77l.24-.06c-.04.2.21.22.24.32.08.34.13.61.28.94.02.04.35.12.2.51.17.02.36-.04.52,0,.04,0,.32.79.31-.23h.18c.11,0,0,.21.14.24.48.12,1.45-.15,1.91.03.03.01.49.49.5.52.06.28-.06.64,0,.9.02.08.18.08.2.12.06.14.01.29.07.4.03.06.39.27.4.3.1.29-.07.68.31.88.12.06.26.02.4.08.04.02.04.18.12.2.22.05.51-.03.75,0v-.41s.23-.06.23-.06c.33.38.17.58.24.98,0,.04.47.51.5.52.33.13.83-.04,1.19.04.04,0,.5.47.52.5.06.11,0,.28.08.4.11.2.43.32.66.29l.02.32h.45s.02-.33.02-.33l.52-.02c.13.57.36.47.74.64.56.24.55.24,1.03.62.27.22.68.2.54.76l.47-.24c.05.06-.05.78,0,.99.01.05.46.81.47.87.04.19-.02.43,0,.63.75-.01,1.21.2,1.3-.64.03-.31.28.08.33.15.03.03.19-.06.14.19-.47.22-.33.68.24.53v.59s.56-.59.56-.59c.34.03.84-.08,1.14,0,.05.01.16.38.54.25l.02.32c.06.06.26-.01.37.02.27.08.65.52.85.66.08.06.26.02.29.06.06.08-.01.27.03.37.14.32.51.62.66.85.06.09.02.26.05.29.1.09.85-.04,1.09.02.09.02.07.21.16.23.55.14.51-.22.59-.24.53-.14.6.78,1.34.47v.48c.51.11.49-.41,1.06-.24-.1.38.24.81.64.71.09-.02.02-.22.24-.25.67-.07,1.92.16,2.48.01.1-.03.05-.39.31-.24,0,0,0,.13.05.18.55.52.56.64,1.49.52v.48s.71,0,.71,0c-.18.46.17.58.2.63.11.24,0,.41.32.63.09.06.26.02.29.06.07.08-.01.27.03.36.02.05.22.44.27.53.06.11.42.43.44.57.09.71-.44.67-.48.86s.03.38,0,.55c-.02.09-.22.06-.24.16-.03.15.05.42-.02.5-.02.03-.2,0-.29.05-.34.23-.22.46-.32.63-.08.13-.89.76-.91.83-.03.18.03.38,0,.55-.02.11-.33.02-.24.37.01.05.22.04.24.14.04.18-.04.38,0,.56.02.09.35.02.23.47-.02.08-.39.27-.43.35-.07.12-.49.84-.51.89-.04.12.03.34,0,.38-.02.02-.38-.03-.56.03-.06.02-.75.89-.82.91-.25.05-.55-.05-.78,0-.09.02-.06.21-.16.23-.15.03-.3-.03-.48.04-.06.02-.63.94-.77.99-.27.1-.56-.02-.83.04-.08.01-.26.36-.37.43-.09.06-.26.02-.29.05-.1.11.05,1.16-.02,1.45-.01.04-.46.59-.47.63-.06.23.04.53,0,.78-.01.07-.66.54-.67.58-.18.47-.31.8-.55,1.24-.18.33-.75.14-.54.74l.35.07-.03.52c-.32,0-.53.32-.76.54-.06.06-.05.33-.28.17-.04-.03.1-.27-.31-.23-.23.02-.15.22-.25.24-.48.13-.39-.42-.63-.23-.01.01.04.2-.08.23-.16.04-.72-.05-.75,0v.48s-.68-.04-.87,0c-.07.02-1,.59-1.18.67-.15.07-.86.26-.89.29-.08.07-.15.8-.73.57.06.46-.1,1.15,0,1.57,0,.02.23.32.28.39.04.06.35.05.19.28-.03.04-.28-.11-.24.31.02.23.22.15.25.25.15.55-1.01.89-.95,1.46l-.35-.12c.11.44-.09.51-.24.82-.29.13-.2-.21-.31-.24-.57-.13-.31.15-.43.44-.03.06-.9.76-.91.82-.05.26.07,1.11-.02,1.21-.03.03-.2,0-.29.06-.34.22-.22.45-.32.63-.02.03-.43.46-.47.47-.19.07-.98.07-1.22.04-.22-.02-.15-.23-.25-.25-.44-.09-.68-.04-1.13-.25-.08-.04-.51-.25-.53-.26-.27-.18-.93-1.4-.85-.21l.32.02c-.23.47.85,1,.93,1.2.07.18,0,.36.07.54.02.05.6.55.73.69.08.09.27,0,.18.28-.46.08-.39.41-.51.68-.02.05-.37.17-.2.63-.04.04-.68-.04-.87,0-.1.02-.03.22-.25.24-.44.05-1.47.05-1.91,0-.17-.02-.3-.44-.76-.25l.02.46.35.08v1.36c-.37-.06-.9.08-1.23,0-.03,0-.14-.14-.46-.24-.15-.05-.04-.36-.32-.23l-.24.41c.26.18.54.54.48.88.39-.16.5.23.55.24.24.06.54-.05.78,0,.03,0,.4.39.48.43.35.2.7.2,1.06.28.09.02.07.21.16.24.27.06.64-.06.91,0,.09.02.07.21.16.23.2.05.42-.04.63.01v.33c.21.05.44-.03.64.01.09.02.07.21.16.23.27.06.64-.06.91,0,.05.01.81.46.87.47,1.65.34,3.21.8,4.96.94.34.38.67.23,1.17.24l.13.37c.45.03.98-.06,1.42-.02.22.02.15.22.25.24.39.09,1-.09,1.38,0,.09.02.07.21.16.23.3.07.72-.07,1.02,0,.1.02.03.22.25.24.85.09,1.88-.1,2.74-.02.23.02.11.23.34.26.82.08,1.8-.1,2.62-.02.23.02.11.23.34.26,2.21.22,7.39.22,9.6,0,.23-.02.11-.23.34-.26.51-.05,1.31.11,1.76,0,.1-.02.03-.22.25-.24.63-.07,1.68.14,2.24,0,.09-.02.07-.21.16-.23.38-.09,1,.09,1.38,0,.09-.02.07-.21.16-.23.45-.11,1.25.06,1.76,0,.22-.02.15-.22.25-.24.35-.08.89.05,1.28,0l.13-.37c.34-.02.74.05,1.07.02.22-.02.15-.22.25-.24.3-.07.73.07,1.02,0,.09-.02.07-.21.16-.23.27-.06.64.06.91,0,.55-.13,1.13-.33,1.78-.47.09-.02.07-.21.16-.23.3-.07.73.07,1.02,0,.09-.02.07-.22.16-.24.44-.09.94-.14,1.38-.24.09-.02.07-.21.16-.23.23-.06.55.03.8,0l.07-.35c.2-.05.42.03.63-.01.09-.02.07-.22.16-.24.73-.16,1.2-.21,1.9-.51.86-.38,1.82-.55,2.72-.95.04-.02.03-.18.12-.2.2-.05.47.02.68,0l.07-.35c.42.1.42-.17.56-.24.41-.19.83-.26,1.24-.44.92-.4,1.64-.77,2.6-.99.16-.04.34-.67.79-.48l.02-.33c.07-.07.45.03.62-.01.09-.02.06-.21.16-.23.71-.16,1.15-.64,1.79-.94.4-.19,1.38-.38,1.63-.77.06-.09.02-.26.06-.29.07-.06.28,0,.43-.05.03-.01.49-.49.5-.52.14-.65-.21-.63-.23-.71-.06-.27.06-.64,0-.91-.01-.05-.4-.16-.23-.55h-.47c-.06-.05.06-1.31,0-1.58-.03-.11-.33-.03-.24-.37.01-.05.18-.05.2-.09.21-.38-.1-2.25.04-2.85.02-.1.22-.03.24-.25.04-.34.04-1.1,0-1.44-.02-.22-.22-.15-.24-.25-.12-.52.07-.54-.2-1.14-.2-.45-.41-1.14-.28-1.66.03-.1.39-.05.24-.31,0,0-.13,0-.18-.05-.24-.26-.6-.41-.62-.44-.06-.07,0-.26-.02-.37-.04-.13-.3-.01-.24-.51.03-.23.22-.15.25-.25.07-.29-.08-1.48.01-1.57h.33c-.15-.47.19-.58.21-.63.14-.34.37-.81.55-1.11.14-.24,1.28-.82.44-1.1v-.23c.69.26.7-.88,1.03-.94.28-.06.64.06.9,0,.09-.02.07-.21.16-.23.3-.07.73.07,1.02,0,.08-.02.08-.16.13-.19.28-.18.39.09.31-.63.19.22.93-.5.94-.56.09-.48.07-.35.2-.66.26-.59.39-1.02.51-1.66.03-.16.59-.23.47-.72-.02-.09-.22-.02-.25-.24-.03-.27.07-1.56,0-1.61-.04-.03-.28.03-.44-.03-.03-.01-.46-.44-.47-.47-.08-.22,0-.41-.03-.6-.02-.09-.22-.07-.24-.16-.24-1.1-.1-.42-.44-1.02-.08-.13-.26-.86-.29-.9-.03-.04-.2,0-.29-.06-.46-.31-.2-.55-.29-.94-.01-.06-.41-.77-.51-.99-.02-.05-.31-.01-.2-.43.02-.08.22-.06.24-.15.05-.21-.05-.46,0-.67.06-.25.65-1.32.71-1.58.05-.21-.05-.49,0-.68.01-.06.8-.17.56-.75-.08-.19-.63-.25-.56-.44.04-.11.2-.02.31-.1.5-.36.45-1.01-.3-.77l-.07.35c-.38.04-.93-.09-1.28,0-.09.02-.07.21-.16.23-.32.08-.82-.08-1.14,0-.09.02-.07.21-.16.23-.71.17-2.12-.09-2.95,0-.23.02-.11.23-.34.26-.32.03-1.5.05-1.76-.01-.1-.02-.03-.22-.25-.24-.39-.04-1.28-.04-1.67,0-.22.02-.15.22-.25.24-.24.05-.55-.05-.79,0-.1.02-.02.22-.25.24-.67.07-2.31.07-2.97,0-.09-.01-.69-.47-.73-.48-.12-.03-.26,0-.39,0-.13-.41.27-.59.43-.87.04-.08.27-.48.28-.51.06-.25-.03-.6,0-.87-.48.21-.74-.23-.88-.25-.5-.05-1.08.09-1.58-.03l-.7-.83c.04-.37-.19-.38-.27-.53-.04-.06.01-.23-.05-.34-.22-.41-.63-.21-.95-.27-.1-.02-.02-.22-.25-.25-.35-.04-.85.08-1.17,0-.09-.02-.06-.21-.16-.23-.13-.03-.29.03-.42,0-.19-.05-.41-.68-.6-.78-.17-.1-.67-.22-.87-.31-.73-.34-.83-.5-1.73-.67-.09-.02-.31-.45-.4-.47-.4-.08-1,.09-1.37,0-.09-.02-.06-.19-.17-.23-.1-.03-.29.04-.37-.02-.04-.03,0-.21-.06-.29-.03-.04-.48-.51-.52-.52-.58-.12-1.54.13-2.08,0-.09-.02-.07-.22-.16-.24-.17-.04-.37.03-.55,0-.12-.02-.34-.6-.65-.49v-.45s.34-.07.34-.07v-.76c-.63.22-.63-.31-.87-.44-.12-.07-.28-.01-.4-.08-.51-.26-.16-1.19-.27-1.66-.02-.09-.22-.07-.24-.16-.13-.64-.11-1.56-.24-2.09-.02-.09-.21-.07-.23-.16-.04-.16-.04-1.33,0-1.5.01-.04.46-.59.47-.63.07-.31-.13-.74.27-.95.13-.07.29-.01.4-.08.03-.02.46-.43.47-.46.08-.22,0-.41.03-.6.02-.09.21-.07.24-.16.18-.74-.12-2.12,0-2.93l.37-.13v-1.88s-.35-.07-.35-.07c-.03-.03-.04-.64,0-.69.02-.02.41-.05.53-.29.31-.57.5-1.08.76-1.64.14-.31.9-1.18.94-1.36.03-.15-.05-.42.02-.5.03-.04.7-.29.78-.51.09-.24-.01-.48.04-.72,0-.03.39-.4.43-.48.15-.27.21-.73.31-1,.02-.05.71-.72.76-.73.28-.06.64.06.9,0,.08-.02.08-.18.12-.2.54-.24.9-.26,1.34-.79.1-.12-.06-.39.38-.32-.18-.48.25-.73.26-.87.05-.5-.12-1.32,0-1.76.02-.08.18-.08.2-.12.06-.14.01-.3.07-.4.15-.26,1.12-.94,1.34-1.26.06-.09.02-.27.05-.29.07-.06.36.02.55-.05.03,0,.24-.37.3-.4.47-.25.88-.53,1.35-.78.07-.04.21-.32.32-.4.09-.06.27-.02.29-.05.07-.08-.02-.35.02-.5.05-.22.66-.77.67-.82.12-.33.14-.73.31-1.12.02-.04.18-.03.2-.12.04-.17.03-.55-.03-.72-.03-.08-1.15-1.19-1.23-1.21-.28-.06-.64.06-.9,0-.05-.01-.16-.4-.55-.24-.03-.24.04-.51,0-.74s-.91-.42-.71-1.19c.04-.14.3.02.24-.25-.02-.11-.21-.01-.24-.14-.03-.13-.03-.77,0-.91.02-.09.22-.07.24-.16.04-.18-.04-.38,0-.55,0-.04.46-.59.47-.63.11-.43-.1-1.17,0-1.61.02-.1.22-.03.24-.25s.03-.84-.01-1.05c-.04-.17-.59-.23-.47-.71.09-.36.71-.28.92-.35.02,0,.27-.39.29-.4.17-.07.77-.08.96-.03.1.02.03.22.25.24,1.01.11,2.79-.22,3.66,0,.08.02.26.15.71.24.06.01.08.43.64.2.03-.01.46-.44.47-.47.26-.68-.12-2.68.03-3.52-.48.2-.59-.4-.8-.47-.12-.04-.33.03-.38,0-.08-.06.22-.81-.28-1.14-.27-.18-.4.09-.31-.64h-.35s-.12.36-.12.36c-.1-.68-.74-.97-1.42-.83-.07-.39.28-.07.24-.54-.03-.3-.33-.05-.24-.41.41.16.45-.22.64-.25.17-.02.54-.02.7.01.1.02.03.22.25.24.37.04,1.5.08,1.6-.33.14-.55-.22-.51-.23-.58-.04-.18.03-.38,0-.56-.02-.12-.36,0-.24-.31.51-.2.57.44.88.48.61.09.52-.22.62-.24.14-.03.49.03.51,0,.03-.04-.03-.26,0-.38.11-.32.64-.4.94-.33v-1.54c.2-.02.44.04.63,0,.09-.02.07-.22.16-.23.31-.07.91-.06,1.2-.27.03-.03.03-.38.26-.2.03.03-.06.37.48.23-.17-.39.22-.5.24-.55.07-.27-.06-.64,0-.91.01-.05.4-.16.23-.55.51.1.92-.18.83-.71h.23c-.13.36,1.24.29,1.46.24.09-.02.07-.21.16-.23.24-.05.53.04.78,0,.04,0,.51-.46.52-.49.19-.38-.4-.48-.44-.65-.06-.31.04-.7,0-1.02-.66-.3.18-.26-.01-.54,0-.01-.14.01-.18-.05-.41-.59-.1-.95-.53-1.43v-.78s.72,0,.72,0v-.59s.41,0,.41,0l.06-.24-.32-.24c-.1-.02-.21-.02-.31,0-.16.04-.27.57-.56.47-.13-1.24,1.56-.19,1.42-1.42h.47c-.02.2.04.44,0,.63-.02.07-.4.13-.23.83.02.09.21.07.23.16.04.19-.02.43,0,.63h.59s0,.47,0,.47c-.37.06-.13-.37-.59-.24.04.16-.18.9-.24.95-.02.02-.21-.06-.24.08-.04.15-.03.86,0,1.06.02.22.23.15.25.25.04.18-.06.5.03.61.05.06.19,0,.21.02.01.01-.03.14.04.2.2.16.56.23.75.31.05.02,0,.18.21.21.61.08.47-.33,1.01-.25v-.47c.32-.11.19.22.31.24.21.04.47-.05.68,0,.05.01.28.15.71.24.1.02.02.22.25.25.75.09.77-.22.86-.24.48-.11.69-.06,1.19-.27.07-.03.86-.44.91-.45.28-.03.61.04.9,0v.48c.3.05,1.11.03,1.18-.32.05-.25-.04-.53,0-.78.02-.08.28-.12.24-.32.3-.13.19.21.31.24.15.03.35-.02.52,0-.03-.24.05-.53,0-.75-.02-.1-.22-.02-.24-.25-.05-.44-.05-1.47,0-1.91.01-.09.47-.69.48-.73.03-.12,0-.26,0-.39.15-.27,1.19.6.95.95h1.06s0-2.25,0-2.25h-.59s0-1.18,0-1.18c.45.2.63-.22.67-.23.3-.07.75.07,1.03,0,.09-.02.07-.42.31-.24.01.01-.04.2.08.23.13.03.54.03.67,0,.09-.02.03-.35.48-.24.06.02.13.4.55.24v-.48s.88,0,.88,0l.07-.35h1s.06-.25.06-.25c-.23.05-.45-.45-.55-.47-.28-.06-.64.06-.9,0-.05-.01-.16-.4-.55-.24v-.71c-.4-.17-.5.23-.55.24-.43.09-.63.22-.71.24-.32.08-.8-.07-1.14,0-.08.02-.5.62-.59.67-.12.07-.28,0-.41.07-.07.04.01.28-.32.2-.14-.03-.16-.64-.94-.48-.04,0-.32.78-.31-.23h.48c.23-.19-.5-.93-.56-.94-.57-.12-.68.29-.64-.59h-.33c-.09-.1.05-1.08-.01-1.35,0-.03-.18-.32-.27-.52-.02-.04-.18-.03-.2-.12-.16-.67.28-.69.23-1.22h.59c-.26-.44.62-.81.68-.97.06-.18,0-.33.04-.48.02-.1.22-.07.23-.16.05-.25.1-.8.23-1.02.05-.08.22-.06.24-.16.15-.65-.22-.64-.23-.71-.05-.22.03-.51,0-.75-.27-.03-.62.06-.87,0-.1-.02-.03-.22-.25-.24-.32-.03-.71.03-1.05.01l-.79.79c.05.4-.09,1.01,0,1.38.03.11.28,0,.24.38-.02.22-.18.16-.21.21-.05.11-.24.73-.29.77-.07.06-.27-.01-.42.06-.06.03-.44.42-.48.43-.2.04-.42-.01-.63,0v.71s-.47,0-.47,0v.71s-.47,0-.47,0c-.11.39.22.28.25.52.09.7-.23.63-.25.83-.08.76.21.82.24.98.06.26-.05.62,0,.9.07.36.72.28.92.35.1.03.54.8.86.74v.93s-.35.07-.35.07c.13,1.09-.56.98-1.43.94.03.27-.06.62,0,.87.02.1.22.03.24.25.02.24.02.72,0,.96-.02.19-.34.3-.26,1.07.01.14.46.41.25.88-.39.09-.1-.31-.41-.24-.11.02-.01.21-.14.24-.9.23-1.94-.54-1.7,1.18h-1.3s0-.71,0-.71c-.08-.01-.16.01-.24,0,.04-.34.21-.2.24-.32.04-.17.03-.96,0-1.14-.04-.17-.97-.6-.71-1.03h-.47s0-1.22,0-1.22c-.55-.35-.52-.62-.47-1.27-.52-.28-.77.44-.91.47-.2.04-.39-.04-.6.04-.04.01-.49.63-.53.64-.23.09-.45,0-.67.05.05.4-.62.67-1,.57-.09-.02-.07-.21-.16-.23-.18-.04-.54.06-.62-.02-.03-.03,0-.2-.05-.29-.18-.26-.59-.25-.43-.75h.48s0-.95,0-.95c-.42-.17-.5.23-.53.24-.16.04-.58-.25-.53-.42.02-.07.34-.08.25-.4l.58-.02c-.18-.31.47-.72.24-.95s-.57.36-.83.24v-.48s-.71,0-.71,0c-.12-.32.22-.19.24-.31.03-.18-.04-.38,0-.56,0-.05.48-.21.16-.43h-.4s0-.71,0-.71h.71s-.47-.71-.47-.71h1.54c.21-.2-.81-.56-.41-.83h.65c.1-.41-.07-.37-.16-.48-.33-.41.53-.15.84-.27.02,0,.22-.33.31-.4.2-.14.41.11.31-.52.66-.17.71.37,1.34.23.12-.03.81-.82.56-1.06-.2-.06-.32.16-.42.29-.07.09-.23.41-.29.54l-.23-.06c-.08-.59.17-.49.2-.57.24-.58.33-.45.47-.71.07-.12.01-.28.08-.4.23-.45.97-.22,1.03-.27.02-.2-.04-.44,0-.63.02-.08.16-.08.19-.13.06-.1.03-.26.05-.29.08-.08.53.02.7-.02-.17-.43.23-.48.24-.53.06-.28-.21-.11-.24-.25-.05-.18.03-.44,0-.64h.48s0-.47,0-.47h.83c.02-.24-.04-.51,0-.74.02-.12.46-.27.48-.5.03-.37-.39-.28-.25-.77.19,0,.37.1.56.04.23-.08.77-.77-.03-.63-.15.03.09.48-.29.36v-.59c.99.07.59-.76.71-1.34.03-.14.45-.3.47-.32l.59-.07v-.52s.47,0,.47,0v-.71ZM118.25,19.76c-.18-.27-1.19.61-.95.95.39-.17.5.22.55.24.58.14,1.21-.05,1.1-.71h-.71s0-.47,0-.47ZM96.12,36.92c-.3.04-.71-.07-.98,0-.04.01-.6.46-.64.47-.12.03-.26,0-.38,0v.47c.68.03,1,.08,1.53-.32l.48-.62ZM214.91,43.19l-.24.06v.65c.1.1.96-.23.83.24-.39-.06-.37.38-.83.24v.47s.46.02.46.02c-.06.45.19.28.32.38.24.2.49.54.74.77.05.05-.01.22.26.14v-1.22c-.57-.47-.86-.67-.71-1.5-.1-.1-.93.22-.83-.23ZM211.69,44.41c-.51-.29-.79.48-.68.95.02.08.18.08.2.12.06.14.01.3.07.4.05.09.57.43.64.54.03.05.15.6.28.67.26.16.21-.21.31-.24.21-.05.89.09.99-.32.19-.86-.57-.6-.47-1.33-.73.09-.46-.04-.64-.31-.21-.32-.39-.22-.63-.32-.04-.02-.04-.14-.07-.16ZM89.14,45.2c-.4-.17-.49.22-.55.24-.23.05-.48-.06-.72.04-.05.02-.68.67-.7.71-.07.12,0,.28-.07.4-.11.2-.63.25-.44.74h.71s0-.71,0-.71c.27-.03.62.06.86,0,.08-.02.08-.16.13-.19.09-.06.26-.02.29-.06.06-.06,0-.28.06-.42s.66-.28.44-.74ZM196.57,47.33h-.35s-.27.79-.27.79c-.58.33-.57.69-.2,1.22.29.14.19-.21.31-.24.15-.03.3.03.48-.03.03-.01.49-.49.5-.52.17-.76-.27-.61-.43-.91-.07-.13-.02-.27-.04-.31ZM93.05,48.39l-.85.25c-.59.32-1.03.77-1.44,1.24-.08.1-.19.18-.27.28h-1.33c-.12-.31.21-.18.24-.31.11-.46-.25-.85-.71-.75.05.37-.08.89,0,1.22.02.06.4.14.24.55-.62-.22-.63.31-.86.44-.12.07-.28,0-.4.07-.3.17-.28.7-1.15.44-.33.04.44.81.49.83.66.14.63-.21.71-.23.26-.06.62.05.9,0,.04,0,.54-.64.55-.68.04-.12-.03-.33,0-.38.04-.05.74.07.92-.04l1.36-1.35c.59.01.35-.15.48-.34.07-.09.39-.28.4-.31.06-.15.01-.41.04-.44.03-.03.79-.01.71-.48ZM218.92,49.12h-.22s-.24.46-.24.46c-.38.11-.08-.32-.47-.23-.17.28.29.91.51,1.03.11.06.26.01.4.07.04.02.1.35.51.2-.12-.53.37-.41.23-.98-.06-.27-.59-.3-.68-.36-.05-.03-.02-.17-.04-.19ZM86.65,49.35s-.62-.04-.74-.01c-.05.01-.16.4-.55.24v.59s1.29-.01,1.29-.01v-.8ZM92.57,53.36c-.32-.11-.19.21-.31.24-.24.05-.54-.05-.79,0-.06.01-.27.34-.37.42-.2.16-.6.19-.55.62l-.46.02c.07.68-.06.37-.44.51-.26.1-.56.93.17.64.06-.02.71-.86.77-.88.18-.07.35,0,.53-.07.11-.04.42-.72.53-.76.43-.15,1.02.06.92-.75ZM96.36,55.14l-.75.67c-.47.02-.23.21-.34.48-.02.05-.42.27-.44.35-.05.23.02.51,0,.74.42.13.41-.13.52-.19.1-.06.27-.03.29-.05.07-.08-.02-.35.02-.5,0-.03.23-.44.27-.52.15-.27.67-.25.44-.98ZM97.78,60.34c-.16,0-.29-.02-.44.04-.06.02-.92.88-.94.94-.22.56.19.58.2.64.1.49-.06.93.71.87.05.03-.04.79,0,.98.02.1.22.03.24.25s-.06,1.2,0,1.25h.53c.13-.02.03-.25.07-.39.03-.11.22-.08.23-.17.04-.18-.03-.38,0-.56.02-.12.36,0,.24-.31h-.47s0-1,0-1l-.35-.07c-.07-.07.04-.65-.01-.86-.02-.09-.21-.07-.23-.16-.16-.7.22-.76.23-.83.04-.19-.02-.43,0-.63ZM95.89,61.88c-.31-.12-.19.21-.31.24-.16.03-.35-.02-.52,0-.16.41.22.49.24.55.15.64-.37.61-.23,1.22h.59c.01.12-.03.26,0,.38.01.04.46.6.47.64.06.25-.04.6,0,.87h.47c-.01-.18.03-.37.01-.54-.03-.23-.22-.15-.24-.25-.05-.24.05-.55,0-.79-.02-.09-.21-.06-.23-.16-.14-.68-.24-.48-.24-.51v-1.66ZM118.93,62.16c-.46-.22-.41.35-.91.2v.47s-.41,0-.41,0c-.25.03.17.51.47.49.24-.02.38-.46.5-.48.23-.05.5.02.74,0v-.41c-.25,0-.36-.25-.39-.26ZM104.76,65.08c-.18-.13-.34.44-.7.23v.83c.52-.15.45.21.48.23.18.13.29-.3.6-.3v-.69c-.37-.02-.35-.28-.37-.3ZM106.89,69.81l-.12-1.78c-.25.09-.89-.06-.94-.32-.03-.18.03-.36,0-.54-.06-.3-.71-.38-.98-.32-.08.02-.08.18-.12.2-.71.31-1.23.67-1.81,1.27-.38.39-.66.71-1.31.82l-.98,1.15c.38.12.28-.22.53-.25.5-.05.39.18.45.21.42.23.46-.19.52-.2.21-.04.45.04.67,0,.08-.02.75-.92.97-.95.16-.02.36.02.54,0l-.71.53c-.1.35.65.09.71.18v.48c.3-.04.7.06.98,0,.09-.02.07-.24.3-.3.26-.08.48-.03.72-.05.1.46.28.38.71.36v.18c-.03.09-.23.15-.24.18l-.65.24-.18-.36c.09.46-.13.29-.31.4-.05.03-.06.17-.13.19-.21.05-.46-.04-.67,0-.08.02-.07.18-.12.2-.21.09-.5.05-.63.3-.04.08.03.2,0,.29-.02.04-.27.51-.31.59-.1.18-.53.22-.44.56.01.04.4.04.24.69-.02.08-.16.05-.23.17-.04.08.03.26-.04.35-.05.06-.21.02-.21.03v2.25h.71s0-.71,0-.71h.48c-.19-.46.23-.59.24-.76.02-.16.03-.57,0-.7-.03-.11-.23-.07-.24-.08-.18-.25.21-.21.24-.31.04-.16-.04-.38,0-.56,0-.04.42-.21.25-.66h.33c-.05-.71.08-.36.45-.51.07-.03.77-.83,1.1-1.03l.71.12v1.71c-.38.13-.69.32-.59.78.17,0,.35.03.51,0s.27-.56.56-.47v1.18c.78.07.61-.39.71-.87.02-.09.22-.07.24-.16.04-.2-.04-.45,0-.67,0-.04.47-.51.5-.52.56-.22.57.18.64.2.89.22,1.01-.64.86-1.33-.02-.08-.35-.26-.43-.37-.06-.09-.02-.26-.05-.29-.11-.11-1.37.05-1.68-.02-.09-.02-.07-.21-.16-.23-.24-.06-.54.05-.79,0-.05-.01-.5-.42-.79-.47ZM221.66,71.35c.15-.75-.31-.35-.46-.49-.03-.03.01-.21-.05-.29-.08-.11-.67-.64-.67-.69.53-.2.47-.37.71-.69.08-.11.23-.07.24-.08.17-.26-.68-.44-.47-.83.63.17.55-.64,1.18-.48v-.47c-.27.03-.62-.06-.87,0-.09.02-.07.22-.16.24-.43.09-.65.09-1.07.27s-.34.1-.78.2c-.04,0-.17.38-.54.25l-.07.35h-1.24s.88.82.88.82c.02.86.54.35,1.08.35.74,0,.35.67-.34.48l-.55.59c-.43.01-.87-.01-1.3,0,.11-.78-.12-1.19-.95-1.07.06-.49.56-.53.95-.47.09-.54-.34-.83-.87-.71-.09.02-.07.21-.15.23-.45.12-.76-.43-.63-.83-.4.02-1.4-.15-1.53.33-.04.14.03.3-.04.47-.02.04-.66.51-.67.59-.06.31.06.72,0,1.02,0,.04-.41.58-.57.45.12.38-.24.49-.25.54-.07.29.06.71,0,1.02-.02.09-.42.31-.44.35-.06.18,0,.33-.04.48-.02.07-.44.13-.2.76.02.05.66.69.7.7.27.11.65-.13.56.27-.92-.19-.9.29-1.39.82h-1.37c-.25.44-.41.37-.76.52-.12.05.08.16-.51.2.07-.36-.18-.22-.41-.24-.18-.01-.42.04-.58,0-.1-.03-.06-.42-.31-.23-.02.01.04.2-.09.23-.34.1-.45-.22-.39.47h.47c.11.32-.21.19-.24.31-.11.48.34.32.24.76-.15,0-.69-.03-.71,0-.03.04.03.26,0,.38-.06.19-.49.43-.71.33-.05.19.01.16.08.24.02.03.4.43.43.44.16.07.4,0,.44.03.03.02-.03.58,0,.75,0,.04.4.23.33.6-.05.28-.76.28-.33.66,0,0,.02.13-.04.2s-.19.03-.2.04c-.27,0-.98-.05-1.12-.24-.06-.08-.02-.26-.09-.32-.18-.16-.14-.09-.37-.33-.08-.09-.42-.32-.43-.37-.04-.22.04-.46,0-.67-.02-.09-.22-.07-.24-.16-.13-.63-.21-.75-.51-1.31-.04-.08-.41-.27-.43-.36-.06-.28.03-.63,0-.92l-.35-.07c.19-.48-.24-.73-.26-.87-.05-.45-.07-.82.29-1.09.15-.11.4.08.31-.28h-.34c.16-.94-1.02-.52-1.19-1.04-.11-.33.22-.41-.47-.4.07-.25-.71-.95-.87-1.01-.28-.11-.41-.11-.71-.24-.14-.06-.29-.02-.4-.08-.37-.2-.22-.55-.28-.82,0-.03-.46-.49-.47-.52-.05-.21.06-.77-.02-.85-.03-.03-.18.01-.24-.02-.17-.08-.01-.31-.33-.23v.71s-.71,0-.71,0c-.03-.2.05-.45,0-.64-.04-.14-.29.03-.24-.25.02-.12.35.04.24-.3-.61-.18-.68.31-1.18.24-.14.44.18.46.2.5.23.42-.18.45-.2.52-.08.33.05.86,0,1.22.42-.13.42.16.57.23.08.04.23-.02.34.04.03.02.46.44.47.47.06.11,0,.27.04.34.12.26.64.9.67.95.06.15,0,.36.06.42.03.04.19,0,.29.06.05.03.05.16.14.19.35.1.44-.2.38.48.15,0,.3-.03.44.03.05.02.69.66.71.7.06.17,0,.33.04.47.15.56,1.47.23,1.92.33.03,0,.41.34.32.47h-1.66v1.24s-.34.08-.34.08l-.02.4.37.12v1.12s-.6,0-.6,0v.59c-.5-.07-.57.42-1.18.24v.71c-.31-.04-.69.06-.98,0-.09-.02-.27-.39-.36-.43-.12-.07-.28,0-.4-.07-.08-.04-.27-.42-.36-.43-.18-.03-.55.05-.62-.02-.03-.03.01-.18-.02-.24-.08-.17-.31-.01-.23-.33.37.22.52-.37.71-.23.04.03-.12.27.3.24.23-.02.15-.22.25-.24.25-.06.6.03.87,0l-.24.47h.53s.12.36.12.36c.38.04.08-.74.18-.83.47.21.74-.23.88-.24.47-.04.14.3.54.24-.02-.2.04-.44,0-.63-.02-.09-.22-.07-.24-.16-.04-.18.04-.38,0-.55-.02-.09-.21-.06-.23-.16-.03-.15.03-.3-.04-.48-.02-.06-.88-.92-.94-.94-.18-.07-.36,0-.54-.07-.04-.01-.5-.55-.5-.67h-.23s-.01.22-.01.22h-.23c-.08-.14-.24-.47-.32-.58-.31-.36-.97-.66-.86-1.19h-.59c.23-.44-.44-.65-.47-.79-.04-.21.03-.45,0-.66-.02-.09-.45-.31-.47-.4-.03-.18.03-.37,0-.54-.03-.14-.7-.36-.47-.79h-.59s-.07-.36-.07-.36h-.81c0,.24-.28.4-.3.45-.04.12.03.34,0,.38-.02.03-.47-.03-.63,0-.08.02-.31.42-.35.44-.18.07-.36,0-.53.07-.04.01-.27.42-.35.44-.48.12-.55-.44-.71-.47-.18-.03-.38.03-.55,0-.08-.02-.05-.37-.59-.23-.08.02-.08.18-.12.2-.14.06-.3.01-.4.07-.03.02-.5.49-.5.52-.03.16-.04.51,0,.67.02.07.39.08.23.71-.01.06-.4.16-.23.55-.03.04-.78-.04-.98,0-.09.02-.27.39-.36.43-.12.07-.28,0-.4.07-.03.02-.46.43-.47.46-.16.42.23.65-.51.56.15.39-.18.47-.2.51-.06.13-.01.28-.05.34-.07.13-.22.06-.24.26-.05.5-.07,1,.48,1.14v.18c-.36.08-.17.31-.27.5-.06.12-1.17.84-1.23,1.01-.09.24,0,.48-.04.72,0,.03-.38.44-.46.31.05-.31-.4-.28-.64-.23-.1.02-.03.22-.25.24-.5.05-1.32-.12-1.76,0-.08.02-.08.18-.12.2-.24.11-.24.07-.49.23-.09.06-.26.03-.28.06-.06.07,0,.26-.03.37-.04.12-.35.05-.23.48.02.07.16.07.19.12.06.1.03.27.05.29.08.07.35-.02.5.02.04,0,.59.46.64.47.29.07.73-.07,1.02,0,.1.02,0,.31.5.25.23-.03.16-.22.25-.25.35-.08.72-.18.95-.24.24-.06.54.05.79,0,.07-.02.08-.15.13-.19.18-.11.37.05.32-.38.5.15.64-.17.74-.22.57-.25,1.28-.38,1.89-.51.08-.02.07-.38.71-.23.1.02.03.22.25.24.72.08,2.49.08,3.21,0,.22-.02.15-.22.25-.24.3-.07.73.07,1.02,0,.09-.02.07-.21.16-.23.18-.04.84-.03,1.05-.01s.15.22.25.25c.35.08.84-.16,1.07.27.06.12.02.26.08.4.02.04.18.03.2.12.03.13.04.55,0,.67-.04.14-.3-.03-.24.25.02.09.34-.06.25.6-.03.2-.77.76-.95.97v1.28c.09.12.68.83.74.85.31.12.71-.02,1.03.05l.06.35.4-.02.08-.35h.81c0,.24.28.4.3.45.04.12-.03.33,0,.38.05.07,1.42-.08,1.74.04.42.16.2.96.27,1.3.01.06.34.27.42.37.06.07.2.47.31.51.18.06.33,0,.48.04.1.02.07.22.16.23.81.17,1.59.27,2.38.5.14.57.28-.02.33-.03.18-.05.44.03.63,0v-2.01s.38-.13.44-.27c.06-.16.01-.41.03-.44.02-.03.37.03.51,0,.03,0,.36-.19.46-.24.16-.08.03-.27.39-.24.23.02.15.22.25.25.43.09.63.22.71.24.32.08.79-.07,1.14,0,.26.05.39.89.64.94.18.03.38-.03.55,0,.09.02.07.21.16.24.32.08.82-.08,1.14,0,.09.02.07.21.16.23.24.06,1.46.04,1.76.01.22-.02.08-.34.71-.26.15.02.39.44.88.26l.07.35h.76s0-.6,0-.6c.2.03.46-.05.64,0,.14.04-.02.3.25.24.11-.02.01-.21.14-.24s1.26-.03,1.39,0c.04.01.15.6.54-.1.03-.06,0-.21.05-.34.02-.04.18-.03.2-.12.12-.49-.07-1.43,0-2,.02-.22.22-.15.24-.25.04-.17.04-1.1,0-1.26-.02-.08-.16-.08-.19-.13-.14-.22.1-.41-.51-.3l-.07.35h-1s0-.6,0-.6c.45.2.63-.23.67-.24,1-.21.43-.17.9-.44.1-.05.88-.2.67-.5-.01-.02-.2.03-.23-.08-.03-.12-.03-1.27,0-1.39.03-.13.36,0,.24-.31-.39.17-.5-.22-.55-.24-.77-.18-.54.08-.64.38-.15.45-.75.26-1.03.36-.05.02-.63.65-.5.79-.47.13-.13-.72-.24-.83-.27-.03-.6.05-.86,0-.15-.03-.38-.74-.68-.4v.65s-.47,0-.47,0v.59s-.46-.02-.46-.02c-.03-.58-.61-.69-1.12-.57-.09.02-.03.36-.59.23-.25-.06-.3-.52-.36-.67-.02-.04-.18-.04-.2-.12-.04-.16.03-.61,0-.63-.05-.03-.49.07-.67-.27-.06-.11-.02-.26-.08-.4-.18-.42-.1-.34-.2-.79-.02-.09-.22-.07-.24-.16-.04-.18.06-.54-.02-.62-.02-.02-.19,0-.29-.06-.04-.02-.04-.12-.15-.18-.07-.04-.22.01-.34-.05-.26-.14-.34-.51-.27-.79.58.16.54-.5,1.04-.49v-.45c-.22-.03-.4.09-.33-.25.45.2.59-.23.76-.25.19-.02.79-.03.94,0,.1.03.06.42.31.23.21-.16-.2-.09.51-.23.05,0,.33-.62.63,0,.42.11.39-.18.43-.2.51-.23.63-.11.96-.58s1.06-.57,1.46-.79c.08-.05.27-.41.36-.43.17-.04.74-.04.9,0,.09.02.07.21.16.23.24.06.55-.05.79,0,.08.02.08.18.12.2.14.06.29.01.4.07.37.2-.06.25.78.44.1.02.07.21.16.23.2.05.42-.04.63.01v.33c.21.05.44-.03.64.01.09.02.07.21.16.23.22.05,1.25.04,1.53.01.14-.01.4-.45.87-.26l.02-.33c.39.08.39-.13.51-.21.09-.06.26-.03.29-.06.06-.07,0-.26.03-.37s.39-.14.23-.56h-.59s0-.71,0-.71c-.61.22-.68-.63-.98-.79-.61-.33-.52-.4-.95-.71-.09-.06-.26-.02-.29-.05-.08-.09.03-.41-.02-.46-.02-.03-.36.03-.47,0ZM229.94,70.04h-.47s-.01.82-.01.82c-.05.05-.32-.05-.35.06-.1.54.11.33.31.46.05.03.05.17.13.19.19.05.43-.01.63,0-.02-.2.04-.44,0-.63-.02-.09-.21-.07-.23-.16-.05-.22.03-.51,0-.75ZM114.23,72.29s-.35,0-.44.04c-.15.06-.19.56-.66.44-.06-.02-.13-.4-.55-.24-.17.57.34.56.24,1.06-.31.12-.19-.21-.31-.24-.19-.04-1.18-.03-1.38,0-.04,0-.55.51-.55.55-.04.2.01.42,0,.63-.05.05-.78-.05-.98,0-.07.02-.72.58-.99.51l-.59.79c-.51.11-1.33-.27-1.45.48.24-.05.45.45.55.47.89.19.7-.25,1.02-.43.14-.08.93-.5.99-.51.44-.1.93.17,1-.58.67,0,.37-.02.46-.4.03-.1.18-.09.2-.13.06-.14.02-.28.08-.4.26-.48,1.29-.21,1.8-.26.22-.02.15-.22.25-.24.15-.03.61.03.63,0,.03-.05-.03-.26,0-.38.04-.12,1-.86.7-1.16ZM217.4,90.75l-.23.06c-.16.61.36.66.25,1.24h.33c.05.21-.03.43.01.63.02.09.45.32.47.4.05.29.15.95.27,1.19.25.48.42,1.13.71,1.65.17.3.67.25.45,1.09h.33c.08.09-.04.88.01,1.11.02.09.22.07.23.16.04.2-.04.45,0,.67.02.09.39.27.43.35.44.78.63,1.78,1.02,2.65.02.04.18.03.2.12.16.63-.22.64-.23.71-.05.22.03.51,0,.75h.83c-.17.38.23.5.24.55.09.42.22.64.24.71.11.48-.05.46.2,1.02s.16.8.28,1.31c.02.09.21.07.23.16.03.14.04.78,0,.91-.03.11-.22.07-.23.08-.16.22.11.21.17.28.38.4.78.67,1.11.98.13.13.93.99.95,1.06.07.31-.07.73,0,1.02.02.09.21.07.23.16.06.27-.06.63,0,.91.02.1.22.03.24.25.02.2.03.77-.01.93-.01.04-.46.59-.47.63-.05.22.03.51,0,.75.31.12.19-.21.31-.24.24-.05,1.14.07,1.22,0l.07-.35c.31-.03.75.08,1.04,0,.09-.02.07-.22.16-.24.17-.04.37.04.55,0,.08-.02.08-.16.13-.19.09-.06.26-.02.29-.06.07-.08-.01-.27.03-.36.04-.09.46-.6.47-.65.08-.32-.07-.82,0-1.14,0-.03.48-.3.23-.55-.23-.23-.52.23-.64.25-.9.09-1.19-.11-2.04.27-.05.02-.17.38-.63.2-.04-.19.21-.11.3-.23.12-.17.02-.44.06-.64.02-.09.21-.07.23-.16.07-.31.04-1.12-.32-1.22-.22-.06-.52.05-.7-.28-.09-.17-.23-.74-.31-.88-.03-.05-.19,0-.2-.09v-.18c.56-.15.51-.56.48-1.07h-.48s.03-.82.01-1.01c-.02-.22-.22-.15-.24-.25-.08-.33.07-.8,0-1.14-.02-.09-.45-.31-.47-.41-.07-.31.07-.73,0-1.02-.01-.05-.46-.7-.47-.75-.04-.17.05-.56-.01-.62l-.33-.02c.1-.42-.17-.42-.24-.56-.26-.54-.59-1.69-.72-2.31-.02-.09-.22-.07-.24-.16-.16-.74-.15-.83-.44-1.5-.23-.52-.13-.64-.58-.96-.42-.29-.84-1.49-1.03-1.93-.02-.04-.18-.03-.2-.12-.05-.19.02-.43,0-.63l-.47.47c.17-.39-.22-.5-.24-.56-.1-.43-.23-.55-.24-.59-.05-.21.06-.79-.01-.86l-.35-.07v-.65s-.23.47-.23.47c-.41.15-.47-.18-.51-.2-.14-.06-.29-.02-.4-.08-.14-.07-.52-.77-.8-.98-.11-.08-.35,0-.31-.28ZM231.92,90.78c-.25-.1-.54-.01-.8-.03v.47c.14-.09.83.26.84.31.04.19-.06.47,0,.68.01.05.46.81.47.87.09.38-.09,1,0,1.38.02.09.21.07.23.16.06.26-.18.72.24.63-.14-.42.17-.45.2-.51.06-.1.08-1.94.03-2.14-.01-.04-.46-.6-.47-.64-.03-.15.03-.3-.04-.48-.02-.05-.66-.69-.71-.7Z" style="fill:#aaabab;"/><path d="M194.56,54.07c.03-.28.33-.55.64-.48.12.03-.01.35.31.24l-.03-.45-.2-.26c.47-.12.38.18.71.24-.02.12.04.28,0,.39-.03.1-.6.13,0,.39.11.28-.2.89-.47.67s-.4-.12-.46-.18c-.05-.04-.03-.53-.49-.57Z" style="fill:#aaabab;"/><path d="M218.46,70.87l.55-.59c.69.19,1.08-.49.34-.48-.54,0-1.06.51-1.08-.35l-.88-.83h1.24s.07-.34.07-.34c.38.13.5-.24.54-.25.44-.1.36-.01.78-.2s.64-.19,1.07-.27c.09-.02.07-.21.16-.24.25-.06.6.03.87,0v.47c-.63-.16-.55.64-1.18.48-.21.38.64.57.47.83,0,.01-.16-.03-.24.08-.23.32-.17.49-.71.69,0,.06.59.58.67.69.06.08.02.26.05.29.15.14.61-.26.46.49-.08-.02-.89-.46-.92-.5-.08-.09.04-.46-.2-.57-.06-.03-.27-.04-.3.06-.06.28.54.1.06.53-.24-.22-.52-.26-.84-.25-.25,0-.36.23-1,.25Z" style="fill:#aaabab;"/><path d="M211.69,44.41s.02.14.07.16c.24.1.42,0,.63.32.18.27-.09.4.64.31-.11.74.66.47.47,1.33-.09.41-.78.27-.99.32-.1.02-.04.39-.31.24-.13-.08-.24-.62-.28-.67-.07-.11-.59-.45-.64-.54-.06-.11-.01-.26-.07-.4-.02-.04-.18-.03-.2-.12-.11-.46.16-1.24.68-.95Z" style="fill:#aaabab;"/><path d="M214.91,43.19c-.1.46.73.14.83.23-.15.83.14,1.04.71,1.5v1.22c-.27.09-.2-.09-.25-.14-.25-.22-.5-.57-.74-.77-.12-.1-.38.06-.32-.38l-.46-.02v-.47c.45.14.44-.3.83-.24.13-.47-.72-.13-.83-.24v-.65s.24-.06.24-.06Z" style="fill:#aaabab;"/><path d="M196.57,47.33s-.03.18.04.31c.16.3.6.14.43.91,0,.04-.46.51-.5.52-.18.07-.34,0-.48.03-.12.03-.03.38-.31.24-.37-.52-.39-.88.2-1.22l.27-.79h.35Z" style="fill:#aaabab;"/><path d="M218.92,49.12s0,.16.04.19c.09.06.61.08.68.36.14.57-.35.45-.23.98-.41.15-.47-.18-.51-.2-.14-.06-.3-.01-.4-.07-.22-.12-.68-.75-.51-1.03.39-.08.09.34.47.23l.24-.47h.22Z" style="fill:#aaabab;"/><path d="M193.74,53.84v.24c.27.02.56-.03.83,0-.03.27.02.56,0,.83h-.59s0,.95,0,.95c-.02-.02-.16.04-.21-.02-.09-.11.01-.43-.03-.61-.02-.1-.22-.02-.25-.25-.02-.2-.03-.9,0-1.06.03-.14.22-.06.24-.08Z" style="fill:#aaabab;"/><path d="M207.22,81.28c.06-.04.35.03.47,0v.48s.59,0,.59,0l-.02.46-.32.03-.08.34-.4-.02-.02-.33h-.47c.04-.17-.05-.64,0-.72,0,0,.14.02.2-.04s.03-.19.04-.2Z" style="fill:#aaabab;"/><path d="M229.94,70.04c.03.24-.05.53,0,.75.02.09.21.07.23.16.04.19-.02.43,0,.63-.2-.02-.44.04-.63,0-.08-.02-.08-.16-.13-.19-.2-.13-.41.08-.31-.46.02-.12.3-.02.35-.06v-.82s.48,0,.48,0Z" style="fill:#aaabab;"/><path d="M207.7,77.85c.1-.44-.35-.28-.24-.76.03-.12.35.01.24-.31h-.47c-.06-.69.05-.37.39-.47.13-.04.07-.22.09-.23.25-.18.21.21.31.23.16.04.4-.02.58,0,.23.02.48-.13.41.24-.35.02-.71-.01-1.07,0v1.3c-.08,0-.16,0-.24,0Z" style="fill:#aaabab;"/><path d="M179.3,52.89c.03-.32.38-.26.24-.71h-.48c-.1-.42.43-.33.21-.81-.59-.18.08-.2.03-.44-.02-.11-.21-.01-.24-.14-.04-.18.03-.44,0-.64h.46s.01-.98.01-.98c.52-.57,1-.64,1.77-.56.15.41-.18.46-.2.51-.11.25-.08.24-.23.49-.12.2.08.4-.44.3-.29.03.08.77.33.71.08-.08.29-.45.38-.47.52-.13.29.29.57.24.06-.01.09-.4.53-.24v1.34c-.3.28-.6.33-.47.83.02.07.4.14.24.55l-.47.24c.3-.15,1.12.25,1.26.51.06.11.02.26.08.4.11.28.3.76.47,1.07.03.06.88.92.94.95.19.07.37.03.56.03l-.02.46-.33.02v.59s.58,0,.58,0v.95c.13.15.51-.38.47-.47h.23c-.02.33.23.24.48.23-.02.33.03.69,0,1.02-.05.71-1.13.37-.96,1.23h.48s0,.47,0,.47c-.48-.15-.44.36-.87.24-.07-.02-.04-.37-.59-.24-.09.02-.07.21-.16.23-.3.07-.73-.07-1.02,0-.09.02-.07.21-.16.23-.34.08-.91-.05-1.29,0-.22.02-.15.22-.25.24-.29.07-.72-.04-1.04,0-.08.35-.41.43-.31.84h-.83s0-.47,0-.47l.46-.02c-.02-.34.01-.36.35-.35-.1-.39.19-.45.22-.5.13-.26.13-.82.67-.67.09.02,0,.33.61.25.2-.03.23-.4.64-.25v-.47s-.63,0-.63,0c-.29.66-.27-.19-.54,0-.03.02.04.41-.45.2-.18-.59-.2.08-.44.03-.1-.02-.03-.15-.1-.2-.18-.13-.44.12-.3-.5.51.04.35-.79,1.04-.61v-.71c-.07-.06-.58.15-.47-.18.04-.12.6-.27.47-.53h-.47s0-.59,0-.59l.46.02c.05.54.45.65.96.57-.2-.45.23-.63.23-.67.06-.25-.03-.6,0-.87h-.71c-.19-.3.47-.71.24-.95-.25-.25-.52.23-.55.23-.17.04-.56-.04-.63,0-.36.07-.23-.18-.24-.41-.02-.53.01-1.07,0-1.6-.28,0-.55,0-.83,0Z" style="fill:#aaabab;"/><path d="M176.82,55.37s.4-.21.47-.24v-.23s-.23-.24-.23-.24h.7s0-.36,0-.36h.35s0,.59,0,.59c.31.1.2-.16.26-.21.14-.1.5,0,.69-.03,0,.2-.04.46,0,.63.02.07.4.14.24.55h-.71c-.06.06.06.79,0,.99-.03.1-.42.06-.24.31,0,.01.2-.04.24.08.14.54.1,1.74-.7,1.6-.02.47-.69.66-1.04.85-.16.09-.27.59-.5.43-.02-.01.02-.21-.08-.23-.16-.04-.37.04-.55,0-.08-.02-.08-.16-.13-.19-.22-.14-.41.1-.3-.51h.33c-.24-.57.4-.74.45-.87.08-.23-.01-.42.03-.61.02-.08.69-.21-.06-.31-.51-.07-.27-.09-.45-.2s-.39.07-.31-.28c.44.09.29-.12.4-.31.03-.05.17-.06.19-.13.06-.25-.03-.59,0-.86.53-.15.37.27.71.23.03-.07.22-.45.24-.47Z" style="fill:#aaabab;"/><path d="M176.82,55.37v-1.07c.2-.02.44.04.63,0,.09-.02.07-.21.16-.23.7-.16.76.22.83.23.19.04.43-.02.63,0,0,.12,0,.24,0,.36-.19.03-.55-.07-.69.03-.06.04.06.31-.26.21v-.59s-.36,0-.36,0v.34s-.71.01-.71.01l.23.24v.23c-.07.03-.45.22-.46.24Z" style="fill:#aaabab;"/><path d="M179.3,52.89c.28,0,.55,0,.83,0,.01.53-.02,1.07,0,1.6,0,.23-.12.47.24.41-.03.02.04.41-.59.24v-2.01h-.95s0-.24,0-.24c.16,0,.32,0,.47,0Z" style="fill:#aaabab;"/><path d="M193.26,75.6c.46-.09.77.25.72.7l.35.07v.82s-.35.07-.35.07v.59s-.72,0-.72,0v-2.25Z" style="fill:#aaabab;"/><path d="M193.97,72.53v.52c.38.13.69.32.59.78l-.59-.12c-.03.23.05.53,0,.75-.02.08-.18.08-.2.12-.09.2-.09.7-.51.67.04-.47-.06-1.03,0-1.49.02-.22.22-.15.24-.25.05-.22-.05-.92,0-.99h.47Z" style="fill:#aaabab;"/><path d="M218.46,82.59l-1.77,1.42c-.18-.61.3-.68.24-1.18.39.16.5-.22.55-.24.27-.07.68.04.98,0Z" style="fill:#aaabab;"/><path d="M201.78,50.88c-.03.27.06.62,0,.86-.02.08-.16.08-.19.13-.18.28.08.39-.63.31l.02-1.05c.38.02.36-.38.81-.25Z" style="fill:#aaabab;"/><path d="M108.31,30.88c.03-.33.21-.2.24-.32.08-.35-.08-.91,0-1.26.02-.09.21-.06.23-.16.05-.23-.05-.53.28-.71.11-.06.26-.02.4-.08.04-.02.03-.17.12-.2.34-.08.62.05.75-.47h.23s0,.23,0,.23h1.77c.17.41-.22.49-.24.55-.03.15.05.43-.02.5-.03.03-.21,0-.29.05-.22.15-.6.75-.79.87-.03.02-.45.22-.54.26-.56.27-.81.14-1.36.25-.16.03-.3.46-.32.47-.07.04-.35-.03-.47,0Z" style="fill:#aaabab;"/><path d="M98.61,90.98l.71.24c-.02.17.03.36,0,.52-.03.13-.35,0-.24.31l.47.24c-.3-.03-.14.3-.41.24-.1-.35-.21-.18-.44-.24-.15-.04,0-.34-.32-.23v.47c-.35-.02-.71.02-1.07,0,.12-.48.67-.41.47-1.07h.59s0-.47,0-.47c.08-.01.17.01.24,0Z" style="fill:#aaabab;"/><path d="M120.5,28.16c.34-.02,1.18-.06,1.46,0,.11.03,0,.28.38.24.23-.02.15-.22.25-.24.25-.06.6.03.87,0v.76s.34.07.34.07c.12.61-.09.37-.29.51-.35.23-.31.5-.28.9l.55-.28.1-.2.18.48h.47s0-.65,0-.65l.24-.06c.04.44.44.39.62.48.5.26.45.33,1.08.47.06.01.17.4.56.23.13.35-.22.34-.24.43-.04.19.02.43,0,.63h.47s0-.47,0-.47h.47c.1.56-.1,1.03-.71.95v.47s.71,0,.71,0v.47s-.71,0-.71,0c-.08.42.38.32.24.83-.2-.19-.89.35-.71.47.49-.13.45.36.94.24-.13.57.46.55.54,1.07h.46c.13-.39.32-.7.78-.6v.59s.47,0,.47,0c.1.41-.08.38-.16.48-.28.34.55.3.79.24.14-.04-.02-.3.25-.24.1.02.03.15.1.2.08.05.19.03.27.09s0,.29.28.19c.09-.34.35-.56.71-.47-.15.52.27.38.23.71-.34.09-.56.35-.47.71-.32.15-.17-.43-.47-.23-.15.09-.2.75-.58.6.07.48-.38.45-.25.93h-.47s0,1.18,0,1.18c-.5.13-.44-.36-.94-.24.26-.28-.8-1.15-.91-1.18-.2-.04-.42.02-.63,0,.16-.39-.22-.5-.24-.55-.06-.24.16-.6-.24-.51l-.27.79c-1.12.66,0,1.14.03,1.3.06.32-.12.73.28.94.12.06.27,0,.4.08.03.02.02.13.14.19.09.04.55.08.61.33.11.43-.17.37-.2.43-.08.18-.26.49-.27.52-.08.33.19.85-.24.75.09-.49-1.03-.1-1.18-.25l-.07-.35-.52.02-.07.35-.4-.02-.02-.33h-.46c-.01.34-.08.82.27,1.01.12.06.27.01.34.05.12.06.61.45.65.46.42.1.58-.25.51.47.37-.07.84.21.62.59-.33.6-.66,0-.79,0-.55-.06-1.84-.06-2.38,0-.22.02-.15.22-.25.24-.34.08-.85-.05-1.22,0v-.59s.41,0,.41,0l.06-.24c-.3.03-.14-.3-.41-.24-.05.01-.09.4-.53.24v-.71s-.47,0-.47,0v-.71c-.46.19-.61-.21-.68-.23-.28-.07-.46.16-.38-.36-.42-.09-.18.47-.24.75-.02.09-.56.61-.48.09h-.23c-.04.25-.48.57-.69.69-.07.04-.25-.03-.35.04-.04.03-.03.38-.26.2-.01,0,.04-.21-.08-.24-.18-.05-.44.03-.64,0-.17-.4.23-.49.24-.55.04-.18-.04-.38,0-.55.02-.09.18-.07.2-.11.08-.16,0-.32.04-.47.13-.47.92-.26,1.22-.33.09-.02.07-.22.16-.24.46-.1,1.07-.14,1.5-.24.09-.02.07-.21.16-.23.21-.05.94.05.99,0-.02-.2.04-.44,0-.63-.02-.09-.21-.06-.23-.16-.07-.32.11-.39-.24-.66-.13-.1-.22-.07-.26-.09-.38-.22.13-.21.22-.27.07-.05,1.16-1.09,1.19-1.17.11-.3,0-.72.03-1.04h.48c-.04-.27.06-.62,0-.87-.02-.09-.21-.07-.23-.16-.11-.47.26-1.04-.47-1.22l.23-.71c-.31-.07-.34.34-.51.44-.11.06-.26.02-.4.07-.04.02-.18.38-.63.2l.02-.46.33-.02c-.16-.41.39-.51.25-.7-.03-.04-.41.03-.23-.6h-.59s0-.47,0-.47c-.13.02-.28-.03-.4,0s0,.37-.31.24c.1-.55-.09-1.03-.71-.95.13.4-.15,1.16-.59.87-.08-.05-.24-.37-.32-.39-.46-.1-.74-.01-1.09.24-.15.23.44.42.47.54.06.27-.46.7-.48.46-.01-.15.03-.3,0-.45,0-.02-.27-.31-.29-.32-.36-.1-.09.73-.18.83-.46.19-.59-.23-.76-.25-.36-.04-1.19-.04-1.55,0-.22.02-.15.22-.25.24-.53.13-.86-.32-.75-.83-.51-.13-.44.37-.95.24,0-.13.03-.27,0-.39-.03-.14-.35,0-.24-.32h.47c.02-.41.07-.58-.4-.47-.09.02-.07.21-.16.23-.72.19-.34-.68-.4-.71h-.34s-.02-.42-.02-.42l.35-.06c-.26-.92.54-.82.48-1.53h.47s0-.71,0-.71h.48s0-.83,0-.83c.45.22.62-.4.74-.44.18-.06.33,0,.48-.04.1-.02.07-.21.16-.23.24-.06.55.05.79,0,.07-.02.27-.15.71-.24.06-.01.18-.46.43-.17v.64c.31.07.34-.34.51-.44.11-.06.26-.01.4-.07.04-.02.04-.18.12-.2.34-.08.68.14.98.12l.12.83c-.08,0-.16-.01-.24,0l-.23-.47c-.18.22-.18.46-.28.67-.02.04-.31.01-.2.43.02.09.33.02.25.73-.03.21-.17.13-.24.26-.03.07.01.21-.05.34-.02.04-.35.1-.2.51h.71c.21-.38-.36-.51-.23-.71.01-.02.38-.25.4-.25.28-.03.61.04.89,0,.1.1-.22.84.24.71-.18-.61.31-.68.24-1.18.3-.14.44.65.7.47,0,0,.02-.11.1-.21.02-.03.12,0,.14-.02.15-.24-.15-.22-.2-.27-.13-.18.13-.43-.51-.32-.04-.22.15-.31.24-.47ZM116.47,27.45c-.32-.1-.17.19-.33.23-.1.03-.23-.02-.35.04-.06.03-.96.93-.98,1-.07.34.07.82,0,1.14-.03.11-.33.1-.24.86.01.12.66.65.02.77-.07.05.21.44.23.46.12.08.42-.24.43-.26.1-.26-.02-.5.03-.72.03-.11.23-.06.24-.08.18-.25-.21-.21-.24-.31-.05-.18.03-.44,0-.63h.71s0-.47,0-.47h-.65s-.06-.24-.06-.24c.37.05.22-.32.23-.59h.47c-.17-.63.64-.55.47-1.18ZM124.52,37.15c-.11-.13-.47.3-.48.41-.03.28-.04,1.27.01,1.52.02.09.28.12.24.32l.24-.06v-.41c.61.18.68-.3,1.18-.24v-.83c-.5.07-.57-.42-1.18-.24v-.47ZM124.05,40.94h-1.06c-.07.39.28.07.24.54-.01.14-.46.42-.24.88.31.13.19-.21.31-.24.22-.05.52.03.75,0v-1.18Z" style="fill:#aaabab;"/><path d="M133.04,66.14c-.39,0-2.16-.06-2.34.04-.05.03-.06.34-.5.2-.15-.56.39-.95.84-1.13v-.88s.7,0,.7,0c.05-.05-.05-.78,0-.99.02-.1.22-.03.24-.25.04-.36-.08-.82,0-1.17.02-.09.42-.31.44-.35.06-.17,0-.33.04-.47.09-.35.75-.38,1.06-.33,0,.43.11.76-.28,1.02-.09.06-.27.03-.29.05-.07.08.01.44-.02.62-.02.09-.45.31-.47.4-.04.2.01.42,0,.62.34.06.34-.44.65-.48.13-.02.28.02.42,0v.83s.46-.02.46-.02l.08-.35h1.47s-.01.59-.01.59l-.35.06.02.41c.23.03.41-.09.34.25l-.35.24c.57.17.56-.35,1.06-.24.03.38-.17.08-.24.47-.01.07.02.16,0,.24-.44-.13-.42.16-.56.24-.08.04-.21-.02-.27,0-.16.06-.07.33-.18.36-.49.11-.19-.33-.36-.36-.43.04-.87-.03-1.3,0-.36.03-.3-.06-.29.36Z" style="fill:#aaabab;"/><path d="M107.6,29.23v.71c-.39-.13-.95.18-.83.63.02.09.21.06.24.15.08.36-.21.6.36.51,0-.23-.09-.42.24-.35l-.04,1.03c-.32.34-.68.15-.56.74-.42-.13-.42.16-.57.23-.08.04-.23-.02-.34.04-.45.26-.58,1.29-1.34,1.03.28-.92-.54-.83-.47-1.54-.49-.14-.4.27-.77.25-.09,0-.4-.29-.41-.33-.11-.44.2-.36.23-.48.09-.36-.2-.44.47-.39v.48c.41.16.49-.22.55-.24.22-.05.51.03.75,0v-1.07s-.53,0-.53,0l-.06-.24c.28.03.85-.7.91-.71.26-.05.59.03.86,0v-.48s1.3,0,1.3,0Z" style="fill:#aaabab;"/><path d="M106.51,99.07s.02.18.11.2c.49.11,1.06-.15.99.71.03.04.68-.04.87,0,.09.02.07.22.16.24.19.04.39-.04.6.03.02,0,.23.31.31.39.17.16.15.11.35.35.37.43.57.28,1.14.29l-.24.47h.86s.44.47.44.47c-.29-.13-.37.22-.44.23-.38.09-.99-.05-1.4,0-.22.02-.15.22-.25.24-.28.06-.68-.04-.98,0-.13-.31.21-.19.24-.31.16-.66-.8-.61-.91-.91-.1-.26-.02-.53-.04-.8-.06-.06-.99.06-1.22,0-.06-.01-.16-.4-.55-.23v-.47c-.2-.02-.44.05-.63,0-.16-.04-.52-.36-1.06-.47-.1-.02-.06-.4-.53-.2-.05.02-.69.84-.77.88-.12.06-.25.01-.35.04-.16.04,0,.34-.33.23-.02-.2-.03-.29.08-.47.03-.04.62-.65.66-.67.11-.06.26-.01.4-.07.04-.02.03-.18.12-.2.19-.05,2.27-.02,2.37.03Z" style="fill:#aaabab;"/><path d="M113.96,102.74s.02.18.11.2c.69.16.76-.22.83-.23.15-.03.64-.04.79,0,.08.02.08.18.12.2.38.16.61.07.74.64h1.23s0,.7,0,.7c-.05.05-1.14-.03-1.37,0-.22.02-.08.32-.71.26-.29-.03-.05-.33-.41-.25v.47c-.43.16-.44-.23-.64-.25-.39-.04-2.46.09-2.55,0-.02-.45-.09-.54.4-.47.31.61.39-.09.73,0,.05.01.04.22.14.24.19.04.43-.02.63,0,.06-.71-.76-.62-.47-1.54.15,0,.3-.04.44.04Z" style="fill:#aaabab;"/><path d="M112.07,42.16s.02.17.11.2c.21.05,1.06-.05,1.11,0,.01.17-.04.35,0,.51.01.04.46.59.47.63.05.19-.02.43,0,.63.38.05.37-.62.83-.47v.64c-.42.28-.88.42-1.45.3-.03,0-.43-.37-.32-.47h.47s0-.47,0-.47c-1.17-.14-.79.44-.95,1.1-.02.07-.15.08-.19.13-.05.08-.03.22-.08.27-.06.06-.22.03-.27.08-.18.17-.27.48-.52.43v-.47s-.71,0-.71,0v-.59s.47,0,.47,0v-.48s.47,0,.47,0c.04-.03-.03-.82-.01-1.01.02-.22.22-.15.24-.25.05-.22-.03-.51,0-.75.11,0,.21-.02.32.04Z" style="fill:#aaabab;"/><path d="M118.84,27.1c.35-.02.71-.38.78-.72.49.25.93-.23,1.05-.24.28-.03.61.04.9,0,.03.24-.05.53,0,.75.01.06.4.14.24.55-.46-.17-.58.18-.63.2-.47.21-.39-.04-.67.51-.61.03-.45.21-.55.24-.27.06-.64-.06-.91,0-.06.02-.14.4-.55.24v-.71c.08,0,.16.01.24,0s.16.01.24,0l-.12-.83Z" style="fill:#aaabab;"/><path d="M105.59,112.4c-.17.46.18.58.2.63.06.14.01.3.07.4.05.09.59.45.64.54.06.11.01.26.07.4.02.05.37.17.2.63.04.04.78-.04.98,0,.04,0,.55.51.56.55.09.37-.19.46-.42.68-.07.06-.06.33-.28.17-.02-.01.03-.2-.09-.23-.14-.03-.3.03-.48-.03-.03-.01-.46-.44-.47-.47-.13-.36.03-.31-.23-.73-.06-.1-.03-.27-.05-.29-.08-.08-.44.02-.62-.02-.03,0-.41-.22-.51-.28-.05-.03-.62-.48-.63-.52-.11-.44.35-.36.25-.86l.33-.02v-.58s.49,0,.49,0Z" style="fill:#aaabab;"/><path d="M138.92,30.68c.29.11.23.58.3.76.06.16.63.19.4.71-.01.03-.43.46-.47.47-.22.08-.41,0-.6.03-.09.02-.07.21-.16.24-.28.07-.68-.04-.99,0-.12-.44.49-.15.59-.24v-.41c-.01-.1-.41-.08-.52-.06-.13.03,0,.35-.31.24.02-.2-.04-.44,0-.63.02-.09.21-.07.23-.16.05-.21-.05-.94,0-.99.43.06,1.12-.11,1.51.04Z" style="fill:#aaabab;"/><path d="M105.56,36.24s.09.34.5.2v1.01c-.12.31-.37.46-.7.42l-.02.33c-.57-.13-.55.35-1.06.25v-.59s-.71,0-.71,0c-.09-.27.09-.2.14-.26.12-.14.48-.4.54-.49.06-.1,0-.27.08-.4.17-.32.47-.22.71-.28.08-.02.11-.43.53-.2Z" style="fill:#aaabab;"/><path d="M110.53,25.48s.26.26.26.28c.11.45-.21.37-.23.47-.1.46-.12.36-.2.55-.06.15-.09.55-.31.64-.54.21-.63-.4-1.27-.2-.06-.19.01-.16.07-.24.11-.14.5-.43.6-.63.07-.15,0-.35.06-.42.03-.04.21,0,.29-.06.26-.19.24-.6.73-.39Z" style="fill:#aaabab;"/><path d="M136,65.31l.25.47h.47c.15,1-.19,1.74-1.18,1.07-.03-.39.32-.09.23-.65l-.59-.06c.01-.12,0-.24,0-.35.05-.02.19.04.27,0,.14-.08.12-.37.56-.24.02-.08-.01-.17,0-.24Z" style="fill:#aaabab;"/><path d="M129.02,67.8c.1.28-.44.4-.47.56-.04.2.05.65-.02.73-.03.03-.2,0-.29.05-.32.21-.33.47-.28.84l-.24.06c.05-.2-.21-.23-.23-.32-.14-.59.15-.56.19-.66.06-.13.01-.28.08-.4.15-.27.57-.46.43-.87h.83Z" style="fill:#aaabab;"/><path d="M125.93,63.55l.02.33c.07.07.55-.03.74.01.09.02.06.21.17.23.37.09.44-.2.38.48.07.07.59-.19.47.23-.34-.04-.78.06-1.1,0-.08-.02-.79-.96-1.15-.71v-.59s.46.02.46.02Z" style="fill:#aaabab;"/><path d="M108.76,104.04s.02.18.11.2c.43.09.64.22.71.24.27.06.6-.16.51.24-.45.36-.88.24-1.45.24l-.56-.65c.25-.15.34-.45.68-.26Z" style="fill:#aaabab;"/><path d="M133.04,66.14c-.01-.41-.07-.33.29-.36.43-.03.87.03,1.3,0,.17.03-.13.47.36.36.11-.02.01-.29.18-.36,0,.12.01.24,0,.35,0,.07.03.14-.02.21l-.45.03c.08.44-.26.8-.71.71-.15-.13.37-.5.47-.48-.11-.67-.89-.46-1.42-.47Z" style="fill:#aaabab;"/><path d="M120.94,36.01s.38.36.25.43c-.34-.03-.16.27-.23.39-.08.15-.36.14-.23.57-.37.1-.81-.25-.71-.63.02-.08.18-.07.2-.11.13-.28.16-.89.72-.64Z" style="fill:#aaabab;"/><path d="M113.28,45.67c.19.19-.37.84-.51.91-.11.06-.26.01-.4.07-.04.02-.03.18-.12.2-.22.05-.51-.03-.75,0-.07-.38.24-.1.55-.28.2-.12.9-1.23,1.22-.9Z" style="fill:#aaabab;"/><path d="M120.5,28.16c-.09.17-.28.26-.24.47.64-.11.38.14.51.32.04.05.35.03.2.27-.01.02-.11-.01-.14.02-.08.11-.09.21-.1.21-.27.19-.4-.6-.7-.47.07.5-.42.57-.24,1.18-.45.13-.14-.61-.24-.71-.29.03-.62-.04-.89,0-.02,0-.39.23-.4.25-.13.19.44.33.23.71h-.71c-.15-.41.18-.46.2-.51.06-.13.01-.28.05-.34.07-.13.21-.06.24-.26.09-.72-.22-.65-.25-.73-.11-.42.18-.39.2-.43.09-.21.09-.45.28-.67l.23.47c-.08.01-.16-.01-.24,0v.71c.41.17.49-.22.55-.24.27-.06.64.06.91,0,.11-.03-.06-.2.55-.24Z" style="fill:#aaabab;"/><path d="M116.47,27.45c.17.63-.65.56-.47,1.18h-.47c-.01.28.14.65-.23.59l.06.24h.65s0,.47,0,.47h-.71c.03.2-.05.46,0,.63.02.1.42.06.24.31,0,.01-.21-.04-.24.08-.05.22.06.47-.03.72,0,.02-.31.34-.43.26-.02-.02-.31-.41-.23-.46.64-.11,0-.65-.02-.77-.09-.76.22-.75.24-.86.08-.32-.07-.8,0-1.14.01-.07.91-.96.98-1,.12-.06.25-.01.35-.04.16-.04,0-.34.33-.23Z" style="fill:#aaabab;"/><path d="M124.52,37.15v.47c.61-.18.68.3,1.18.24v.83c-.5-.07-.57.42-1.18.24v.41s-.23.06-.23.06c.05-.2-.22-.23-.24-.32-.05-.25-.05-1.24-.01-1.52.01-.11.37-.54.48-.41Z" style="fill:#aaabab;"/><path d="M124.05,40.94v1.18c-.24.03-.53-.05-.75,0-.12.03,0,.36-.31.24-.22-.47.23-.74.24-.88.04-.47-.31-.14-.24-.54h1.06Z" style="fill:#aaabab;"/></g></g><g id="uuid-26e45a62-2f75-484f-aa48-67fcd494aeb5"><rect x="4.86" y="109.77" width="388.35" height="34.02" style="fill:#343434;"/><rect x="159.74" y="109.77" width="233.47" height="5.67" style="fill:#f5d80b;"/></g><g id="uuid-fe97d8e0-c7a3-4125-a1b8-8f8827b88b01"><path d="M12.35,117.85h2.93v20.46h-2.93v-20.46Z" style="fill:#fff;"/><path d="M26.92,124.84v1.71c1.19-1.32,2.54-1.98,4.06-1.98.84,0,1.62.22,2.34.65s1.27,1.03,1.65,1.79.56,1.96.56,3.6v7.71h-2.67v-7.68c0-1.38-.21-2.36-.63-2.95s-1.12-.89-2.11-.89c-1.26,0-2.33.63-3.21,1.89v9.62h-2.72v-13.48h2.72Z" style="fill:#fff;"/><path d="M42.17,126.98l5.01-4.92v2.78h4.26v2.4h-4.26v6.6c0,1.54.64,2.31,1.92,2.31.96,0,1.97-.32,3.03-.95v2.49c-1.03.58-2.14.86-3.35.86s-2.24-.36-3.05-1.07c-.25-.21-.46-.46-.63-.72s-.31-.62-.42-1.05-.17-1.26-.17-2.48v-5.98h-2.34v-.26Z" style="fill:#fff;"/><path d="M70.33,131.81h-9.48c.07,1.29.5,2.31,1.3,3.08s1.82,1.14,3.08,1.14c1.76,0,3.38-.55,4.86-1.64v2.61c-.82.55-1.63.94-2.44,1.17s-1.75.35-2.83.35c-1.48,0-2.69-.31-3.6-.92s-1.65-1.44-2.2-2.48-.83-2.24-.83-3.61c0-2.05.58-3.72,1.74-5s2.67-1.93,4.53-1.93,3.21.62,4.28,1.88,1.6,2.92,1.6,5.02v.34ZM60.91,130.21h6.78c-.07-1.06-.39-1.88-.95-2.46s-1.33-.86-2.29-.86-1.74.29-2.35.86-1.01,1.4-1.19,2.46Z" style="fill:#fff;"/><path d="M80.88,124.84v3.09l.15-.23c1.29-2.08,2.58-3.12,3.87-3.12,1.01,0,2.06.51,3.15,1.52l-1.41,2.34c-.93-.88-1.79-1.32-2.58-1.32-.86,0-1.6.41-2.23,1.23s-.94,1.79-.94,2.92v7.05h-2.68v-13.48h2.68Z" style="fill:#fff;"/><path d="M100.4,124.81c2.05,0,3.75.66,5.11,1.99s2.04,2.99,2.04,4.99-.69,3.56-2.07,4.84-3.11,1.93-5.2,1.93-3.71-.65-5.07-1.96-2.04-2.93-2.04-4.89.69-3.62,2.06-4.93,3.09-1.97,5.16-1.97ZM100.25,127.21c-1.28,0-2.33.42-3.15,1.26s-1.23,1.91-1.23,3.21.42,2.34,1.26,3.16,1.92,1.22,3.24,1.22,2.38-.41,3.22-1.24,1.25-1.88,1.25-3.17-.43-2.34-1.3-3.18-1.96-1.26-3.28-1.26Z" style="fill:#fff;"/><path d="M115.13,145.18v-20.35h4.67c2.39,0,4.25.6,5.58,1.79,1.33,1.19,2,2.86,2,5,0,2.02-.63,3.68-1.88,4.98s-2.85,1.95-4.79,1.95c-.86,0-1.81-.19-2.85-.57v7.21h-2.72ZM119.74,127.33h-1.89v8.29c.82.42,1.68.63,2.57.63,1.25,0,2.27-.43,3.06-1.3.79-.87,1.19-1.99,1.19-3.35,0-.88-.19-1.66-.56-2.33-.38-.67-.89-1.16-1.53-1.47s-1.6-.46-2.84-.46Z" style="fill:#fff;"/><path d="M146.59,131.81h-9.48c.07,1.29.5,2.31,1.3,3.08s1.82,1.14,3.08,1.14c1.76,0,3.38-.55,4.86-1.64v2.61c-.82.55-1.63.94-2.44,1.17s-1.75.35-2.83.35c-1.48,0-2.69-.31-3.6-.92s-1.65-1.44-2.2-2.48-.83-2.24-.83-3.61c0-2.05.58-3.72,1.74-5s2.67-1.93,4.53-1.93,3.21.62,4.28,1.88,1.6,2.92,1.6,5.02v.34ZM137.17,130.21h6.78c-.07-1.06-.39-1.88-.95-2.46s-1.33-.86-2.29-.86-1.74.29-2.35.86-1.01,1.4-1.19,2.46Z" style="fill:#fff;"/><path d="M157.13,124.84v3.09l.15-.23c1.29-2.08,2.58-3.12,3.87-3.12,1.01,0,2.06.51,3.15,1.52l-1.41,2.34c-.93-.88-1.79-1.32-2.58-1.32-.86,0-1.6.41-2.23,1.23s-.94,1.79-.94,2.92v7.05h-2.68v-13.48h2.68Z" style="fill:#fff;"/><path d="M179.42,130.21v5.73c0,.46.16.69.47.69s.83-.24,1.51-.72v1.63c-.61.39-1.09.66-1.46.8s-.75.21-1.15.21c-1.14,0-1.82-.45-2.02-1.35-1.13.88-2.34,1.32-3.62,1.32-.94,0-1.72-.31-2.34-.93s-.94-1.4-.94-2.34c0-.85.31-1.61.92-2.28s1.48-1.2,2.6-1.59l3.41-1.17v-.72c0-1.62-.81-2.43-2.43-2.43-1.46,0-2.87.75-4.25,2.26v-2.92c1.04-1.22,2.52-1.83,4.47-1.83,1.46,0,2.62.38,3.5,1.14.29.24.56.57.79.97s.38.81.45,1.22.1,1.17.1,2.31ZM176.8,135.65v-4l-1.79.69c-.91.36-1.55.73-1.93,1.09s-.56.82-.56,1.37.18,1.01.53,1.36.82.53,1.38.53c.85,0,1.64-.35,2.36-1.04Z" style="fill:#fff;"/><path d="M188.44,117.85h2.67v7.95c1.15-.84,2.38-1.26,3.69-1.26,1.71,0,3.11.64,4.19,1.93s1.63,2.94,1.63,4.97c0,2.17-.65,3.89-1.94,5.18s-3.02,1.93-5.19,1.93c-.87,0-1.78-.09-2.75-.28s-1.73-.42-2.29-.7v-19.72ZM191.11,128.35v7.29c.91.27,1.84.41,2.8.41,1.18,0,2.15-.42,2.89-1.26s1.12-1.92,1.12-3.24-.35-2.43-1.05-3.27-1.61-1.26-2.73-1.26c-1,0-2.01.44-3.03,1.32Z" style="fill:#fff;"/><path d="M209.73,119.17c.44,0,.82.15,1.13.45s.47.67.47,1.11-.16.8-.47,1.11-.69.47-1.13.47c-.41,0-.77-.16-1.08-.48s-.47-.69-.47-1.11.16-.77.47-1.09.67-.48,1.08-.48ZM208.42,124.84h2.67v13.48h-2.67v-13.48Z" style="fill:#fff;"/><path d="M219.79,117.85h2.67v20.46h-2.67v-20.46Z" style="fill:#fff;"/><path d="M232.49,119.17c.44,0,.82.15,1.13.45s.47.67.47,1.11-.16.8-.47,1.11-.69.47-1.13.47c-.41,0-.77-.16-1.08-.48s-.47-.69-.47-1.11.16-.77.47-1.09.67-.48,1.08-.48ZM231.17,124.84h2.67v13.48h-2.67v-13.48Z" style="fill:#fff;"/><path d="M240.6,126.98l5.01-4.92v2.78h4.26v2.4h-4.26v6.6c0,1.54.64,2.31,1.92,2.31.96,0,1.97-.32,3.03-.95v2.49c-1.03.58-2.14.86-3.35.86s-2.24-.36-3.05-1.07c-.25-.21-.46-.46-.63-.72s-.31-.62-.42-1.05-.17-1.26-.17-2.48v-5.98h-2.34v-.26Z" style="fill:#fff;"/><path d="M265.55,124.84h2.99l-9.55,20.35h-2.98l4.57-9.76-5.2-10.58h3.04l3.64,7.61,3.49-7.61Z" style="fill:#fff;"/><path d="M288.75,117.85h10.91v2.61h-7.98v5.71h7.98v2.61h-7.98v9.54h-2.93v-20.46Z" style="fill:#fff;"/><path d="M313.22,124.81c2.05,0,3.75.66,5.11,1.99s2.04,2.99,2.04,4.99-.69,3.56-2.07,4.84-3.11,1.93-5.2,1.93-3.71-.65-5.07-1.96-2.04-2.93-2.04-4.89.69-3.62,2.06-4.93,3.09-1.97,5.16-1.97ZM313.08,127.21c-1.28,0-2.33.42-3.15,1.26s-1.23,1.91-1.23,3.21.42,2.34,1.26,3.16,1.92,1.22,3.24,1.22,2.38-.41,3.22-1.24,1.25-1.88,1.25-3.17-.43-2.34-1.3-3.18-1.96-1.26-3.28-1.26Z" style="fill:#fff;"/><path d="M330.99,124.84v3.09l.15-.23c1.29-2.08,2.58-3.12,3.87-3.12,1.01,0,2.06.51,3.15,1.52l-1.41,2.34c-.93-.88-1.79-1.32-2.58-1.32-.86,0-1.6.41-2.23,1.23s-.94,1.79-.94,2.92v7.05h-2.68v-13.48h2.68Z" style="fill:#fff;"/><path d="M353.39,138.31v-1.73c-.57.62-1.21,1.1-1.94,1.45-.73.34-1.45.52-2.18.52-.85,0-1.63-.21-2.35-.64s-1.26-1-1.63-1.73-.55-1.94-.55-3.63v-7.72h2.67v7.68c0,1.41.2,2.4.61,2.96s1.12.84,2.13.84c1.27,0,2.35-.62,3.24-1.86v-9.62h2.67v13.48h-2.67Z" style="fill:#fff;"/><path d="M375.65,128.53v9.79h-2.68v-7.5c0-1.49-.2-2.54-.6-3.13s-1.1-.89-2.09-.89c-.56,0-1.07.13-1.53.38s-.99.7-1.59,1.35v9.79h-2.67v-13.48h2.67v1.77c1.36-1.36,2.69-2.04,3.98-2.04,1.71,0,3.03.81,3.97,2.43,1.43-1.64,2.92-2.46,4.47-2.46,1.31,0,2.39.48,3.23,1.44s1.27,2.42,1.27,4.38v7.95h-2.67v-7.98c0-1.12-.23-1.98-.69-2.58s-1.12-.89-1.98-.89c-1.1,0-2.13.56-3.09,1.67Z" style="fill:#fff;"/><path d="M174.11,90.6l5.45-13.48h4.06v36.74h-4.62l.3-26.56-.13-.11-4.62,12.08h-.86l-4.62-12.08-.13.11.3,26.56h-4.62v-36.74h4.06l5.45,13.48Z" style="fill:#343434;"/><path d="M192.71,113.86v-36.74h5.61c2.77,0,5.08.9,6.92,2.69,1.84,1.79,2.75,3.92,2.75,6.39,0,3.31-1.59,5.96-4.78,7.93,3.74,1.75,5.61,4.8,5.61,9.13,0,3.13-1.01,5.68-3.03,7.65-2.02,1.97-4.9,2.95-8.62,2.95h-4.46ZM197.43,92.69h.43c1.65,0,2.96-.52,3.93-1.56.98-1.04,1.46-2.43,1.46-4.16s-.47-3.08-1.41-4.03c-.94-.95-2.27-1.42-3.99-1.42h-.43v11.17ZM197.43,109.45h.83c1.83,0,3.25-.53,4.28-1.59,1.03-1.06,1.54-2.54,1.54-4.43s-.51-3.4-1.52-4.57c-1.01-1.17-2.45-1.75-4.31-1.75h-.83v12.35Z" style="fill:#343434;"/><path d="M214.2,113.86l5.6-12.42-5.6-11.94h4.52l3.35,7.75,3.18-7.75h4.39l-5.27,11.94,5.89,12.42h-4.52l-3.68-8.39-3.35,8.39h-4.51Z" style="fill:#343434;"/></g></svg>