<?xml version="1.0" encoding="UTF-8"?><svg id="uuid-ceba9efe-0f70-4031-b5c2-7e98dfb45c65" xmlns="http://www.w3.org/2000/svg" width="400" height="350" xmlns:xlink="http://www.w3.org/1999/xlink" viewBox="0 0 400 350"><defs><clipPath id="uuid-289d4c3f-5ecb-45e1-8c88-e4dd44415bff"><path d="m31.41,5.11v334.94h334.94V5.11H31.41Zm293.54,225.67H69.44v-105.89h255.51v105.89Z" style="fill:none; stroke-width:0px;"/></clipPath><clipPath id="uuid-bde1ba65-4c9b-4682-8a7a-dffb627c8d5d"><circle cx="196.41" cy="174.95" r="165" style="fill:none; stroke-width:0px;"/></clipPath><clipPath id="uuid-f3007e2d-4cd8-4500-b6fa-7e56f27991cd"><path d="m31.41,392.48v334.94h334.94v-334.94H31.41Zm293.54,225.67H69.44v-105.89h255.51v105.89Z" style="fill:none; stroke-width:0px;"/></clipPath><clipPath id="uuid-f64d3e5b-9e3a-49ce-9ec6-6baa3b944e5f"><circle cx="196.41" cy="562.32" r="165" style="fill:none; stroke-width:0px;"/></clipPath></defs><g style="clip-path:url(#uuid-289d4c3f-5ecb-45e1-8c88-e4dd44415bff);"><path d="m196.41,13.95c12.65,0,25.44,16.62,35.1,45.59,10.26,30.77,15.9,71.75,15.9,115.41s-5.65,84.64-15.9,115.41c-9.66,28.97-22.45,45.59-35.1,45.59s-25.44-16.62-35.1-45.59c-10.26-30.77-15.9-71.75-15.9-115.41s5.65-84.64,15.9-115.41c9.66-28.97,22.45-45.59,35.1-45.59m0-4c-30.38,0-55,73.87-55,165s24.62,165,55,165,55-73.87,55-165S226.79,9.95,196.41,9.95h0Z" style="fill:#004996; stroke-width:0px;"/><path d="m196.41,13.95c58.45,0,106,72.22,106,161s-47.55,161-106,161-106-72.22-106-161S137.97,13.95,196.41,13.95m0-4c-60.75,0-110,73.87-110,165s49.25,165,110,165,110-73.87,110-165S257.17,9.95,196.41,9.95h0Z" style="fill:#004996; stroke-width:0px;"/><path d="m196.41,13.95c43,0,83.44,16.75,113.84,47.16s47.16,70.84,47.16,113.84-16.75,83.44-47.16,113.84c-30.41,30.41-70.84,47.16-113.84,47.16s-83.44-16.75-113.84-47.16c-30.41-30.41-47.16-70.84-47.16-113.84s16.75-83.44,47.16-113.84c30.41-30.41,70.84-47.16,113.84-47.16m0-4C105.29,9.95,31.41,83.82,31.41,174.95s73.87,165,165,165,165-73.87,165-165S287.54,9.95,196.41,9.95h0Z" style="fill:#004996; stroke-width:0px;"/><line x1="196.41" y1="10.2" x2="196.41" y2="339.95" style="fill:none; stroke:#004996; stroke-linejoin:round; stroke-width:4px;"/><g style="clip-path:url(#uuid-bde1ba65-4c9b-4682-8a7a-dffb627c8d5d);"><path d="m196.41-41.82c25.62,0,49.64,5.62,67.65,15.82,17.29,9.79,26.81,22.56,26.81,35.96s-9.52,26.16-26.81,35.96c-18,10.2-42.03,15.82-67.65,15.82s-49.64-5.62-67.65-15.82c-17.29-9.79-26.81-22.56-26.81-35.96s9.52-26.16,26.81-35.96c18-10.2,42.03-15.82,67.65-15.82m0-4c-54.38,0-98.45,24.97-98.45,55.77s44.08,55.77,98.45,55.77,98.45-24.97,98.45-55.77-44.08-55.77-98.45-55.77h0Z" style="fill:#004996; stroke-width:0px;"/><path d="m196.41,288.18c25.62,0,49.64,5.62,67.65,15.82,17.29,9.79,26.81,22.56,26.81,35.96s-9.52,26.16-26.81,35.96c-18,10.2-42.03,15.82-67.65,15.82s-49.64-5.62-67.65-15.82c-17.29-9.79-26.81-22.56-26.81-35.96s9.52-26.16,26.81-35.96c18-10.2,42.03-15.82,67.65-15.82m0-4c-54.38,0-98.45,24.97-98.45,55.77s44.08,55.77,98.45,55.77,98.45-24.97,98.45-55.77-44.08-55.77-98.45-55.77h0Z" style="fill:#004996; stroke-width:0px;"/></g></g><path d="m6.86,176.01c0-23.1,20.3-46.48,43.68-46.48s43.54,23.38,43.54,46.48c0,25.62-15.82,51.24-43.54,51.24S6.86,201.63,6.86,176.01Zm66.64-14.84c0-5.04-.7-9.8-2.1-14-2.8-8.54-8.54-14.14-20.86-14.14s-18.48,5.6-21,14.14c-1.26,4.2-2.1,8.96-2.1,14v30.52c0,5.46.28,10.78,1.54,15.68,2.52,9.66,8.4,16.38,21.56,16.38s19.04-6.72,21.56-16.38c1.26-4.9,1.4-10.22,1.4-15.68v-30.52Z" style="stroke-width:0px;"/><path d="m150.75,221.65h13.86v3.5h-45.64v-3.5h13.86v-86.52h-13.86v-3.5h45.64v3.5h-13.86v86.52Z" style="stroke-width:0px;"/><path d="m283.19,221.65h13.86v3.5h-45.64v-3.5h13.86v-84.14h-.42l-28,87.64h-4.76l-27.86-87.64h-.28v84.14h13.58v3.5h-31.92v-3.5h13.86v-86.52h-13.86v-3.5h36.12l19.6,63.98,20.3-63.98h35.42v3.5h-13.86v86.52Z" style="stroke-width:0px;"/><path d="m315.67,225.15v-3.5h13.86v-86.52h-13.86v-3.5h46.34v3.5h-14.56v86.52h18.34c17.78,0,24.08-11.9,24.64-28h4.34l-1.4,31.5h-77.7Z" style="stroke-width:0px;"/><g style="clip-path:url(#uuid-f3007e2d-4cd8-4500-b6fa-7e56f27991cd);"><g style="clip-path:url(#uuid-f64d3e5b-9e3a-49ce-9ec6-6baa3b944e5f);"><path d="m196.41,345.55c25.62,0,49.64,5.62,67.65,15.82,17.29,9.79,26.81,22.56,26.81,35.96s-9.52,26.16-26.81,35.96c-18,10.2-42.03,15.82-67.65,15.82s-49.64-5.62-67.65-15.82c-17.29-9.79-26.81-22.56-26.81-35.96s9.52-26.16,26.81-35.96c18-10.2,42.03-15.82,67.65-15.82m0-4c-54.38,0-98.45,24.97-98.45,55.77s44.08,55.77,98.45,55.77,98.45-24.97,98.45-55.77-44.08-55.77-98.45-55.77h0Z" style="fill:#61b4ff; stroke-width:0px;"/></g></g></svg>