<?xml version="1.0" encoding="UTF-8"?><svg id="uuid-78c184b2-2fab-48bf-8257-b1023d851d3b" xmlns="http://www.w3.org/2000/svg" width="400" height="350" xmlns:xlink="http://www.w3.org/1999/xlink" viewBox="0 0 400 350"><defs><clipPath id="uuid-4ad429d7-5d40-4f29-a443-c4037e7ab017"><path d="m31.41-379.89V-44.95h334.94v-334.94H31.41Zm293.54,225.67H69.44v-105.89h255.51v105.89Z" style="fill:none; stroke-width:0px;"/></clipPath><clipPath id="uuid-68856be6-990c-4726-be72-beb184360f71"><circle cx="196.41" cy="-210.05" r="165" style="fill:none; stroke-width:0px;"/></clipPath><clipPath id="uuid-9e6974e6-5062-4d08-8408-eccd2e443341"><path d="m31.41,7.48v334.94h334.94V7.48H31.41Zm293.54,225.67H69.44v-105.89h255.51v105.89Z" style="fill:none; stroke-width:0px;"/></clipPath><clipPath id="uuid-4a192255-a4bf-4f57-89d4-fd77083b8b56"><circle cx="196.41" cy="177.32" r="165" style="fill:none; stroke-width:0px;"/></clipPath></defs><g style="clip-path:url(#uuid-4ad429d7-5d40-4f29-a443-c4037e7ab017);"><g style="clip-path:url(#uuid-68856be6-990c-4726-be72-beb184360f71);"><path d="m196.41-96.82c25.62,0,49.64,5.62,67.65,15.82,17.29,9.79,26.81,22.56,26.81,35.96s-9.52,26.16-26.81,35.96c-18,10.2-42.03,15.82-67.65,15.82s-49.64-5.62-67.65-15.82c-17.29-9.79-26.81-22.56-26.81-35.96s9.52-26.16,26.81-35.96c18-10.2,42.03-15.82,67.65-15.82m0-4c-54.38,0-98.45,24.97-98.45,55.77S142.04,10.72,196.41,10.72s98.45-24.97,98.45-55.77-44.08-55.77-98.45-55.77h0Z" style="fill:#004996; stroke-width:0px;"/></g></g><g style="clip-path:url(#uuid-9e6974e6-5062-4d08-8408-eccd2e443341);"><path d="m196.41,16.32c12.65,0,25.44,16.62,35.1,45.59,10.26,30.77,15.9,71.75,15.9,115.41s-5.65,84.64-15.9,115.41c-9.66,28.97-22.45,45.59-35.1,45.59s-25.44-16.62-35.1-45.59c-10.26-30.77-15.9-71.75-15.9-115.41s5.65-84.64,15.9-115.41c9.66-28.97,22.45-45.59,35.1-45.59m0-4c-30.38,0-55,73.87-55,165s24.62,165,55,165,55-73.87,55-165S226.79,12.32,196.41,12.32h0Z" style="fill:#61b4ff; stroke-width:0px;"/><path d="m196.41,16.32c58.45,0,106,72.22,106,161s-47.55,161-106,161-106-72.22-106-161S137.97,16.32,196.41,16.32m0-4c-60.75,0-110,73.87-110,165s49.25,165,110,165,110-73.87,110-165S257.17,12.32,196.41,12.32h0Z" style="fill:#61b4ff; stroke-width:0px;"/><path d="m196.41,16.32c43,0,83.44,16.75,113.84,47.16s47.16,70.84,47.16,113.84-16.75,83.44-47.16,113.84-70.84,47.16-113.84,47.16-83.44-16.75-113.84-47.16c-30.41-30.41-47.16-70.84-47.16-113.84s16.75-83.44,47.16-113.84c30.41-30.41,70.84-47.16,113.84-47.16m0-4C105.29,12.32,31.41,86.19,31.41,177.32s73.87,165,165,165,165-73.87,165-165S287.54,12.32,196.41,12.32h0Z" style="fill:#61b4ff; stroke-width:0px;"/><line x1="196.41" y1="12.57" x2="196.41" y2="342.32" style="fill:none; stroke:#61b4ff; stroke-linejoin:round; stroke-width:4px;"/><g style="clip-path:url(#uuid-4a192255-a4bf-4f57-89d4-fd77083b8b56);"><path d="m196.41-39.45c25.62,0,49.64,5.62,67.65,15.82,17.29,9.79,26.81,22.56,26.81,35.96s-9.52,26.16-26.81,35.96c-18,10.2-42.03,15.82-67.65,15.82s-49.64-5.62-67.65-15.82c-17.29-9.79-26.81-22.56-26.81-35.96s9.52-26.16,26.81-35.96c18-10.2,42.03-15.82,67.65-15.82m0-4c-54.38,0-98.45,24.97-98.45,55.77s44.08,55.77,98.45,55.77,98.45-24.97,98.45-55.77-44.08-55.77-98.45-55.77h0Z" style="fill:#61b4ff; stroke-width:0px;"/><path d="m196.41,290.55c25.62,0,49.64,5.62,67.65,15.82,17.29,9.79,26.81,22.56,26.81,35.96s-9.52,26.16-26.81,35.96c-18,10.2-42.03,15.82-67.65,15.82s-49.64-5.62-67.65-15.82c-17.29-9.79-26.81-22.56-26.81-35.96s9.52-26.16,26.81-35.96c18-10.2,42.03-15.82,67.65-15.82m0-4c-54.38,0-98.45,24.97-98.45,55.77s44.08,55.77,98.45,55.77,98.45-24.97,98.45-55.77-44.08-55.77-98.45-55.77h0Z" style="fill:#61b4ff; stroke-width:0px;"/></g></g><path d="m6.86,178.38c0-23.1,20.3-46.48,43.68-46.48s43.54,23.38,43.54,46.48c0,25.62-15.82,51.24-43.54,51.24S6.86,204,6.86,178.38Zm66.64-14.84c0-5.04-.7-9.8-2.1-14-2.8-8.54-8.54-14.14-20.86-14.14s-18.48,5.6-21,14.14c-1.26,4.2-2.1,8.96-2.1,14v30.52c0,5.46.28,10.78,1.54,15.68,2.52,9.66,8.4,16.38,21.56,16.38s19.04-6.72,21.56-16.38c1.26-4.9,1.4-10.22,1.4-15.68v-30.52Z" style="fill:#fff; stroke-width:0px;"/><path d="m150.75,224.02h13.86v3.5h-45.64v-3.5h13.86v-86.52h-13.86v-3.5h45.64v3.5h-13.86v86.52Z" style="fill:#fff; stroke-width:0px;"/><path d="m283.19,224.02h13.86v3.5h-45.64v-3.5h13.86v-84.14h-.42l-28,87.64h-4.76l-27.86-87.64h-.28v84.14h13.58v3.5h-31.92v-3.5h13.86v-86.52h-13.86v-3.5h36.12l19.6,63.98,20.3-63.98h35.42v3.5h-13.86v86.52Z" style="fill:#fff; stroke-width:0px;"/><path d="m315.67,227.52v-3.5h13.86v-86.52h-13.86v-3.5h46.34v3.5h-14.56v86.52h18.34c17.78,0,24.08-11.9,24.64-28h4.34l-1.4,31.5h-77.7Z" style="fill:#fff; stroke-width:0px;"/></svg>