<?xml version="1.0" encoding="UTF-8"?><svg id="uuid-c31965bd-8485-40b7-8691-8dbcf41b326b" xmlns="http://www.w3.org/2000/svg" width="1100" height="400" viewBox="0 0 1100 400"><path d="m225.25,365.25c-91,0-165-74-165-165S134.25,35.25,225.25,35.25s165,74,165,165-74,165-165,165m-83.7-26.9c24.4,14.9,53.1,23.5,83.8,23.5s59.5-8.6,84-23.6c-14.4-16.2-45.6-26.3-82.4-26.6h-1.2c-36.9,0-69.5,10.4-84.2,26.7m-3.5-273.9c-44.7,28.8-74.3,78.9-74.3,135.9s29.9,107.5,74.8,136.2c15.3-17.6,48.4-28.3,87.1-28.3h1.3c38.1.2,70.5,11,85.3,28.1,44.8-28.7,74.6-79,74.6-136.1s-29.5-106.9-74-135.7c-14.6,17.5-47.3,28.5-85.8,28.8-40,.2-73.8-10.8-89-28.9m2.9-1.9c14.5,16.7,47.4,27.4,84.8,27.4h1.2c37.3-.2,68.8-10.6,82.9-27.2-24.6-15.2-53.6-24-84.6-24s-59.7,8.7-84.3,23.8" style="fill:#004996; stroke-width:0px;"/><path d="m77.35,251.85c27.6,0,43.4-25.5,43.4-51,0-23-20.1-46.3-43.4-46.3s-43.5,23.3-43.5,46.3c0,25.5,15.9,51,43.5,51m22.9-35.4c0,5.4-.1,10.7-1.4,15.6-2.5,9.6-8.2,16.3-21.5,16.3s-19-6.7-21.5-16.3c-1.3-4.9-1.5-10.2-1.5-15.6v-30.4c0-5,.8-9.8,2.1-13.9,2.5-8.5,8.5-14.1,20.9-14.1s18,5.6,20.8,14.1c1.4,4.2,2.1,8.9,2.1,13.9,0,0,0,30.4,0,30.4Z" style="fill:#1d1d1b; fill-rule:evenodd; stroke-width:0px;"/><polygon points="177.55 160.15 191.35 160.15 191.35 156.65 145.95 156.65 145.95 160.15 159.75 160.15 159.75 246.25 145.95 246.25 145.95 249.75 191.35 249.75 191.35 246.25 177.55 246.25 177.55 160.15" style="fill:#1d1d1b; stroke-width:0px;"/><polygon points="309.35 160.15 323.15 160.15 323.15 156.65 287.95 156.65 267.75 220.35 248.15 156.65 212.25 156.65 212.25 160.15 226.05 160.15 226.05 246.25 212.25 246.25 212.25 249.75 244.05 249.75 244.05 246.25 230.45 246.25 230.45 162.45 230.75 162.45 258.55 249.75 263.25 249.75 291.15 162.45 291.55 162.45 291.55 246.25 277.75 246.25 277.75 249.75 323.15 249.75 323.15 246.25 309.35 246.25 309.35 160.15" style="fill:#1d1d1b; stroke-width:0px;"/><path d="m420.35,249.75l1.4-31.4h-4.3c-.6,16-6.8,27.9-24.5,27.9h-18.3v-86.2h14.5v-3.5h-46.1v3.5h13.8v86.2h-13.8v3.5h77.3,0Z" style="fill:#1d1d1b; stroke-width:0px;"/><path d="m225.95,365.35h-.2v-2h-.2v1.9c-51.3,0-90.7-40.8-105.5-109l3.4-.7c13,59.8,45.2,98,87.5,105.1-25.2-17-34.5-76.5-37.5-104.5l3.4-.4c7,64.8,24.5,104.1,47.1,106l.1-106.3h3.4l-.2,106.4c23.1-1.7,40.8-41.3,47.5-106.6l3.4.4c-5.8,56-19.2,92.8-37.8,105.2,42.4-7.1,74.6-45.5,87.6-105.8l3.4.7c-14.8,68.6-54.2,109.6-105.4,109.6m49.3-212.9c-6.4-68-24.6-110.8-47.9-112.9l-.1,112.7h-3.4l.1-112.8c-23.7,2-42.1,44.9-48.2,112.9l-3.4-.3c5.3-59,19.4-98.7,38.9-111.6-44.2,7.1-77,47.6-89.2,111.5l-3.4-.6c13.8-72.4,53.7-115.5,106.8-115.5h.2v.1c53.3.1,93.3,43.2,107,115.5l-3.4.6c-12.1-63.9-45-104.5-89.5-111.6,19.3,12.9,33.4,52.6,38.9,111.6l-3.4.4h0Z" style="fill:#004996; stroke-width:0px;"/><path d="m484.15,84.85c-2.1-1.2-3.8-2.7-4.9-4.8-1.2-2-1.8-4.3-1.8-6.8s.6-4.8,1.8-6.8c1.2-2,2.8-3.6,4.9-4.8s4.5-1.7,7.1-1.7,4.9.6,7,1.7,3.7,2.7,4.9,4.8c1.2,2,1.8,4.3,1.8,6.8s-.6,4.8-1.8,6.8c-1.2,2-2.8,3.6-4.9,4.8-2.1,1.1-4.4,1.7-7,1.7s-5-.5-7.1-1.7m12.7-2.1c1.7-.9,3-2.2,3.9-3.9.9-1.7,1.4-3.5,1.4-5.6s-.5-3.9-1.4-5.6c-.9-1.7-2.3-3-3.9-3.9-1.7-.9-3.5-1.4-5.6-1.4s-3.9.5-5.6,1.4-3,2.2-4,3.9c-1,1.7-1.4,3.5-1.4,5.6s.5,3.9,1.4,5.6c1,1.7,2.3,3,4,3.9s3.6,1.4,5.6,1.4,3.9-.5,5.6-1.4" style="fill:#001e41; stroke-width:0px;"/><path d="m515.95,67.55c1.2-.7,2.8-1,4.6-1v2.6h-.6c-2.1,0-3.7.6-4.9,1.9-1.2,1.3-1.8,3.1-1.8,5.3v10h-2.7v-19.6h2.5v3.9c.7-1.4,1.6-2.4,2.9-3.1" style="fill:#001e41; stroke-width:0px;"/><path d="m543.35,66.75v17.2c0,3.3-.8,5.8-2.4,7.4-1.6,1.6-4.1,2.4-7.4,2.4-1.8,0-3.5-.3-5.2-.8-1.6-.5-3-1.3-4-2.2l1.3-2c.9.8,2.1,1.5,3.5,2s2.8.7,4.3.7c2.5,0,4.3-.6,5.5-1.7,1.2-1.2,1.8-3,1.8-5.4v-2.5c-.8,1.2-1.9,2.2-3.2,2.8-1.3.6-2.8,1-4.4,1-1.8,0-3.5-.4-5-1.2-1.5-.8-2.7-1.9-3.6-3.4s-1.3-3.1-1.3-5c0-1.8.4-3.5,1.3-4.9.9-1.4,2-2.6,3.5-3.4s3.2-1.2,5.1-1.2c1.7,0,3.2.3,4.5,1,1.3.7,2.4,1.6,3.3,2.9v-3.8h2.4v.1h0Zm-6.3,15.6c1.1-.6,2-1.5,2.7-2.6.6-1.1,1-2.3,1-3.7s-.3-2.6-1-3.7c-.6-1.1-1.5-1.9-2.7-2.5-1.1-.6-2.4-.9-3.9-.9-1.4,0-2.7.3-3.8.9s-2,1.4-2.7,2.5c-.6,1.1-1,2.3-1,3.7s.3,2.6,1,3.7c.6,1.1,1.5,2,2.7,2.6,1.1.6,2.4.9,3.8.9s2.8-.3,3.9-.9" style="fill:#001e41; stroke-width:0px;"/><path d="m563.55,68.45c1.4,1.3,2.1,3.2,2.1,5.7v12.2h-2.5v-3.1c-.6,1-1.5,1.8-2.6,2.4-1.2.6-2.5.9-4.1.9-2.2,0-3.9-.5-5.2-1.6-1.3-1-1.9-2.4-1.9-4.2,0-1.7.6-3,1.8-4s3.1-1.5,5.8-1.5h6.2v-1.2c0-1.7-.5-3-1.4-3.9s-2.3-1.3-4.2-1.3c-1.2,0-2.4.2-3.6.6-1.1.4-2.1,1-3,1.7l-1.2-2c1-.8,2.2-1.5,3.6-2,1.4-.5,2.9-.7,4.4-.7,2.5.1,4.4.8,5.8,2m-3,15c1.1-.7,1.9-1.7,2.4-3v-3.2h-6.2c-3.4,0-5.1,1.2-5.1,3.5,0,1.1.4,2.1,1.3,2.7.9.7,2.1,1,3.7,1,1.5,0,2.8-.3,3.9-1" style="fill:#001e41; stroke-width:0px;"/><path d="m588.75,68.75c1.5,1.4,2.2,3.5,2.2,6.3v11.4h-2.7v-11.2c0-2-.5-3.6-1.5-4.7s-2.5-1.6-4.4-1.6c-2.1,0-3.8.6-5,1.9s-1.9,3-1.9,5.2v10.3h-2.7v-19.6h2.5v3.6c.7-1.2,1.7-2.1,3-2.8,1.3-.7,2.8-1,4.5-1,2.6,0,4.5.7,6,2.2" style="fill:#001e41; stroke-width:0px;"/><path d="m598.15,61.85c-.4-.4-.6-.8-.6-1.3s.2-.9.6-1.3c.4-.4.8-.6,1.4-.6.5,0,1,.2,1.4.5.4.4.6.8.6,1.3s-.2,1-.6,1.4c-.4.4-.8.6-1.4.6s-1.1-.2-1.4-.6m0,4.9h2.7v19.7h-2.7v-19.7Z" style="fill:#001e41; stroke-width:0px;"/><path d="m608.85,85.85c-1.5-.5-2.6-1-3.4-1.7l1.2-2.1c.8.6,1.9,1.2,3.1,1.6,1.2.4,2.5.6,3.9.6,1.8,0,3.1-.3,4-.8.9-.6,1.3-1.4,1.3-2.4,0-.7-.2-1.3-.7-1.7s-1.1-.7-1.8-.9c-.7-.2-1.7-.4-2.9-.6-1.6-.3-2.9-.6-3.9-.9s-1.8-.8-2.5-1.6c-.7-.7-1-1.8-1-3.1,0-1.6.7-3,2.1-4,1.4-1,3.3-1.6,5.7-1.6,1.3,0,2.5.2,3.8.5,1.3.3,2.3.8,3.1,1.3l-1.2,2.1c-1.6-1.1-3.6-1.7-5.8-1.7-1.7,0-3,.3-3.8.9-.9.6-1.3,1.4-1.3,2.4,0,.7.2,1.3.7,1.8.5.4,1.1.8,1.8,1s1.7.4,3,.7c1.6.3,2.8.6,3.8.9.9.3,1.8.8,2.4,1.5.6.7,1,1.7,1,3,0,1.7-.7,3.1-2.1,4.1-1.4,1-3.4,1.5-6,1.5-1.5-.1-3-.3-4.5-.8" style="fill:#001e41; stroke-width:0px;"/><path d="m639.25,68.45c1.4,1.3,2.1,3.2,2.1,5.7v12.2h-2.5v-3.1c-.6,1-1.5,1.8-2.6,2.4-1.2.6-2.5.9-4.1.9-2.2,0-3.9-.5-5.2-1.6-1.3-1-1.9-2.4-1.9-4.2,0-1.7.6-3,1.8-4s3.1-1.5,5.8-1.5h6.2v-1.2c0-1.7-.5-3-1.4-3.9s-2.3-1.3-4.2-1.3c-1.2,0-2.4.2-3.6.6-1.1.4-2.1,1-3,1.7l-1.2-2c1-.8,2.2-1.5,3.6-2,1.4-.5,2.9-.7,4.4-.7,2.5.1,4.5.8,5.8,2m-3,15c1.1-.7,1.9-1.7,2.4-3v-3.2h-6.2c-3.4,0-5.1,1.2-5.1,3.5,0,1.1.4,2.1,1.3,2.7.9.7,2.1,1,3.7,1s2.9-.3,3.9-1" style="fill:#001e41; stroke-width:0px;"/><path d="m658.95,85.15c-.5.4-1.1.8-1.8,1s-1.5.4-2.3.4c-1.8,0-3.3-.5-4.3-1.5s-1.5-2.4-1.5-4.2v-11.9h-3.5v-2.2h3.5v-4.3h2.7v4.3h6v2.2h-6v11.7c0,1.2.3,2.1.9,2.7.6.6,1.4.9,2.5.9.5,0,1.1-.1,1.6-.3.5-.2,1-.4,1.3-.7l.9,1.9h0Z" style="fill:#001e41; stroke-width:0px;"/><path d="m663.75,61.85c-.4-.4-.6-.8-.6-1.3s.2-.9.6-1.3c.4-.4.8-.6,1.4-.6.5,0,1,.2,1.4.5.4.4.6.8.6,1.3s-.2,1-.6,1.4c-.4.4-.8.6-1.4.6s-1.1-.2-1.4-.6m0,4.9h2.7v19.7h-2.7v-19.7Z" style="fill:#001e41; stroke-width:0px;"/><path d="m676.75,85.25c-1.5-.9-2.7-2.1-3.6-3.6-.9-1.5-1.3-3.2-1.3-5.2s.4-3.6,1.3-5.2c.9-1.5,2.1-2.7,3.6-3.6,1.5-.8,3.2-1.3,5.1-1.3s3.6.4,5.1,1.3c1.5.8,2.7,2,3.6,3.6.9,1.5,1.3,3.2,1.3,5.2s-.4,3.6-1.3,5.2c-.9,1.5-2,2.7-3.6,3.6-1.5.9-3.2,1.3-5.1,1.3s-3.6-.4-5.1-1.3m8.9-2c1.1-.6,2-1.5,2.6-2.7.6-1.2.9-2.5.9-4s-.3-2.8-.9-4c-.6-1.2-1.5-2.1-2.6-2.7s-2.4-1-3.8-1-2.6.3-3.8,1c-1.1.6-2,1.5-2.6,2.7s-1,2.5-1,4,.3,2.8,1,4c.6,1.2,1.5,2.1,2.6,2.7s2.4,1,3.8,1,2.7-.4,3.8-1" style="fill:#001e41; stroke-width:0px;"/><path d="m713.15,68.75c1.5,1.4,2.2,3.5,2.2,6.3v11.4h-2.7v-11.2c0-2-.5-3.6-1.5-4.7s-2.5-1.6-4.4-1.6c-2.1,0-3.8.6-5,1.9-1.2,1.3-1.9,3-1.9,5.2v10.3h-2.6v-19.6h2.5v3.6c.7-1.2,1.7-2.1,3-2.8,1.3-.7,2.8-1,4.5-1,2.5,0,4.5.7,5.9,2.2" style="fill:#001e41; stroke-width:0px;"/><rect x="739.15" y="60.25" width="2.8" height="26.2" style="fill:#001e41; stroke-width:0px;"/><path d="m765.75,68.75c1.5,1.4,2.2,3.5,2.2,6.3v11.4h-2.7v-11.2c0-2-.5-3.6-1.5-4.7s-2.5-1.6-4.4-1.6c-2.1,0-3.8.6-5,1.9s-1.9,3-1.9,5.2v10.3h-2.7v-19.6h2.5v3.6c.7-1.2,1.7-2.1,3-2.8,1.3-.7,2.8-1,4.5-1,2.6,0,4.6.7,6,2.2" style="fill:#001e41; stroke-width:0px;"/><path d="m785.55,85.15c-.5.4-1.1.8-1.8,1s-1.5.4-2.3.4c-1.8,0-3.3-.5-4.3-1.5s-1.5-2.4-1.5-4.2v-11.9h-3.5v-2.2h3.5v-4.3h2.7v4.3h6v2.2h-6v11.7c0,1.2.3,2.1.9,2.7.6.6,1.4.9,2.5.9.5,0,1.1-.1,1.6-.3.5-.2,1-.4,1.3-.7l.9,1.9h0Z" style="fill:#001e41; stroke-width:0px;"/><path d="m806.75,77.35h-16.5c.1,2,.9,3.7,2.4,5,1.4,1.3,3.2,1.9,5.4,1.9,1.2,0,2.3-.2,3.4-.7,1-.4,1.9-1.1,2.7-1.9l1.5,1.7c-.9,1-2,1.8-3.3,2.4-1.3.5-2.8.8-4.3.8-2,0-3.8-.4-5.4-1.3-1.6-.9-2.8-2.1-3.6-3.6-.9-1.5-1.3-3.2-1.3-5.2s.4-3.6,1.3-5.2c.8-1.5,2-2.7,3.4-3.6,1.5-.8,3.1-1.3,4.9-1.3s3.5.4,4.9,1.3c1.4.8,2.6,2,3.4,3.5.8,1.5,1.2,3.2,1.2,5.2l-.1,1h0Zm-14.2-6.7c-1.3,1.2-2,2.8-2.2,4.7h14c-.2-1.9-.9-3.5-2.2-4.7s-2.9-1.8-4.8-1.8c-2,0-3.6.6-4.8,1.8" style="fill:#001e41; stroke-width:0px;"/><path d="m817.55,67.55c1.2-.7,2.8-1,4.6-1v2.6h-.6c-2.1,0-3.7.6-4.9,1.9s-1.8,3.1-1.8,5.3v10h-2.6v-19.6h2.5v3.9c.7-1.4,1.6-2.4,2.8-3.1" style="fill:#001e41; stroke-width:0px;"/><path d="m842.85,68.75c1.5,1.4,2.2,3.5,2.2,6.3v11.4h-2.7v-11.2c0-2-.5-3.6-1.5-4.7s-2.5-1.6-4.4-1.6c-2.1,0-3.8.6-5,1.9s-1.9,3-1.9,5.2v10.3h-2.7v-19.6h2.5v3.6c.7-1.2,1.7-2.1,3-2.8,1.3-.7,2.8-1,4.5-1,2.6,0,4.6.7,6,2.2" style="fill:#001e41; stroke-width:0px;"/><path d="m865.05,68.45c1.4,1.3,2.1,3.2,2.1,5.7v12.2h-2.5v-3.1c-.6,1-1.5,1.8-2.6,2.4-1.2.6-2.5.9-4.1.9-2.2,0-3.9-.5-5.2-1.6-1.3-1-1.9-2.4-1.9-4.2,0-1.7.6-3,1.8-4s3.1-1.5,5.8-1.5h6.2v-1.2c0-1.7-.5-3-1.4-3.9s-2.3-1.3-4.2-1.3c-1.2,0-2.4.2-3.6.6-1.1.4-2.1,1-3,1.7l-1.2-2c1-.8,2.2-1.5,3.6-2,1.4-.5,2.9-.7,4.4-.7,2.5.1,4.4.8,5.8,2m-3,15c1.1-.7,1.9-1.7,2.4-3v-3.2h-6.2c-3.4,0-5.1,1.2-5.1,3.5,0,1.1.4,2.1,1.3,2.7.9.7,2.1,1,3.7,1s2.8-.3,3.9-1" style="fill:#001e41; stroke-width:0px;"/><path d="m884.65,85.15c-.5.4-1.1.8-1.8,1s-1.5.4-2.3.4c-1.8,0-3.3-.5-4.3-1.5s-1.5-2.4-1.5-4.2v-11.9h-3.5v-2.2h3.5v-4.3h2.7v4.3h6v2.2h-6v11.7c0,1.2.3,2.1.9,2.7.6.6,1.4.9,2.5.9.5,0,1.1-.1,1.6-.3.5-.2,1-.4,1.3-.7l.9,1.9h0Z" style="fill:#001e41; stroke-width:0px;"/><path d="m889.45,61.85c-.4-.4-.6-.8-.6-1.3s.2-.9.6-1.3c.4-.4.8-.6,1.4-.6.5,0,1,.2,1.4.5.4.4.6.8.6,1.3s-.2,1-.6,1.4c-.4.4-.8.6-1.4.6-.5,0-1-.2-1.4-.6m.1,4.9h2.7v19.7h-2.7v-19.7Z" style="fill:#001e41; stroke-width:0px;"/><path d="m902.55,85.25c-1.5-.9-2.7-2.1-3.6-3.6-.9-1.5-1.3-3.2-1.3-5.2s.4-3.6,1.3-5.2c.9-1.5,2.1-2.7,3.6-3.6,1.5-.8,3.2-1.3,5.1-1.3s3.6.4,5.1,1.3c1.5.8,2.7,2,3.6,3.6.9,1.5,1.3,3.2,1.3,5.2s-.4,3.6-1.3,5.2c-.9,1.5-2,2.7-3.6,3.6-1.5.9-3.2,1.3-5.1,1.3s-3.6-.4-5.1-1.3m8.8-2c1.1-.6,2-1.5,2.6-2.7s.9-2.5.9-4-.3-2.8-.9-4c-.6-1.2-1.5-2.1-2.6-2.7s-2.4-1-3.8-1-2.6.3-3.8,1c-1.1.6-2,1.5-2.6,2.7-.6,1.2-1,2.5-1,4s.3,2.8,1,4c.6,1.2,1.5,2.1,2.6,2.7s2.4,1,3.8,1c1.5,0,2.7-.4,3.8-1" style="fill:#001e41; stroke-width:0px;"/><path d="m938.95,68.75c1.5,1.4,2.2,3.5,2.2,6.3v11.4h-2.7v-11.2c0-2-.5-3.6-1.5-4.7s-2.5-1.6-4.4-1.6c-2.1,0-3.8.6-5,1.9s-1.9,3-1.9,5.2v10.3h-2.7v-19.6h2.5v3.6c.7-1.2,1.7-2.1,3-2.8,1.3-.7,2.8-1,4.5-1,2.6,0,4.5.7,6,2.2" style="fill:#001e41; stroke-width:0px;"/><path d="m961.15,68.45c1.4,1.3,2.1,3.2,2.1,5.7v12.2h-2.5v-3.1c-.6,1-1.5,1.8-2.6,2.4-1.2.6-2.5.9-4.1.9-2.2,0-3.9-.5-5.2-1.6-1.3-1-1.9-2.4-1.9-4.2,0-1.7.6-3,1.8-4s3.1-1.5,5.8-1.5h6.2v-1.2c0-1.7-.5-3-1.4-3.9s-2.3-1.3-4.2-1.3c-1.2,0-2.4.2-3.6.6-1.1.4-2.1,1-3,1.7l-1.2-2c1-.8,2.2-1.5,3.6-2,1.4-.5,2.9-.7,4.4-.7,2.5.1,4.4.8,5.8,2m-3,15c1.1-.7,1.9-1.7,2.4-3v-3.2h-6.2c-3.4,0-5.1,1.2-5.1,3.5,0,1.1.4,2.1,1.3,2.7.9.7,2.1,1,3.7,1s2.8-.3,3.9-1" style="fill:#001e41; stroke-width:0px;"/><rect x="970.45" y="58.65" width="2.7" height="27.8" style="fill:#001e41; stroke-width:0px;"/><path d="m997.65,77.35h-16.5c.1,2,.9,3.7,2.4,5,1.4,1.3,3.2,1.9,5.4,1.9,1.2,0,2.3-.2,3.4-.7,1-.4,1.9-1.1,2.7-1.9l1.5,1.7c-.9,1-2,1.8-3.3,2.4-1.3.5-2.8.8-4.3.8-2,0-3.8-.4-5.4-1.3-1.6-.9-2.8-2.1-3.6-3.6-.9-1.5-1.3-3.2-1.3-5.2s.4-3.6,1.3-5.2c.8-1.5,2-2.7,3.4-3.6,1.5-.8,3.1-1.3,4.9-1.3s3.5.4,4.9,1.3c1.4.8,2.6,2,3.4,3.5.8,1.5,1.2,3.2,1.2,5.2l-.1,1h0Zm-14.3-6.7c-1.3,1.2-2,2.8-2.2,4.7h14c-.2-1.9-.9-3.5-2.2-4.7-1.3-1.2-2.9-1.8-4.8-1.8s-3.5.6-4.8,1.8" style="fill:#001e41; stroke-width:0px;"/><path d="m1037.05,58.65v27.8h-2.5v-3.9c-.8,1.3-1.9,2.3-3.2,3-1.3.7-2.8,1-4.4,1-1.8,0-3.5-.4-5-1.3-1.5-.8-2.7-2-3.5-3.6-.8-1.5-1.3-3.3-1.3-5.2s.4-3.7,1.3-5.2c.8-1.5,2-2.7,3.5-3.5s3.2-1.3,5-1.3c1.6,0,3,.3,4.3,1s2.3,1.6,3.2,2.9v-11.7h2.6Zm-6.2,24.6c1.1-.6,2-1.5,2.6-2.7s1-2.5,1-4-.3-2.8-1-4c-.6-1.2-1.5-2.1-2.6-2.7s-2.4-1-3.7-1c-1.4,0-2.6.3-3.8,1-1.1.6-2,1.5-2.6,2.7-.6,1.2-1,2.5-1,4s.3,2.8,1,4c.6,1.2,1.5,2.1,2.6,2.7s2.4,1,3.8,1c1.3,0,2.6-.4,3.7-1" style="fill:#001e41; stroke-width:0px;"/><path d="m1061.55,77.35h-16.5c.1,2,.9,3.7,2.4,5,1.4,1.3,3.2,1.9,5.4,1.9,1.2,0,2.3-.2,3.4-.7,1-.4,1.9-1.1,2.7-1.9l1.5,1.7c-.9,1-2,1.8-3.3,2.4-1.3.5-2.8.8-4.3.8-2,0-3.8-.4-5.4-1.3s-2.8-2.1-3.6-3.6c-.9-1.5-1.3-3.2-1.3-5.2s.4-3.6,1.3-5.2c.8-1.5,2-2.7,3.4-3.6s3.1-1.3,4.9-1.3,3.5.4,4.9,1.3c1.4.8,2.6,2,3.4,3.5.8,1.5,1.2,3.2,1.2,5.2l-.1,1Zm-14.3-6.7c-1.3,1.2-2,2.8-2.2,4.7h14c-.2-1.9-.9-3.5-2.2-4.7-1.3-1.2-2.9-1.8-4.8-1.8s-3.5.6-4.8,1.8" style="fill:#001e41; stroke-width:0px;"/><polygon points="521.65 157.65 521.55 130.75 508.35 152.95 503.65 152.95 490.55 131.35 490.55 157.75 480.85 157.75 480.85 112.85 489.45 112.85 506.25 140.75 522.75 112.85 531.25 112.85 531.35 157.75 521.65 157.75 521.65 157.65" style="fill:#001e41; stroke-width:0px;"/><path d="m573.95,143.25h-26.1c.5,2.1,1.6,3.8,3.3,5.1,1.8,1.2,3.9,1.9,6.5,1.9,1.8,0,3.4-.3,4.8-.8,1.4-.5,2.7-1.4,3.9-2.5l5.3,5.8c-3.2,3.7-8,5.6-14.2,5.6-3.9,0-7.3-.8-10.3-2.3s-5.3-3.6-6.9-6.3c-1.6-2.7-2.4-5.7-2.4-9.2s.8-6.4,2.4-9.1c1.6-2.7,3.8-4.8,6.6-6.3s5.9-2.3,9.4-2.3,6.4.7,9.2,2.2c2.7,1.5,4.9,3.5,6.4,6.3,1.6,2.7,2.3,5.9,2.3,9.5,0-.2,0,.7-.2,2.4m-23.4-11.1c-1.5,1.3-2.5,3-2.8,5.3h17c-.3-2.2-1.3-3.9-2.8-5.2s-3.4-2-5.6-2c-2.3-.1-4.2.6-5.8,1.9m8.3-22.7h10.8l-11.6,9.2h-7.8l8.6-9.2Z" style="fill:#001e41; stroke-width:0px;"/><path d="m602.15,155.95c-1,.7-2.2,1.3-3.6,1.6-1.4.3-2.9.5-4.5.5-4.1,0-7.3-1-9.5-3.1s-3.4-5.2-3.4-9.2v-14.2h-5.3v-7.6h5.3v-8.4h10v8.4h8.6v7.7h-8.6v14c0,1.5.4,2.6,1.1,3.4.7.8,1.8,1.2,3.2,1.2,1.6,0,2.9-.4,4-1.3l2.7,7Z" style="fill:#001e41; stroke-width:0px;"/><path d="m621.25,123.95c2-.9,4.4-1.3,7-1.3v9.2c-1.1-.1-1.9-.1-2.2-.1-2.9,0-5.1.8-6.7,2.4-1.6,1.6-2.4,4-2.4,7.2v16.3h-10v-34.5h9.6v4.6c1-1.7,2.6-3,4.7-3.8" style="fill:#001e41; stroke-width:0px;"/><path d="m639.55,155.85c-2.9-1.5-5.1-3.6-6.8-6.3-1.6-2.7-2.4-5.7-2.4-9.2s.8-6.5,2.4-9.2c1.6-2.7,3.9-4.8,6.8-6.3,2.9-1.5,6.1-2.3,9.8-2.3s6.9.8,9.7,2.3c2.9,1.5,5.1,3.6,6.7,6.3,1.6,2.7,2.4,5.8,2.4,9.2s-.8,6.5-2.4,9.2c-1.6,2.7-3.9,4.8-6.7,6.3-2.9,1.5-6.1,2.3-9.7,2.3s-6.9-.8-9.8-2.3m16.1-8.5c1.6-1.7,2.5-4.1,2.5-7s-.8-5.2-2.5-7c-1.6-1.7-3.7-2.6-6.3-2.6s-4.7.9-6.3,2.6c-1.7,1.7-2.5,4.1-2.5,7s.8,5.2,2.5,7,3.8,2.6,6.3,2.6,4.7-.9,6.3-2.6" style="fill:#001e41; stroke-width:0px;"/><rect x="673.95" y="110.05" width="10" height="47.6" style="fill:#001e41; stroke-width:0px;"/><path d="m698.95,155.85c-2.9-1.5-5.1-3.6-6.8-6.3-1.6-2.7-2.4-5.7-2.4-9.2s.8-6.5,2.4-9.2c1.6-2.7,3.9-4.8,6.8-6.3,2.9-1.5,6.1-2.3,9.8-2.3s6.9.8,9.7,2.3c2.9,1.5,5.1,3.6,6.7,6.3,1.6,2.7,2.4,5.8,2.4,9.2s-.8,6.5-2.4,9.2c-1.6,2.7-3.9,4.8-6.7,6.3-2.9,1.5-6.1,2.3-9.7,2.3s-6.9-.8-9.8-2.3m16.1-8.5c1.6-1.7,2.5-4.1,2.5-7s-.8-5.2-2.5-7c-1.6-1.7-3.7-2.6-6.3-2.6s-4.7.9-6.3,2.6c-1.7,1.7-2.5,4.1-2.5,7s.8,5.2,2.5,7c1.7,1.7,3.8,2.6,6.3,2.6s4.6-.9,6.3-2.6" style="fill:#001e41; stroke-width:0px;"/><path d="m768.95,123.15v28.7c0,6.3-1.6,11-4.9,14.1-3.3,3.1-8.1,4.6-14.4,4.6-3.3,0-6.5-.4-9.5-1.2s-5.5-2-7.4-3.5l4-7.2c1.5,1.2,3.3,2.1,5.5,2.9,2.2.7,4.4,1.1,6.7,1.1,3.5,0,6-.8,7.7-2.3,1.6-1.6,2.5-3.9,2.5-7.1v-1.5c-2.6,2.9-6.2,4.3-10.9,4.3-3.2,0-6.1-.7-8.7-2.1-2.6-1.4-4.7-3.3-6.3-5.9-1.5-2.5-2.3-5.4-2.3-8.7s.8-6.2,2.3-8.7,3.6-4.5,6.3-5.9c2.6-1.4,5.5-2.1,8.7-2.1,5,0,8.8,1.6,11.4,4.9v-4.4h9.3Zm-12.4,22.3c1.7-1.6,2.5-3.6,2.5-6.1s-.8-4.6-2.5-6.1c-1.7-1.6-3.9-2.3-6.5-2.3s-4.8.8-6.5,2.3c-1.7,1.6-2.6,3.6-2.6,6.1s.9,4.6,2.6,6.1c1.7,1.6,3.9,2.3,6.5,2.3s4.8-.8,6.5-2.3" style="fill:#001e41; stroke-width:0px;"/><path d="m777.75,116.75c-1.2-1.1-1.7-2.4-1.7-4s.6-2.9,1.7-4c1.2-1.1,2.7-1.6,4.5-1.6s3.3.5,4.5,1.5,1.7,2.3,1.7,3.8c0,1.7-.6,3-1.7,4.1-1.2,1.1-2.6,1.6-4.5,1.6s-3.3-.4-4.5-1.4m-.5,6.4h10v34.5h-10v-34.5Z" style="fill:#001e41; stroke-width:0px;"/><path d="m829.25,143.25h-26.1c.5,2.1,1.6,3.8,3.3,5.1,1.8,1.2,3.9,1.9,6.5,1.9,1.8,0,3.4-.3,4.8-.8,1.4-.5,2.7-1.4,3.9-2.5l5.3,5.8c-3.2,3.7-8,5.6-14.2,5.6-3.9,0-7.3-.8-10.3-2.3s-5.3-3.6-6.9-6.3c-1.6-2.7-2.4-5.7-2.4-9.2s.8-6.4,2.4-9.1c1.6-2.7,3.8-4.8,6.6-6.3s5.9-2.3,9.4-2.3,6.4.7,9.2,2.2c2.7,1.5,4.9,3.5,6.4,6.3,1.6,2.7,2.3,5.9,2.3,9.5,0-.2-.1.7-.2,2.4m-23.4-11.1c-1.5,1.3-2.5,3-2.8,5.3h17c-.3-2.2-1.3-3.9-2.8-5.2s-3.4-2-5.6-2c-2.4-.1-4.3.6-5.8,1.9" style="fill:#001e41; stroke-width:0px;"/><polygon points="850.25 112.75 860.65 112.75 860.65 149.15 883.15 149.15 883.15 157.65 850.25 157.65 850.25 112.75" style="fill:#001e41; stroke-width:0px;"/><path d="m920.65,143.25h-26.1c.5,2.1,1.6,3.8,3.3,5.1,1.8,1.2,3.9,1.9,6.5,1.9,1.8,0,3.4-.3,4.8-.8,1.4-.5,2.7-1.4,3.9-2.5l5.3,5.8c-3.2,3.7-8,5.6-14.2,5.6-3.9,0-7.3-.8-10.3-2.3s-5.3-3.6-6.9-6.3c-1.6-2.7-2.4-5.7-2.4-9.2s.8-6.4,2.4-9.1c1.6-2.7,3.8-4.8,6.6-6.3s5.9-2.3,9.4-2.3,6.4.7,9.2,2.2c2.7,1.5,4.9,3.5,6.4,6.3,1.6,2.7,2.3,5.9,2.3,9.5,0-.2,0,.7-.2,2.4m-23.4-11.1c-1.5,1.3-2.5,3-2.8,5.3h17c-.3-2.2-1.3-3.9-2.8-5.2s-3.4-2-5.6-2c-2.3-.1-4.2.6-5.8,1.9m8.3-22.7h10.8l-11.6,9.2h-7.8l8.6-9.2Z" style="fill:#001e41; stroke-width:0px;"/><path d="m962.15,123.15v28.7c0,6.3-1.6,11-4.9,14.1-3.3,3.1-8.1,4.6-14.4,4.6-3.3,0-6.5-.4-9.5-1.2s-5.5-2-7.4-3.5l4-7.2c1.5,1.2,3.3,2.1,5.5,2.9,2.2.7,4.4,1.1,6.7,1.1,3.5,0,6-.8,7.7-2.3,1.6-1.6,2.5-3.9,2.5-7.1v-1.5c-2.6,2.9-6.2,4.3-10.9,4.3-3.2,0-6.1-.7-8.7-2.1-2.6-1.4-4.7-3.3-6.3-5.9-1.5-2.5-2.3-5.4-2.3-8.7s.8-6.2,2.3-8.7,3.6-4.5,6.3-5.9c2.6-1.4,5.5-2.1,8.7-2.1,5,0,8.8,1.6,11.4,4.9v-4.4h9.3Zm-12.4,22.3c1.7-1.6,2.5-3.6,2.5-6.1s-.8-4.6-2.5-6.1c-1.7-1.6-3.9-2.3-6.5-2.3s-4.8.8-6.5,2.3c-1.7,1.6-2.6,3.6-2.6,6.1s.9,4.6,2.6,6.1c1.7,1.6,3.9,2.3,6.5,2.3s4.8-.8,6.5-2.3" style="fill:#001e41; stroke-width:0px;"/><path d="m996.75,126.45c2.9,2.5,4.3,6.4,4.3,11.5v19.7h-9.4v-4.3c-1.9,3.2-5.4,4.8-10.5,4.8-2.6,0-4.9-.4-6.9-1.3-1.9-.9-3.4-2.1-4.5-3.7-1-1.6-1.5-3.4-1.5-5.4,0-3.2,1.2-5.7,3.6-7.6,2.4-1.8,6.1-2.8,11.2-2.8h7.9c0-2.2-.7-3.9-2-5-1.3-1.2-3.3-1.8-6-1.8-1.8,0-3.6.3-5.4.9s-3.3,1.4-4.5,2.3l-3.6-7c1.9-1.3,4.1-2.3,6.8-3.1,2.6-.7,5.3-1.1,8.1-1.1,5.4.1,9.5,1.3,12.4,3.9m-8.5,23.8c1.3-.8,2.3-2,2.8-3.5v-3.5h-6.9c-4.1,0-6.2,1.3-6.2,4,0,1.3.5,2.3,1.5,3s2.4,1.1,4.1,1.1c1.8.1,3.3-.3,4.7-1.1" style="fill:#001e41; stroke-width:0px;"/><rect x="1009.15" y="110.05" width="10" height="47.6" style="fill:#001e41; stroke-width:0px;"/><path d="m1061.05,143.25h-26.1c.5,2.1,1.6,3.8,3.3,5.1,1.8,1.2,3.9,1.9,6.5,1.9,1.8,0,3.4-.3,4.8-.8s2.7-1.4,3.9-2.5l5.3,5.8c-3.2,3.7-8,5.6-14.2,5.6-3.9,0-7.3-.8-10.3-2.3s-5.3-3.6-6.9-6.3c-1.6-2.7-2.4-5.7-2.4-9.2s.8-6.4,2.4-9.1c1.6-2.7,3.8-4.8,6.6-6.3,2.8-1.5,5.9-2.3,9.4-2.3s6.4.7,9.2,2.2c2.7,1.5,4.9,3.5,6.4,6.3,1.6,2.7,2.3,5.9,2.3,9.5,0-.2-.1.7-.2,2.4m-23.4-11.1c-1.5,1.3-2.5,3-2.8,5.3h17c-.3-2.2-1.3-3.9-2.8-5.2s-3.4-2-5.6-2c-2.3-.1-4.2.6-5.8,1.9" style="fill:#001e41; stroke-width:0px;"/><rect x="475.45" y="195.25" width="587.8" height="3.1" style="fill:#004996; stroke-width:0px;"/><rect x="479.75" y="227.55" width="2.8" height="26.2" style="fill:#001e41; stroke-width:0px;"/><path d="m507.55,236.05c1.5,1.4,2.2,3.5,2.2,6.3v11.4h-2.7v-11.1c0-2-.5-3.6-1.5-4.7-1-1.1-2.5-1.6-4.4-1.6-2.1,0-3.8.6-5,1.9-1.2,1.3-1.9,3-1.9,5.2v10.3h-2.7v-19.7h2.5v3.6c.7-1.2,1.7-2.1,3-2.8s2.8-1,4.5-1c2.6.1,4.5.8,6,2.2" style="fill:#001e41; stroke-width:0px;"/><path d="m528.45,252.55c-.5.4-1.1.8-1.8,1s-1.5.4-2.3.4c-1.8,0-3.3-.5-4.3-1.5s-1.5-2.4-1.5-4.2v-11.9h-3.5v-2.2h3.5v-4.3h2.7v4.3h6v2.2h-6v11.7c0,1.2.3,2.1.9,2.7.6.6,1.4.9,2.5.9.5,0,1.1-.1,1.6-.3s1-.4,1.3-.7l.9,1.9h0Z" style="fill:#001e41; stroke-width:0px;"/><path d="m550.75,244.75h-16.5c.1,2,.9,3.7,2.4,5,1.4,1.3,3.2,1.9,5.4,1.9,1.2,0,2.3-.2,3.4-.7,1-.4,1.9-1.1,2.7-1.9l1.5,1.7c-.9,1-2,1.8-3.3,2.4-1.3.5-2.8.8-4.3.8-2,0-3.8-.4-5.4-1.3-1.6-.9-2.8-2.1-3.6-3.6-.9-1.5-1.3-3.2-1.3-5.2s.4-3.6,1.3-5.2c.8-1.5,2-2.7,3.4-3.6,1.5-.8,3.1-1.3,4.9-1.3s3.5.4,4.9,1.3c1.4.8,2.6,2,3.4,3.5.8,1.5,1.2,3.2,1.2,5.2l-.1,1h0Zm-14.2-6.7c-1.3,1.2-2,2.8-2.2,4.7h14c-.2-1.9-.9-3.5-2.2-4.7s-2.9-1.8-4.8-1.8c-2-.1-3.6.6-4.8,1.8" style="fill:#001e41; stroke-width:0px;"/><path d="m562.65,234.95c1.2-.7,2.8-1,4.6-1v2.6h-.6c-2.1,0-3.7.6-4.9,1.9-1.2,1.3-1.8,3.1-1.8,5.3v10h-2.7v-19.7h2.5v3.9c.8-1.4,1.7-2.3,2.9-3" style="fill:#001e41; stroke-width:0px;"/><path d="m589.15,236.05c1.5,1.4,2.2,3.5,2.2,6.3v11.4h-2.7v-11.1c0-2-.5-3.6-1.5-4.7-1-1.1-2.5-1.6-4.4-1.6-2.1,0-3.8.6-5,1.9-1.2,1.3-1.9,3-1.9,5.2v10.3h-2.7v-19.7h2.5v3.6c.7-1.2,1.7-2.1,3-2.8s2.8-1,4.5-1c2.5.1,4.5.8,6,2.2" style="fill:#001e41; stroke-width:0px;"/><path d="m612.45,235.85c1.4,1.3,2.1,3.2,2.1,5.7v12.2h-2.5v-3.1c-.6,1-1.5,1.8-2.6,2.4-1.2.6-2.5.9-4.1.9-2.2,0-3.9-.5-5.2-1.6-1.3-1-1.9-2.4-1.9-4.2,0-1.7.6-3,1.8-4s3.1-1.5,5.8-1.5h6.2v-1.2c0-1.7-.5-3-1.4-3.9s-2.3-1.3-4.2-1.3c-1.2,0-2.4.2-3.6.6-1.1.4-2.1,1-3,1.7l-1.2-2c1-.8,2.2-1.5,3.6-2,1.4-.5,2.9-.7,4.4-.7,2.4.1,4.4.7,5.8,2m-3,15c1.1-.7,1.9-1.7,2.4-3v-3.2h-6.2c-3.4,0-5.1,1.2-5.1,3.5,0,1.1.4,2.1,1.3,2.7.9.7,2.1,1,3.7,1,1.5,0,2.8-.4,3.9-1" style="fill:#001e41; stroke-width:0px;"/><path d="m633.15,252.55c-.5.4-1.1.8-1.8,1s-1.5.4-2.3.4c-1.8,0-3.3-.5-4.3-1.5s-1.5-2.4-1.5-4.2v-11.9h-3.5v-2.2h3.5v-4.3h2.7v4.3h6v2.2h-6v11.7c0,1.2.3,2.1.9,2.7.6.6,1.4.9,2.5.9.5,0,1.1-.1,1.6-.3s1-.4,1.3-.7l.9,1.9h0Z" style="fill:#001e41; stroke-width:0px;"/><path d="m639.15,229.25c-.4-.4-.6-.8-.6-1.3s.2-.9.6-1.3c.4-.4.8-.6,1.4-.6.5,0,1,.2,1.4.5.4.4.6.8.6,1.3s-.2,1-.6,1.4c-.4.4-.8.6-1.4.6-.6-.1-1.1-.3-1.4-.6m0,4.8h2.7v19.7h-2.7v-19.7Z" style="fill:#001e41; stroke-width:0px;"/><path d="m653.25,252.65c-1.5-.9-2.7-2.1-3.6-3.6-.9-1.5-1.3-3.2-1.3-5.2s.4-3.6,1.3-5.2c.9-1.5,2.1-2.7,3.6-3.6,1.5-.8,3.2-1.3,5.1-1.3s3.6.4,5.1,1.3c1.5.8,2.7,2,3.6,3.6.9,1.5,1.3,3.2,1.3,5.2s-.4,3.6-1.3,5.2c-.9,1.5-2,2.7-3.6,3.6-1.5.9-3.2,1.3-5.1,1.3s-3.6-.5-5.1-1.3m8.9-2c1.1-.6,2-1.5,2.6-2.7.6-1.2.9-2.5.9-4s-.3-2.8-.9-4c-.6-1.2-1.5-2.1-2.6-2.7-1.1-.6-2.4-1-3.8-1s-2.6.3-3.8,1c-1.1.6-2,1.5-2.6,2.7s-1,2.5-1,4,.3,2.8,1,4c.6,1.2,1.5,2.1,2.6,2.7,1.1.6,2.4,1,3.8,1,1.4-.1,2.7-.4,3.8-1" style="fill:#001e41; stroke-width:0px;"/><path d="m690.85,236.05c1.5,1.4,2.2,3.5,2.2,6.3v11.4h-2.7v-11.1c0-2-.5-3.6-1.5-4.7-1-1.1-2.5-1.6-4.4-1.6-2.1,0-3.8.6-5,1.9-1.2,1.3-1.9,3-1.9,5.2v10.3h-2.7v-19.7h2.5v3.6c.7-1.2,1.7-2.1,3-2.8s2.8-1,4.5-1c2.5.1,4.5.8,6,2.2" style="fill:#001e41; stroke-width:0px;"/><path d="m714.15,235.85c1.4,1.3,2.1,3.2,2.1,5.7v12.2h-2.5v-3.1c-.6,1-1.5,1.8-2.6,2.4-1.2.6-2.5.9-4.1.9-2.2,0-3.9-.5-5.2-1.6-1.3-1-1.9-2.4-1.9-4.2,0-1.7.6-3,1.8-4s3.1-1.5,5.8-1.5h6.2v-1.2c0-1.7-.5-3-1.4-3.9s-2.3-1.3-4.2-1.3c-1.2,0-2.4.2-3.6.6-1.1.4-2.1,1-3,1.7l-1.2-2c1-.8,2.2-1.5,3.6-2,1.4-.5,2.9-.7,4.4-.7,2.4.1,4.4.7,5.8,2m-3,15c1.1-.7,1.9-1.7,2.4-3v-3.2h-6.2c-3.4,0-5.1,1.2-5.1,3.5,0,1.1.4,2.1,1.3,2.7.9.7,2.1,1,3.7,1,1.5,0,2.8-.4,3.9-1" style="fill:#001e41; stroke-width:0px;"/><rect x="724.55" y="225.95" width="2.7" height="27.8" style="fill:#001e41; stroke-width:0px;"/><path d="m758.85,252.25c-2.1-1.2-3.8-2.7-4.9-4.8-1.2-2-1.8-4.3-1.8-6.8s.6-4.8,1.8-6.8,2.8-3.6,4.9-4.8c2.1-1.2,4.5-1.7,7.1-1.7s4.9.6,7,1.7c2.1,1.1,3.7,2.7,4.9,4.8,1.2,2,1.8,4.3,1.8,6.8s-.6,4.8-1.8,6.8-2.8,3.6-4.9,4.8c-2.1,1.2-4.4,1.7-7,1.7s-5-.6-7.1-1.7m12.7-2.2c1.7-.9,3-2.2,3.9-3.9.9-1.7,1.4-3.5,1.4-5.6s-.5-3.9-1.4-5.6c-.9-1.7-2.3-3-3.9-3.9-1.7-.9-3.5-1.4-5.6-1.4s-3.9.5-5.6,1.4-3,2.2-4,3.9-1.4,3.5-1.4,5.6.5,3.9,1.4,5.6c1,1.7,2.3,3,4,3.9s3.6,1.4,5.6,1.4,3.9-.4,5.6-1.4" style="fill:#001e41; stroke-width:0px;"/><path d="m791.75,234.95c1.2-.7,2.8-1,4.6-1v2.6h-.6c-2.1,0-3.7.6-4.9,1.9-1.2,1.3-1.8,3.1-1.8,5.3v10h-2.7v-19.7h2.5v3.9c.7-1.4,1.6-2.3,2.9-3" style="fill:#001e41; stroke-width:0px;"/><path d="m820.25,234.05v17.3c0,3.3-.8,5.8-2.4,7.4-1.6,1.6-4.1,2.4-7.4,2.4-1.8,0-3.5-.3-5.2-.8-1.6-.5-3-1.3-4-2.2l1.3-2c.9.8,2.1,1.5,3.5,2s2.8.7,4.3.7c2.5,0,4.3-.6,5.5-1.7,1.2-1.2,1.8-3,1.8-5.4v-2.5c-.8,1.2-1.9,2.2-3.2,2.8s-2.8,1-4.4,1c-1.8,0-3.5-.4-5-1.2s-2.7-1.9-3.6-3.4c-.9-1.5-1.3-3.1-1.3-5s.4-3.5,1.3-4.9c.9-1.4,2-2.6,3.5-3.4,1.5-.8,3.2-1.2,5.1-1.2,1.7,0,3.2.3,4.5,1s2.4,1.6,3.3,2.9v-3.8h2.4Zm-6.2,15.7c1.1-.6,2-1.5,2.7-2.6.6-1.1,1-2.3,1-3.7s-.3-2.6-1-3.7c-.6-1.1-1.5-1.9-2.7-2.5-1.1-.6-2.4-.9-3.9-.9-1.4,0-2.7.3-3.8.9-1.1.6-2,1.4-2.7,2.5-.6,1.1-1,2.3-1,3.7s.3,2.6,1,3.7c.6,1.1,1.5,2,2.7,2.6,1.1.6,2.4.9,3.8.9s2.7-.3,3.9-.9" style="fill:#001e41; stroke-width:0px;"/><path d="m841.65,235.85c1.4,1.3,2.1,3.2,2.1,5.7v12.2h-2.5v-3.1c-.6,1-1.5,1.8-2.6,2.4-1.2.6-2.5.9-4.1.9-2.2,0-3.9-.5-5.2-1.6-1.3-1-1.9-2.4-1.9-4.2,0-1.7.6-3,1.8-4s3.1-1.5,5.8-1.5h6.2v-1.2c0-1.7-.5-3-1.4-3.9s-2.3-1.3-4.2-1.3c-1.2,0-2.4.2-3.6.6-1.1.4-2.1,1-3,1.7l-1.2-2c1-.8,2.2-1.5,3.6-2,1.4-.5,2.9-.7,4.4-.7,2.4.1,4.4.7,5.8,2m-3,15c1.1-.7,1.9-1.7,2.4-3v-3.2h-6.2c-3.4,0-5.1,1.2-5.1,3.5,0,1.1.4,2.1,1.3,2.7.9.7,2.1,1,3.7,1,1.5,0,2.8-.4,3.9-1" style="fill:#001e41; stroke-width:0px;"/><path d="m867.95,236.05c1.5,1.4,2.2,3.5,2.2,6.3v11.4h-2.7v-11.1c0-2-.5-3.6-1.5-4.7-1-1.1-2.5-1.6-4.4-1.6-2.1,0-3.8.6-5,1.9-1.2,1.3-1.9,3-1.9,5.2v10.3h-2.7v-19.7h2.5v3.6c.7-1.2,1.7-2.1,3-2.8s2.8-1,4.5-1c2.6.1,4.5.8,6,2.2" style="fill:#001e41; stroke-width:0px;"/><path d="m878.45,229.25c-.4-.4-.6-.8-.6-1.3s.2-.9.6-1.3c.4-.4.8-.6,1.4-.6.5,0,1,.2,1.4.5.4.4.6.8.6,1.3s-.2,1-.6,1.4c-.4.4-.8.6-1.4.6-.6-.1-1.1-.3-1.4-.6m0,4.8h2.7v19.7h-2.7v-19.7Z" style="fill:#001e41; stroke-width:0px;"/><polygon points="903.55 251.55 903.55 253.75 887.55 253.75 887.55 251.95 899.95 236.25 887.75 236.25 887.75 234.05 903.25 234.05 903.25 235.85 890.85 251.55 903.55 251.55" style="fill:#001e41; stroke-width:0px;"/><path d="m922.65,235.85c1.4,1.3,2.1,3.2,2.1,5.7v12.2h-2.5v-3.1c-.6,1-1.5,1.8-2.6,2.4-1.2.6-2.5.9-4.1.9-2.2,0-3.9-.5-5.2-1.6-1.3-1-1.9-2.4-1.9-4.2,0-1.7.6-3,1.8-4s3.1-1.5,5.8-1.5h6.2v-1.2c0-1.7-.5-3-1.4-3.9s-2.3-1.3-4.2-1.3c-1.2,0-2.4.2-3.6.6-1.1.4-2.1,1-3,1.7l-1.2-2c1-.8,2.2-1.5,3.6-2,1.4-.5,2.9-.7,4.4-.7,2.5.1,4.4.7,5.8,2m-3,15c1.1-.7,1.9-1.7,2.4-3v-3.2h-6.2c-3.4,0-5.1,1.2-5.1,3.5,0,1.1.4,2.1,1.3,2.7.9.7,2.1,1,3.7,1s2.9-.4,3.9-1" style="fill:#001e41; stroke-width:0px;"/><path d="m943.45,252.55c-.5.4-1.1.8-1.8,1s-1.5.4-2.3.4c-1.8,0-3.3-.5-4.3-1.5s-1.5-2.4-1.5-4.2v-11.9h-3.5v-2.2h3.5v-4.3h2.7v4.3h6v2.2h-6v11.7c0,1.2.3,2.1.9,2.7.6.6,1.4.9,2.5.9.5,0,1.1-.1,1.6-.3s1-.4,1.3-.7l.9,1.9h0Z" style="fill:#001e41; stroke-width:0px;"/><path d="m949.35,229.25c-.4-.4-.6-.8-.6-1.3s.2-.9.6-1.3c.4-.4.8-.6,1.4-.6.5,0,1,.2,1.4.5.4.4.6.8.6,1.3s-.2,1-.6,1.4c-.4.4-.8.6-1.4.6-.6-.1-1-.3-1.4-.6m0,4.8h2.7v19.7h-2.7v-19.7Z" style="fill:#001e41; stroke-width:0px;"/><path d="m963.45,252.65c-1.5-.9-2.7-2.1-3.6-3.6-.9-1.5-1.3-3.2-1.3-5.2s.4-3.6,1.3-5.2c.9-1.5,2.1-2.7,3.6-3.6,1.5-.8,3.2-1.3,5.1-1.3s3.6.4,5.1,1.3c1.5.8,2.7,2,3.6,3.6.9,1.5,1.3,3.2,1.3,5.2s-.4,3.6-1.3,5.2c-.9,1.5-2,2.7-3.6,3.6-1.5.9-3.2,1.3-5.1,1.3-1.8,0-3.6-.5-5.1-1.3m8.9-2c1.1-.6,2-1.5,2.6-2.7.6-1.2.9-2.5.9-4s-.3-2.8-.9-4c-.6-1.2-1.5-2.1-2.6-2.7-1.1-.6-2.4-1-3.8-1s-2.6.3-3.8,1c-1.1.6-2,1.5-2.6,2.7-.6,1.2-1,2.5-1,4s.3,2.8,1,4c.6,1.2,1.5,2.1,2.6,2.7,1.1.6,2.4,1,3.8,1,1.4-.1,2.7-.4,3.8-1" style="fill:#001e41; stroke-width:0px;"/><path d="m1001.05,236.05c1.5,1.4,2.2,3.5,2.2,6.3v11.4h-2.7v-11.1c0-2-.5-3.6-1.5-4.7-1-1.1-2.5-1.6-4.4-1.6-2.1,0-3.8.6-5,1.9-1.2,1.3-1.9,3-1.9,5.2v10.3h-2.7v-19.7h2.5v3.6c.7-1.2,1.7-2.1,3-2.8s2.8-1,4.5-1c2.6.1,4.5.8,6,2.2" style="fill:#001e41; stroke-width:0px;"/><path d="m1032.65,252.65c-1.5-.9-2.7-2.1-3.6-3.6s-1.3-3.2-1.3-5.2.4-3.6,1.3-5.2c.9-1.5,2.1-2.7,3.6-3.6,1.5-.8,3.2-1.3,5.1-1.3s3.6.4,5.1,1.3c1.5.9,2.7,2,3.6,3.6.9,1.5,1.3,3.2,1.3,5.2s-.4,3.6-1.3,5.2c-.9,1.5-2,2.7-3.6,3.6-1.5.9-3.2,1.3-5.1,1.3s-3.6-.5-5.1-1.3m8.9-2c1.1-.6,2-1.5,2.6-2.7.6-1.2.9-2.5.9-4s-.3-2.8-.9-4c-.6-1.2-1.5-2.1-2.6-2.7-1.1-.6-2.4-1-3.8-1s-2.6.3-3.8,1c-1.1.6-2,1.5-2.6,2.7s-1,2.5-1,4,.3,2.8,1,4c.6,1.2,1.5,2.1,2.6,2.7s2.4,1,3.8,1c1.4-.1,2.7-.4,3.8-1" style="fill:#001e41; stroke-width:0px;"/><path d="m1058.25,228.95c-.6.6-.9,1.5-.9,2.8v2.3h6.1v2.2h-6v17.4h-2.7v-17.4h-3.5v-2.2h3.5v-2.4c0-1.8.5-3.2,1.6-4.3,1-1,2.5-1.6,4.4-1.6.7,0,1.5.1,2.2.3s1.3.5,1.8.9l-.9,2c-.8-.6-1.7-1-2.9-1-1.3.1-2.1.4-2.7,1" style="fill:#001e41; stroke-width:0px;"/><polygon points="480.85 280.15 491.25 280.15 491.25 316.55 513.75 316.55 513.75 325.05 480.85 325.05 480.85 280.15" style="fill:#001e41; stroke-width:0px;"/><path d="m554.75,310.55h-26.1c.5,2.1,1.6,3.8,3.3,5.1,1.8,1.2,3.9,1.9,6.5,1.9,1.8,0,3.4-.3,4.8-.8,1.4-.5,2.7-1.4,3.9-2.5l5.3,5.8c-3.2,3.7-8,5.6-14.2,5.6-3.9,0-7.3-.8-10.3-2.3s-5.3-3.6-6.9-6.3c-1.6-2.7-2.4-5.7-2.4-9.2s.8-6.4,2.4-9.1c1.6-2.7,3.8-4.8,6.6-6.3s5.9-2.3,9.4-2.3,6.4.7,9.2,2.2c2.7,1.5,4.9,3.5,6.4,6.3,1.6,2.7,2.3,5.9,2.3,9.5,0-.2-.1.7-.2,2.4m-23.4-11.1c-1.5,1.3-2.5,3-2.8,5.3h17c-.3-2.2-1.3-3.9-2.8-5.2-1.5-1.3-3.4-2-5.6-2-2.4,0-4.3.6-5.8,1.9" style="fill:#001e41; stroke-width:0px;"/><path d="m599.75,290.45v28.7c0,6.3-1.6,11-4.9,14.1-3.3,3.1-8.1,4.6-14.4,4.6-3.3,0-6.5-.4-9.5-1.2-3-.8-5.5-2-7.4-3.5l4-7.2c1.5,1.2,3.3,2.1,5.5,2.9,2.2.7,4.4,1.1,6.7,1.1,3.5,0,6-.8,7.7-2.3,1.6-1.6,2.5-3.9,2.5-7.1v-1.5c-2.6,2.9-6.2,4.3-10.9,4.3-3.2,0-6.1-.7-8.7-2.1-2.6-1.4-4.7-3.3-6.3-5.9-1.5-2.5-2.3-5.4-2.3-8.7s.8-6.2,2.3-8.7,3.6-4.5,6.3-5.9c2.6-1.4,5.5-2.1,8.7-2.1,5,0,8.8,1.6,11.4,4.9v-4.4h9.3Zm-12.4,22.3c1.7-1.6,2.5-3.6,2.5-6.1s-.8-4.6-2.5-6.1c-1.7-1.6-3.9-2.3-6.5-2.3s-4.8.8-6.5,2.3c-1.7,1.6-2.6,3.6-2.6,6.1s.9,4.6,2.6,6.1c1.7,1.6,3.9,2.3,6.5,2.3s4.8-.7,6.5-2.3" style="fill:#001e41; stroke-width:0px;"/><path d="m637.85,293.75c2.9,2.5,4.3,6.4,4.3,11.5v19.7h-9.4v-4.3c-1.9,3.2-5.4,4.8-10.5,4.8-2.6,0-4.9-.4-6.9-1.3-1.9-.9-3.4-2.1-4.5-3.7-1-1.6-1.5-3.4-1.5-5.4,0-3.2,1.2-5.7,3.6-7.6,2.4-1.8,6.1-2.8,11.2-2.8h7.9c0-2.2-.7-3.9-2-5-1.3-1.2-3.3-1.8-6-1.8-1.8,0-3.6.3-5.4.9-1.8.6-3.3,1.4-4.5,2.3l-3.6-7c1.9-1.3,4.1-2.3,6.8-3.1,2.6-.7,5.3-1.1,8.1-1.1,5.4.1,9.5,1.4,12.4,3.9m-8.5,23.8c1.3-.8,2.3-2,2.8-3.5v-3.5h-6.9c-4.1,0-6.2,1.3-6.2,4,0,1.3.5,2.3,1.5,3s2.4,1.1,4.1,1.1c1.8.1,3.4-.3,4.7-1.1" style="fill:#001e41; stroke-width:0px;"/><rect x="653.75" y="277.45" width="10" height="47.5" style="fill:#001e41; stroke-width:0px;"/><polygon points="745.75 324.95 745.65 298.05 732.45 320.25 727.75 320.25 714.65 298.65 714.65 324.95 704.95 324.95 704.95 280.05 713.55 280.05 730.35 307.95 746.85 280.05 755.35 280.05 755.45 324.95 745.75 324.95" style="fill:#001e41; stroke-width:0px;"/><path d="m801.65,310.55h-26.1c.5,2.1,1.6,3.8,3.3,5.1,1.8,1.2,3.9,1.9,6.5,1.9,1.8,0,3.4-.3,4.8-.8,1.4-.5,2.7-1.4,3.9-2.5l5.3,5.8c-3.2,3.7-8,5.6-14.2,5.6-3.9,0-7.3-.8-10.3-2.3s-5.3-3.6-6.9-6.3c-1.6-2.7-2.4-5.7-2.4-9.2s.8-6.4,2.4-9.1c1.6-2.7,3.8-4.8,6.6-6.3s5.9-2.3,9.4-2.3,6.4.7,9.2,2.2c2.7,1.5,4.9,3.5,6.4,6.3,1.6,2.7,2.3,5.9,2.3,9.5,0-.2-.1.7-.2,2.4m-23.4-11.1c-1.5,1.3-2.5,3-2.8,5.3h17c-.3-2.2-1.3-3.9-2.8-5.2-1.5-1.3-3.4-2-5.6-2-2.4,0-4.3.6-5.8,1.9" style="fill:#001e41; stroke-width:0px;"/><path d="m833.25,323.35c-1,.7-2.2,1.3-3.6,1.6-1.4.3-2.9.5-4.5.5-4.1,0-7.3-1-9.5-3.1s-3.4-5.2-3.4-9.2v-14.2h-5.3v-7.7h5.3v-8.4h10v8.4h8.6v7.7h-8.6v14c0,1.5.4,2.6,1.1,3.4.7.8,1.8,1.2,3.2,1.2,1.6,0,2.9-.4,4-1.3l2.7,7.1Z" style="fill:#001e41; stroke-width:0px;"/><path d="m855.85,291.25c2-.9,4.4-1.3,7-1.3v9.2c-1.1-.1-1.9-.1-2.2-.1-2.9,0-5.1.8-6.7,2.4-1.6,1.6-2.4,4-2.4,7.2v16.3h-10v-34.5h9.6v4.6c1.1-1.7,2.7-2.9,4.7-3.8" style="fill:#001e41; stroke-width:0px;"/><path d="m877.75,323.25c-2.9-1.5-5.1-3.6-6.8-6.3-1.6-2.7-2.4-5.7-2.4-9.2s.8-6.5,2.4-9.2c1.6-2.7,3.9-4.8,6.8-6.3,2.9-1.5,6.1-2.3,9.8-2.3s6.9.8,9.7,2.3c2.9,1.5,5.1,3.6,6.7,6.3,1.6,2.7,2.4,5.8,2.4,9.2s-.8,6.5-2.4,9.2c-1.6,2.7-3.9,4.8-6.7,6.3-2.9,1.5-6.1,2.3-9.7,2.3s-6.9-.8-9.8-2.3m16.1-8.5c1.6-1.7,2.5-4.1,2.5-7s-.8-5.2-2.5-7c-1.6-1.7-3.7-2.6-6.3-2.6s-4.7.9-6.3,2.6c-1.7,1.7-2.5,4.1-2.5,7s.8,5.2,2.5,7c1.7,1.7,3.8,2.6,6.3,2.6,2.6-.1,4.7-.9,6.3-2.6" style="fill:#001e41; stroke-width:0px;"/><rect x="915.65" y="277.45" width="10" height="47.5" style="fill:#001e41; stroke-width:0px;"/><path d="m944.15,323.25c-2.9-1.5-5.1-3.6-6.8-6.3-1.6-2.7-2.4-5.7-2.4-9.2s.8-6.5,2.4-9.2c1.6-2.7,3.9-4.8,6.8-6.3,2.9-1.5,6.1-2.3,9.8-2.3s6.9.8,9.7,2.3c2.9,1.5,5.1,3.6,6.7,6.3,1.6,2.7,2.4,5.8,2.4,9.2s-.8,6.5-2.4,9.2c-1.6,2.7-3.9,4.8-6.7,6.3-2.9,1.5-6.1,2.3-9.7,2.3s-6.9-.8-9.8-2.3m16.1-8.5c1.6-1.7,2.5-4.1,2.5-7s-.8-5.2-2.5-7c-1.6-1.7-3.7-2.6-6.3-2.6s-4.7.9-6.3,2.6c-1.7,1.7-2.5,4.1-2.5,7s.8,5.2,2.5,7c1.7,1.7,3.8,2.6,6.3,2.6,2.6-.1,4.7-.9,6.3-2.6" style="fill:#001e41; stroke-width:0px;"/><path d="m1017.75,290.45v28.7c0,6.3-1.6,11-4.9,14.1-3.3,3.1-8.1,4.6-14.4,4.6-3.3,0-6.5-.4-9.5-1.2-3-.8-5.5-2-7.4-3.5l4-7.2c1.5,1.2,3.3,2.1,5.5,2.9,2.2.7,4.4,1.1,6.7,1.1,3.5,0,6-.8,7.7-2.3,1.6-1.6,2.5-3.9,2.5-7.1v-1.5c-2.6,2.9-6.2,4.3-10.9,4.3-3.2,0-6.1-.7-8.7-2.1-2.6-1.4-4.7-3.3-6.3-5.9-1.5-2.5-2.3-5.4-2.3-8.7s.8-6.2,2.3-8.7,3.6-4.5,6.3-5.9c2.6-1.4,5.5-2.1,8.7-2.1,5,0,8.8,1.6,11.4,4.9v-4.4h9.3Zm-12.4,22.3c1.7-1.6,2.5-3.6,2.5-6.1s-.8-4.6-2.5-6.1c-1.7-1.6-3.9-2.3-6.5-2.3s-4.8.8-6.5,2.3c-1.7,1.6-2.6,3.6-2.6,6.1s.9,4.6,2.6,6.1c1.7,1.6,3.9,2.3,6.5,2.3s4.8-.7,6.5-2.3" style="fill:#001e41; stroke-width:0px;"/><path d="m1063.85,290.45l-15.6,36.6c-1.6,4-3.5,6.8-5.9,8.4-2.3,1.6-5.1,2.4-8.4,2.4-1.8,0-3.6-.3-5.3-.8-1.8-.6-3.2-1.3-4.3-2.3l3.7-7.1c.8.7,1.7,1.2,2.7,1.6s2,.6,3,.6c1.4,0,2.5-.3,3.3-1,.9-.7,1.6-1.8,2.3-3.3l.1-.3-14.9-34.8h10.3l9.7,23.4,9.7-23.4h9.6Z" style="fill:#001e41; stroke-width:0px;"/></svg>