<?xml version="1.0" encoding="UTF-8"?>
<svg id="uuid-83dec88d-c5ba-4f4d-bfd8-f63a7292f259"
  xmlns="http://www.w3.org/2000/svg" width="282.22mm" height="176.39mm"
  xmlns:xlink="http://www.w3.org/1999/xlink" viewBox="0 0 800 500">
  <title>PDF Association logo</title>
  <desc>PDF Association logo</desc>
  <defs>
    <clipPath id="uuid-873d8e9d-e16c-4c95-a7d0-77db2eb96663">
      <rect y="0" width="800" height="500" style="fill:none;"/>
    </clipPath>
  </defs>
  <g style="clip-path:url(#uuid-873d8e9d-e16c-4c95-a7d0-77db2eb96663);">
    <path d="M298.28,277.86V98.55h61.6c9.9,0,19.16.96,27.78,2.89,8.62,1.92,16.13,5.13,22.55,9.62,6.42,4.5,11.5,10.45,15.26,17.88,3.76,7.42,5.64,16.55,5.64,27.36s-1.88,19.52-5.64,27.23c-3.76,7.7-8.85,14.02-15.26,18.98-6.42,4.95-13.84,8.62-22.28,11-8.43,2.39-17.42,3.57-26.95,3.57h-22.28v60.78h-40.43.01ZM338.71,184.91h19.8c22,0,33-9.53,33-28.6,0-9.35-2.94-15.95-8.8-19.8-5.87-3.85-14.3-5.77-25.3-5.77h-18.7v54.18h0Z" style="fill:#231f20;"/>
    <path d="M451.19,277.86V98.55h50.6c13.75,0,26.13,1.74,37.13,5.23,11,3.48,20.44,8.85,28.33,16.09,7.88,7.25,13.93,16.46,18.15,27.64,4.22,11.19,6.33,24.48,6.33,39.88s-2.11,28.79-6.33,40.15c-4.22,11.37-10.17,20.76-17.88,28.19-7.7,7.43-16.91,12.97-27.64,16.64-10.73,3.67-22.69,5.5-35.89,5.5h-52.8ZM491.62,245.14h7.7c7.7,0,14.67-1,20.9-3.02,6.23-2.02,11.55-5.27,15.95-9.77,4.4-4.49,7.84-10.4,10.31-17.74,2.48-7.33,3.71-16.41,3.71-27.23s-1.24-19.57-3.71-26.81c-2.47-7.24-5.91-13.02-10.31-17.33s-9.72-7.38-15.95-9.21c-6.24-1.83-13.2-2.75-20.9-2.75h-7.7v113.86h0Z" style="fill:#231f20;"/>
    <polygon points="617.02 277.86 617.02 98.55 730.05 98.55 730.05 132.66 657.45 132.66 657.45 174.18 719.6 174.18 719.6 208.28 657.45 208.28 657.45 277.86 617.02 277.86" style="fill:#231f20;"/>
    <path d="M91.33,400.17c-6.05,0-10.93-1.84-14.65-5.51s-5.58-8.53-5.58-14.58c0-3.63.77-6.86,2.3-9.7,1.54-2.84,3.95-5.28,7.26-7.33,3.3-2.05,7.49-3.77,12.56-5.16,5.07-1.4,11.14-2.46,18.21-3.21-.09-1.77-.35-3.46-.77-5.09-.42-1.62-1.12-3.07-2.09-4.32-.98-1.26-2.26-2.24-3.84-2.93-1.58-.7-3.54-1.05-5.86-1.05-3.35,0-6.63.65-9.84,1.95-3.21,1.3-6.35,2.88-9.42,4.75l-5.86-10.75c3.81-2.42,8.09-4.51,12.84-6.28s9.86-2.65,15.35-2.65c8.56,0,14.95,2.54,19.19,7.61,4.23,5.07,6.35,12.4,6.35,21.98v40.61h-13.26l-1.12-7.54h-.56c-3.07,2.61-6.35,4.79-9.84,6.56s-7.28,2.65-11.37,2.65M96.49,387.61c2.79,0,5.33-.65,7.6-1.96,2.28-1.3,4.72-3.16,7.33-5.58v-15.35c-4.65.56-8.56,1.3-11.72,2.23-3.16.93-5.72,1.98-7.68,3.14-1.95,1.16-3.35,2.49-4.19,3.98-.84,1.49-1.26,3.07-1.26,4.75,0,3.07.93,5.3,2.79,6.7,1.86,1.4,4.24,2.09,7.12,2.09" style="fill:#231f20;"/>
    <path d="M164.46,400.17c-4.75,0-9.42-.91-14.03-2.72s-8.58-4.07-11.93-6.77l7.54-10.33c3.07,2.42,6.12,4.3,9.14,5.65s6.3,2.02,9.84,2.02c3.72,0,6.46-.77,8.23-2.3,1.77-1.53,2.65-3.51,2.65-5.93,0-1.4-.42-2.63-1.26-3.7s-1.96-2.02-3.35-2.86c-1.4-.84-2.98-1.61-4.74-2.3-1.77-.7-3.54-1.42-5.3-2.16-2.23-.84-4.52-1.81-6.84-2.93-2.33-1.12-4.4-2.46-6.21-4.05-1.82-1.58-3.3-3.42-4.47-5.51-1.16-2.09-1.74-4.58-1.74-7.46,0-6.05,2.23-10.98,6.7-14.79s10.56-5.72,18.28-5.72c4.74,0,9.02.84,12.84,2.51,3.81,1.67,7.12,3.58,9.91,5.72l-7.4,9.77c-2.42-1.77-4.86-3.19-7.33-4.26s-5.05-1.61-7.75-1.61c-3.44,0-5.98.72-7.6,2.16-1.63,1.45-2.44,3.24-2.44,5.37,0,1.39.39,2.58,1.19,3.56.79.98,1.84,1.84,3.14,2.58,1.3.75,2.81,1.44,4.54,2.09,1.72.65,3.51,1.31,5.37,1.96,2.32.84,4.65,1.79,6.98,2.86,2.32,1.07,4.44,2.4,6.35,3.98,1.91,1.58,3.44,3.51,4.61,5.79,1.16,2.28,1.75,5,1.75,8.16,0,2.98-.58,5.75-1.75,8.31-1.16,2.56-2.86,4.79-5.1,6.7-2.23,1.91-5.02,3.42-8.37,4.54-3.35,1.12-7.16,1.67-11.44,1.67" style="fill:#231f20;"/>
    <path d="M224.61,400.17c-4.75,0-9.42-.91-14.03-2.72s-8.58-4.07-11.93-6.77l7.54-10.33c3.07,2.42,6.12,4.3,9.14,5.65s6.3,2.02,9.84,2.02c3.72,0,6.46-.77,8.23-2.3,1.77-1.53,2.65-3.51,2.65-5.93,0-1.4-.42-2.63-1.26-3.7s-1.96-2.02-3.35-2.86c-1.4-.84-2.98-1.61-4.74-2.3-1.77-.7-3.54-1.42-5.3-2.16-2.23-.84-4.52-1.81-6.84-2.93-2.33-1.12-4.39-2.46-6.21-4.05-1.81-1.58-3.3-3.42-4.47-5.51s-1.74-4.58-1.74-7.46c0-6.05,2.23-10.98,6.7-14.79s10.56-5.72,18.28-5.72c4.74,0,9.02.84,12.84,2.51,3.81,1.67,7.12,3.58,9.91,5.72l-7.4,9.77c-2.42-1.77-4.86-3.19-7.33-4.26s-5.05-1.61-7.75-1.61c-3.44,0-5.98.72-7.6,2.16-1.63,1.45-2.44,3.24-2.44,5.37,0,1.39.39,2.58,1.19,3.56.79.98,1.83,1.84,3.14,2.58,1.3.75,2.81,1.44,4.54,2.09,1.72.65,3.51,1.31,5.37,1.96,2.32.84,4.65,1.79,6.98,2.86,2.32,1.07,4.44,2.4,6.35,3.98,1.91,1.58,3.44,3.51,4.61,5.79,1.16,2.28,1.75,5,1.75,8.16,0,2.98-.58,5.75-1.75,8.31-1.16,2.56-2.86,4.79-5.1,6.7-2.23,1.91-5.02,3.42-8.37,4.54-3.35,1.12-7.16,1.67-11.44,1.67" style="fill:#231f20;"/>
    <path d="M292.16,400.17c-4.28,0-8.37-.79-12.28-2.37s-7.38-3.91-10.4-6.98-5.42-6.84-7.19-11.31c-1.77-4.46-2.65-9.54-2.65-15.21s.88-10.75,2.65-15.21,4.16-8.23,7.19-11.3c3.02-3.07,6.49-5.42,10.4-7.05,3.91-1.63,8-2.44,12.28-2.44s8.39.81,12.35,2.44c3.95,1.63,7.42,3.98,10.4,7.05,2.98,3.07,5.37,6.84,7.19,11.3,1.81,4.47,2.72,9.54,2.72,15.21s-.91,10.75-2.72,15.21c-1.81,4.47-4.21,8.24-7.19,11.31s-6.44,5.39-10.4,6.98c-3.96,1.58-8.07,2.37-12.35,2.37M292.16,387.05c5.02,0,8.98-2.07,11.86-6.21,2.88-4.14,4.33-9.65,4.33-16.54s-1.44-12.54-4.33-16.68c-2.88-4.14-6.84-6.21-11.86-6.21s-8.96,2.07-11.79,6.21c-2.84,4.14-4.26,9.7-4.26,16.68s1.42,12.4,4.26,16.54,6.77,6.21,11.79,6.21" style="fill:#231f20;"/>
    <path d="M367.8,400.17c-4.65,0-9-.79-13.05-2.37s-7.56-3.91-10.54-6.98-5.3-6.84-6.98-11.31c-1.67-4.46-2.51-9.54-2.51-15.21s.93-10.75,2.79-15.21c1.86-4.46,4.37-8.23,7.54-11.3,3.16-3.07,6.81-5.42,10.96-7.05,4.14-1.63,8.49-2.44,13.05-2.44s8.3.75,11.51,2.23c3.21,1.49,6.07,3.3,8.58,5.44l-7.81,10.47c-1.86-1.58-3.7-2.81-5.52-3.7-1.81-.88-3.79-1.33-5.93-1.33-5.58,0-10.1,2.07-13.54,6.21-3.44,4.14-5.16,9.7-5.16,16.68s1.7,12.4,5.09,16.54c3.39,4.14,7.79,6.21,13.19,6.21,2.7,0,5.23-.58,7.61-1.75,2.37-1.16,4.53-2.53,6.49-4.12l6.56,10.61c-3.26,2.79-6.82,4.89-10.68,6.28-3.86,1.4-7.74,2.1-11.65,2.1" style="fill:#231f20;"/>
    <path d="M410.23,317.96c-2.89,0-5.26-.84-7.12-2.51s-2.79-3.86-2.79-6.56.93-4.91,2.79-6.63c1.86-1.72,4.23-2.58,7.12-2.58s5.26.86,7.12,2.58,2.79,3.93,2.79,6.63-.93,4.88-2.79,6.56c-1.86,1.68-4.23,2.51-7.12,2.51M402.13,329.96h16.05v68.53h-16.05v-68.53Z" style="fill:#231f20;"/>
    <path d="M453.91,400.17c-6.05,0-10.94-1.84-14.66-5.51s-5.58-8.53-5.58-14.58c0-3.63.77-6.86,2.3-9.7,1.54-2.84,3.95-5.28,7.26-7.33,3.3-2.05,7.49-3.77,12.56-5.16,5.07-1.4,11.14-2.46,18.21-3.21-.09-1.77-.35-3.46-.77-5.09-.42-1.62-1.12-3.07-2.09-4.32-.98-1.26-2.26-2.24-3.84-2.93-1.58-.7-3.54-1.05-5.86-1.05-3.35,0-6.63.65-9.84,1.95-3.21,1.3-6.35,2.88-9.42,4.75l-5.86-10.75c3.81-2.42,8.09-4.51,12.84-6.28s9.86-2.65,15.35-2.65c8.56,0,14.96,2.54,19.19,7.61,4.23,5.07,6.35,12.4,6.35,21.98v40.61h-13.26l-1.12-7.54h-.56c-3.07,2.61-6.35,4.79-9.84,6.56s-7.28,2.65-11.37,2.65M459.07,387.61c2.79,0,5.33-.65,7.61-1.96,2.28-1.3,4.72-3.16,7.33-5.58v-15.35c-4.65.56-8.56,1.3-11.72,2.23-3.16.93-5.72,1.98-7.68,3.14-1.95,1.16-3.35,2.49-4.19,3.98-.84,1.49-1.26,3.07-1.26,4.75,0,3.07.93,5.3,2.79,6.7,1.86,1.4,4.23,2.09,7.12,2.09" style="fill:#231f20;"/>
    <path d="M531.22,400.17c-4,0-7.37-.6-10.12-1.81s-4.98-2.91-6.7-5.1c-1.72-2.18-2.98-4.79-3.77-7.81-.79-3.03-1.19-6.4-1.19-10.12v-32.66h-9.77v-12l10.61-.7,1.96-18.7h13.4v18.7h17.45v12.7h-17.45v32.66c0,8,3.21,12,9.63,12,1.21,0,2.44-.14,3.7-.41,1.25-.28,2.39-.65,3.42-1.12l2.79,11.86c-1.86.65-3.98,1.23-6.35,1.75-2.37.51-4.91.77-7.61.77" style="fill:#231f20;"/>
    <path d="M565.56,317.96c-2.89,0-5.26-.84-7.12-2.51s-2.79-3.86-2.79-6.56.93-4.91,2.79-6.63,4.23-2.58,7.12-2.58,5.25.86,7.12,2.58c1.86,1.72,2.79,3.93,2.79,6.63s-.93,4.88-2.79,6.56-4.23,2.51-7.12,2.51M557.46,329.96h16.05v68.53h-16.05v-68.53Z" style="fill:#231f20;"/>
    <path d="M620.68,400.17c-4.28,0-8.37-.79-12.28-2.37-3.91-1.58-7.38-3.91-10.4-6.98s-5.42-6.84-7.19-11.31c-1.77-4.46-2.65-9.54-2.65-15.21s.88-10.75,2.65-15.21c1.76-4.46,4.16-8.23,7.19-11.3,3.02-3.07,6.49-5.42,10.4-7.05,3.91-1.63,8-2.44,12.28-2.44s8.4.81,12.35,2.44c3.96,1.63,7.42,3.98,10.4,7.05,2.98,3.07,5.37,6.84,7.19,11.3,1.81,4.47,2.72,9.54,2.72,15.21s-.91,10.75-2.72,15.21c-1.82,4.47-4.21,8.24-7.19,11.31s-6.44,5.39-10.4,6.98c-3.96,1.58-8.07,2.37-12.35,2.37M620.68,387.05c5.02,0,8.98-2.07,11.86-6.21,2.88-4.14,4.33-9.65,4.33-16.54s-1.44-12.54-4.33-16.68c-2.89-4.14-6.84-6.21-11.86-6.21s-8.96,2.07-11.79,6.21c-2.84,4.14-4.26,9.7-4.26,16.68s1.42,12.4,4.26,16.54,6.77,6.21,11.79,6.21" style="fill:#231f20;"/>
    <path d="M666.04,398.49v-68.53h13.26l1.12,9.21h.56c3.07-2.98,6.4-5.54,9.98-7.68,3.58-2.14,7.75-3.21,12.49-3.21,7.35,0,12.7,2.35,16.05,7.05,3.35,4.7,5.02,11.42,5.02,20.16v42.99h-16.05v-40.89c0-5.67-.84-9.68-2.51-12-1.68-2.32-4.42-3.49-8.23-3.49-2.98,0-5.61.72-7.88,2.16-2.28,1.44-4.86,3.56-7.75,6.35v47.87h-16.06Z" style="fill:#231f20;"/>
    <rect x="189.68" y="98.8" width="59.81" height="59.81" style="fill:#ca9831;"/><!-- PDF Association "logo yellow" -->
    <rect x="129.87" y="158.62" width="59.81" height="59.81" style="fill:#8b985b;"/><!-- PDF Association "logo green" -->
    <rect x="70.06" y="218.43" width="59.81" height="59.81" style="fill:#d03f4e;"/><!-- PDF Association "logo red" -->
    <rect x="189.68" y="218.43" width="59.81" height="59.81" style="fill:#4a91af;"/><!-- PDF Association "logo blue" -->
  </g>
</svg>