<?xml version="1.0" encoding="UTF-8"?><svg id="uuid-0ce365b5-3d28-44ab-9bd6-3ff7061bff56" xmlns="http://www.w3.org/2000/svg" width="600" height="600" viewBox="0 0 600 600"><path d="m207.26,511.59v11.04c1.28-1.34,2.88-2.01,4.8-2.01,1.14,0,2.19.22,3.14.65.95.43,1.76,1.01,2.43,1.74.67.73,1.19,1.59,1.58,2.58.38.99.57,2.04.57,3.16s-.19,2.21-.58,3.21c-.39,1-.94,1.87-1.63,2.61-.7.74-1.53,1.33-2.48,1.75-.95.43-1.98.65-3.08.65-2,0-3.58-.73-4.74-2.19v1.71h-5.43v-24.9h5.43Zm6.84,17.25c0-.48-.09-.93-.27-1.37-.18-.43-.43-.8-.75-1.12-.32-.32-.69-.58-1.11-.76-.42-.19-.88-.29-1.38-.29s-.93.09-1.35.27-.79.43-1.1.75c-.31.32-.56.7-.75,1.12-.19.43-.28.88-.28,1.37s.09.93.27,1.35c.18.42.43.79.75,1.1.32.31.69.56,1.12.75.43.19.88.28,1.36.28s.93-.09,1.35-.27.78-.43,1.1-.75c.31-.32.56-.69.75-1.11.19-.42.28-.86.28-1.32Z" style="stroke-width:0px;"/><path d="m238.07,534.39l-7.44-13.29h6.3l4.11,7.89,3.99-7.89h6.24l-12.36,23.07h-6.09l5.25-9.78Z" style="stroke-width:0px;"/><path d="m283.52,536.49l3.84-22.62h5.82l4.53,12.06,4.5-12.06h5.82l3.84,22.62h-5.85l-1.95-13.02-5.34,13.02h-2.34l-5.07-13.02-1.95,13.02h-5.85Z" style="stroke-width:0px;"/><path d="m335.62,513.87v17.64h7.05v4.98h-12.93v-22.62h5.88Z" style="stroke-width:0px;"/><path d="m365.63,513.87v22.62h-5.88v-22.62h5.88Z" style="stroke-width:0px;"/><path d="m393.2,518.85v17.64h-5.88v-17.64h-4.83v-4.98h15.54v4.98h-4.83Z" style="stroke-width:0px;"/><path d="m97.11,463.74v16.23h-6.03v-39.96h6.83c3.35,0,5.87.23,7.58.7,1.73.47,3.24,1.35,4.55,2.64,2.29,2.24,3.44,5.07,3.44,8.49,0,3.66-1.23,6.56-3.67,8.7-2.45,2.14-5.75,3.21-9.91,3.21h-2.79Zm0-5.59h2.25c5.54,0,8.31-2.13,8.31-6.39s-2.86-6.18-8.57-6.18h-1.99v12.58Z" style="stroke-width:0px;"/><path d="m161.75,440.01v34.29h11.75v5.67h-17.78v-39.96h6.03Z" style="stroke-width:0px;"/><path d="m241.42,470.26h-17.11l-4.45,9.7h-6.5l19.77-42.47,19.07,42.47h-6.6l-4.19-9.7Zm-2.46-5.67l-5.93-13.59-6.21,13.59h12.14Z" style="stroke-width:0px;"/><path d="m302.22,445.68v34.29h-6.03v-34.29h-9.19v-5.67h24.38v5.67h-9.16Z" style="stroke-width:0px;"/><path d="m373.23,445.68h-16.02v9.6h15.55v5.67h-15.55v13.35h16.02v5.67h-22.05v-39.96h22.05v5.67Z" style="stroke-width:0px;"/><path d="m435.82,470.26h-17.11l-4.45,9.71h-6.5l19.77-42.47,19.07,42.47h-6.6l-4.19-9.71Zm-2.46-5.67l-5.93-13.59-6.21,13.59h12.14Z" style="stroke-width:0px;"/><path d="m485.67,440.01v24.07c0,3.43.56,5.94,1.68,7.53,1.67,2.29,4.03,3.44,7.07,3.44s5.42-1.15,7.09-3.44c1.12-1.54,1.68-4.04,1.68-7.53v-24.07h6.03v25.72c0,4.21-1.31,7.68-3.93,10.4-2.95,3.04-6.57,4.55-10.87,4.55s-7.91-1.52-10.84-4.55c-2.62-2.73-3.93-6.19-3.93-10.4v-25.72h6.03Z" style="stroke-width:0px;"/><path d="m296.22,185.43l-28.02-16.18-95.4-55.08v142.51l254.4,146.88v-142.51l-50.88-29.38-14.61-8.44-36.27-20.94-29.22-16.87Z" style="fill:#463c64; stroke-width:0px;"/><path d="m296.21,38.56l-119.64,69.07,89.73,51.8,29.91,17.27V38.56Z" style="fill:#00bebe; stroke-width:0px;"/><path d="m361.71,214.52v-71.26l61.71-35.63-119.64-69.07v142.51l23.17,13.38,34.76,20.07Z" style="fill:#00bebe; stroke-width:0px;"/><path d="m427.2,252.32V114.17l-57.93,33.44v71.26l11.59,6.69,46.34,26.76Z" style="fill:#463c64; stroke-width:0px;"/></svg>