<svg id="Layer_1" data-name="Layer 1" xmlns="http://www.w3.org/2000/svg" viewBox="0 0 2000 501"><title>ribose logo normal</title><path d="M180.9,31.3h36.2l18.1,31.3h36.2l18.1,31.3-18.1,31.4,18.1,31.3-18.1,31.3,18.1,31.3-18.1,31.3H235.2l-18.1,31.3,18.1,31.3h36.2l18.1,31.4-18.1,31.3,18.1,31.3-18.1,31.3,18.1,31.3L272.1,501H235.9l-18.8-31.3,18.1-31.3-18.1-31.3,18.1-31.3-18.1-31.3H180.9l-18.1-31.4H126.7l-18.1-31.3H72.4L54.3,313.1l18.1,31.4L54.3,375.8l18.1,31.3L54.3,438.4l18.1,31.3L55,501H18.8L0,469.7l18.1-31.3L0,407.1l18.1-31.3L0,344.5l18.1-31.4L0,281.8l18.1-31.3L0,219.2l18.1-31.3L0,156.6l18.1-31.3L0,93.9,18.1,62.6H54.3L72.4,31.3h36.2L126.7,0h36.1ZM126.7,250.5h36.1l18.1-31.3h36.2l18.1-31.3-18.1-31.3,18.1-31.3L217.1,93.9H180.9L162.8,62.6H126.7L108.6,93.9H72.4L54.3,125.3l18.1,31.3L54.3,187.9l18.1,31.3h36.2Z"/><path d="M470.2,93.9l-18.1,31.4H416L397.9,93.9,416,62.6h36.1Zm0,125.3-18.1,31.3,18.1,31.3-18.1,31.3,18.1,31.4-18.1,31.3,18.1,31.3-18.1,31.3,18.1,31.3L452.8,501H416.7l-18.8-31.3L416,438.4l-18.1-31.3L416,375.8l-18.1-31.3L416,313.1l-18.1-31.3L416,250.5l-18.1-31.3L416,187.9h36.1Z"/><path d="M659.9,31.3,641.8,62.6l18.1,31.3-18.1,31.4,18.1,31.3-18.1,31.3,18.1,31.3h36.2l18.1-31.3h36.2l18.1,31.3h36.2l18.1,31.3h36.1L877,281.8l-18.1,31.3L877,344.5l-18.1,31.3L877,407.1l-18.1,31.3H822.8l-18.1,31.3H768.5L751.1,501H714.9l-18.8-31.3H659.9L642.5,501H606.3l-18.7-31.3,18.1-31.3-18.1-31.3,18.1-31.3-18.1-31.3,18.1-31.4-18.1-31.3,18.1-31.3-18.1-31.3,18.1-31.3-18.1-31.3,18.1-31.3L587.6,93.9l18.1-31.3L587.6,31.3,605.7,0h36.1ZM822.8,375.8l-18.1-31.3,18.1-31.4-18.1-31.3H768.5l-18.1-31.3H714.2l-18.1,31.3H659.9l-18.1,31.3,18.1,31.4-18.1,31.3,18.1,31.3h36.2l18.1,31.3h36.2l18.1-31.3h36.2Z"/><path d="M1034.6,219.2h36.2l18.1-31.3H1125l18.1,31.3h36.2l18.1,31.3h36.2l18.1,31.3-18.1,31.3,18.1,31.4-18.1,31.3,18.1,31.3-18.1,31.3h-36.2l-18.1,31.3h-36.2L1125.7,501h-36.1l-18.8-31.3h-36.2l-18.1-31.3H980.3l-18.1-31.3,18.1-31.3-18.1-31.3,18.1-31.4-18.1-31.3,18.1-31.3h36.2Zm0,125.3-18.1,31.3,18.1,31.3h36.2l18.1,31.3H1125l18.1-31.3h36.2l18.1-31.3-18.1-31.3,18.1-31.4-18.1-31.3h-36.2L1125,250.5h-36.1l-18.1,31.3h-36.2l-18.1,31.3Z"/><path d="M1408,219.2h36.2l18.1-31.3h36.2l18.1,31.3h36.2l18.1,31.3h36.2l18,31.3-18,31.3h-36.2l-18.1-31.3h-36.2l-18.1-31.3h-36.2l-18.1,31.3,18.1,31.3h36.2l18.1,31.4h36.2l18.1,31.3h36.2l18,31.3-18,31.3h-36.2l-18.1,31.3h-36.2L1499.2,501H1463l-18.8-31.3H1408l-18.1-31.3h-36.2l-18-31.3,18-31.3h36.2l18.1,31.3h36.2l18.1,31.3h36.2l18.1-31.3-18.1-31.3h-36.2l-18.1-31.3H1408l-18.1-31.4h-36.2l-18-31.3,18-31.3h36.2Z"/><path d="M1782.9,219.2h36.2l18.1-31.3h36.2l18,31.3h36.2l18.1,31.3h36.2l18.1,31.3-18.1,31.3h-36.2l-18.1,31.4h-36.2l-18,31.3h-36.2l-18.1-31.3,18.1-31.4h36.2l18-31.3-18-31.3h-36.2l-18.1,31.3h-36.2l-18.1,31.3,18.1,31.4-18.1,31.3,18.1,31.3h36.2l18.1,31.3h36.2l18-31.3h36.2l18.1-31.3h36.2l18.1,31.3-18.1,31.3h-36.2l-18.1,31.3h-36.2L1874.1,501h-36.2l-18.8-31.3h-36.2l-18.1-31.3h-36.2l-18.1-31.3,18.1-31.3-18.1-31.3,18.1-31.4-18.1-31.3,18.1-31.3h36.2Z"/></svg>