<?xml version="1.0" encoding="UTF-8"?><svg id="uuid-e99cb179-c768-46e8-b32b-bba4bb636e01" xmlns="http://www.w3.org/2000/svg" width="530mm" height="160mm" viewBox="0 0 1502.36 453.54"><path d="M61.88,321.34v67.9h-9.48v-139.91h94.48v8.35H61.88v55.33h69.13v8.35H61.88Z" style="fill:#231f20;"/><path d="M237.3,247.27c43.17,0,73.77,29.88,73.77,72.02s-30.6,72.02-73.77,72.02-73.77-29.88-73.77-72.02,30.6-72.02,73.77-72.02ZM237.3,382.96c37.6,0,64.29-27.1,64.29-63.67s-26.99-63.67-64.29-63.67-64.29,26.48-64.29,63.67,26.68,63.67,64.29,63.67Z" style="fill:#231f20;"/><path d="M346.92,249.33h9.48v89.32c0,26.79,19.78,44.1,51,44.1s50.79-17.31,50.79-44.1v-89.32h9.48v89.32c0,31.84-23.28,52.65-60.27,52.65s-60.48-20.81-60.48-52.65v-89.32Z" style="fill:#231f20;"/><path d="M641.12,389.24h-10.71l-106.74-126.93v126.93h-9.48v-139.91h10.92l106.53,126.83v-126.72h9.48v139.81Z" style="fill:#231f20;"/><path d="M743.89,249.33c47.8,0,71.71,29.05,71.71,70.06,0,43.58-24.11,69.85-72.12,69.85h-54.6v-139.91h55.02ZM698.36,257.67v123.22h46.57c38.22,0,61.2-21.74,61.2-61.51s-22.98-61.71-61.2-61.71h-46.57Z" style="fill:#231f20;"/><path d="M960.3,389.24h-9.48l-15.35-35.65h-82.32l-15.35,35.65h-9.89l60.27-139.91h12.36l59.76,139.91ZM856.76,345.25h75.11l-37.5-86.96-37.6,86.96Z" style="fill:#231f20;"/><path d="M1011.21,257.67v131.57h-9.48v-131.57h-49.66v-8.35h108.69v8.35h-49.56Z" style="fill:#231f20;"/><path d="M1090.15,249.33h9.48v139.91h-9.48v-139.91Z" style="fill:#231f20;"/><path d="M1211.38,247.27c43.17,0,73.77,29.88,73.77,72.02s-30.6,72.02-73.77,72.02-73.77-29.88-73.77-72.02,30.6-72.02,73.77-72.02ZM1211.38,382.96c37.6,0,64.29-27.1,64.29-63.67s-26.99-63.67-64.29-63.67-64.29,26.48-64.29,63.67,26.68,63.67,64.29,63.67Z" style="fill:#231f20;"/><path d="M1449.71,389.24h-10.71l-106.74-126.93v126.93h-9.48v-139.91h10.92l106.53,126.83v-126.72h9.48v139.81Z" style="fill:#231f20;"/><path d="M164.92,71.57l-3.55,34.76c-9.04-5.02-26.7-10.36-44.79-10.36-11.31,0-20.67,1.74-20.67,10.05,0,5.74,6.78,7.08,14.1,9.13l23.26,6.46c25.3,6.97,40.27,18.35,40.27,40.09,0,26.25-23.58,44.19-61.37,44.19-27.78,0-49.42-6.87-59.65-11.59l4.31-34.86c8.51,4.41,28.85,12.1,52.22,12.1,10.77,0,18.95-2.36,18.95-9.02,0-4.2-3.23-7.08-12.06-9.33l-22.5-5.74c-19.49-4.92-41.34-15.18-41.34-41.94s25.09-43.27,62.34-43.27c21.96,0,38.87,4.1,50.5,9.33Z" style="fill:#231f20;"/><path d="M229.24,166.22v37.43h-42.96V64.4h73.97c36.5,0,56.96,22.05,56.96,50.14s-20.46,51.68-56.96,51.68h-31.01ZM229.24,98.13v34.45h23.69c12.6,0,20.67-5.95,20.67-17.23,0-11.89-7.64-17.23-20.67-17.23h-23.69Z" style="fill:#231f20;"/><path d="M407.01,180.37h-52.97l-9.37,23.28h-45.87l56.2-139.25h51.25l56.09,139.25h-45.87l-9.47-23.28ZM363.84,149.5h33.48l-16.69-46.55-16.8,46.55Z" style="fill:#231f20;"/><path d="M479.31,97.82h-41.67v-33.43h127.37v33.43h-42.74v105.82h-42.96v-105.82Z" style="fill:#231f20;"/><path d="M617.41,203.64h-42.96V64.4h42.96v139.25Z" style="fill:#231f20;"/><path d="M734.71,180.37h-52.97l-9.37,23.28h-45.87l56.2-139.25h51.25l56.09,139.25h-45.87l-9.47-23.28ZM691.54,149.5h33.48l-16.69-46.55-16.8,46.55Z" style="fill:#231f20;"/><path d="M911.69,203.64h-113.16V64.4h42.96v106.64h70.2v32.61Z" style="fill:#231f20;"/><path d="M958.68,64.4h42.31l24.55,95.26,29.72-93.31h32.3l29.72,93.31,24.66-95.26h42.2l-38.76,139.25h-50.28l-23.69-66.96-23.58,66.96h-50.39l-38.76-139.25Z" style="fill:#231f20;"/><path d="M1307.71,203.64h-114.02V64.4h113.48v32.81h-70.52v19.58h63.42v32.61h-63.42v21.64h71.06v32.61Z" style="fill:#231f20;"/><path d="M1321.04,203.64V64.4h77.73c23.58,0,44.25,13.23,44.25,36.3,0,13.95-5.71,24.4-18.73,31.48,17.98,5.74,26.05,18.56,26.05,33.43,0,23.89-19.81,38.04-44.57,38.04h-84.73ZM1362.5,95.16v23.69h27.35c7.11,0,11.3-5.02,11.3-12.2,0-6.67-4.52-11.48-12.17-11.48h-26.49ZM1362.5,148.17v26.15h30.04c8.18,0,13.35-5.64,13.35-12.82,0-7.69-5.06-13.33-13.35-13.33h-30.04Z" style="fill:#231f20;"/><rect x="52.01" y="225.72" width="1398.09" height="2.27" style="fill:#231f20;"/></svg>