<svg viewBox="0 0 470 400" xmlns="http://www.w3.org/2000/svg" xmlns:xlink="http://www.w3.org/1999/xlink" fill="#009EDC">

<path id="branch" d="m121 336c-19-16-22-39-30-59-5-13-14-24-23-35 12 34 5 58 34 82-5-2-10-6-14-9-23-19-57-22-71-53 4 23 22 43 41 56 19 12 43 11 63 18m50 12c3-1 7-1 11-2-14-2-27-7-37-16-15-14-28-28-44-39 17 34 23 48 51 54 0 0-8-1-12-2-30-6-66 2-88-23 9 16 26 29 42 35 26 8 53-1 77-7m40-2c-48 0-73 42-120 14 23 28 60 30 90 11 12-8 23-19 38-19 23 0 48 24 69 46 4-3 7-6 10-9-22-21-54-43-87-43m-135-47s-6-11-8-18c-7-27-3-60-15-86 2 15-4 28-5 42-2 19 5 32 10 41 0 0-7-9-10-14-14-22-43-37-45-64-4 59 37 75 73 99m-14-175c4-8 6-18 8-27-2 4-4 8-7 11-19 16-30 25-35 50l2-22c2-22-10-46 3-65-13 14-20 32-20 50 0 24 14 41 15 64 4-24 24-41 34-61m-7-44c9-8 20-15 28-25 9-12 17-26 29-37-16 7-34 13-45 30-6 10-7 22-12 32m-20 48c4-8 11-16 18-22 18-13 36-30 37-52-10 24-41 28-48 53 0 0 4-15 5-18 5-17 4-37 21-48-33 7-35 43-33 70 0 6 1 11 0 17m5 116s-2-19 1-27c8-24 16-50 15-75-8 30-33 40-22 81-4-8-5-17-8-25-6-22-23-41-18-67-8 23-8 41 0 65 5 18 23 31 32 48"/>
<use transform="matrix(-1,0,0,1,470,0)" xlink:href="#branch"/>

<g id="grid" stroke="#009EDC" stroke-width="4" fill="none">
<circle cx="235" cy="167" r="163"/>
<circle cx="235" cy="167" r="129"/>
<circle cx="235" cy="167" r="98"/>
<circle cx="235" cy="167" r="64"/>
<circle cx="235" cy="167" r="33"/>
<path d="m235 4v130m0 66v130m-115-278 92 92m46 46 92 92m-278-115h130m66 0h130m-278 115 92-92m46-46 92-92"/>
</g>

<g id="map" transform="matrix(.1 0 0 .1 211 140)">
<path d="m161 672c4-8 12-40 22-30s16 0 16 0 5 5 2 15c-2 10-5 20-11 22-6 1-11 5-19 6-6 1-10-13-10-13zm82-13c2-2 5 8 10 6 5-1 7 9 2 9s-5 6-5 9 0 9-4 13-7 1-12-1c-5-3-7-3-14-3-6 0-1 10-1 10s-26-1-21-5 10-5 6-8 0-5 0-10 12-3 9-6c-4-4 0-18 6-10l4-9c-4-4-1-5-9-8-7-3-1-18-1-18l1-10c2-13 27-14 29-3 1 11 0 19 0 19l7 3s-1 8-7 8 0 4-4 8zm921-608c-7 7-22 10-22 10l-5 19-8 7s2 5 0 17-17 19-17 19l-7 8s-40 2-45 0c-15-7-5-27 5-25s-2-29-2-29l13-2s2-30 7-30-2-10-8-15c-7-5-15-22-22-20s-33 0-33 0l-5 10-18 3s2 13-2 17c-10 12-48 37-32-5l5-10v-15l-30-2s-15-5-15-12-2-15-2-15l-35-39-42-5-3-8-25-3c-30-15-57-2-52 24 5 25 13 35-3 35-17 0-20-13-20-13s-13-5-13 2-5 20 0 27-7 17-12 12-18-20-15-25-23-37 3-42c27-5-2-20 8-24l13-7h13l8-7-22-3-13-2-25-2c-25 17-30 37-30 37-13 25-45-10-33-24s-37-2-45 5-33 3-33 3c-5 15-28-2-22-12 7-10 7-17 7-17l-8-2-10 19c-23 0-30 13-25 22 5 8-7-2-10 10s2 12 12 17-5 5 2 13 27 0 15 12-35 7-35 7c-2 15-33 12-37 7-3-5-28-35-28-35l-32-2c-3-24 15-12 22-30 7-19 10-49 10-49s-27-2-28 7c-2 8-18 14-18 14s-13 5-8 12-10 10-10 10 3 11-2 15c-13 14-47 2-52-3l-20-8-20-13-23 10-7 7h-25l-2 20 45 5 3 42-18-6h-12l-5-10-10-2v37l10 8 8 8 17 2 3 20 42 2 5 8 25 2 48 49-3 15-8 5c3 12-22 5-22 5v10l12 2 12 7 17-29c18-12 27 5 28 15 2 10-8 8-8 8v24l10 3c17 20-7 32-7 32l-5 17c-5 15-23 12-23 12l-7 10-20 5 39 5c4-14 14-17 19-10s5 19 5 19l10 2-2 19 10 3v54l12 13c20-8 20 5 10 12s-3 37-3 37l-8 8v14l-10 7v19c-17-8-37-5-42 0-15-10-47-7-47 2 10 13-12 17-12 17l-12 13c8 17-8 19-8 19v32l-20 19 2 44c0 12 25 13 30 7 5-7 25 14 25 14h15l3-30-10-5v-49l17-19c20-7 13 44 13 49 2 19 10 17 18 13 17-7 3 19-10 17s-5 17-5 17l8 3-15 12-13 15-17-5-20-2-7-12-12-2-2 24-8 10-20 20c27 0-3 19-10 19 15 5-2 20-40 8v12l-13 2 12 13 13 2-5 29c0 22-55 7-60 2l-2 30-10 2 2 20-2 29 18-3v12l45 2 65-69 38-8c3-17 20 3 20 3 17-2 20 10 20 10l22 3c18 5 7 7 8 14 2 10 10 7 10 7l3-22 10 2-10-12-18-8-20-8c-13-19 3-15 17-13h22s25 34 25 42 12 10 12 10l15-2 5 12h15l5 10h30l2-15-28-5-2-17-20-5c-7-29 5-37 13-24l10 2-3-25 12-3-3-35-10-3v-12l42 2c-3-22 2-32 2-32h12l2 8 51 5 36-41c-2-3 4-5 0-9-5-5-12 0-20-5s0-34-2-40c-2-7 28-17 23-2s0 22 0 22c22-20 40 2 38 7s12 10 20 5 18 15 15 25-33 8-35-2-7-7-10-2-18 8-27 3c-2-1-2-2-3-3l-36 41h2c20 12 10 27 3 30s-18 3-18 3l-3 7-43 3-3 17c-22-3-30 20-25 32s0 22 0 22l18 8 23-7c3-17 18-20 32-30 13-10 35 19 28 32s-7 19-7 19l2 15-17 7-13 7-2 8h-45l-8 8-22 2-7 10-15 2s-25 12-15 25c10 14-42 12-53-7-3 17-22 2-22 2l-18-5-2-25c-3-17-35-17-33-5s-60 5-60 5l-20 10-18 11-2 8-30 3-13 7-5-10h-13l-13 19c-35 2-68 22-65 30s-13 17-13 17l-15 5-10 15-20 7-3 35-10 7v15l-12 3v8l-17 2 10 25 13 7c23 3 13 32 13 32l13 2 7 19 13 27c5 20 20 15 27 14 7-2 13 20 13 20l66 2s-3 7 8 10c12 3 88 7 91 2-3-15 42-19 60-5 18 13 43 5 43 5l25 30 17 37 28 8 20 5 7 29 15 2 5 19c18 13-5 42-5 42v37l13 7-2 14 22 22 25 2 63 67 50 15 8 27 13-2 10-8 40-2 20-19 22-3 185-157-17-10v-37c30-22 32-61 3-64-21-3-12-25 8-29l12-5v-15l38-35v-27l-83-69c-37-13 0-94 25-93 25 2-2-125-2-125l-13-7 3-41h-18l-30 39-8 27c-3 35-106 29-111 24s-40-20-40-20-27-22-32-15-28-8-28-3-22-12-22-12l-33-12 25-5-5-20 43 22c5 7 27 5 27 5l7 8s13-2 22 8c8 10 52 2 52 2l12 10 18 7 52 2 2-32 10-10-2-20 12-10v-17l10-3 2-37 8-2v-81l-25-24c-2 8-28 8-28 8s-7 12-12 12 7 15 3 25c-3 10-17 10-17 10l-25 7-7 8h-27l-3-22 30-8 17-8 8-17c2-17 22-15 22-15s38-32 40-47 15-57 38-57h43c17-7 12-29 12-29l22-3 3 12s30 3 33-2 10-17 18-12 35-12 35-12c2-12 43-7 43-7l5-15s-28-39-33-39-32-24-35-15c-27-7-25-44-25-44l-10-24c0-14-25-42-30-39-25-19-7-40 0-42s23-25 23-25l8-24 28-8 3-22-15-2s17-30 25-30 63 0 68-3 15-30 15-35 13-7 18-8c5-2 17-15 20-22 9-17-2-59-9-52zm461 539c-1-3-2-6-5-7-7-3-20 2-26 6l6 8c6-4 15-6 16-5v-1zm43 201-10-1c-1 8 1 18 9 19l2-10s-1-4-1-8zm37-40c3 10 6 20 6 21l9-4s-4-10-6-20zm22-8v-2c0-3-1-7-3-11l-9 5c1 2 1 5 2 7 0 3 1 6 3 8 2 1 4 2 7 1l-2-10c0 1 1 1 2 2zm-85 72c7-4 16-13 15 6s-9 13-15 19-10-19 0-25zm-401 130 1-15 16 2-1 14zm1 33c-2-9-12-12-13-12l-3 10c1 0 2 1 3 2l2 9c-1 1-2 2-2 3l7 7c5-8 7-13 6-19zm-1243 312-10 9-5 4 5 4 12 8 6-8-7-5 5-4zm118 121-4 9 10 5-3 4 7 7 13-13-6-4zm-459-2170 10 10-7 7-10-10zm302 315 10 8-6 8-10-8zm-38 7 2 19h25c10 0-8-12-8-12s-20 2-19-7zm548-470-17-2-1 10 14 1 11 17 8-6-11-18-2-2zm45-354-5 9 13 8 3 2 2-2 19-12-6-8-15 10zm89 48-8-9-7 8 15 15 3-3 17-14-7-8zm-552 351c-1-6 33-7 38-2s2 14 17 14 8 10 7 15c-2 5-18 3-20-2s-27-7-27-7-13-10-15-18zm191-19c26 8 35 2 37-5s3-8 13-10-2-22-12-20-20-3-22-12c-2-8-18-30-20-13s-12 17-10 29c3 11 8 29 14 31zm165-285c-4-15-25 19-3 25 22 7 43 0 43 0l5-10 83 2c7-7 10-17 10-17s20-7 28-3c8 3 2-24-7-20-8 3-25 2-25 2h-30c-2-12-28-7-30 0-1 6-11 8-11 8l-38 3c-4 10-23 17-25 10zm3 83-22-22v-19l-7-7-7-24-22-7-22 8-23 15-25 3-13 15 53 5 10 17 38 3 25 25c23 10 28 0 15-12zm77 162 7-16 9 5-7 15zm497-17c-3-13 33-25 42-15 8 10 32 12 35 62 1 18-30-19-30-19l-25-8c-14-3-21-11-22-20zm-175 44c-5 15-7 35-15 35s-5 22-5 22 22 0 28 2c7 2 7 19 7 19 25-2 35 32 32 41-3 8 10 8 10 8s0 27-3 34 22 12 28 22c7 10-3 44-8 46s13 7 12 15c-2 8 5 0 7 14 2 13 5 42 5 42l23 2c3-22 46-23 53-20 28 10 50 54 50 64s-18 12-18 12l3 49c28 8 52 49 48 56-3 7 20 5 20 5 3-30 32-20 33-10 2 10 7 32 7 32l8 15 12 12 18-2 5 10 22 3s18 20 20 25 27 3 33 5c7 2 17 7 18 15 2 8 12 22 12 22s20 5 22 12 10 22 10 22l17 14 2 15 18 2 5 20 30-2 17-12c22-12 37-27 38-34 2-7 5-32 22-27s5-37 5-37-23-17-22-25c2-8-23-25-22-32 2-7-22-20-20-27s-12-25-12-25l-25-24-3-15-20-2-40-49 2-14-12-2v-19l-12-7-18-2-37-40-3-19h-18l3-35c12-15 5-44 5-44s-23 12-35 7 5-17 5-17v-13l-10-10s-28 3-30-2-7-27-7-27l-2-29-12-5-2-10-18 2v-20l-10-3-10-5-2-20-37-2-12-17-13-20-42-3-10-10-17-3-12-5-5 8-32 2-2 10c-14 7-80 0-82 5zm-306-10c3 5 23 10 23 10 13 0 22 10 22 15s18 3 18 3l2-12-13-17-12-8s-18-2-18-7c0-4-19 11-22 16zm0 57-13-3v15l18 2zm185 186v-13s-2-13-10-13-23-10-20-17-28-14-28-14-28-27-18-24 5-12 5-12-20 3-25 2c-5-2-3-17-3-17s-20-5-20 0 7 5 10 15 2 27 17 30 18 7 20 14 20 8 20 8l13 7zm13 45c-2-7-5-30 5-29 10 2 3 0 15 5s13-8 13-8h18l23 19-3 15-17 2c-8-13-25-8-22 3 3 12-8 34-15 35-7 2-28 2-27-8 3-10 10-34 10-34zm274 230 12-37c-17-3-13-22-13-22-2-15-25-32-33-27s-5-35-5-35 15-10 22-5-57-84-70-76-43-8-42-24c2-15-60-66-60-66s-20-13-23-3-10 17 0 22 8-8 20 3c12 12 33 27 25 37s-18 14-18 14l12 14h18l3 29s20 10 25 22 5 19 0 25c-5 7-15 19-13 30 2 12 15 17 15 17l13 2 10 5v22c13-3 35 15 33 27s3 5 20 17 12 14 23 22c11 7 21 2 26-13zm-382 216c0 5-3 12 7 14s28-7 30 3 2 17 15 22 22 7 32 7 32-3 32-3 24 4 28 8c18 19 30 24 35 15 5-8-2-27-3-34-2-7-25-39-33-32s-10 0-25 5-47 2-48-5c-2-7-25-10-25-17s-17-15-15-5-12 15-15 12c-5-4-15 10-15 10zm-83 18-2 12 18 2s8 7 8 12 12 10 18 10c7 0 25-14 25-14s8-24 2-22c-7 2-20 12-22 2s-22-5-22-5zm-86 19 5-1 3 9-5 2zm6-16 10-2 3 15-9 2zm28 2 1 10 36-1v-10zm324-8 17-2 1 10-17 2zm44 37 5-12 9 4-5 12zm145-169 17-1 1 10-17 1zm28 10h10v8h-10zm30-142-10 1-2-15 10-1zm-10 210h10v12h-10zm22 6 9 4-5 11-9-5zm-49-133c10 0-3 39 23 35 27-3 2 12 22 13 20 2 15-15 22-27s3-19-8-22c-12-3-12-3-15-17-3-13-17-17-17-17l-5-20-22 13-22 29c0 24 12 13 22 13zm65 92c13-7 42-7 40-17s17-13 17-13l5 20 15 10 2 19s5-3-13 2-7 13-7 13l-40 2-5-17zm-215 141c8-2 28-3 32 2 3 5-12 12-12 12l-20 3c-6-8-8-15 0-17zm107-15c9 9-50 7-50 0s5-30 20-25 17-30 17-30-13 2-2-5c12-7 0-17-5-22s-10-14-10-14h23c10-7 13-39 13-39 20 7 30-7 30-7s3 10 10 19c7 8-17 12-8 17 8 5 12 20 8 25-3 5-22 2-22-5s-7 8 0 17c7 8-8 20-12 20-3 0-25 3-7 14 18 10 38 5 38 5s15-2 20 7c5 8-2 10-10 10s-48-3-48-3-10 11-5 16zm194-191c-5-7-10-12-17-15s-12-7-18-7c-7 0-13-7-10-15s-5-12-5-19 5-7 13-2 7 7 13 15c7 8 10 17 17 15s12 15 18 10c7-5 5 12 5 12zm-16 16c5 7 15 12 15 19s-3 12 7 13c10 2 17-2 20 7 3 8 3 22 2 29-2 7 2 17 10 17s10 2 10 7 10-19 10-19c-8-7-15-22-15-22s-8-24-8-27-12-7-17-8c-5-2-13-17-13-17zm108 273-7-15s0-13 3-20-7-13-12-15-3-15-5-22-13-12-13-12-3-25-3-30-15-12-10-17 8-12 13-15-5-27 3-22 8 14 12 20c3 7-2 30 7 35 8 5-2 22 12 22 13 0 5 32 5 32s-3 24 5 25c8 2 3 42 3 42zm5 129 5-10 9 5-5 10zm11-55 10 1-1 14-10-2zm-21-56-13-2-30 5-17 32s8 5 15 17 10 81-10 93 2 5 2 5l-3 37c5 17 13 8 18 0s10-10 17-19c7-8 17-24 18-35 2-12 10-30 5-35s5-29 5-29 7-14 0-27c-7-14 2-29 7-35zm-73-172h-25s8 3-15-19-38 5-38 5l-27 3v27l-13 5 2 17 18-2s0 20 5 12 47 2 43 22c-1 8 42 30 37 57 22 3 17 25 17 25l28 3 8-17 8 2v-10l-18-5-3-54-12-8 3-14-13-5 7-22zm-62 414 10-4-4-8-2-6-5 3-12 7-11-7-5 9 13 8 3 2 2-2 10-5zm44-22 18 3 2-10-18-3zm-34 216c-7-10 33-27 40-7s0 17-7 15c-6-2-23 5-33-8zm-172 325h12v32h-12zm77 309c-3 13-15 20-22 15s8 8 12 15c3 7 13 7 17 0 3-7 2-22 5-29 3-6-10-8-12-1zm37 68 15 7 2 29c20 20 85 3 85-2s-3-62-3-62l-8-8-2-42c7-22-32-54-35-47s-25 2-25 8c0 7-13 40-7 52 7 12-5 12-7 24-2 10-19 30-15 41zm-468-361-5-8-14 8 6 9zm-254 33c-8 8-6 15 0 21m52 20 11-19-9-3-12 8 5 5zm-10-527c7 15 5 37 30 54 8 6-5 17-13 12s-32-42-32-42v-22c5-13 12-8 15-2zm-88 88c4 15 3-24 10-22s2-24 2-24l-30 22c14 2 16 17 18 24zm-90 108c-2 20-27 27-27 27l-18-5-10-8-2-24 15-2 3 10zm-27-204v-24l-3-22-25-12-18 17-3 24v15l-17 3-3 46-13 5 2 17-36 10-3 22-13 8-7 20-8 49s15 29 23 15c8-13 22-15 22-15l5-12 45 2c3-19 25-12 25-3 0 8 17 2 17 2l12-19h18l2-20 8-5v-30c27-8 23-34 23-34l7-8-3-12c-13-5-7-17 2-14 8 3-12-15-12-15-10 8-18-10-18-10zm-76-69-13 3-30 29-2 13-8 12-10 25-35 2-7 30 5 26 30 12 3-17 10-5 2-17 7-12 10-12 3-13 17-10 20-4 8-10 3-20 2-15 7-11 20-8v-32h-10l-2-12-18-2-4 9h-8l-2 13h10l2 11-7 6zm-528 203c0 4-3 7-7 7s-7-3-7-7 3-7 7-7 7 3 7 7zm-1 193c0 4-3 7-7 7s-7-3-7-7 3-7 7-7 7 3 7 7zm-18-28c4 0 7-3 7-7s-3-7-7-7-7 3-7 7 3 7 7 7zm-20 40-14 2v12l14-2zm15-86-12 2-1 13 13 2zm-3-91 1-12-25 17-16-10v40l26 36 10-24 4-15-12-5 2-25zm-10-142-30-3 2 12h8c13 24 2 81 2 81s-20 2-23-8-12 22-5 27 30 0 32 19 15-12 15-12zm670-334h-18l-3-37 10-7v-19h-58l-2-19 8-5-13-5-10 13-3 15-17 3v8h-12v22l-47 39-93-3c-7 15-23-2-23-2-3-10-27 0-27 0 0 19-32-8-32-8l-58-42c-33-30-83 8-85 17 2 24-38 5-38 5s-33-10-38 3-27 10-27 10l-3 7-17 3-3 10-20 3 50-2c13-2-5 29-13 27l-23 2-8 8h-22l-10 14-32-2s-18 15-17 20c2 5-3 20-8 20s-15 15-12 20-10 22-10 22l-3 17-10 3v46l-20 14v20l-30 32 3 27-25 27 3 27-15 5-3 12-7 35 17 2c8-3 7 22 0 25s-25 10-15 17-27 5-27-5-20-19-25-15c-5 3-13-15-13-15-18-19-75 2-75 2l-8 27c-18 3-30 34-30 34-15 5-27 24-22 29s-8 7-8 7v37l-8 12 2 40c10 0 8 19 8 19-17 2-13 24-13 24l-35 12-7 10-43-2-12 12-12-12h-83l-3-8-17-3-2-19-25 2-5 10-27 2c2 17-27 42-30 35s-22-25-13-29c8-3 30-7 30-7v-12l-62-2-7 10-25 2v27l-12 3c-8 5 2 24 2 24 12 12-2 30-2 30-10 10 8 29 8 29 13 3-8 13-8 13 3 17 13 22 13 22-10 17 7 25 7 25l2 29 12 7v19l7 12h27l-2-42c-23-27 20-34 22-24s20 15 20 15c3 25 32 40 40 15s15-10 20 2 37 41 37 41h25l3 24c28-2 37 2 48 40 12 39 43 49 43 49l23-2c0-20 23 3 23 14 0 10 45 49 45 49l45 10 42 34 32-3h13c8-29 48 2 52 12 3 10 30 27 33 19s22-3 25 22 15 20 15 20l95-2 33-29 85-2c43-2 17-61 8-61-15-12 5-61 5-61l-121-113c-28 0-3-41-3-41 22-14-5-35-5-35 3-20-12-44-12-44-30-20-22-59-22-59v-27c-25-24 10-27 10-27 12-20-8-35-8-35l-2-22-27-3-3-79-60-86c-12-3-3-24-3-24 15-8-3-29-3-29l-2-37 35-3 8-13h17l-2-44c8-22 28-10 28-10l23 2 13-25 3-20-18-2c-20-12-10-56-10-56 32-47 68-20 68-20l23-2c35 24 3 67 3 67-7 10-3 42-3 42l8 54-22 19c-18 10-18 34 2 39 13 2 8 34-12 12-30 0 17 27 3 20 30 15 23-13 23-13l40-32c15-12 42 25 42 30s66 2 66 2c18 12 25 42 25 42 18-24 57-2 28 12 27 17 27 32 27 32 22-7 22 10 22 15s7-25 7-25c-25-19 33-25 17 8l-10 15 17 13 2 39c37-3 27-49 27-49l17-3c0-15 12-7 12-7-12-57 27-67 27-67 22-5 23-51 23-51-15-7-7-30 10-10s-10-41-10-41l-13-12-18-2-2-19h-30l-5 24-11 5-3-7-5 19h-30l-2-20 18-5 7-10 5-27h22l28-8c2-29 17-22 17-22l25 20 2 10-10 5-2 14 5 19h13c5-27 40-27 50-10l10-24c-23-12 0-30 6-22 7 8 22-22 22-22s12 15 0-5 8-30 8-30c-3-20 22-17 22-17l2-27-23-2c-5 24-25 3-15-2s20-15 20-15v-17l10-3 2-17h25l22-10 5-8 23-2 33-30-3-13c-20 0 0-15 0-15zm-903 1517-13-20 20 3 21 18 9 22-12 7-7-10-16-5zm-367-506 8 23 12 9 11 25-6 12-19-17-13-19-7-15-11-30zm-100-90h-8v17h13v22h10l-2-25-13-5zm1308-1028 10-2 2 10-10 2zm12-6 3-10 13 4-2 10zm24-10 1-10-11-2-2 10zm17-22h13v10h-13zm85 12 1-10 12 1-2 10zm33 7 1-10-12-2-1 10zm12 1h13v10h-13zm15 17v12l10-1v-12z"/>
</g>
</svg>
