<svg width="58" height="58" viewBox="0 0 58 58" fill="none" xmlns="http://www.w3.org/2000/svg">
<path d="M0 0.999999C0 0.447714 0.447715 0 1 0H13C13.5523 0 14 0.447715 14 1V55.3333C14 55.8856 13.5523 56.3333 13 56.3333H1C0.447716 56.3333 0 55.8856 0 55.3333V0.999999Z" transform="translate(0 0.971985)" fill="#2F81FF"/>
<path d="M0 1C0 0.447715 0.447715 0 1 0H15C15.5523 0 16 0.447715 16 1V35.908C16 36.4603 15.5523 36.908 15 36.908H1C0.447715 36.908 0 36.4603 0 35.908V1Z" transform="translate(42 20.3973)" fill="#2F81FF"/>
<path d="M0 1C0 0.447717 0.447715 0 1 0H37C37.5523 0 38 0.447715 38 1V12.5977C38 13.15 37.5523 13.5977 37 13.5977H1C0.447716 13.5977 0 13.15 0 12.5977V1Z" transform="translate(20 0.971985)" fill="#4D4D4D"/>
<path d="M0 1C0 0.447716 0.447715 0 1 0H15C15.5523 0 16 0.447715 16 1V14.5402C16 15.0925 15.5523 15.5402 15 15.5402H1C0.447715 15.5402 0 15.0925 0 14.5402V1Z" transform="translate(20 41.7651)" fill="#4D4D4D"/>
<path d="M0 1C0 0.447716 0.447715 0 1 0H15C15.5523 0 16 0.447715 16 1V14.5402C16 15.0925 15.5523 15.5402 15 15.5402H1C0.447715 15.5402 0 15.0925 0 14.5402V1Z" transform="translate(20 20.3973)" fill="#2F81FF"/>
</svg>
