<svg id="图层_1" data-name="图层 1" xmlns="http://www.w3.org/2000/svg" viewBox="0 0 226.8 89.6"><defs><style>.cls-1,.cls-2,.cls-3{stroke:#000;stroke-linecap:round;stroke-linejoin:round;stroke-width:1.2px;}.cls-2{fill:#fff;}.cls-3{fill:none;}</style></defs><title>gb-standard-jjf</title><polygon class="cls-1" points="84.3 12.3 75.1 23.9 144.4 23.9 144.4 0.6 133.7 12.3 84.3 12.3"/><polygon class="cls-2" points="75.1 23.9 84.3 12.3 133.7 12.3 144.4 0.6 75.1 0.6 75.1 23.9"/><path class="cls-2" d="M92,73.6c2.6,2.2,6.2,3.4,11.3,3.4,13.4,0,19.1-7.3,19.1-22.2V13.5L110.7,23.7V62s-1,4.6-5.5,4.6a7.5,7.5,0,0,1-3.9-1h0Z" transform="translate(0)"/><path class="cls-1" d="M86.8,57c0,7.1,1.2,13,5.2,16.6l9.3-8h0c-1.9-1.1-2.8-3.3-2.8-6.2V44L86.8,51.7Z" transform="translate(0)"/><path class="cls-1" d="M110.7,12.3V23.7l11.7-10.2V54.8c0,14.9-5.7,22.2-19.1,22.2-5.1,0-8.7-1.2-11.3-3.4l-7.9,6.8c5,4.5,12,7.4,20.8,7.4,19,0,29.1-14.2,29.1-25.8V12.3Z" transform="translate(0)"/><path class="cls-2" d="M86.8,57V51.7L98.5,44H75.1V59.4a28.7,28.7,0,0,0,9,21L92,73.6C88,70,86.8,64.1,86.8,57Z" transform="translate(0)"/><polyline class="cls-3" points="88.4 53.6 86.8 51.7 75.1 44"/><line class="cls-3" x1="84.3" y1="12.3" x2="75.1" y2="0.6"/><polygon class="cls-1" points="9.8 12.3 0.6 23.9 69.9 23.9 69.9 0.6 59.1 12.3 9.8 12.3"/><polygon class="cls-2" points="0.6 23.9 9.8 12.3 59.1 12.3 69.9 0.6 0.6 0.6 0.6 23.9"/><path class="cls-2" d="M17.5,73.6C20,75.8,23.7,77,28.8,77c13.4,0,19-7.3,19-22.2V13.5L36.2,23.7V62s-1.1,4.6-5.5,4.6a8.2,8.2,0,0,1-4-1h0Z" transform="translate(0)"/><path class="cls-1" d="M12.3,57c0,7.1,1.2,13,5.2,16.6l9.2-8h0c-1.8-1.1-2.8-3.3-2.8-6.2V44L12.3,51.7Z" transform="translate(0)"/><path class="cls-1" d="M36.2,12.3V23.7L47.8,13.5V54.8c0,14.9-5.6,22.2-19,22.2-5.1,0-8.8-1.2-11.3-3.4L9.6,80.4c5,4.5,12,7.4,20.7,7.4,19,0,29.2-14.2,29.2-25.8V12.3Z" transform="translate(0)"/><path class="cls-2" d="M12.3,57V51.7L23.9,44H.6V59.4a28.4,28.4,0,0,0,9,21l7.9-6.8C13.5,70,12.3,64.1,12.3,57Z" transform="translate(0)"/><polyline class="cls-3" points="13.9 53.6 12.3 51.7 0.6 44"/><line class="cls-3" x1="9.8" y1="12.3" x2="0.6" y2="0.6"/><polygon class="cls-1" points="226.2 0.6 173.4 0.6 152.4 0.6 149.1 0.6 149.1 89 173.4 89 173.4 24.9 226.2 24.9 226.2 0.6"/><rect class="cls-1" x="161.3" y="36.6" width="64.9" height="24.33"/><polygon class="cls-2" points="162.1 48.8 216.1 48.8 226.2 36.6 173.4 36.6 162.1 48.8"/><polygon class="cls-2" points="152.4 0.6 149.1 0.6 149.1 89 161.3 79.1 161.3 12.3 216.8 12.3 226.2 0.6 173.4 0.6 152.4 0.6"/><line class="cls-3" x1="161.3" y1="12.3" x2="149.1" y2="0.6"/></svg>