<svg id="图层_1" data-name="图层 1" xmlns="http://www.w3.org/2000/svg" viewBox="0 0 187.2 95.1"><title>gb-standard-gm</title><polygon points="160 0 141.8 32.9 123.6 0 96.3 0 96.3 11.3 96.3 95.1 123.6 95.1 123.6 60.7 125 63.3 141.8 93.6 158.5 63.3 160 60.7 160 95.1 187.2 95.1 187.2 11.3 187.2 0 160 0"/><path d="M81.3,0H9.9A10,10,0,0,0,0,9.9V85.2a9.9,9.9,0,0,0,9.9,9.9h43a9.9,9.9,0,0,0,6.8-2.7v2.7H91.2V43.2H48.8v9.5H59.7V78.9A5.7,5.7,0,0,1,54,84.5H37.2a5.7,5.7,0,0,1-5.7-5.6V16.3a5.8,5.8,0,0,1,5.7-5.7H54a5.8,5.8,0,0,1,5.7,5.7V31.2H91.2V9.9A10,10,0,0,0,81.3,0Z"/></svg>