<?xml version="1.0" encoding="UTF-8"?><svg id="uuid-db8c372e-944d-4df9-b8b0-4a61cf77f2ce" xmlns="http://www.w3.org/2000/svg" width="52mm" height="52mm" xmlns:xlink="http://www.w3.org/1999/xlink" viewBox="0 0 147.4 147.4"><defs><clipPath id="uuid-81f828fd-72f4-4a48-8d84-2e4c05ab6663"><path d="m145.28,119.33c-8.79,0-13.28,5.51-17.24,10.36-3.96,4.85-7.25,8.89-14.14,8.89-2.95.06-5.84-.87-8.19-2.65-1.38-12.25-2.77-24.51-4.15-36.76l-3.2-28.22v-.09c0-.07,0-.14,0-.21,0-.06-.02-.12-.05-.17-.03-.07-.06-.14-.09-.21l-.12-.11-.15-.21-.07-.09-.21-.2-.07-.06-.24-.16h-.09l-.25-.1h-1.76v-37.22c0-.06,0-.13,0-.19-.04-.36-.18-.71-.4-1l-19.61-25.43c-.74-.87-2.05-.97-2.92-.23-.08.07-.16.15-.23.23l-19.59,25.39c-.22.29-.36.64-.4,1v37.29h-1.53l-.27.11h-.06l-.27.17h-.05c-.08.07-.15.14-.22.21l-.06.07c-.06.07-.11.14-.16.22l-.07.12c-.04.07-.07.15-.1.22,0,.05-.03.11-.05.16,0,.07,0,.14,0,.21v.09l-3.2,28.2-4.11,36c-1.79-1.66-3.44-3.47-4.92-5.41-4-4.85-8.45-10.36-17.24-10.36s-13.35,5.65-17.31,10.51c-.65.79-1.29,1.58-2,2.35-.63.91-.41,2.15.5,2.78.77.54,1.81.46,2.5-.17.69-.8,1.36-1.62,2-2.43,3.89-4.77,7.25-8.89,14.14-8.89s10.25,4.11,14.14,8.89c3.89,4.78,8.55,10.36,17.33,10.36s13.28-5.51,17.24-10.36c2.85-3.49,5.34-6.56,9.09-8.01,2.26-.87,4.25-.89,5.05-.88,3.9.03,6.69,1.7,7.8,2.38,2.37,1.45,2.83,2.25,6.35,6.54,3.11,3.8,6.22,7.54,11.14,9.33,1.78.65,3.8,1.03,6.11,1.03,8.8,0,13.28-5.51,17.24-10.36,3.96-4.85,7.25-8.89,14.14-8.89,1.1,0,2-.9,2-2s-.9-2-2-2l.02-.04Zm-50.72-46.03l2.75,24.11h-6.14l-7-12.11,6.95-12h3.44Zm-27.87,10.01l-5.79-10.01h25.58l-5.79,10.01h-14Zm7-73.32l15.5,20.16h-31l15.5-20.16Zm-17.59,24.12h35.16v35.1h-35.16v-35.1Zm-6.34,67.3h6.46l7,12.11-7,12.11h-9.22l2.76-24.22Zm1.34,37.2c-1.88.02-3.74-.35-5.47-1.08l.9-7.88h9.71l3.45,6c-2.42,1.98-5.47,3.03-8.59,2.96m31.4-19.26c-8.8,0-13.28,5.5-17.24,10.35-.87,1.06-1.71,2.06-2.57,3.06l-3-5.12,7-12.11h14.17l2.24,3.84c-.19.01-.37-.03-.58-.03h-.02Zm62.78,0-63.71-61.88c1.1.05,1.96.99,1.9,2.1-.05,1.11-.99,1.96-2.1,1.9h-15.43c-1.11,0-2-.9-2-2s.89-2,2-2h15.62m0-8.01c1.1.05,1.96.99,1.9,2.1-.05,1.11-.99,1.96-2.1,1.9h-15.43c-1.11,0-2-.89-2-2s.89-2,2-2h15.62m0-8c1.1.05,1.96.99,1.9,2.1-.05,1.11-.99,1.96-2.1,1.9h-15.6c-1.11-.05-1.96-.98-1.92-2.08.05-1.1.98-1.96,2.08-1.92h15.62m27.53,15.31s0,0,0,0c.66-.89,1.91-1.07,2.8-.42l20,16.09c.78.69.91,1.86.29,2.69-.66.89-1.91,1.07-2.8.42l-20-16.09c-.78-.68-.91-1.85-.29-2.69m1.54-14.57c-.61,0-1.18-.28-1.56-.75-.69-.86-.55-2.12.31-2.81l20-16.07c.84-.62,2.01-.49,2.69.29.73.83.65,2.09-.18,2.82l-20,16.09c-.36.27-.81.41-1.26.39h0v.04Zm2.32,6.81c0-1.1.9-2,2-2h26.66c1.1.05,1.96.99,1.9,2.1-.05,1.1-.99,1.96-2.1,1.9h-26.47c-1.1,0-2-.9-2-2m-77.5,7.28c.86-.69,2.13-.55,2.82.31.69.86.56,2.13-.31,2.82l-19.97,16.09c-.86.7-2.12.57-2.83-.28-.7-.86-.57-2.12.28-2.83l20-16.11h0M15.36,25.5c-.83-.74-.91-2-.17-2.83.73-.83,2-.9,2.83-.17l19.98,16.11c.78.69.91,1.86.29,2.69-.66.89-1.91,1.07-2.8.42L15.49,25.62h0l-.13-.12Zm-9.63,25.5c-1.1-.05-1.96-.98-1.91-2.08.05-1.1.98-1.96,2.08-1.92h26.47c1.11,0,2,.9,2,2s-.89,2-2,2H5.73" style="fill:none; stroke-width:0px;"/></clipPath><radialGradient id="uuid-3f814705-4d4c-4032-88ea-8f4480020c22" cx="73.7" cy="73.7" fx="73.7" fy="-49.12" r="203.08" gradientTransform="translate(.15 46.9) rotate(.33) scale(1 .36)" gradientUnits="userSpaceOnUse"><stop offset=".01" stop-color="#7c60e6"/><stop offset=".09" stop-color="#725edb"/><stop offset=".32" stop-color="#575abe"/><stop offset=".55" stop-color="#4458a9"/><stop offset=".78" stop-color="#38569d"/><stop offset="1" stop-color="#355699"/></radialGradient></defs><g style="clip-path:url(#uuid-81f828fd-72f4-4a48-8d84-2e4c05ab6663);"><rect x=".15" y=".15" width="147.1" height="147.1" style="fill:url(#uuid-3f814705-4d4c-4032-88ea-8f4480020c22); stroke-width:0px;"/></g></svg>