<?xml version="1.0" encoding="utf-8"?>
<!-- Generator: Adobe Illustrator 21.0.0, SVG Export Plug-In . SVG Version: 6.00 Build 0)  -->
<svg version="1.1" id="Layer_1" xmlns="http://www.w3.org/2000/svg" xmlns:xlink="http://www.w3.org/1999/xlink" x="0px" y="0px"
	 viewBox="0 0 49 49" style="enable-background:new 0 0 49 49;" xml:space="preserve">
<style type="text/css">
	.st0{fill:#6211C7;}
</style>
<path class="st0" d="M9.5,18.3c0.8,2.8,2.2,5.5,4.5,7.7c2.2,2.2,4.9,3.7,7.7,4.4l-9.2,9.2c-0.2,0.2-0.4,0.2-0.7,0.2
	c-0.1,0-0.3-0.1-0.4-0.2c-0.1-0.1-0.1-0.2-0.2-0.3l-2.9-7.8l-7.8-2.9c-0.2-0.1-0.4-0.3-0.4-0.5c-0.1-0.2,0-0.5,0.2-0.7L9.5,18.3z
	 M27.3,30.4c2.8-0.8,5.5-2.2,7.7-4.4c2.2-2.2,3.7-4.9,4.4-7.7l9.2,9.2c0.2,0.2,0.2,0.4,0.2,0.7c0,0.1-0.1,0.3-0.2,0.4
	c-0.1,0.1-0.2,0.1-0.3,0.2l-7.8,2.9l-2.9,7.8c-0.1,0.2-0.3,0.4-0.5,0.4c-0.2,0.1-0.5,0-0.7-0.2L27.3,30.4z"/>
<path class="st0" d="M16,6.9c4.7-4.7,12.3-4.7,17,0c4.7,4.7,4.7,12.3,0,17c-4.7,4.7-12.3,4.7-17,0C11.3,19.3,11.3,11.6,16,6.9z
	 M21.5,12.4c-1.7,1.7-1.7,4.4,0,6c1.7,1.7,4.4,1.7,6,0c1.7-1.7,1.7-4.4,0-6C25.8,10.8,23.2,10.8,21.5,12.4z"/>
<path class="st0" d="M9.5,18.3c0.8,2.8,2.2,5.5,4.5,7.7c2.2,2.2,4.9,3.7,7.7,4.4l-9.2,9.2c-0.2,0.2-0.4,0.2-0.7,0.2
	c-0.1,0-0.3-0.1-0.4-0.2c-0.1-0.1-0.1-0.2-0.2-0.3l-2.9-7.8l-7.8-2.9c-0.2-0.1-0.4-0.3-0.4-0.5c-0.1-0.2,0-0.5,0.2-0.7L9.5,18.3z
	 M27.3,30.4c2.8-0.8,5.5-2.2,7.7-4.4c2.2-2.2,3.7-4.9,4.4-7.7l9.2,9.2c0.2,0.2,0.2,0.4,0.2,0.7c0,0.1-0.1,0.3-0.2,0.4
	c-0.1,0.1-0.2,0.1-0.3,0.2l-7.8,2.9l-2.9,7.8c-0.1,0.2-0.3,0.4-0.5,0.4c-0.2,0.1-0.5,0-0.7-0.2L27.3,30.4z"/>
<path class="st0" d="M16,6.9c4.7-4.7,12.3-4.7,17,0c4.7,4.7,4.7,12.3,0,17c-4.7,4.7-12.3,4.7-17,0C11.3,19.3,11.3,11.6,16,6.9z
	 M21.5,12.4c-1.7,1.7-1.7,4.4,0,6c1.7,1.7,4.4,1.7,6,0c1.7-1.7,1.7-4.4,0-6C25.8,10.8,23.2,10.8,21.5,12.4z"/>
</svg>
