<svg id="图层_1" data-name="图层 1" xmlns="http://www.w3.org/2000/svg" viewBox="0 0 232.2 88.4"><defs><style>.cls-1{fill:#fff;}.cls-1,.cls-2,.cls-3{stroke:#000;stroke-linecap:round;stroke-linejoin:round;}.cls-3{fill:none;}</style></defs><title>gb-standard-gjb</title><path class="cls-1" d="M209.1,27.6c0,4.2-3.3,6.4-6.7,6.4H168.5l-9,10.2h41.7c10.6,0,17.2-6.9,18-14.9.5-4.9-.7-10.7-4.6-14.4l-7.2,8.3A5.9,5.9,0,0,1,209.1,27.6Z"/><path class="cls-1" d="M157.7,77.6V11h46.1a15.4,15.4,0,0,1,10.8,3.9l7-8.1C217.3,3.1,211.2.5,202.4.5H147.5V87.9l10.3-10.3Z"/><path class="cls-1" d="M220.4,61.3c0-9-5.3-12.1-5.3-12.1a70.7,70.7,0,0,1-7.2,7.2,4.5,4.5,0,0,1,1.7,3.7c0,2.5-.5,6.8-9.3,6.8H168.5L157.8,77.6h38.4C210.9,77.6,220.4,72.3,220.4,61.3Z"/><path class="cls-2" d="M225.4,42.9s6.2-8.8,5.2-17.8c-.6-5.4-2.8-13-9-18.3l-7,8.1c3.9,3.7,5.1,9.5,4.6,14.4-.8,8-7.4,14.9-18,14.9H159.5l9-10.2V21.6h33.9a7.5,7.5,0,0,1,5,1.6l7.2-8.3A15.4,15.4,0,0,0,203.8,11H157.7V77.6h.1l10.7-10.7V55h33.9a9.1,9.1,0,0,1,5.5,1.4,70.7,70.7,0,0,0,7.2-7.2s5.3,3.1,5.3,12.1c0,11-9.5,16.3-24.2,16.3H157.8L147.5,87.9h54.9c15.6,0,26.5-10.3,28.3-19.3S232.1,50.6,225.4,42.9Z"/><line class="cls-3" x1="157.7" y1="11" x2="147.5" y2="0.5"/><path class="cls-2" d="M121.4,87.9c10.3,0,20.3-12.1,20.3-24.5V.5h-21V57.6c0,3.9,0,9.3-7.3,9.3H87.7v21h33.7Z"/><path class="cls-1" d="M120.7,57.6c0,3.9,0,9.3-7.3,9.3H87.7v21L98.8,77.4h19.3c8.3,0,13.3-6,13.3-19V11L141.7.5h-21Z"/><line class="cls-3" x1="131.4" y1="11" x2="120.7" y2="0.5"/><line class="cls-3" x1="98.8" y1="77.4" x2="87.7" y2="66.9"/><polygon class="cls-2" points="51.4 45.1 41.5 56.5 62.2 56.5 72.5 45.1 51.4 45.1"/><path class="cls-2" d="M39.3,12c-6.6,0-26.5,7-27.2,28.7-.4,12.1,3.2,21.4,8.5,27.4l8.2-7.3c-3.9-3.7-7-9.3-7-17.5,0-16.2,15.9-20.6,21.9-20.6H83.3L72.6,12Z"/><path class="cls-1" d="M37.6,76.7h35V45.1L62.2,56.5V66.9H43.7a23.8,23.8,0,0,1-14.9-6.1l-8.2,7.3C25.6,73.8,31.9,76.7,37.6,76.7Z"/><polygon class="cls-1" points="41.5 34.3 41.5 56.5 51.4 45.1 72.5 45.1 83.3 34.3 62.2 34.3 41.5 34.3"/><path class="cls-2" d="M72.6,76.7h-35c-5.7,0-12-2.9-17-8.6l-7.7,7.1c7,7.7,17.1,12.7,30.8,12.7H83.3V34.3L72.6,45.1Z"/><path class="cls-1" d="M12.1,40.7C12.8,19,32.7,12,39.3,12H72.6L83.3,22.7V.5H43.7C25.9.5.5,16.6.5,40c0,12.8,3.9,25.9,12.4,35.2l7.7-7.1C15.3,62.1,11.7,52.8,12.1,40.7Z"/><line class="cls-3" x1="41.5" y1="34.3" x2="51.4" y2="45.1"/><line class="cls-3" x1="62.2" y1="66.9" x2="72.6" y2="76.7"/><line class="cls-3" x1="72.6" y1="12" x2="83.3" y2="0.5"/></svg>