<svg id="图层_1" data-name="图层 1" xmlns="http://www.w3.org/2000/svg" viewBox="0 0 232.1 117"><defs><style>.cls-1{fill:#fff;}.cls-1,.cls-2,.cls-3{stroke:#000;stroke-linecap:round;stroke-linejoin:round;stroke-width:1.32px;}.cls-3{fill:none;}</style></defs><title>gb-standard-gb</title><path class="cls-1" d="M201.6,36.5c0,5.6-4.3,8.4-8.8,8.4H147.9L136,58.5h55.2c14,0,22.7-9.1,23.7-19.8.7-6.5-.9-14.1-6-19l-9.6,11A7.6,7.6,0,0,1,201.6,36.5Z"/><path class="cls-1" d="M133.6,102.7V14.6h61c6.4,0,11,2,14.3,5.1L218.1,9C212.5,4.1,204.4.7,192.8.7H120.1V116.3l13.6-13.6Z"/><path class="cls-1" d="M216.6,81.1c0-11.9-7.1-16-7.1-16a82,82,0,0,1-9.5,9.5,6.1,6.1,0,0,1,2.3,5c0,3.3-.7,8.9-12.3,8.9H147.9l-14.2,14.2h50.8C203.9,102.7,216.6,95.7,216.6,81.1Z"/><path class="cls-2" d="M223.1,56.7s8.3-11.6,7-23.5c-.8-7.1-3.8-17.2-12-24.2l-9.2,10.7c5.1,4.9,6.7,12.5,6,19-1,10.7-9.7,19.8-23.7,19.8H136l11.9-13.6V28.6h44.9a9.4,9.4,0,0,1,6.5,2.1l9.6-11c-3.3-3.1-7.9-5.1-14.3-5.1h-61v88.1h.1l14.2-14.2V72.8h44.9c3.5,0,5.8.7,7.2,1.8a82,82,0,0,0,9.5-9.5s7.1,4.1,7.1,16c0,14.6-12.7,21.6-32.1,21.6H133.7l-13.6,13.6h72.7c20.6,0,35-13.6,37.4-25.5S232.1,67,223.1,56.7Z"/><line class="cls-3" x1="133.6" y1="14.6" x2="120.1" y2="0.7"/><polygon class="cls-2" points="70.9 59.6 57.8 74.7 85.1 74.7 98.8 59.6 70.9 59.6"/><path class="cls-2" d="M52,15.9c-8.8,0-35,9.3-36,38-.6,16,4.3,28.2,11.3,36.3l10.8-9.8c-5.2-4.8-9.2-12.2-9.2-23.1,0-21.4,21-27.3,28.9-27.3H113L98.8,15.9Z"/><path class="cls-1" d="M49.8,101.6h49v-42L85.1,74.7V88.5H57.8a31,31,0,0,1-19.7-8.1L27.3,90.2C33.8,97.6,42.2,101.6,49.8,101.6Z"/><polygon class="cls-1" points="57.8 45.4 57.8 74.7 70.9 59.6 98.8 59.6 113 45.4 85.1 45.4 57.8 45.4"/><path class="cls-2" d="M98.8,101.6h-49c-7.6,0-16-4-22.5-11.4L17,99.5c9.3,10.1,22.7,16.8,40.8,16.8H113V45.4L98.8,59.6Z"/><path class="cls-1" d="M16,53.9c1-28.7,27.2-38,36-38H98.8L113,30V.7H57.8C34.2.7.7,22,.7,52.9.7,69.8,5.8,87.2,17,99.5l10.3-9.3C20.3,82.1,15.4,69.9,16,53.9Z"/><line class="cls-3" x1="57.8" y1="45.4" x2="70.9" y2="59.6"/><line class="cls-3" x1="85.1" y1="88.5" x2="98.8" y2="101.6"/><line class="cls-3" x1="98.8" y1="15.9" x2="113" y2="0.7"/></svg>